<svg width="188" height="189" viewBox="0 0 188 189" fill="none" xmlns="http://www.w3.org/2000/svg">
<path fill-rule="evenodd" clip-rule="evenodd" d="M51.2539 177.673L51.2651 99.8833L75.6301 99.806C77.6487 97.4878 80.7719 91.9404 81.8594 88.6609C76.5672 88.8001 54.7386 89.7684 51.8466 88.1278C50.203 85.4015 50.88 58.831 51.2999 53.494L91.2955 53.3377L96.7776 42.4384L40.2414 42.1477L40.0338 156.054C34.5877 153.036 26.183 142.25 22.4041 135.651C5.72906 106.527 8.18821 73.163 25.9849 47.0111C36.2673 31.9025 52.5902 20.2136 70.7124 14.8052C137.824 -5.22234 197.219 64.6291 170.097 125.947C157.863 153.607 134.536 171.874 104.966 176.292C96.0233 177.628 78.0144 177.228 70.9961 173.22L70.8197 108.532L59.8509 108.253L59.6504 181.687C68.4933 186.547 86.7806 188.969 98.7555 188.413C111.771 187.809 125.448 183.678 135.572 178.676C155.149 169.003 171.55 151.8 180.54 130.809C200.69 83.7609 178.419 28.7598 133.001 8.46692C85.0781 -12.9441 30.9474 7.77461 8.82629 53.4716C-6.93877 86.0384 -1.57524 132.763 24.8402 158.294C29.7609 163.05 42.9565 176.331 51.2539 177.673Z" fill="#F49542"/>
<path fill-rule="evenodd" clip-rule="evenodd" d="M101.289 53.7342C108.03 53.9212 118.528 55.1826 124.781 57.2625C131.642 59.5448 138.159 64.2366 141.969 69.6691C146.363 75.9343 149.114 83.5983 149.446 91.743C150.413 115.422 134.859 132.825 111.612 132.609L107.155 132.574L107.105 101.505C105.822 102.049 100.01 109.661 99.0678 111.073C98.642 111.709 98.2517 112.264 97.8188 112.836C97.2362 113.603 97.0645 113.759 97.0386 115.065C96.857 124.052 97.0634 133.553 97.048 142.658C100.864 142.967 105.946 142.706 109.856 142.702C114.231 142.697 117.62 142.535 121.744 141.78C132.778 139.766 139.72 135.43 146.743 128.387C163.206 111.881 163.628 79.7445 148.972 62.1702C145.384 57.8688 140.702 53.4211 134.914 50.6405C129.189 47.8895 115.473 43.4943 108.768 43.7874C107.115 46.072 102.349 51.5676 101.289 53.7342Z" fill="#F49542"/>
<path fill-rule="evenodd" clip-rule="evenodd" d="M126.355 76.3038L126.447 76.4376C125.269 76.0755 125.208 75.1815 124.71 74.0947C124.277 73.1487 123.75 72.5313 123.242 71.8307C122.321 70.561 120.812 69.3898 119.004 68.599C114.393 66.5828 111.294 66.7579 105.996 67.7009C98.0385 69.1168 94.0431 70.5132 85.9562 68.5601C83.7937 68.0376 81.952 66.8688 80.3562 66.5332C80.9229 68.7924 84.325 72.2188 87.2719 73.4607C98.8835 78.353 109.943 69.2218 117.309 74.0333C118.675 74.9256 120.206 76.5845 120.151 78.481L110.805 82.7134C105.29 85.3512 99.0599 89.9959 94.7938 94.2714C86.8738 102.209 82.5836 108.287 78.3907 119.003C77.065 122.392 75.9799 125.534 75.1283 129.539C74.6536 131.77 73.2483 139.616 73.6039 141.687C74.8824 142.438 80.8587 142.259 82.3554 141.77C82.9834 138.934 83.1657 134.312 84.2938 129.506C85.1725 125.759 86.5218 121.709 87.9896 118.622C92.291 109.572 93.1337 107.979 99.3182 101.044C106.15 93.3833 115.7 86.2848 125.893 84.2308C133.159 82.7665 132.487 83.2642 138.608 84.3764C138.419 82.0205 136.055 79.7571 134.36 78.8531C130.711 76.9082 129.123 77.3458 127.385 77.0597C125.635 76.772 126.532 77.1453 126.355 76.3038Z" fill="#F49542"/>
<path fill-rule="evenodd" clip-rule="evenodd" d="M116.047 76.1792C113.464 78.0451 111.553 79.2776 109.28 77.4005C109.58 76.5236 111.289 75.4822 112.343 75.4521C113.331 75.4238 115.121 75.4196 116.047 76.1792Z" fill="#F49542"/>
</svg>
