<svg width="28" height="28" viewBox="0 0 28 28" fill="none" xmlns="http://www.w3.org/2000/svg">
<path d="M27.931 13.9655C27.931 15.1572 26.467 16.1395 26.1737 17.2381C25.8711 18.374 26.6369 19.9567 26.062 20.9506C25.4778 21.9608 23.7204 22.0818 22.9011 22.9011C22.0818 23.7204 21.9608 25.4778 20.9506 26.062C19.9567 26.6369 18.374 25.8711 17.2381 26.1737C16.1395 26.467 15.1572 27.931 13.9655 27.931C12.7738 27.931 11.7916 26.467 10.6929 26.1737C9.55707 25.8711 7.97431 26.6369 6.98043 26.062C5.97026 25.4778 5.84922 23.7204 5.02991 22.9011C4.2106 22.0818 2.45328 21.9608 1.86905 20.9506C1.29414 19.9567 2.05991 18.374 1.75733 17.2381C1.46405 16.1395 0 15.1572 0 13.9655C0 12.7738 1.46405 11.7916 1.75733 10.6929C2.05991 9.55707 1.29414 7.97431 1.86905 6.98043C2.45328 5.97026 4.2106 5.84922 5.02991 5.02991C5.84922 4.2106 5.97026 2.45328 6.98043 1.86905C7.97431 1.29414 9.55707 2.05991 10.6929 1.75733C11.7916 1.46405 12.7738 0 13.9655 0C15.1572 0 16.1395 1.46405 17.2381 1.75733C18.374 2.05991 19.9567 1.29414 20.9506 1.86905C21.9608 2.45328 22.0818 4.2106 22.9011 5.02991C23.7204 5.84922 25.4778 5.97026 26.062 6.98043C26.6369 7.97431 25.8711 9.55707 26.1737 10.6929C26.467 11.7916 27.931 12.7738 27.931 13.9655Z" fill="white"/>
<path d="M18.0017 9.80411L12.6855 15.1203L9.92959 12.3668C9.3314 11.7686 8.3608 11.7686 7.76261 12.3668C7.16442 12.965 7.16442 13.9356 7.76261 14.5338L11.6287 18.3999C12.2106 18.9818 13.1556 18.9818 13.7375 18.3999L20.1663 11.9711C20.7645 11.3729 20.7645 10.4023 20.1663 9.80411C19.5681 9.20592 18.5998 9.20592 18.0017 9.80411Z" fill="#F3A561"/>
</svg>
