<svg width="24" height="24" viewBox="0 0 24 24" fill="none" xmlns="http://www.w3.org/2000/svg">
<path d="M21.4427 16.8354C20.7864 12.8866 17.2762 8.72713 15.5 7H9.5C7.72378 8.72713 4.21361 12.8866 3.55727 16.8354C3.06893 19.7734 5.77927 22 8.80832 22H16.1917C19.2207 22 21.9311 19.7734 21.4427 16.8354Z" stroke="#141B34" stroke-width="1.5" stroke-linecap="round" stroke-linejoin="round"/>
<path d="M17.5 3.5L18.1512 3.8721C18.2949 3.62066 18.2809 3.30897 18.1154 3.07133C17.9499 2.8337 17.6624 2.71259 17.3767 2.7602L17.5 3.5ZM14.5 4L13.9697 4.53033L14.2426 4.80325L14.6233 4.7398L14.5 4ZM12.5 2L13.0303 1.46967C12.7374 1.17678 12.2626 1.17678 11.9697 1.46967L12.5 2ZM7.5 3.5L7.6233 2.7602C7.33764 2.71259 7.0501 2.8337 6.88458 3.07133C6.71906 3.30897 6.70514 3.62066 6.84882 3.8721L7.5 3.5ZM10.5 4L10.3767 4.7398L10.7574 4.80325L11.0303 4.53033L10.5 4ZM17.5 3.5L16.8488 3.1279L14.8488 6.6279L15.5 7L16.1512 7.3721L18.1512 3.8721L17.5 3.5ZM17.5 3.5L17.3767 2.7602L14.3767 3.2602L14.5 4L14.6233 4.7398L17.6233 4.2398L17.5 3.5ZM14.5 4L15.0303 3.46967L13.0303 1.46967L12.5 2L11.9697 2.53033L13.9697 4.53033L14.5 4ZM7.5 3.5L6.84882 3.8721L8.84882 7.3721L9.5 7L10.1512 6.6279L8.15118 3.1279L7.5 3.5ZM7.5 3.5L7.3767 4.2398L10.3767 4.7398L10.5 4L10.6233 3.2602L7.6233 2.7602L7.5 3.5ZM10.5 4L11.0303 4.53033L13.0303 2.53033L12.5 2L11.9697 1.46967L9.96967 3.46967L10.5 4Z" fill="#141B34"/>
<path d="M12.5 11.5C11.3954 11.5 10.5 12.1716 10.5 13C10.5 13.8284 11.3954 14.5 12.5 14.5C13.6046 14.5 14.5 15.1716 14.5 16C14.5 16.8284 13.6046 17.5 12.5 17.5M12.5 11.5C13.3708 11.5 14.1116 11.9174 14.3862 12.5M12.5 11.5V10M12.5 17.5C11.6292 17.5 10.8884 17.0826 10.6138 16.5M12.5 17.5V19" stroke="#141B34" stroke-width="1.5" stroke-linejoin="round"/>
</svg>
