<svg width="24" height="24" viewBox="0 0 24 24" fill="none" xmlns="http://www.w3.org/2000/svg">
<path d="M14.9477 16.5032C14.5482 16.394 14.1357 16.6294 14.0265 17.0289C13.9173 17.4285 14.1527 17.8409 14.5523 17.9501L14.75 17.2267L14.9477 16.5032ZM16.25 18.5L15.5792 18.8354C15.7095 19.096 15.9788 19.2575 16.27 19.2497C16.5612 19.242 16.8215 19.0663 16.9377 18.7992L16.25 18.5ZM18.9997 16.207C19.3902 16.0687 19.5946 15.6401 19.4563 15.2496C19.318 14.8592 18.8894 14.6547 18.4989 14.793L18.7493 15.5L18.9997 16.207ZM21.75 17H21C21 19.3472 19.0972 21.25 16.75 21.25V22V22.75C19.9256 22.75 22.5 20.1756 22.5 17H21.75ZM16.75 22V21.25C14.4028 21.25 12.5 19.3472 12.5 17H11.75H11C11 20.1756 13.5744 22.75 16.75 22.75V22ZM11.75 17H12.5C12.5 14.6528 14.4028 12.75 16.75 12.75V12V11.25C13.5744 11.25 11 13.8244 11 17H11.75ZM16.75 12V12.75C19.0972 12.75 21 14.6528 21 17H21.75H22.5C22.5 13.8244 19.9256 11.25 16.75 11.25V12ZM14.75 17.2267C14.5523 17.9501 14.552 17.9501 14.5517 17.95C14.5516 17.95 14.5513 17.9499 14.5512 17.9498C14.5508 17.9497 14.5505 17.9497 14.5502 17.9496C14.5495 17.9494 14.5489 17.9492 14.5484 17.9491C14.5473 17.9488 14.5465 17.9485 14.5459 17.9484C14.5447 17.948 14.5443 17.9479 14.5448 17.948C14.5457 17.9483 14.5499 17.9496 14.5571 17.952C14.5714 17.9568 14.5972 17.9658 14.6318 17.9799C14.7016 18.0082 14.8035 18.0554 14.9179 18.1261C15.1485 18.2688 15.4081 18.4933 15.5792 18.8354L16.25 18.5L16.9208 18.1646C16.5919 17.5067 16.1015 17.0946 15.7071 16.8505C15.509 16.728 15.3296 16.6443 15.1963 16.5901C15.1293 16.5629 15.0731 16.5428 15.0308 16.5288C15.0096 16.5217 14.9919 16.5162 14.9779 16.5119C14.971 16.5098 14.9649 16.5081 14.9599 16.5066C14.9573 16.5059 14.9551 16.5053 14.953 16.5047C14.952 16.5044 14.9511 16.5041 14.9502 16.5039C14.9498 16.5038 14.9493 16.5037 14.9489 16.5035C14.9487 16.5035 14.9484 16.5034 14.9483 16.5034C14.948 16.5033 14.9477 16.5032 14.75 17.2267ZM16.25 18.5C16.9377 18.7992 16.9377 18.7993 16.9376 18.7994C16.9376 18.7995 16.9376 18.7996 16.9376 18.7996C16.9375 18.7997 16.9375 18.7998 16.9375 18.7998C16.9374 18.7999 16.9375 18.7998 16.9376 18.7996C16.9378 18.7991 16.9382 18.798 16.939 18.7964C16.9404 18.7932 16.9428 18.7877 16.9463 18.7801C16.9532 18.7648 16.964 18.741 16.9786 18.7099C17.0078 18.6475 17.052 18.5558 17.1096 18.4434C17.2252 18.2175 17.3923 17.9133 17.5985 17.5972C17.8061 17.2789 18.0436 16.9635 18.2972 16.7063C18.5559 16.444 18.7951 16.2795 18.9997 16.207L18.7493 15.5L18.4989 14.793C17.9977 14.9705 17.5715 15.306 17.2292 15.653C16.8819 16.0052 16.5828 16.4086 16.342 16.7778C16.0998 17.1492 15.9068 17.5012 15.7744 17.7597C15.708 17.8895 15.6561 17.997 15.6204 18.0733C15.6025 18.1115 15.5886 18.1419 15.5788 18.1635C15.574 18.1744 15.5701 18.183 15.5674 18.1892C15.566 18.1923 15.5649 18.1949 15.564 18.1968C15.5636 18.1978 15.5632 18.1986 15.5629 18.1993C15.5628 18.1996 15.5627 18.1999 15.5625 18.2002C15.5625 18.2003 15.5624 18.2005 15.5624 18.2005C15.5623 18.2007 15.5623 18.2008 16.25 18.5Z" fill="#141B34"/>
<path d="M13.996 9.7235C14.2354 10.0615 14.7035 10.1414 15.0415 9.90199C15.3796 9.66257 15.4595 9.19447 15.22 8.85646L14.608 9.28998L13.996 9.7235ZM8.87076 14.4369C9.17537 14.7176 9.64985 14.6982 9.93053 14.3936C10.2112 14.0889 10.1918 13.6145 9.88719 13.3338L9.37897 13.8853L8.87076 14.4369ZM15.875 2.29564L16.2435 1.64239V1.64239L15.875 2.29564ZM17.5997 3.26847L17.2313 3.92172L17.2313 3.92172L17.5997 3.26847ZM7.62495 20.2044L7.99342 19.5512H7.99342L7.62495 20.2044ZM5.90025 19.2316L6.26872 18.5784H6.26872L5.90025 19.2316ZM5.90184 3.26838L5.53337 2.61513V2.61513L5.90184 3.26838ZM7.62653 2.29555L7.25807 1.6423L7.62653 2.29555ZM5.40825 4.69393L4.68262 4.88358V4.88358L5.40825 4.69393ZM2.73902 9.16729L2.54496 8.44284L2.54496 8.44284L2.73902 9.16729ZM2.73902 13.3328L2.54492 14.0573H2.54492L2.73902 13.3328ZM5.40672 17.8061L6.13232 17.9958L5.40672 17.8061ZM9.08434 2.58564L8.55638 3.11834V3.11834L9.08434 2.58564ZM14.4172 2.58574L14.9452 3.11844V3.11844L14.4172 2.58574ZM18.0933 4.694L18.8189 4.88374V4.88374L18.0933 4.694ZM20.761 9.16728L20.9551 8.44283L20.761 9.16728ZM5.26678 3.74453L4.57673 3.45071L4.57673 3.45071L5.26678 3.74453ZM8.3504 20.497L8.25087 19.7537L8.25086 19.7537L8.3504 20.497ZM9.08271 19.9143L8.55469 19.3817L8.55469 19.3817L9.08271 19.9143ZM1.85308 9.51068L1.25916 9.05269L1.25916 9.05269L1.85308 9.51068ZM21 10.5095C21 10.9237 21.3358 11.2595 21.75 11.2595C22.1642 11.2595 22.5 10.9237 22.5 10.5095H21.75H21ZM9.80794 20.2682C10.1271 20.0042 10.1718 19.5314 9.90773 19.2123C9.64369 18.8931 9.17093 18.8485 8.85178 19.1125L9.32986 19.6904L9.80794 20.2682ZM8.25 11.3108H9C9 9.79201 10.2312 8.56079 11.75 8.56079V7.81079V7.06079C9.40279 7.06079 7.5 8.96358 7.5 11.3108H8.25ZM11.75 7.81079V8.56079C12.6767 8.56079 13.4966 9.01848 13.996 9.7235L14.608 9.28998L15.22 8.85646C14.4515 7.77148 13.1838 7.06079 11.75 7.06079V7.81079ZM9.37897 13.8853L9.88719 13.3338C9.3407 12.8302 9 12.1109 9 11.3108H8.25H7.5C7.5 12.5473 8.02899 13.6613 8.87076 14.4369L9.37897 13.8853ZM1.75 12.2105H2.5V10.2896H1.75H1V12.2105H1.75ZM15.875 2.29564L15.5066 2.94889L17.2313 3.92172L17.5997 3.26847L17.9682 2.61523L16.2435 1.64239L15.875 2.29564ZM7.62495 20.2044L7.99342 19.5512L6.26872 18.5784L5.90025 19.2316L5.53178 19.8849L7.25648 20.8577L7.62495 20.2044ZM5.90184 3.26838L6.2703 3.92162L7.995 2.94879L7.62653 2.29555L7.25807 1.6423L5.53337 2.61513L5.90184 3.26838ZM5.40825 4.69393L4.68262 4.88358C5.07695 6.39233 4.11472 8.02235 2.54496 8.44284L2.73902 9.16729L2.93308 9.89175C5.26472 9.26718 6.7458 6.84559 6.13387 4.50428L5.40825 4.69393ZM2.73902 13.3328L2.54492 14.0573C4.11409 14.4777 5.07569 16.1074 4.68112 17.6163L5.40672 17.8061L6.13232 17.9958C6.74448 15.6548 5.2647 13.2331 2.93312 12.6084L2.73902 13.3328ZM9.08434 2.58564L8.55638 3.11834C10.308 4.85433 13.1936 4.85442 14.9452 3.11844L14.4172 2.58574L13.8893 2.05304C12.7224 3.20952 10.7792 3.20949 9.61229 2.05295L9.08434 2.58564ZM18.0933 4.694L17.3677 4.50426C16.7555 6.84528 18.2353 9.26704 20.5669 9.89173L20.761 9.16728L20.9551 8.44283C19.3859 8.02241 18.4243 6.39268 18.8189 4.88374L18.0933 4.694ZM7.62653 2.29555L7.995 2.94879C8.08992 2.89525 8.1645 2.85322 8.22922 2.81834C8.29423 2.78331 8.33676 2.76235 8.36602 2.74959C8.43073 2.72137 8.36846 2.76186 8.25244 2.74633L8.35193 2.00296L8.45143 1.25959C8.16836 1.2217 7.92951 1.30351 7.76634 1.37468C7.60882 1.44338 7.43004 1.54529 7.25807 1.6423L7.62653 2.29555ZM9.08434 2.58564L9.61229 2.05295C9.43382 1.87607 9.26582 1.70863 9.12035 1.58708C8.9882 1.47666 8.7594 1.30081 8.45143 1.25959L8.35193 2.00296L8.25244 2.74633C8.17474 2.73593 8.12646 2.71039 8.11587 2.70443C8.10751 2.69972 8.11926 2.70531 8.15853 2.73813C8.24328 2.80894 8.35795 2.92167 8.55638 3.11834L9.08434 2.58564ZM5.90184 3.26838L5.53337 2.61513C5.35787 2.71412 5.17562 2.81585 5.03385 2.91609C4.88837 3.01896 4.6905 3.1835 4.57673 3.45071L5.26678 3.74453L5.95683 4.03835C5.90914 4.15034 5.83915 4.18378 5.89985 4.14086C5.92676 4.12183 5.96781 4.09559 6.0328 4.05727C6.09749 4.01913 6.17363 3.97615 6.2703 3.92162L5.90184 3.26838ZM5.40825 4.69393L6.13387 4.50428C6.06115 4.22604 6.01944 4.06391 5.99979 3.95068C5.99062 3.89781 5.99159 3.88364 5.99149 3.89273C5.99135 3.90403 5.98945 3.96174 5.95683 4.03835L5.26678 3.74453L4.57673 3.45071C4.45221 3.74315 4.4925 4.0378 4.52188 4.20711C4.55489 4.39742 4.61696 4.63237 4.68262 4.88358L5.40825 4.69393ZM5.90025 19.2316L6.26872 18.5784C6.17204 18.5238 6.0959 18.4809 6.03121 18.4427C5.96621 18.4044 5.92516 18.3781 5.89825 18.3591C5.83756 18.3162 5.90755 18.3496 5.95523 18.4616L5.26516 18.7554L4.5751 19.0492C4.68887 19.3164 4.88674 19.481 5.03224 19.5839C5.17402 19.6841 5.35628 19.7859 5.53179 19.8849L5.90025 19.2316ZM5.40672 17.8061L4.68112 17.6163C4.61544 17.8675 4.55334 18.1025 4.5203 18.2928C4.4909 18.4621 4.45059 18.7567 4.5751 19.0492L5.26516 18.7554L5.95523 18.4616C5.98784 18.5382 5.98975 18.596 5.98988 18.6073C5.98999 18.6164 5.98902 18.6022 5.99819 18.5493C6.01785 18.4361 6.05957 18.274 6.13232 17.9958L5.40672 17.8061ZM7.62495 20.2044L7.25648 20.8577C7.42847 20.9547 7.60726 21.0566 7.76479 21.1253C7.92799 21.1965 8.16685 21.2783 8.44994 21.2404L8.3504 20.497L8.25086 19.7537C8.36689 19.7381 8.42916 19.7786 8.36446 19.7504C8.3352 19.7377 8.29267 19.7167 8.22766 19.6817C8.16293 19.6468 8.08834 19.6047 7.99342 19.5512L7.62495 20.2044ZM9.08271 19.9143L8.55469 19.3817C8.35629 19.5784 8.24165 19.6911 8.15693 19.7619C8.11766 19.7947 8.10592 19.8003 8.11429 19.7956C8.12489 19.7896 8.17317 19.7641 8.25087 19.7537L8.3504 20.497L8.44994 21.2404C8.75793 21.1992 8.98671 21.0233 9.11886 20.9128C9.26432 20.7913 9.4323 20.6238 9.61073 20.4469L9.08271 19.9143ZM17.5997 3.26847L17.2313 3.92172C17.328 3.97625 17.4041 4.01923 17.4688 4.05738C17.5338 4.0957 17.5748 4.12194 17.6017 4.14097C17.6624 4.18388 17.5924 4.15044 17.5448 4.03844L18.2348 3.74467L18.9249 3.45089C18.8111 3.18364 18.6133 3.01909 18.4678 2.91621C18.326 2.81596 18.1437 2.71422 17.9682 2.61522L17.5997 3.26847ZM18.0933 4.694L18.8189 4.88374C18.8846 4.63256 18.9467 4.39762 18.9797 4.20732C19.0091 4.038 19.0494 3.74334 18.9249 3.45089L18.2348 3.74467L17.5448 4.03844C17.5122 3.96184 17.5102 3.90413 17.5101 3.89282C17.51 3.88371 17.511 3.89788 17.5018 3.95074C17.4822 4.06395 17.4404 4.22605 17.3677 4.50427L18.0933 4.694ZM15.875 2.29564L16.2435 1.64239C16.0715 1.54539 15.8928 1.44348 15.7352 1.37477C15.5721 1.3036 15.3332 1.2218 15.0502 1.25968L15.1497 2.00306L15.2491 2.74643C15.1331 2.76195 15.0709 2.72146 15.1356 2.74968C15.1648 2.76245 15.2074 2.7834 15.2724 2.81844C15.3371 2.85332 15.4117 2.89535 15.5066 2.94889L15.875 2.29564ZM14.4172 2.58574L14.9452 3.11844C15.1436 2.92177 15.2583 2.80904 15.343 2.73823C15.3823 2.70541 15.3941 2.69982 15.3857 2.70453C15.3751 2.71049 15.3268 2.73603 15.2491 2.74643L15.1497 2.00306L15.0502 1.25968C14.7422 1.3009 14.5134 1.47675 14.3812 1.58717C14.2358 1.70872 14.0678 1.87615 13.8893 2.05304L14.4172 2.58574ZM1.75 10.2896H2.5C2.5 10.1799 2.50003 10.0937 2.50147 10.0198C2.50291 9.94551 2.5056 9.89803 2.50888 9.86632C2.51621 9.79571 2.52079 9.87299 2.44701 9.96867L1.85308 9.51068L1.25916 9.05269C1.0823 9.28204 1.03534 9.5337 1.01689 9.71158C0.999045 9.88361 1 10.0909 1 10.2896H1.75ZM2.73902 9.16729L2.54496 8.44284C2.29751 8.50912 2.06502 8.57073 1.88474 8.63569C1.72278 8.69406 1.45104 8.80386 1.25916 9.05269L1.85308 9.51068L2.44701 9.96867C2.39768 10.0326 2.34995 10.062 2.34005 10.0678C2.33218 10.0724 2.34371 10.0647 2.39326 10.0469C2.4997 10.0085 2.65863 9.96527 2.93308 9.89175L2.73902 9.16729ZM1.75 12.2105H1C1 12.4092 0.999045 12.6165 1.01689 12.7885C1.03533 12.9664 1.08229 13.218 1.25914 13.4474L1.85308 12.9894L2.44701 12.5314C2.52078 12.6271 2.51621 12.7044 2.50888 12.6338C2.5056 12.602 2.50291 12.5546 2.50147 12.4803C2.50003 12.4064 2.5 12.3202 2.5 12.2105H1.75ZM2.73902 13.3328L2.93312 12.6084C2.65866 12.5348 2.49972 12.4916 2.39328 12.4532C2.34372 12.4354 2.3322 12.4277 2.34006 12.4323C2.34996 12.4381 2.39769 12.4674 2.44701 12.5314L1.85308 12.9894L1.25914 13.4474C1.45101 13.6962 1.72274 13.806 1.88469 13.8644C2.06497 13.9293 2.29747 13.991 2.54492 14.0573L2.73902 13.3328ZM21.75 10.2896H22.5C22.5 10.0909 22.501 9.88362 22.4831 9.7116C22.4647 9.53373 22.4177 9.28208 22.2409 9.05273L21.6469 9.5107L21.053 9.96868C20.9792 9.873 20.9838 9.79573 20.9911 9.86633C20.9944 9.89804 20.9971 9.94552 20.9985 10.0198C21 10.0937 21 10.1799 21 10.2896H21.75ZM20.761 9.16728L20.5669 9.89173C20.8413 9.96526 21.0003 10.0085 21.1067 10.0469C21.1563 10.0647 21.1678 10.0724 21.1599 10.0678C21.15 10.062 21.1023 10.0326 21.053 9.96868L21.6469 9.5107L22.2409 9.05273C22.049 8.8039 21.7773 8.69409 21.6153 8.63572C21.435 8.57075 21.2025 8.50913 20.9551 8.44283L20.761 9.16728ZM21.75 10.2896H21V10.5095H21.75H22.5V10.2896H21.75ZM9.08271 19.9143L9.61073 20.4469C9.67434 20.3839 9.74016 20.3243 9.80794 20.2682L9.32986 19.6904L8.85178 19.1125C8.74952 19.1971 8.65036 19.2868 8.55469 19.3817L9.08271 19.9143Z" fill="#141B34"/>
</svg>
