<svg width="1261" height="862" viewBox="0 0 1261 862" fill="none" xmlns="http://www.w3.org/2000/svg">
<g opacity="0.5">
<g opacity="0.4">
<mask id="mask0_4980_50455" style="mask-type:alpha" maskUnits="userSpaceOnUse" x="436" y="30" width="549" height="664">
<rect x="493.529" y="30.1035" width="493.429" height="620.415" transform="rotate(5.30217 493.529 30.1035)" fill="url(#paint0_linear_4980_50455)"/>
</mask>
<g mask="url(#mask0_4980_50455)">
<path d="M881.793 466.344C872.504 566.436 783.832 640.047 683.74 630.758C583.647 621.469 510.036 532.798 519.325 432.705C528.615 332.612 604.769 393.873 704.862 403.162C804.954 412.451 891.082 366.251 881.793 466.344Z" fill="#FFAB5E"/>
<g filter="url(#filter0_f_4980_50455)">
<path d="M881.456 469.957C874.265 547.437 787.295 602.717 687.202 593.428C587.109 584.139 511.798 513.798 518.988 436.318C526.179 358.838 613.149 303.558 713.242 312.847C813.334 322.136 888.646 392.476 881.456 469.957Z" fill="#FFAB5E"/>
</g>
<g filter="url(#filter1_f_4980_50455)">
<ellipse cx="700.892" cy="445.915" rx="182.013" ry="140.893" transform="rotate(5.30217 700.892 445.915)" fill="#FFAB5E"/>
</g>
<g filter="url(#filter2_f_4980_50455)">
<ellipse cx="702.736" cy="426.042" rx="182.013" ry="141.498" transform="rotate(5.30217 702.736 426.042)" fill="#FFAB5E"/>
</g>
<g filter="url(#filter3_f_4980_50455)">
<ellipse cx="708.269" cy="366.434" rx="182.013" ry="140.893" transform="rotate(5.30217 708.269 366.434)" fill="#FFAB5E"/>
</g>
<g filter="url(#filter4_f_4980_50455)">
<ellipse cx="715.756" cy="285.752" rx="152.987" ry="140.893" transform="rotate(5.30217 715.756 285.752)" fill="#FFAB5E"/>
</g>
</g>
<mask id="mask1_4980_50455" style="mask-type:alpha" maskUnits="userSpaceOnUse" x="486" y="81" width="775" height="715">
<rect x="1045.44" y="81.3262" width="493.429" height="620.415" transform="rotate(64.2136 1045.44 81.3262)" fill="url(#paint1_linear_4980_50455)"/>
</mask>
<g mask="url(#mask1_4980_50455)">
<path d="M872.343 639.082C781.83 682.811 673.005 644.885 629.276 554.372C585.547 463.859 623.473 355.034 713.986 311.305C804.499 267.576 791.36 364.426 835.089 454.939C878.818 545.451 962.856 595.353 872.343 639.082Z" fill="#7A231C"/>
<g filter="url(#filter5_f_4980_50455)">
<path d="M869.075 640.659C799.011 674.509 706.762 628.575 663.033 538.062C619.304 447.549 640.654 346.733 710.718 312.883C780.783 279.033 873.031 324.967 916.761 415.48C960.49 505.993 939.14 606.809 869.075 640.659Z" fill="#7A231C"/>
</g>
<g filter="url(#filter6_f_4980_50455)">
<ellipse cx="796.43" cy="473.615" rx="182.013" ry="140.893" transform="rotate(64.2136 796.43 473.615)" fill="#7A231C"/>
</g>
<g filter="url(#filter7_f_4980_50455)">
<ellipse cx="814.397" cy="464.934" rx="182.013" ry="141.498" transform="rotate(64.2136 814.397 464.934)" fill="#7A231C"/>
</g>
<g filter="url(#filter8_f_4980_50455)">
<ellipse cx="868.301" cy="438.892" rx="182.013" ry="140.893" transform="rotate(64.2136 868.301 438.892)" fill="#7A231C"/>
</g>
<g filter="url(#filter9_f_4980_50455)">
<ellipse cx="941.263" cy="403.644" rx="152.987" ry="140.893" transform="rotate(64.2136 941.263 403.644)" fill="#7A231C"/>
</g>
</g>
</g>
<g opacity="0.4">
<mask id="mask2_4980_50455" style="mask-type:alpha" maskUnits="userSpaceOnUse" x="498" y="391" width="768" height="272">
<rect x="1265.23" y="461.938" width="201.837" height="751.356" transform="rotate(95.4175 1265.23 461.938)" fill="url(#paint2_linear_4980_50455)"/>
</mask>
<g mask="url(#mask2_4980_50455)">
<path d="M768.299 590.222C647.104 578.729 552.004 536.227 555.886 495.292C559.768 454.357 661.163 430.49 782.357 441.983C903.552 453.477 835.347 480.491 831.465 521.427C827.582 562.362 889.494 601.716 768.299 590.222Z" fill="#FFB97B"/>
<g filter="url(#filter10_f_4980_50455)">
<path d="M763.922 589.807C670.107 580.91 597.202 540.514 601.084 499.578C604.966 458.643 684.165 432.671 777.98 441.568C871.795 450.465 944.701 490.862 940.818 531.797C936.936 572.732 857.737 598.704 763.922 589.807Z" fill="#FFB97B"/>
</g>
<g filter="url(#filter11_f_4980_50455)">
<ellipse cx="779.699" cy="516.516" rx="74.4522" ry="170.63" transform="rotate(95.4175 779.699 516.516)" fill="#FFB97B"/>
</g>
<g filter="url(#filter12_f_4980_50455)">
<ellipse cx="803.759" cy="518.798" rx="74.4522" ry="171.362" transform="rotate(95.4175 803.759 518.798)" fill="#FFB97B"/>
</g>
<g filter="url(#filter13_f_4980_50455)">
<ellipse cx="875.934" cy="525.643" rx="74.4522" ry="170.63" transform="rotate(95.4175 875.934 525.643)" fill="#FFB97B"/>
</g>
<g filter="url(#filter14_f_4980_50455)">
<ellipse cx="973.625" cy="534.907" rx="62.5794" ry="170.63" transform="rotate(95.4175 973.625 534.907)" fill="#FFB97B"/>
</g>
</g>
<mask id="mask3_4980_50455" style="mask-type:alpha" maskUnits="userSpaceOnUse" x="359" y="434" width="885" height="310">
<rect width="522.167" height="444.55" transform="matrix(-0.994335 0.106288 -0.822244 -0.569136 1243.82 687.654)" fill="url(#paint3_linear_4980_50455)"/>
</mask>
<g mask="url(#mask3_4980_50455)">
<path d="M559.623 573.128C500.367 532.137 538.092 489.752 643.884 478.457C749.676 467.163 883.474 491.236 942.73 532.226C1001.99 573.217 884.415 560.369 778.623 571.663C672.831 582.958 618.879 614.118 559.623 573.128Z" fill="#FFA859"/>
<g filter="url(#filter15_f_4980_50455)">
<path d="M557.483 571.648C511.613 539.918 560.191 505.039 665.983 493.745C771.775 482.45 894.721 499.016 940.59 530.747C986.459 562.477 937.882 597.355 832.089 608.65C726.297 619.944 603.352 603.378 557.483 571.648Z" fill="#FFA859"/>
</g>
<g filter="url(#filter16_f_4980_50455)">
<ellipse cx="192.613" cy="100.955" rx="192.613" ry="100.955" transform="matrix(-0.994499 0.106175 -0.822675 -0.569089 1027.92 591.158)" fill="#FFA859"/>
</g>
<g filter="url(#filter17_f_4980_50455)">
<ellipse cx="192.613" cy="101.389" rx="192.613" ry="101.389" transform="matrix(-0.994499 0.106175 -0.822675 -0.569089 1040.04 599.541)" fill="#FFA859"/>
</g>
<g filter="url(#filter18_f_4980_50455)">
<ellipse cx="192.613" cy="100.955" rx="192.613" ry="100.955" transform="matrix(-0.994499 0.106175 -0.822675 -0.569089 1074.97 623.707)" fill="#FFA859"/>
</g>
<g filter="url(#filter19_f_4980_50455)">
<ellipse cx="161.897" cy="100.955" rx="161.897" ry="100.955" transform="matrix(-0.994499 0.106175 -0.822675 -0.569089 1092.19 660.01)" fill="#FFA859"/>
</g>
</g>
</g>
<g opacity="0.4">
<mask id="mask4_4980_50455" style="mask-type:alpha" maskUnits="userSpaceOnUse" x="199" y="-77" width="744" height="815">
<rect x="199.388" y="130.902" width="525.112" height="660.251" transform="rotate(-23.2549 199.388 130.902)" fill="url(#paint4_linear_4980_50455)"/>
</mask>
<g mask="url(#mask4_4980_50455)">
<path d="M784.241 341.152C826.478 439.438 781.041 553.355 682.755 595.592C584.469 637.829 470.552 592.392 428.315 494.106C386.078 395.82 488.428 414.341 586.714 372.104C685 329.867 742.003 242.866 784.241 341.152Z" fill="#FF9B41"/>
<g filter="url(#filter20_f_4980_50455)">
<path d="M785.767 344.697C818.463 420.779 765.291 516.696 667.004 558.933C568.718 601.17 462.537 573.733 429.842 497.651C397.147 421.569 450.319 325.653 548.605 283.416C646.891 241.179 753.072 268.615 785.767 344.697Z" fill="#FF9B41"/>
</g>
<g filter="url(#filter21_f_4980_50455)">
<ellipse cx="604.754" cy="414.08" rx="193.699" ry="149.94" transform="rotate(-23.2549 604.754 414.08)" fill="#FF9B41"/>
</g>
<g filter="url(#filter22_f_4980_50455)">
<ellipse cx="596.372" cy="394.572" rx="193.699" ry="150.584" transform="rotate(-23.2549 596.372 394.572)" fill="#FF9B41"/>
</g>
<g filter="url(#filter23_f_4980_50455)">
<ellipse cx="571.217" cy="336.037" rx="193.699" ry="149.94" transform="rotate(-23.2549 571.217 336.037)" fill="#FF9B41"/>
</g>
<g filter="url(#filter24_f_4980_50455)">
<ellipse cx="537.169" cy="256.811" rx="162.81" ry="149.94" transform="rotate(-23.2549 537.169 256.811)" fill="#FF9B41"/>
</g>
</g>
<mask id="mask5_4980_50455" style="mask-type:alpha" maskUnits="userSpaceOnUse" x="250" y="253" width="451" height="379">
<rect x="250.956" y="575.973" width="325.225" height="408.923" transform="rotate(-82.1664 250.956 575.973)" fill="url(#paint5_linear_4980_50455)"/>
</mask>
<g mask="url(#mask5_4980_50455)">
<path d="M549.507 333.015C615.145 342.045 661.034 402.575 652.003 468.213C642.973 533.85 582.443 579.739 516.805 570.709C451.168 561.678 493.723 513.316 502.754 447.679C511.784 382.042 483.87 323.984 549.507 333.015Z" fill="#EF7F1A"/>
<g filter="url(#filter25_f_4980_50455)">
<path d="M551.876 333.342C602.685 340.332 636.553 399.209 627.523 464.846C618.493 530.483 569.983 578.026 519.174 571.036C468.365 564.046 434.497 505.169 443.527 439.532C452.558 373.894 501.067 326.352 551.876 333.342Z" fill="#EF7F1A"/>
</g>
<g filter="url(#filter26_f_4980_50455)">
<ellipse cx="530.787" cy="451.535" rx="119.967" ry="92.8645" transform="rotate(-82.1664 530.787 451.535)" fill="#EF7F1A"/>
</g>
<g filter="url(#filter27_f_4980_50455)">
<ellipse cx="517.756" cy="449.743" rx="119.967" ry="93.263" transform="rotate(-82.1664 517.756 449.743)" fill="#EF7F1A"/>
</g>
<g filter="url(#filter28_f_4980_50455)">
<ellipse cx="478.668" cy="444.365" rx="119.967" ry="92.8645" transform="rotate(-82.1664 478.668 444.365)" fill="#EF7F1A"/>
</g>
<g filter="url(#filter29_f_4980_50455)">
<ellipse cx="425.759" cy="437.087" rx="100.836" ry="92.8645" transform="rotate(-82.1664 425.759 437.087)" fill="#EF7F1A"/>
</g>
</g>
</g>
<g opacity="0.4">
<mask id="mask6_4980_50455" style="mask-type:alpha" maskUnits="userSpaceOnUse" x="375" y="266" width="595" height="593">
<rect x="631.498" y="858.289" width="371.681" height="467.335" transform="rotate(-133.6 631.498 858.289)" fill="url(#paint6_linear_4980_50455)"/>
</mask>
<g mask="url(#mask6_4980_50455)">
<path d="M627.108 418.408C681.943 366.19 768.726 368.311 820.943 423.146C873.161 477.98 871.04 564.763 816.206 616.981C761.371 669.198 748.476 596.715 696.258 541.881C644.04 487.047 572.274 470.625 627.108 418.408Z" fill="#FA7E0E"/>
<g filter="url(#filter30_f_4980_50455)">
<path d="M629.085 416.521C671.532 376.1 748.272 387.785 800.49 442.619C852.708 497.454 860.629 574.673 818.183 615.094C775.736 655.515 698.995 643.831 646.778 588.997C594.56 534.162 586.639 456.942 629.085 416.521Z" fill="#FA7E0E"/>
</g>
<g filter="url(#filter31_f_4980_50455)">
<ellipse cx="719.677" cy="519.579" rx="137.103" ry="106.13" transform="rotate(-133.6 719.677 519.579)" fill="#FA7E0E"/>
</g>
<g filter="url(#filter32_f_4980_50455)">
<ellipse cx="708.792" cy="529.943" rx="137.103" ry="106.585" transform="rotate(-133.6 708.792 529.943)" fill="#FA7E0E"/>
</g>
<g filter="url(#filter33_f_4980_50455)">
<ellipse cx="631.936" cy="603.133" rx="115.239" ry="106.13" transform="rotate(-133.6 631.936 603.133)" fill="#FA7E0E"/>
</g>
</g>
<path d="M679.473 576.195C669.314 530.412 698.192 485.062 743.975 474.902C789.758 464.743 835.109 493.622 845.268 539.405C855.427 585.188 812.859 568.847 767.076 579.006C721.293 589.165 689.632 621.978 679.473 576.195Z" fill="#DA7519"/>
<g filter="url(#filter34_f_4980_50455)">
<path d="M679.106 574.542C671.242 539.102 701.981 502.136 747.764 491.977C793.547 481.818 837.037 502.312 844.901 537.752C852.765 573.192 822.026 610.158 776.243 620.317C730.46 630.476 686.97 609.982 679.106 574.542Z" fill="#DA7519"/>
</g>
<g filter="url(#filter35_f_4980_50455)">
<ellipse cx="762.736" cy="559.452" rx="84.914" ry="65.7308" transform="rotate(167.489 762.736 559.452)" fill="#DA7519"/>
</g>
<g filter="url(#filter36_f_4980_50455)">
<ellipse cx="764.755" cy="568.542" rx="84.914" ry="66.0129" transform="rotate(167.489 764.755 568.542)" fill="#DA7519"/>
</g>
<g filter="url(#filter37_f_4980_50455)">
<ellipse cx="770.805" cy="595.805" rx="84.914" ry="65.7308" transform="rotate(167.489 770.805 595.805)" fill="#DA7519"/>
</g>
<g filter="url(#filter38_f_4980_50455)">
<ellipse cx="778.993" cy="632.71" rx="71.3729" ry="65.7308" transform="rotate(167.489 778.993 632.71)" fill="#DA7519"/>
</g>
</g>
</g>
<defs>
<filter id="filter0_f_4980_50455" x="515.688" y="309.003" width="369.067" height="288.269" filterUnits="userSpaceOnUse" color-interpolation-filters="sRGB">
<feFlood flood-opacity="0" result="BackgroundImageFix"/>
<feBlend mode="normal" in="SourceGraphic" in2="BackgroundImageFix" result="shape"/>
<feGaussianBlur stdDeviation="1.41249" result="effect1_foregroundBlur_4980_50455"/>
</filter>
<filter id="filter1_f_4980_50455" x="509.296" y="294.718" width="383.192" height="302.394" filterUnits="userSpaceOnUse" color-interpolation-filters="sRGB">
<feFlood flood-opacity="0" result="BackgroundImageFix"/>
<feBlend mode="normal" in="SourceGraphic" in2="BackgroundImageFix" result="shape"/>
<feGaussianBlur stdDeviation="4.94371" result="effect1_foregroundBlur_4980_50455"/>
</filter>
<filter id="filter2_f_4980_50455" x="497.011" y="260.122" width="411.45" height="331.839" filterUnits="userSpaceOnUse" color-interpolation-filters="sRGB">
<feFlood flood-opacity="0" result="BackgroundImageFix"/>
<feBlend mode="normal" in="SourceGraphic" in2="BackgroundImageFix" result="shape"/>
<feGaussianBlur stdDeviation="12.0062" result="effect1_foregroundBlur_4980_50455"/>
</filter>
<filter id="filter3_f_4980_50455" x="474.298" y="172.863" width="467.942" height="387.143" filterUnits="userSpaceOnUse" color-interpolation-filters="sRGB">
<feFlood flood-opacity="0" result="BackgroundImageFix"/>
<feBlend mode="normal" in="SourceGraphic" in2="BackgroundImageFix" result="shape"/>
<feGaussianBlur stdDeviation="26.131" result="effect1_foregroundBlur_4980_50455"/>
</filter>
<filter id="filter4_f_4980_50455" x="471.048" y="52.9285" width="489.418" height="465.647" filterUnits="userSpaceOnUse" color-interpolation-filters="sRGB">
<feFlood flood-opacity="0" result="BackgroundImageFix"/>
<feBlend mode="normal" in="SourceGraphic" in2="BackgroundImageFix" result="shape"/>
<feGaussianBlur stdDeviation="45.9059" result="effect1_foregroundBlur_4980_50455"/>
</filter>
<filter id="filter5_f_4980_50455" x="637.507" y="298.925" width="304.78" height="355.693" filterUnits="userSpaceOnUse" color-interpolation-filters="sRGB">
<feFlood flood-opacity="0" result="BackgroundImageFix"/>
<feBlend mode="normal" in="SourceGraphic" in2="BackgroundImageFix" result="shape"/>
<feGaussianBlur stdDeviation="1.41249" result="effect1_foregroundBlur_4980_50455"/>
</filter>
<filter id="filter6_f_4980_50455" x="636.978" y="288.706" width="318.905" height="369.818" filterUnits="userSpaceOnUse" color-interpolation-filters="sRGB">
<feFlood flood-opacity="0" result="BackgroundImageFix"/>
<feBlend mode="normal" in="SourceGraphic" in2="BackgroundImageFix" result="shape"/>
<feGaussianBlur stdDeviation="4.94371" result="effect1_foregroundBlur_4980_50455"/>
</filter>
<filter id="filter7_f_4980_50455" x="640.358" y="265.808" width="348.079" height="398.253" filterUnits="userSpaceOnUse" color-interpolation-filters="sRGB">
<feFlood flood-opacity="0" result="BackgroundImageFix"/>
<feBlend mode="normal" in="SourceGraphic" in2="BackgroundImageFix" result="shape"/>
<feGaussianBlur stdDeviation="12.0062" result="effect1_foregroundBlur_4980_50455"/>
</filter>
<filter id="filter8_f_4980_50455" x="666.474" y="211.609" width="403.654" height="454.567" filterUnits="userSpaceOnUse" color-interpolation-filters="sRGB">
<feFlood flood-opacity="0" result="BackgroundImageFix"/>
<feBlend mode="normal" in="SourceGraphic" in2="BackgroundImageFix" result="shape"/>
<feGaussianBlur stdDeviation="26.131" result="effect1_foregroundBlur_4980_50455"/>
</filter>
<filter id="filter9_f_4980_50455" x="706.161" y="161.022" width="470.202" height="485.245" filterUnits="userSpaceOnUse" color-interpolation-filters="sRGB">
<feFlood flood-opacity="0" result="BackgroundImageFix"/>
<feBlend mode="normal" in="SourceGraphic" in2="BackgroundImageFix" result="shape"/>
<feGaussianBlur stdDeviation="45.9059" result="effect1_foregroundBlur_4980_50455"/>
</filter>
<filter id="filter10_f_4980_50455" x="598.957" y="437.844" width="343.988" height="155.689" filterUnits="userSpaceOnUse" color-interpolation-filters="sRGB">
<feFlood flood-opacity="0" result="BackgroundImageFix"/>
<feBlend mode="normal" in="SourceGraphic" in2="BackgroundImageFix" result="shape"/>
<feGaussianBlur stdDeviation="0.989115" result="effect1_foregroundBlur_4980_50455"/>
</filter>
<filter id="filter11_f_4980_50455" x="602.76" y="433.727" width="353.879" height="165.58" filterUnits="userSpaceOnUse" color-interpolation-filters="sRGB">
<feFlood flood-opacity="0" result="BackgroundImageFix"/>
<feBlend mode="normal" in="SourceGraphic" in2="BackgroundImageFix" result="shape"/>
<feGaussianBlur stdDeviation="3.4619" result="effect1_foregroundBlur_4980_50455"/>
</filter>
<filter id="filter12_f_4980_50455" x="616.2" y="426.103" width="375.118" height="185.392" filterUnits="userSpaceOnUse" color-interpolation-filters="sRGB">
<feFlood flood-opacity="0" result="BackgroundImageFix"/>
<feBlend mode="normal" in="SourceGraphic" in2="BackgroundImageFix" result="shape"/>
<feGaussianBlur stdDeviation="8.40748" result="effect1_foregroundBlur_4980_50455"/>
</filter>
<filter id="filter13_f_4980_50455" x="669.321" y="413.18" width="413.226" height="224.927" filterUnits="userSpaceOnUse" color-interpolation-filters="sRGB">
<feFlood flood-opacity="0" result="BackgroundImageFix"/>
<feBlend mode="normal" in="SourceGraphic" in2="BackgroundImageFix" result="shape"/>
<feGaussianBlur stdDeviation="18.2986" result="effect1_foregroundBlur_4980_50455"/>
</filter>
<filter id="filter14_f_4980_50455" x="739.36" y="406.25" width="468.529" height="257.313" filterUnits="userSpaceOnUse" color-interpolation-filters="sRGB">
<feFlood flood-opacity="0" result="BackgroundImageFix"/>
<feBlend mode="normal" in="SourceGraphic" in2="BackgroundImageFix" result="shape"/>
<feGaussianBlur stdDeviation="32.1462" result="effect1_foregroundBlur_4980_50455"/>
</filter>
<filter id="filter15_f_4980_50455" x="538.221" y="488.219" width="421.63" height="125.956" filterUnits="userSpaceOnUse" color-interpolation-filters="sRGB">
<feFlood flood-opacity="0" result="BackgroundImageFix"/>
<feBlend mode="normal" in="SourceGraphic" in2="BackgroundImageFix" result="shape"/>
<feGaussianBlur stdDeviation="0.989115" result="effect1_foregroundBlur_4980_50455"/>
</filter>
<filter id="filter16_f_4980_50455" x="537.555" y="486.232" width="431.521" height="135.848" filterUnits="userSpaceOnUse" color-interpolation-filters="sRGB">
<feFlood flood-opacity="0" result="BackgroundImageFix"/>
<feBlend mode="normal" in="SourceGraphic" in2="BackgroundImageFix" result="shape"/>
<feGaussianBlur stdDeviation="3.4619" result="effect1_foregroundBlur_4980_50455"/>
</filter>
<filter id="filter17_f_4980_50455" x="539.285" y="484.246" width="451.587" height="156.095" filterUnits="userSpaceOnUse" color-interpolation-filters="sRGB">
<feFlood flood-opacity="0" result="BackgroundImageFix"/>
<feBlend mode="normal" in="SourceGraphic" in2="BackgroundImageFix" result="shape"/>
<feGaussianBlur stdDeviation="8.40748" result="effect1_foregroundBlur_4980_50455"/>
</filter>
<filter id="filter18_f_4980_50455" x="554.932" y="489.108" width="490.868" height="195.195" filterUnits="userSpaceOnUse" color-interpolation-filters="sRGB">
<feFlood flood-opacity="0" result="BackgroundImageFix"/>
<feBlend mode="normal" in="SourceGraphic" in2="BackgroundImageFix" result="shape"/>
<feGaussianBlur stdDeviation="18.2986" result="effect1_foregroundBlur_4980_50455"/>
</filter>
<filter id="filter19_f_4980_50455" x="602.635" y="495.469" width="490.992" height="248.554" filterUnits="userSpaceOnUse" color-interpolation-filters="sRGB">
<feFlood flood-opacity="0" result="BackgroundImageFix"/>
<feBlend mode="normal" in="SourceGraphic" in2="BackgroundImageFix" result="shape"/>
<feGaussianBlur stdDeviation="32.1462" result="effect1_foregroundBlur_4980_50455"/>
</filter>
<filter id="filter20_f_4980_50455" x="416.93" y="260.309" width="381.749" height="321.729" filterUnits="userSpaceOnUse" color-interpolation-filters="sRGB">
<feFlood flood-opacity="0" result="BackgroundImageFix"/>
<feBlend mode="normal" in="SourceGraphic" in2="BackgroundImageFix" result="shape"/>
<feGaussianBlur stdDeviation="1.63628" result="effect1_foregroundBlur_4980_50455"/>
</filter>
<filter id="filter21_f_4980_50455" x="405.698" y="245.034" width="398.111" height="338.091" filterUnits="userSpaceOnUse" color-interpolation-filters="sRGB">
<feFlood flood-opacity="0" result="BackgroundImageFix"/>
<feBlend mode="normal" in="SourceGraphic" in2="BackgroundImageFix" result="shape"/>
<feGaussianBlur stdDeviation="5.72697" result="effect1_foregroundBlur_4980_50455"/>
</filter>
<filter id="filter22_f_4980_50455" x="380.873" y="208.646" width="430.998" height="371.852" filterUnits="userSpaceOnUse" color-interpolation-filters="sRGB">
<feFlood flood-opacity="0" result="BackgroundImageFix"/>
<feBlend mode="normal" in="SourceGraphic" in2="BackgroundImageFix" result="shape"/>
<feGaussianBlur stdDeviation="13.9083" result="effect1_foregroundBlur_4980_50455"/>
</filter>
<filter id="filter23_f_4980_50455" x="323.073" y="117.903" width="496.288" height="436.268" filterUnits="userSpaceOnUse" color-interpolation-filters="sRGB">
<feFlood flood-opacity="0" result="BackgroundImageFix"/>
<feBlend mode="normal" in="SourceGraphic" in2="BackgroundImageFix" result="shape"/>
<feGaussianBlur stdDeviation="30.2711" result="effect1_foregroundBlur_4980_50455"/>
</filter>
<filter id="filter24_f_4980_50455" x="269.896" y="-1.60211" width="534.546" height="516.825" filterUnits="userSpaceOnUse" color-interpolation-filters="sRGB">
<feFlood flood-opacity="0" result="BackgroundImageFix"/>
<feBlend mode="normal" in="SourceGraphic" in2="BackgroundImageFix" result="shape"/>
<feGaussianBlur stdDeviation="53.179" result="effect1_foregroundBlur_4980_50455"/>
</filter>
<filter id="filter25_f_4980_50455" x="438.797" y="329.388" width="193.456" height="245.604" filterUnits="userSpaceOnUse" color-interpolation-filters="sRGB">
<feFlood flood-opacity="0" result="BackgroundImageFix"/>
<feBlend mode="normal" in="SourceGraphic" in2="BackgroundImageFix" result="shape"/>
<feGaussianBlur stdDeviation="1.63628" result="effect1_foregroundBlur_4980_50455"/>
</filter>
<filter id="filter26_f_4980_50455" x="425.878" y="320.552" width="209.819" height="261.966" filterUnits="userSpaceOnUse" color-interpolation-filters="sRGB">
<feFlood flood-opacity="0" result="BackgroundImageFix"/>
<feBlend mode="normal" in="SourceGraphic" in2="BackgroundImageFix" result="shape"/>
<feGaussianBlur stdDeviation="5.72697" result="effect1_foregroundBlur_4980_50455"/>
</filter>
<filter id="filter27_f_4980_50455" x="396.095" y="302.392" width="243.322" height="294.702" filterUnits="userSpaceOnUse" color-interpolation-filters="sRGB">
<feFlood flood-opacity="0" result="BackgroundImageFix"/>
<feBlend mode="normal" in="SourceGraphic" in2="BackgroundImageFix" result="shape"/>
<feGaussianBlur stdDeviation="13.9083" result="effect1_foregroundBlur_4980_50455"/>
</filter>
<filter id="filter28_f_4980_50455" x="324.67" y="264.294" width="307.995" height="360.143" filterUnits="userSpaceOnUse" color-interpolation-filters="sRGB">
<feFlood flood-opacity="0" result="BackgroundImageFix"/>
<feBlend mode="normal" in="SourceGraphic" in2="BackgroundImageFix" result="shape"/>
<feGaussianBlur stdDeviation="30.2711" result="effect1_foregroundBlur_4980_50455"/>
</filter>
<filter id="filter29_f_4980_50455" x="226.37" y="230.025" width="398.779" height="414.124" filterUnits="userSpaceOnUse" color-interpolation-filters="sRGB">
<feFlood flood-opacity="0" result="BackgroundImageFix"/>
<feBlend mode="normal" in="SourceGraphic" in2="BackgroundImageFix" result="shape"/>
<feGaussianBlur stdDeviation="53.179" result="effect1_foregroundBlur_4980_50455"/>
</filter>
<filter id="filter30_f_4980_50455" x="598.512" y="389.181" width="250.244" height="253.254" filterUnits="userSpaceOnUse" color-interpolation-filters="sRGB">
<feFlood flood-opacity="0" result="BackgroundImageFix"/>
<feBlend mode="normal" in="SourceGraphic" in2="BackgroundImageFix" result="shape"/>
<feGaussianBlur stdDeviation="1.63628" result="effect1_foregroundBlur_4980_50455"/>
</filter>
<filter id="filter31_f_4980_50455" x="586.374" y="384.771" width="266.607" height="269.617" filterUnits="userSpaceOnUse" color-interpolation-filters="sRGB">
<feFlood flood-opacity="0" result="BackgroundImageFix"/>
<feBlend mode="normal" in="SourceGraphic" in2="BackgroundImageFix" result="shape"/>
<feGaussianBlur stdDeviation="5.72697" result="effect1_foregroundBlur_4980_50455"/>
</filter>
<filter id="filter32_f_4980_50455" x="558.918" y="378.586" width="299.749" height="302.715" filterUnits="userSpaceOnUse" color-interpolation-filters="sRGB">
<feFlood flood-opacity="0" result="BackgroundImageFix"/>
<feBlend mode="normal" in="SourceGraphic" in2="BackgroundImageFix" result="shape"/>
<feGaussianBlur stdDeviation="13.9083" result="effect1_foregroundBlur_4980_50455"/>
</filter>
<filter id="filter33_f_4980_50455" x="415.022" y="385.773" width="433.827" height="434.72" filterUnits="userSpaceOnUse" color-interpolation-filters="sRGB">
<feFlood flood-opacity="0" result="BackgroundImageFix"/>
<feBlend mode="normal" in="SourceGraphic" in2="BackgroundImageFix" result="shape"/>
<feGaussianBlur stdDeviation="53.179" result="effect1_foregroundBlur_4980_50455"/>
</filter>
<filter id="filter34_f_4980_50455" x="674.606" y="486.102" width="174.796" height="140.088" filterUnits="userSpaceOnUse" color-interpolation-filters="sRGB">
<feFlood flood-opacity="0" result="BackgroundImageFix"/>
<feBlend mode="normal" in="SourceGraphic" in2="BackgroundImageFix" result="shape"/>
<feGaussianBlur stdDeviation="1.63628" result="effect1_foregroundBlur_4980_50455"/>
</filter>
<filter id="filter35_f_4980_50455" x="667.157" y="481.226" width="191.158" height="156.451" filterUnits="userSpaceOnUse" color-interpolation-filters="sRGB">
<feFlood flood-opacity="0" result="BackgroundImageFix"/>
<feBlend mode="normal" in="SourceGraphic" in2="BackgroundImageFix" result="shape"/>
<feGaussianBlur stdDeviation="5.72697" result="effect1_foregroundBlur_4980_50455"/>
</filter>
<filter id="filter36_f_4980_50455" x="652.803" y="473.689" width="223.904" height="189.706" filterUnits="userSpaceOnUse" color-interpolation-filters="sRGB">
<feFlood flood-opacity="0" result="BackgroundImageFix"/>
<feBlend mode="normal" in="SourceGraphic" in2="BackgroundImageFix" result="shape"/>
<feGaussianBlur stdDeviation="13.9083" result="effect1_foregroundBlur_4980_50455"/>
</filter>
<filter id="filter37_f_4980_50455" x="626.137" y="468.491" width="289.335" height="254.627" filterUnits="userSpaceOnUse" color-interpolation-filters="sRGB">
<feFlood flood-opacity="0" result="BackgroundImageFix"/>
<feBlend mode="normal" in="SourceGraphic" in2="BackgroundImageFix" result="shape"/>
<feGaussianBlur stdDeviation="30.2711" result="effect1_foregroundBlur_4980_50455"/>
</filter>
<filter id="filter38_f_4980_50455" x="601.503" y="460.33" width="354.98" height="344.759" filterUnits="userSpaceOnUse" color-interpolation-filters="sRGB">
<feFlood flood-opacity="0" result="BackgroundImageFix"/>
<feBlend mode="normal" in="SourceGraphic" in2="BackgroundImageFix" result="shape"/>
<feGaussianBlur stdDeviation="53.179" result="effect1_foregroundBlur_4980_50455"/>
</filter>
<linearGradient id="paint0_linear_4980_50455" x1="855.74" y1="524.138" x2="855.74" y2="30.1035" gradientUnits="userSpaceOnUse">
<stop stop-color="white"/>
<stop offset="1" stop-color="white" stop-opacity="0"/>
</linearGradient>
<linearGradient id="paint1_linear_4980_50455" x1="1407.65" y1="575.36" x2="1407.65" y2="81.3262" gradientUnits="userSpaceOnUse">
<stop stop-color="white"/>
<stop offset="1" stop-color="white" stop-opacity="0"/>
</linearGradient>
<linearGradient id="paint2_linear_4980_50455" x1="1413.39" y1="1060.24" x2="1413.39" y2="461.938" gradientUnits="userSpaceOnUse">
<stop stop-color="white"/>
<stop offset="1" stop-color="white" stop-opacity="0"/>
</linearGradient>
<linearGradient id="paint3_linear_4980_50455" x1="383.307" y1="353.993" x2="383.307" y2="2.75401e-06" gradientUnits="userSpaceOnUse">
<stop stop-color="white"/>
<stop offset="1" stop-color="white" stop-opacity="0"/>
</linearGradient>
<linearGradient id="paint4_linear_4980_50455" x1="584.856" y1="656.658" x2="584.856" y2="130.902" gradientUnits="userSpaceOnUse">
<stop stop-color="white"/>
<stop offset="1" stop-color="white" stop-opacity="0"/>
</linearGradient>
<linearGradient id="paint5_linear_4980_50455" x1="489.693" y1="901.596" x2="489.693" y2="575.973" gradientUnits="userSpaceOnUse">
<stop stop-color="white"/>
<stop offset="1" stop-color="white" stop-opacity="0"/>
</linearGradient>
<linearGradient id="paint6_linear_4980_50455" x1="904.338" y1="1230.43" x2="904.338" y2="858.289" gradientUnits="userSpaceOnUse">
<stop stop-color="white"/>
<stop offset="1" stop-color="white" stop-opacity="0"/>
</linearGradient>
</defs>
</svg>
