<svg width="48" height="48" viewBox="0 0 48 48" fill="none" xmlns="http://www.w3.org/2000/svg">
<path d="M16 30.0039L16.0174 29.9993" stroke="#141B34" stroke-width="3" strokeLinecap="round" stroke-linejoin="round"/>
<circle cx="18" cy="18" r="4" stroke="#141B34" stroke-width="2"/>
<circle cx="33" cy="19" r="3" stroke="#141B34" stroke-width="2"/>
<path d="M4 24C4 35.0457 12.9543 44 24 44C24.0473 44 24.0945 43.9998 24.1417 43.9995C24.0483 43.3465 24 42.6789 24 42C24 34.268 30.268 28 38 28C39.8965 28 41.7048 28.3771 43.3543 29.0604C43.7757 27.4441 44 25.7482 44 24C44 12.9543 35.0457 4 24 4C12.9543 4 4 12.9543 4 24Z" stroke="#141B34" stroke-width="2"/>
</svg>
