<svg width="35" height="35" viewBox="0 0 35 35" fill="none" xmlns="http://www.w3.org/2000/svg">
<circle cx="17.5" cy="17.5" r="17" fill="white" stroke="#D1D5DB"/>
<g clip-path="url(#clip0_4730_17358)">
<path d="M25.375 17.375H18.625V10.625C18.625 10.2798 18.3452 10 18 10C17.6548 10 17.375 10.2798 17.375 10.625V17.375H10.625C10.2798 17.375 10 17.6548 10 18C10 18.3452 10.2798 18.625 10.625 18.625H17.375V25.375C17.375 25.7202 17.6548 26 18 26C18.3452 26 18.625 25.7202 18.625 25.375V18.625H25.375C25.7202 18.625 26 18.3452 26 18C26 17.6548 25.7202 17.375 25.375 17.375Z" fill="#111827"/>
</g>
<defs>
<clipPath id="clip0_4730_17358">
<rect width="16" height="16" fill="white" transform="translate(10 10)"/>
</clipPath>
</defs>
</svg>
