<svg width="48" height="48" viewBox="0 0 48 48" fill="none" xmlns="http://www.w3.org/2000/svg">
<path d="M25.656 12.0019C25.8775 11.3758 25.9981 10.702 25.9981 10C25.9981 6.68629 23.3118 4 19.9981 4C16.6844 4 13.9981 6.68629 13.9981 10C13.9981 10.702 14.1186 11.3758 14.3402 12.0019C9.77063 12.0186 7.33202 12.1808 5.75544 13.7574C4.17902 15.3338 4.01671 17.7721 4 22.3407C4.62502 22.1201 5.29753 22 5.99808 22C9.31179 22 11.9981 24.6863 11.9981 28C11.9981 31.3137 9.31179 34 5.99808 34C5.29753 34 4.62502 33.8799 4 33.6593C4.01671 38.2279 4.17902 40.6662 5.75544 42.2426C7.33186 43.8191 9.77015 43.9814 14.3388 43.9981C14.1182 43.3731 13.9981 42.7006 13.9981 42C13.9981 38.6863 16.6844 36 19.9981 36C23.3118 36 25.9981 38.6863 25.9981 42C25.9981 42.7006 25.878 43.3731 25.6573 43.9981C30.226 43.9814 32.6643 43.8191 34.2407 42.2426C35.8173 40.6661 35.9795 38.2275 35.9962 33.6579C36.6223 33.8794 37.2961 34 37.9981 34C41.3118 34 43.9981 31.3137 43.9981 28C43.9981 24.6863 41.3118 22 37.9981 22C37.2961 22 36.6223 22.1206 35.9962 22.3421C35.9795 17.7725 35.8173 15.3339 34.2407 13.7574C32.6641 12.1808 30.2255 12.0186 25.656 12.0019Z" stroke="#141B34" stroke-width="2" stroke-linejoin="round"/>
</svg>
