<svg width="48" height="48" viewBox="0 0 48 48" fill="none" xmlns="http://www.w3.org/2000/svg">
<path d="M10 18C10 11.4003 10 8.1005 12.0503 6.05025C14.1005 4 17.4003 4 24 4C30.5997 4 33.8995 4 35.9497 6.05025C38 8.1005 38 11.4003 38 18V30C38 36.5997 38 39.8995 35.9497 41.9497C33.8995 44 30.5997 44 24 44C17.4003 44 14.1005 44 12.0503 41.9497C10 39.8995 10 36.5997 10 30V18Z" stroke="#141B34" stroke-width="2" stroke-linecap="round"/>
<path d="M22 38H26" stroke="#141B34" stroke-width="2" stroke-linecap="round" stroke-linejoin="round"/>
<path d="M18 4L18.178 5.06803C18.5638 7.38259 18.7566 8.53986 19.5504 9.24408C20.3784 9.97868 21.5523 10 24 10C26.4477 10 27.6216 9.97868 28.4496 9.24408C29.2434 8.53986 29.4362 7.38258 29.822 5.06803L30 4" stroke="#141B34" stroke-width="2" stroke-linejoin="round"/>
</svg>
