<svg width="68" height="68" viewBox="0 0 68 68" fill="none" xmlns="http://www.w3.org/2000/svg">
<rect width="68" height="68" rx="8" fill="#FFF2E6"/>
<path d="M31 53.5C26.8466 53.5 22.7865 52.2684 19.333 49.9609C15.8796 47.6534 13.188 44.3736 11.5985 40.5364C10.0091 36.6991 9.59323 32.4767 10.4035 28.4031C11.2138 24.3295 13.2139 20.5877 16.1508 17.6508C19.0877 14.7139 22.8295 12.7138 26.9031 11.9035C30.9767 11.0932 35.1991 11.5091 39.0364 13.0985C42.8736 14.688 46.1534 17.3796 48.4609 20.833C50.7684 24.2865 52 28.3466 52 32.5C52 32.6989 51.921 32.8897 51.7803 33.0303C51.6397 33.171 51.4489 33.25 51.25 33.25C51.0511 33.25 50.8603 33.171 50.7197 33.0303C50.579 32.8897 50.5 32.6989 50.5 32.5C50.5 28.6433 49.3564 24.8731 47.2137 21.6664C45.071 18.4596 42.0255 15.9603 38.4623 14.4844C34.8992 13.0084 30.9784 12.6223 27.1957 13.3747C23.4131 14.1271 19.9386 15.9843 17.2114 18.7114C14.4843 21.4386 12.6271 24.9131 11.8747 28.6957C11.1223 32.4784 11.5084 36.3992 12.9844 39.9623C14.4603 43.5255 16.9596 46.571 20.1664 48.7137C23.3731 50.8564 27.1433 52 31 52C31.1989 52 31.3897 52.079 31.5303 52.2197C31.671 52.3603 31.75 52.5511 31.75 52.75C31.75 52.9489 31.671 53.1397 31.5303 53.2803C31.3897 53.421 31.1989 53.5 31 53.5Z" fill="#EF7F1A"/>
<path d="M31 53.5C23.1423 53.5 16.75 44.0793 16.75 32.5C16.75 20.9207 23.1423 11.5 31 11.5C38.8577 11.5 45.25 20.9207 45.25 32.5C45.2547 34.8299 44.9902 37.1526 44.4618 39.4217C44.4392 39.5177 44.398 39.6083 44.3404 39.6884C44.2828 39.7684 44.2101 39.8363 44.1262 39.8883C44.0424 39.9402 43.9492 39.9751 43.8519 39.991C43.7546 40.0069 43.6551 40.0034 43.5591 39.9809C43.4631 39.9583 43.3725 39.9171 43.2925 39.8595C43.2125 39.8019 43.1445 39.7292 43.0926 39.6454C43.0407 39.5615 43.0058 39.4683 42.9899 39.371C42.974 39.2737 42.9774 39.1742 43 39.0783C43.5026 36.9217 43.7543 34.7143 43.75 32.5C43.75 21.748 38.0305 13 31 13C23.9695 13 18.25 21.748 18.25 32.5C18.25 43.252 23.9695 52 31 52C31.1989 52 31.3897 52.079 31.5303 52.2197C31.671 52.3603 31.75 52.5511 31.75 52.75C31.75 52.9489 31.671 53.1397 31.5303 53.2803C31.3897 53.421 31.1989 53.5 31 53.5Z" fill="#EF7F1A"/>
<path d="M31 53.5C27.061 53.5 25 42.9355 25 32.5C25 22.0645 27.061 11.5 31 11.5C34.939 11.5 37 22.0645 37 32.5C37 34.8363 36.898 37.1305 36.7 39.3182C36.6819 39.5165 36.5858 39.6994 36.4328 39.8267C36.2799 39.9541 36.0826 40.0155 35.8844 39.9974C35.6862 39.9793 35.5033 39.8832 35.3759 39.7302C35.2485 39.5773 35.1871 39.38 35.2052 39.1818C35.4017 37.039 35.5052 34.7913 35.5052 32.5C35.5052 20.4183 32.8847 13 31.0052 13C29.1258 13 26.5052 20.4183 26.5052 32.5C26.5052 44.5817 29.1258 52 31.0052 52C31.2042 52 31.3949 52.079 31.5356 52.2197C31.6762 52.3603 31.7552 52.5511 31.7552 52.75C31.7552 52.9489 31.6762 53.1397 31.5356 53.2803C31.3949 53.421 31.2042 53.5 31.0052 53.5H31Z" fill="#EF7F1A"/>
<path d="M51.25 33.25H13.75C13.5511 33.25 13.3603 33.171 13.2197 33.0303C13.079 32.8897 13 32.6989 13 32.5C13 32.3011 13.079 32.1103 13.2197 31.9697C13.3603 31.829 13.5511 31.75 13.75 31.75H51.25C51.4489 31.75 51.6397 31.829 51.7803 31.9697C51.921 32.1103 52 32.3011 52 32.5C52 32.6989 51.921 32.8897 51.7803 33.0303C51.6397 33.171 51.4489 33.25 51.25 33.25Z" fill="#EF7F1A"/>
<path d="M47.5 22H17.5C17.3011 22 17.1103 21.921 16.9697 21.7803C16.829 21.6397 16.75 21.4489 16.75 21.25C16.75 21.0511 16.829 20.8603 16.9697 20.7197C17.1103 20.579 17.3011 20.5 17.5 20.5H47.5C47.6989 20.5 47.8897 20.579 48.0303 20.7197C48.171 20.8603 48.25 21.0511 48.25 21.25C48.25 21.4489 48.171 21.6397 48.0303 21.7803C47.8897 21.921 47.6989 22 47.5 22Z" fill="#EF7F1A"/>
<path d="M28.75 44.5H17.5C17.3011 44.5 17.1103 44.421 16.9697 44.2803C16.829 44.1397 16.75 43.9489 16.75 43.75C16.75 43.5511 16.829 43.3603 16.9697 43.2197C17.1103 43.079 17.3011 43 17.5 43H28.75C28.9489 43 29.1397 43.079 29.2803 43.2197C29.421 43.3603 29.5 43.5511 29.5 43.75C29.5 43.9489 29.421 44.1397 29.2803 44.2803C29.1397 44.421 28.9489 44.5 28.75 44.5Z" fill="#EF7F1A"/>
<path d="M39.9998 56.4998C39.8009 56.4998 39.6102 56.4208 39.4696 56.2801L30.4696 47.2801C30.329 47.1394 30.25 46.9487 30.25 46.7498C30.25 46.551 30.329 46.3602 30.4696 46.2196L34.2196 42.4696C34.3602 42.329 34.551 42.25 34.7498 42.25C34.9487 42.25 35.1394 42.329 35.2801 42.4696L39.9998 47.1893L52.9696 34.2196C53.1102 34.079 53.301 34 53.4998 34C53.6987 34 53.8894 34.079 54.0301 34.2196L57.7801 37.9696C57.9207 38.1102 57.9997 38.301 57.9997 38.4998C57.9997 38.6987 57.9207 38.8894 57.7801 39.0301L40.5301 56.2801C40.3895 56.4208 40.1987 56.4998 39.9998 56.4998ZM32.0603 46.7498L39.9998 54.6893L56.1893 38.4998L53.4998 35.8103L40.5301 48.7801C40.3894 48.9207 40.1987 48.9997 39.9998 48.9997C39.801 48.9997 39.6102 48.9207 39.4696 48.7801L34.7498 44.0603L32.0603 46.7498Z" fill="#EF7F1A"/>
<rect x="21" y="66" width="24" height="2" fill="#EF7F1A"/>
</svg>
