<svg width="68" height="68" viewBox="0 0 68 68" fill="none" xmlns="http://www.w3.org/2000/svg">
<rect width="68" height="68" rx="8" fill="#FFF2E6"/>
<path d="M18.4075 22.0352L31.4313 14.5156L32.1994 15.8461L19.1756 23.3656L18.4075 22.0352Z" fill="#EF7F1A"/>
<path d="M35.7932 15.8438L36.5614 14.5133L49.5918 22.0366L48.8237 23.3671L35.7932 15.8438Z" fill="#EF7F1A"/>
<path d="M50.6184 26.4766H52.1544V41.5198H50.6184V26.4766Z" fill="#EF7F1A"/>
<path d="M35.7957 52.1445L48.8248 44.6219L49.5929 45.9524L36.5638 53.475L35.7957 52.1445Z" fill="#EF7F1A"/>
<path d="M18.4065 45.959L19.1747 44.6285L32.2038 52.1511L31.4356 53.4816L18.4065 45.959Z" fill="#EF7F1A"/>
<path d="M15.8457 26.4766H17.3817V41.5198H15.8457V26.4766Z" fill="#EF7F1A"/>
<path d="M18.408 25.8828L19.1761 24.5523L32.2016 32.0728L31.4334 33.4033L18.408 25.8828Z" fill="#EF7F1A"/>
<path d="M33.9958 37.2804C33.3461 37.2805 32.711 37.0879 32.1708 36.727C31.6306 36.3661 31.2095 35.8532 30.9608 35.253C30.7122 34.6528 30.6471 33.9923 30.7738 33.3551C30.9005 32.7179 31.2133 32.1326 31.6726 31.6732C32.132 31.2137 32.7173 30.9009 33.3545 30.7741C33.9917 30.6473 34.6521 30.7123 35.2524 30.9609C35.8526 31.2095 36.3656 31.6306 36.7266 32.1707C37.0875 32.7109 37.2802 33.346 37.2802 33.9957C37.2793 34.8665 36.9329 35.7014 36.3172 36.3172C35.7015 36.933 34.8666 37.2794 33.9958 37.2804ZM33.9958 32.2473C33.6499 32.2472 33.3118 32.3498 33.0241 32.5419C32.7365 32.734 32.5123 33.0071 32.3799 33.3267C32.2475 33.6462 32.2128 33.9979 32.2803 34.3371C32.3477 34.6764 32.5143 34.988 32.7589 35.2326C33.0035 35.4772 33.3151 35.6437 33.6544 35.7112C33.9936 35.7787 34.3453 35.744 34.6648 35.6116C34.9844 35.4792 35.2575 35.255 35.4496 34.9674C35.6417 34.6797 35.7442 34.3416 35.7442 33.9957C35.7436 33.5322 35.5592 33.0878 35.2314 32.7601C34.9037 32.4323 34.4593 32.2479 33.9958 32.2473Z" fill="#EF7F1A"/>
<path d="M16.6137 27.2445C15.9641 27.2445 15.3291 27.0519 14.789 26.691C14.2489 26.3301 13.8279 25.8171 13.5794 25.217C13.3308 24.6169 13.2657 23.9565 13.3925 23.3194C13.5192 22.6823 13.832 22.0971 14.2913 21.6377C14.7506 21.1784 15.3359 20.8656 15.973 20.7389C16.6101 20.6122 17.2704 20.6772 17.8706 20.9258C18.4707 21.1744 18.9836 21.5953 19.3445 22.1354C19.7054 22.6756 19.8981 23.3106 19.8981 23.9601C19.897 24.8309 19.5507 25.6657 18.935 26.2814C18.3192 26.8971 17.4845 27.2435 16.6137 27.2445ZM16.6137 22.2118C16.2679 22.2118 15.9299 22.3143 15.6424 22.5064C15.3549 22.6985 15.1308 22.9716 14.9984 23.2911C14.8661 23.6105 14.8315 23.9621 14.8989 24.3012C14.9664 24.6404 15.1329 24.9519 15.3774 25.1964C15.6219 25.4409 15.9335 25.6074 16.2726 25.6749C16.6118 25.7424 16.9633 25.7077 17.2828 25.5754C17.6022 25.4431 17.8753 25.219 18.0674 24.9315C18.2595 24.644 18.3621 24.3059 18.3621 23.9601C18.3615 23.4966 18.1772 23.0522 17.8494 22.7244C17.5216 22.3967 17.0772 22.2123 16.6137 22.2118Z" fill="#EF7F1A"/>
<path d="M16.6137 47.3195C15.964 47.3196 15.3289 47.127 14.7887 46.7661C14.2485 46.4052 13.8274 45.8922 13.5787 45.2919C13.3301 44.6917 13.265 44.0312 13.3917 43.394C13.5184 42.7568 13.8313 42.1715 14.2907 41.7121C14.7501 41.2527 15.3354 40.9398 15.9726 40.8131C16.6098 40.6864 17.2703 40.7514 17.8705 41.0001C18.4708 41.2488 18.9838 41.6698 19.3447 42.2101C19.7056 42.7503 19.8982 43.3854 19.8981 44.0351C19.8972 44.9059 19.5508 45.7408 18.9351 46.3565C18.3194 46.9722 17.4845 47.3186 16.6137 47.3195ZM16.6137 42.2864C16.2679 42.2863 15.9297 42.3888 15.6421 42.5809C15.3545 42.773 15.1303 43.0461 14.9978 43.3656C14.8654 43.6852 14.8307 44.0368 14.8982 44.376C14.9656 44.7153 15.1321 45.0269 15.3767 45.2715C15.6212 45.5161 15.9328 45.6827 16.272 45.7502C16.6113 45.8177 16.9629 45.7831 17.2825 45.6508C17.602 45.5184 17.8752 45.2943 18.0673 45.0067C18.2595 44.7191 18.3621 44.381 18.3621 44.0351C18.3616 43.5716 18.1772 43.1271 17.8495 42.7993C17.5217 42.4714 17.0773 42.287 16.6137 42.2864Z" fill="#EF7F1A"/>
<path d="M34.0001 57.3566C33.3504 57.3566 32.7153 57.1639 32.1751 56.803C31.6349 56.442 31.2139 55.929 30.9653 55.3288C30.7167 54.7285 30.6517 54.0681 30.7785 53.4309C30.9053 52.7937 31.2181 52.2084 31.6775 51.7491C32.137 51.2897 32.7223 50.9769 33.3595 50.8502C33.9967 50.7235 34.6572 50.7886 35.2574 51.0373C35.8576 51.2859 36.3705 51.707 36.7314 52.2472C37.0923 52.7874 37.2849 53.4226 37.2848 54.0722C37.2837 54.943 36.9372 55.7778 36.3215 56.3935C35.7057 57.0092 34.8709 57.3556 34.0001 57.3566ZM34.0001 52.3235C33.6542 52.3235 33.3161 52.4261 33.0285 52.6182C32.7409 52.8104 32.5168 53.0835 32.3844 53.403C32.2521 53.7226 32.2175 54.0742 32.2849 54.4134C32.3524 54.7526 32.519 55.0642 32.7635 55.3088C33.0081 55.5533 33.3197 55.7199 33.6589 55.7874C33.9981 55.8548 34.3497 55.8202 34.6693 55.6879C34.9888 55.5555 35.2619 55.3314 35.4541 55.0438C35.6462 54.7562 35.7488 54.4181 35.7488 54.0722C35.7483 53.6086 35.5639 53.1641 35.2361 52.8362C34.9082 52.5084 34.4637 52.324 34.0001 52.3235Z" fill="#EF7F1A"/>
<path d="M51.3863 47.3195C50.7366 47.3195 50.1015 47.1268 49.5614 46.7659C49.0212 46.4049 48.6002 45.8919 48.3516 45.2917C48.103 44.6914 48.0379 44.031 48.1647 43.3938C48.2915 42.7566 48.6044 42.1713 49.0638 41.7119C49.5232 41.2526 50.1085 40.9398 50.7457 40.8131C51.3829 40.6864 52.0434 40.7515 52.6436 41.0001C53.2438 41.2488 53.7568 41.6699 54.1176 42.2101C54.4785 42.7503 54.6711 43.3854 54.671 44.0351C54.6701 44.906 54.3237 45.7409 53.7079 46.3566C53.0921 46.9724 52.2572 47.3187 51.3863 47.3195ZM51.3863 42.2864C51.0404 42.2864 50.7023 42.3889 50.4148 42.5811C50.1272 42.7733 49.903 43.0464 49.7707 43.3659C49.6383 43.6854 49.6037 44.0371 49.6712 44.3763C49.7386 44.7155 49.9052 45.0271 50.1498 45.2717C50.3943 45.5162 50.7059 45.6828 51.0451 45.7503C51.3844 45.8177 51.736 45.7831 52.0555 45.6507C52.3751 45.5184 52.6482 45.2942 52.8403 45.0067C53.0325 44.7191 53.135 44.381 53.135 44.0351C53.1345 43.5715 52.9501 43.127 52.6223 42.7991C52.2944 42.4713 51.8499 42.2869 51.3863 42.2864Z" fill="#EF7F1A"/>
<path d="M33.9958 17.214C33.3461 17.2141 32.711 17.0215 32.1708 16.6606C31.6306 16.2997 31.2095 15.7867 30.9608 15.1865C30.7122 14.5863 30.6471 13.9259 30.7738 13.2887C30.9005 12.6515 31.2133 12.0662 31.6726 11.6067C32.132 11.1473 32.7173 10.8344 33.3545 10.7077C33.9917 10.5809 34.6521 10.6459 35.2524 10.8945C35.8526 11.1431 36.3656 11.5641 36.7266 12.1043C37.0875 12.6445 37.2802 13.2796 37.2802 13.9293C37.2793 14.8001 36.9329 15.635 36.3172 16.2508C35.7015 16.8666 34.8666 17.213 33.9958 17.214ZM33.9958 12.1809C33.6499 12.1808 33.3118 12.2833 33.0241 12.4755C32.7365 12.6676 32.5123 12.9407 32.3799 13.2603C32.2475 13.5798 32.2128 13.9315 32.2803 14.2707C32.3477 14.61 32.5143 14.9216 32.7589 15.1662C33.0035 15.4108 33.3151 15.5773 33.6544 15.6448C33.9936 15.7123 34.3453 15.6776 34.6648 15.5452C34.9844 15.4128 35.2575 15.1886 35.4496 14.901C35.6417 14.6133 35.7442 14.2752 35.7442 13.9293C35.7436 13.4658 35.5592 13.0214 35.2314 12.6937C34.9037 12.3659 34.4593 12.1815 33.9958 12.1809Z" fill="#EF7F1A"/>
<path d="M51.3863 27.2445C50.7367 27.2444 50.1017 27.0517 49.5617 26.6908C49.0216 26.3299 48.6007 25.8169 48.3522 25.2167C48.1037 24.6166 48.0387 23.9562 48.1655 23.3192C48.2922 22.6821 48.6051 22.0969 49.0644 21.6376C49.5237 21.1783 50.109 20.8656 50.746 20.7389C51.3831 20.6122 52.0435 20.6772 52.6436 20.9258C53.2437 21.1744 53.7566 21.5954 54.1175 22.1355C54.4784 22.6756 54.671 23.3106 54.671 23.9601C54.67 24.831 54.3236 25.6658 53.7078 26.2815C53.092 26.8973 52.2571 27.2436 51.3863 27.2445ZM51.3863 22.2118C51.0405 22.2119 50.7025 22.3145 50.415 22.5066C50.1276 22.6988 49.9035 22.9719 49.7713 23.2913C49.639 23.6108 49.6044 23.9623 49.6719 24.3015C49.7394 24.6406 49.906 24.9521 50.1505 25.1965C50.395 25.441 50.7066 25.6075 51.0457 25.6749C51.3848 25.7424 51.7364 25.7077 52.0558 25.5754C52.3753 25.443 52.6483 25.2189 52.8404 24.9314C53.0325 24.6439 53.135 24.3059 53.135 23.9601C53.1345 23.4965 52.9501 23.0521 52.6222 22.7243C52.2944 22.3965 51.8499 22.2122 51.3863 22.2118Z" fill="#EF7F1A"/>
<path d="M33.2278 36.5117H34.7638V51.5549H33.2278V36.5117Z" fill="#EF7F1A"/>
<path d="M35.791 32.0723L48.8228 24.5481L49.591 25.8786L36.5592 33.4027L35.791 32.0723Z" fill="#EF7F1A"/>
<path d="M46.8022 42.2754L47.5704 40.9449L49.5657 42.0969L48.7975 43.4274L46.8022 42.2754Z" fill="#EF7F1A"/>
<path d="M40.7937 38.8066L41.5619 37.4761L44.5664 39.2109L43.7982 40.5414L40.7937 38.8066Z" fill="#EF7F1A"/>
<path d="M35.7939 35.9219L36.5621 34.5914L38.5574 35.7434L37.7892 37.0739L35.7939 35.9219Z" fill="#EF7F1A"/>
<path d="M33.2278 16.4453H34.7638V18.7493H33.2278V16.4453Z" fill="#EF7F1A"/>
<path d="M33.2278 22.2246H34.7638V25.6998H33.2278V22.2246Z" fill="#EF7F1A"/>
<path d="M33.2278 29.1738H34.7638V31.4778H33.2278V29.1738Z" fill="#EF7F1A"/>
<path d="M18.3984 42.1211L20.3937 40.9691L21.1615 42.2989L19.1662 43.4509L18.3984 42.1211Z" fill="#EF7F1A"/>
<path d="M23.4067 39.2305L26.4186 37.4915L27.1864 38.8214L24.1745 40.5603L23.4067 39.2305Z" fill="#EF7F1A"/>
<path d="M29.4321 35.752L31.4274 34.6L32.1952 35.9298L30.1999 37.0818L29.4321 35.752Z" fill="#EF7F1A"/>
<rect x="21" y="66" width="24" height="2" fill="#EF7F1A"/>
</svg>
