<svg width="68" height="68" viewBox="0 0 68 68" fill="none" xmlns="http://www.w3.org/2000/svg">
<rect width="68" height="68" rx="8" fill="#FFF2E6"/>
<g clip-path="url(#clip0_5236_8059)">
<path d="M37.75 48.25H30.25C30.134 48.2513 30.0192 48.2256 29.9147 48.175C26.596 46.5115 26.5 39.988 26.5 39.25V19.75C26.5 15.6392 32.0447 10 34 10C35.9552 10 41.5 15.6392 41.5 19.75V22C41.5 22.1989 41.421 22.3897 41.2803 22.5303C41.1397 22.671 40.9489 22.75 40.75 22.75C40.5511 22.75 40.3603 22.671 40.2197 22.5303C40.079 22.3897 40 22.1989 40 22V19.75C40 16.3172 35.0335 11.5668 34 11.5C32.9703 11.5668 28 16.3172 28 19.75V39.25C28 40.9585 28.45 45.55 30.4412 46.75H37.5587C39.5567 45.55 40 40.9585 40 39.25V25C40 24.8011 40.079 24.6103 40.2197 24.4697C40.3603 24.329 40.5511 24.25 40.75 24.25C40.9489 24.25 41.1397 24.329 41.2803 24.4697C41.421 24.6103 41.5 24.8011 41.5 25V39.25C41.5 39.988 41.404 46.5115 38.0852 48.175C37.9808 48.2256 37.866 48.2513 37.75 48.25Z" fill="#EF7F1A"/>
<path d="M34.0002 37C33.2529 37.0001 32.5174 36.8141 31.86 36.4589C31.2026 36.1036 30.6441 35.5902 30.2347 34.965C29.8254 34.3399 29.5782 33.6226 29.5154 32.878C29.4526 32.1334 29.5763 31.3849 29.8752 30.7C29.9125 30.6068 29.9682 30.522 30.039 30.4507C30.1097 30.3794 30.194 30.323 30.2869 30.2849C30.3799 30.2468 30.4795 30.2278 30.5799 30.2289C30.6803 30.2301 30.7795 30.2514 30.8716 30.2916C30.9636 30.3317 31.0466 30.39 31.1157 30.4629C31.1848 30.5358 31.2386 30.6218 31.2738 30.7159C31.309 30.8099 31.325 30.9101 31.3208 31.0104C31.3165 31.1108 31.2922 31.2092 31.2492 31.3C30.9697 31.9405 30.9225 32.6585 31.1159 33.3301C31.3093 34.0016 31.7311 34.5846 32.3084 34.9784C32.8858 35.3721 33.5825 35.552 34.2783 35.4869C34.9741 35.4218 35.6253 35.1158 36.1196 34.6217C36.6139 34.1277 36.9202 33.4766 36.9856 32.7808C37.051 32.0851 36.8715 31.3883 36.478 30.8107C36.0845 30.2332 35.5018 29.8112 34.8303 29.6175C34.1589 29.4238 33.4408 29.4705 32.8002 29.7497C32.6181 29.8281 32.4124 29.8311 32.2281 29.7583C32.0437 29.6854 31.8957 29.5425 31.8164 29.3608C31.7371 29.1791 31.733 28.9734 31.8049 28.7887C31.8768 28.604 32.0189 28.4552 32.2002 28.375C32.8133 28.1077 33.4782 27.9804 34.1467 28.0024C34.8152 28.0244 35.4703 28.1952 36.0645 28.5022C36.6587 28.8093 37.1769 29.2449 37.5816 29.7774C37.9862 30.3099 38.2671 30.926 38.4037 31.5807C38.5404 32.2354 38.5293 32.9123 38.3715 33.5623C38.2136 34.2122 37.9128 34.8187 37.491 35.3378C37.0693 35.8569 36.5371 36.2754 35.9332 36.5629C35.3294 36.8505 34.669 36.9998 34.0002 37Z" fill="#EF7F1A"/>
<path d="M34 21.9993C29.2442 21.9993 26.821 19.6308 26.7197 19.5295L27.775 18.4668C27.796 18.4863 29.8975 20.4993 34 20.4993C38.1025 20.4993 40.2017 18.4863 40.225 18.4668L41.2825 19.5295C41.179 19.6308 38.7557 21.9993 34 21.9993Z" fill="#EF7F1A"/>
<path d="M37.75 50.5H30.25C30.0511 50.5 29.8603 50.421 29.7197 50.2803C29.579 50.1397 29.5 49.9489 29.5 49.75V47.5C29.5 47.3011 29.579 47.1103 29.7197 46.9697C29.8603 46.829 30.0511 46.75 30.25 46.75H37.75C37.9489 46.75 38.1397 46.829 38.2803 46.9697C38.421 47.1103 38.5 47.3011 38.5 47.5V49.75C38.5 49.9489 38.421 50.1397 38.2803 50.2803C38.1397 50.421 37.9489 50.5 37.75 50.5ZM31 49H37V48.25H31V49Z" fill="#EF7F1A"/>
<path d="M46 45.25H40V43.75H45.25V42.25C45.25 33.175 40.591 31.7343 40.5445 31.7208L40.9555 30.2793C41.1925 30.346 46.75 32.05 46.75 42.25V44.5C46.75 44.699 46.671 44.8897 46.5303 45.0304C46.3897 45.171 46.1989 45.25 46 45.25Z" fill="#EF7F1A"/>
<path d="M28 45.25H22C21.8011 45.25 21.6103 45.171 21.4697 45.0304C21.329 44.8897 21.25 44.699 21.25 44.5V42.25C21.25 32.05 26.8075 30.346 27.0445 30.2793L27.4555 31.7208L27.25 31L27.4623 31.7193C27.2695 31.7785 22.75 33.2613 22.75 42.25V43.75H28V45.25Z" fill="#EF7F1A"/>
<path d="M27.25 53.5C27.0511 53.5 26.8603 53.421 26.7197 53.2803C26.579 53.1397 26.5 52.9489 26.5 52.75C26.5012 51.7558 26.8967 50.8027 27.5997 50.0997C28.3027 49.3967 29.2558 49.0012 30.25 49C30.4489 49 30.6397 49.079 30.7803 49.2197C30.921 49.3603 31 49.5511 31 49.75C31 49.9489 30.921 50.1397 30.7803 50.2803C30.6397 50.421 30.4489 50.5 30.25 50.5C29.6533 50.5 29.081 50.7371 28.659 51.159C28.2371 51.581 28 52.1533 28 52.75C28 52.9489 27.921 53.1397 27.7803 53.2803C27.6397 53.421 27.4489 53.5 27.25 53.5Z" fill="#EF7F1A"/>
<path d="M27.4002 52C27.2685 52 27.1392 51.9653 27.0252 51.8995C26.9112 51.8337 26.8165 51.739 26.7507 51.625C26.4201 51.0556 25.946 50.5828 25.3756 50.2538C24.8053 49.9248 24.1586 49.7511 23.5002 49.75C22.8615 49.7504 22.235 49.9252 21.6885 50.2557C21.1419 50.5861 20.696 51.0596 20.3989 51.625C20.3521 51.7146 20.2875 51.7938 20.2092 51.8579C20.1309 51.9219 20.0405 51.9695 19.9433 51.9977C19.8462 52.0258 19.7444 52.0341 19.6439 52.0219C19.5435 52.0097 19.4466 51.9773 19.359 51.9267C19.2715 51.8761 19.195 51.8082 19.1344 51.7273C19.0737 51.6464 19.03 51.554 19.0059 51.4558C18.9818 51.3575 18.9779 51.2554 18.9943 51.1556C19.0107 51.0558 19.0472 50.9604 19.1014 50.875C19.5306 50.0822 20.1658 49.4198 20.94 48.9578C21.7141 48.4958 22.5986 48.2513 23.5002 48.25C24.4215 48.2519 25.3262 48.4952 26.124 48.9558C26.9219 49.4164 27.5851 50.0781 28.0474 50.875C28.1132 50.9888 28.1478 51.118 28.1479 51.2494C28.148 51.3809 28.1136 51.5101 28.048 51.624C27.9824 51.738 27.8881 51.8327 27.7744 51.8987C27.6607 51.9647 27.5316 51.9996 27.4002 52Z" fill="#EF7F1A"/>
<path d="M19.75 58C18.7554 58 17.8016 57.6049 17.0983 56.9017C16.3951 56.1984 16 55.2446 16 54.25C16 53.2554 16.3951 52.3016 17.0983 51.5983C17.8016 50.8951 18.7554 50.5 19.75 50.5C19.9489 50.5 20.1397 50.579 20.2803 50.7197C20.421 50.8603 20.5 51.0511 20.5 51.25C20.5 51.4489 20.421 51.6397 20.2803 51.7803C20.1397 51.921 19.9489 52 19.75 52C19.1533 52 18.581 52.2371 18.159 52.659C17.7371 53.081 17.5 53.6533 17.5 54.25C17.5 54.8467 17.7371 55.419 18.159 55.841C18.581 56.2629 19.1533 56.5 19.75 56.5C19.9489 56.5 20.1397 56.579 20.2803 56.7197C20.421 56.8603 20.5 57.0511 20.5 57.25C20.5 57.4489 20.421 57.6397 20.2803 57.7803C20.1397 57.921 19.9489 58 19.75 58Z" fill="#EF7F1A"/>
<path d="M40.6562 54.25C40.5418 54.2502 40.4287 54.2241 40.3259 54.1739C40.223 54.1236 40.133 54.0505 40.0628 53.96C39.9926 53.8696 39.944 53.7643 39.9207 53.6522C39.8975 53.5401 39.9002 53.4241 39.9287 53.3133C40.0147 52.9807 40.0234 52.6329 39.9542 52.2964C39.885 51.96 39.7396 51.6439 39.5293 51.3723C39.319 51.1007 39.0493 50.8809 38.7408 50.7297C38.4324 50.5785 38.0935 50.4999 37.75 50.5C37.5511 50.5 37.3603 50.421 37.2197 50.2803C37.079 50.1397 37 49.9489 37 49.75C37 49.5511 37.079 49.3603 37.2197 49.2197C37.3603 49.079 37.5511 49 37.75 49C38.7442 49.0012 39.6973 49.3967 40.4003 50.0997C41.1033 50.8027 41.4988 51.7558 41.5 52.75C41.4999 53.0659 41.4603 53.3806 41.3822 53.6868C41.3408 53.8479 41.247 53.9906 41.1156 54.0926C40.9842 54.1945 40.8226 54.2499 40.6562 54.25Z" fill="#EF7F1A"/>
<path d="M48.25 52C48.1183 52 47.989 51.9653 47.875 51.8995C47.761 51.8337 47.6663 51.739 47.6005 51.625C47.3035 51.0597 46.8577 50.5863 46.3113 50.2558C45.7649 49.9254 45.1386 49.7505 44.5 49.75C43.8418 49.7513 43.1955 49.9252 42.6254 50.2542C42.0553 50.5831 41.5815 51.0558 41.251 51.625C41.2041 51.7146 41.1396 51.7938 41.0613 51.8579C40.983 51.9219 40.8925 51.9695 40.7954 51.9977C40.6982 52.0258 40.5964 52.0341 40.496 52.0219C40.3956 52.0097 40.2987 51.9773 40.2111 51.9267C40.1235 51.8761 40.0471 51.8082 39.9864 51.7273C39.9257 51.6464 39.882 51.554 39.858 51.4558C39.8339 51.3575 39.83 51.2554 39.8464 51.1556C39.8628 51.0558 39.8992 50.9604 39.9535 50.875C40.4156 50.0781 41.0786 49.4163 41.8764 48.9557C42.6742 48.4951 43.5788 48.2518 44.5 48.25C45.4015 48.2513 46.286 48.4958 47.0602 48.9578C47.8344 49.4198 48.4696 50.0822 48.8987 50.875C48.9645 50.989 48.9992 51.1182 48.9992 51.2498C48.9993 51.3814 48.9647 51.5107 48.8989 51.6247C48.8332 51.7387 48.7386 51.8334 48.6247 51.8992C48.5108 51.9651 48.3816 51.9999 48.25 52Z" fill="#EF7F1A"/>
<path d="M48.25 58C48.0511 58 47.8603 57.921 47.7197 57.7803C47.579 57.6397 47.5 57.4489 47.5 57.25C47.5 57.0511 47.579 56.8603 47.7197 56.7197C47.8603 56.579 48.0511 56.5 48.25 56.5C48.8467 56.5 49.419 56.2629 49.841 55.841C50.2629 55.419 50.5 54.8467 50.5 54.25C50.5 53.6533 50.2629 53.081 49.841 52.659C49.419 52.2371 48.8467 52 48.25 52C48.0511 52 47.8603 51.921 47.7197 51.7803C47.579 51.6397 47.5 51.4489 47.5 51.25C47.5 51.0511 47.579 50.8603 47.7197 50.7197C47.8603 50.579 48.0511 50.5 48.25 50.5C49.2446 50.5 50.1984 50.8951 50.9017 51.5983C51.6049 52.3016 52 53.2554 52 54.25C52 55.2446 51.6049 56.1984 50.9017 56.9017C50.1984 57.6049 49.2446 58 48.25 58Z" fill="#EF7F1A"/>
<path d="M21.25 54.25C21.0511 54.25 20.8603 54.171 20.7197 54.0303C20.579 53.8897 20.5 53.6989 20.5 53.5C20.5 52.7044 20.8161 51.9413 21.3787 51.3787C21.9413 50.8161 22.7044 50.5 23.5 50.5C23.6989 50.5 23.8897 50.579 24.0303 50.7197C24.171 50.8603 24.25 51.0511 24.25 51.25C24.25 51.4489 24.171 51.6397 24.0303 51.7803C23.8897 51.921 23.6989 52 23.5 52C23.1022 52 22.7206 52.158 22.4393 52.4393C22.158 52.7206 22 53.1022 22 53.5C22 53.6989 21.921 53.8897 21.7803 54.0303C21.6397 54.171 21.4489 54.25 21.25 54.25Z" fill="#EF7F1A"/>
<path d="M46 54.25C45.8011 54.25 45.6103 54.171 45.4697 54.0303C45.329 53.8897 45.25 53.6989 45.25 53.5C45.25 53.3011 45.171 53.1103 45.0303 52.9697C44.8897 52.829 44.6989 52.75 44.5 52.75C44.3011 52.75 44.1103 52.671 43.9697 52.5303C43.829 52.3897 43.75 52.1989 43.75 52C43.75 51.8011 43.829 51.6103 43.9697 51.4697C44.1103 51.329 44.3011 51.25 44.5 51.25C45.0967 51.25 45.669 51.4871 46.091 51.909C46.5129 52.331 46.75 52.9033 46.75 53.5C46.75 53.6989 46.671 53.8897 46.5303 54.0303C46.3897 54.171 46.1989 54.25 46 54.25Z" fill="#EF7F1A"/>
<path d="M54.1562 58C54.0418 58.0002 53.9287 57.9741 53.8259 57.9239C53.723 57.8736 53.633 57.8005 53.5628 57.71C53.4926 57.6196 53.444 57.5143 53.4207 57.4022C53.3975 57.2901 53.4002 57.1741 53.4287 57.0633C53.5147 56.7307 53.5234 56.3829 53.4542 56.0464C53.385 55.71 53.2396 55.3939 53.0293 55.1223C52.819 54.8507 52.5493 54.6309 52.2408 54.4797C51.9324 54.3285 51.5935 54.2499 51.25 54.25C51.0511 54.25 50.8603 54.171 50.7197 54.0303C50.579 53.8897 50.5 53.6989 50.5 53.5C50.5 53.3011 50.579 53.1103 50.7197 52.9697C50.8603 52.829 51.0511 52.75 51.25 52.75C52.2442 52.7512 53.1973 53.1467 53.9003 53.8497C54.6033 54.5527 54.9988 55.5058 55 56.5C54.9999 56.8159 54.9603 57.1306 54.8822 57.4368C54.8408 57.5979 54.747 57.7406 54.6156 57.8426C54.4842 57.9445 54.3226 57.9999 54.1562 58Z" fill="#EF7F1A"/>
<path d="M13.8438 58C13.6774 57.9999 13.5158 57.9445 13.3844 57.8426C13.253 57.7406 13.1592 57.5979 13.1178 57.4368C13.0397 57.1306 13.0001 56.8159 13 56.5C13.0012 55.5058 13.3967 54.5527 14.0997 53.8497C14.8027 53.1467 15.7558 52.7512 16.75 52.75C16.9489 52.75 17.1397 52.829 17.2803 52.9697C17.421 53.1103 17.5 53.3011 17.5 53.5C17.5 53.6989 17.421 53.8897 17.2803 54.0303C17.1397 54.171 16.9489 54.25 16.75 54.25C16.4068 54.2505 16.0683 54.3295 15.7604 54.481C15.4524 54.6324 15.1832 54.8523 14.9733 55.1238C14.7634 55.3953 14.6184 55.7112 14.5494 56.0474C14.4803 56.3835 14.4891 56.731 14.575 57.0632C14.5996 57.1587 14.6051 57.2581 14.5912 57.3557C14.5773 57.4534 14.5443 57.5473 14.494 57.6321C14.4438 57.717 14.3774 57.7911 14.2985 57.8502C14.2196 57.9094 14.1298 57.9524 14.0343 57.9768C13.972 57.9925 13.908 58.0003 13.8438 58Z" fill="#EF7F1A"/>
<path d="M34 58C33.8011 58 33.6103 57.921 33.4697 57.7803C33.329 57.6397 33.25 57.4489 33.25 57.25V54.25C33.25 54.0511 33.329 53.8603 33.4697 53.7197C33.6103 53.579 33.8011 53.5 34 53.5C34.1989 53.5 34.3897 53.579 34.5303 53.7197C34.671 53.8603 34.75 54.0511 34.75 54.25V57.25C34.75 57.4489 34.671 57.6397 34.5303 57.7803C34.3897 57.921 34.1989 58 34 58Z" fill="#EF7F1A"/>
<path d="M37 56.5C36.8011 56.5 36.6103 56.421 36.4697 56.2803C36.329 56.1397 36.25 55.9489 36.25 55.75V52.75C36.25 52.5511 36.329 52.3603 36.4697 52.2197C36.6103 52.079 36.8011 52 37 52C37.1989 52 37.3897 52.079 37.5303 52.2197C37.671 52.3603 37.75 52.5511 37.75 52.75V55.75C37.75 55.9489 37.671 56.1397 37.5303 56.2803C37.3897 56.421 37.1989 56.5 37 56.5Z" fill="#EF7F1A"/>
<path d="M31 56.5C30.8011 56.5 30.6103 56.421 30.4697 56.2803C30.329 56.1397 30.25 55.9489 30.25 55.75V52.75C30.25 52.5511 30.329 52.3603 30.4697 52.2197C30.6103 52.079 30.8011 52 31 52C31.1989 52 31.3897 52.079 31.5303 52.2197C31.671 52.3603 31.75 52.5511 31.75 52.75V55.75C31.75 55.9489 31.671 56.1397 31.5303 56.2803C31.3897 56.421 31.1989 56.5 31 56.5Z" fill="#EF7F1A"/>
</g>
<rect x="21" y="66" width="24" height="2" fill="#EF7F1A"/>
<defs>
<clipPath id="clip0_5236_8059">
<rect width="48" height="48" fill="white" transform="translate(10 10)"/>
</clipPath>
</defs>
</svg>
