<svg width="68" height="68" viewBox="0 0 68 68" fill="none" xmlns="http://www.w3.org/2000/svg">
<rect width="68" height="68" rx="8" fill="#FFF2E6"/>
<g clip-path="url(#clip0_5236_7995)">
<path d="M46.75 57.9996H27.25C27.0511 57.9996 26.8603 57.9206 26.7197 57.7799C26.579 57.6392 26.5 57.4485 26.5 57.2496V47.4996H21.25C20.2558 47.4984 19.3027 47.1029 18.5997 46.3999C17.8967 45.6969 17.5012 44.7438 17.5 43.7496V39.9996H14.6875C14.239 39.9998 13.7992 39.8762 13.4164 39.6424C13.0337 39.4087 12.7229 39.0738 12.5182 38.6748C12.3136 38.2757 12.2231 37.8279 12.2566 37.3807C12.2901 36.9335 12.4464 36.5042 12.7082 36.1401L17.5 27.7971C17.5317 25.3739 18.0503 22.9819 19.025 20.7632C19.9997 18.5445 21.4105 16.5445 23.1737 14.8821C24.9625 13.1875 27.083 11.8819 29.4015 11.0476C31.7199 10.2134 34.1861 9.86851 36.6445 10.0348C41.0466 10.3524 45.1826 12.2611 48.2804 15.4048C51.3783 18.5484 53.2261 22.7121 53.479 27.1183C53.6 29.481 53.2513 31.8443 52.4531 34.0714C51.655 36.2985 50.4232 38.3453 48.829 40.0933C47.9681 41.0473 47.4941 42.2883 47.5 43.5733V52.7496C47.5 52.9485 47.421 53.1392 47.2803 53.2799C47.1397 53.4206 46.9489 53.4996 46.75 53.4996C46.5511 53.4996 46.3603 53.4206 46.2197 53.2799C46.079 53.1392 46 52.9485 46 52.7496V43.5733C45.9931 41.9149 46.6056 40.3136 47.7175 39.0831C49.1788 37.4807 50.308 35.6046 51.0397 33.5631C51.7714 31.5216 52.0912 29.3554 51.9805 27.1896C51.7487 23.1509 50.0549 19.3346 47.2154 16.4533C44.3759 13.572 40.5848 11.8226 36.55 11.5318C34.2992 11.3883 32.0429 11.7077 29.9204 12.4704C27.7979 13.2331 25.8543 14.4228 24.2096 15.966C22.5649 17.5093 21.2541 19.3733 20.3581 21.443C19.462 23.5128 18.9998 25.7442 19 27.9996C19.0002 28.1312 18.9658 28.2605 18.9002 28.3746L13.9877 36.9246C13.9727 36.9507 13.9559 36.9757 13.9375 36.9996C13.833 37.1389 13.7694 37.3045 13.7538 37.4779C13.7381 37.6513 13.7711 37.8256 13.849 37.9813C13.9268 38.1371 14.0465 38.268 14.1946 38.3596C14.3427 38.4511 14.5134 38.4996 14.6875 38.4996H18.25C18.4489 38.4996 18.6397 38.5786 18.7803 38.7192C18.921 38.8599 19 39.0507 19 39.2496V43.7496C19 44.3463 19.237 44.9186 19.659 45.3406C20.081 45.7625 20.6533 45.9996 21.25 45.9996H27.25C27.4489 45.9996 27.6397 46.0786 27.7803 46.2192C27.921 46.3599 28 46.5507 28 46.7496V56.4996H46V55.7496C46 55.5507 46.079 55.3599 46.2197 55.2192C46.3603 55.0786 46.5511 54.9996 46.75 54.9996C46.9489 54.9996 47.1397 55.0786 47.2803 55.2192C47.421 55.3599 47.5 55.5507 47.5 55.7496V57.2496C47.5 57.4485 47.421 57.6392 47.2803 57.7799C47.1397 57.9206 46.9489 57.9996 46.75 57.9996Z" fill="#EF7F1A"/>
<path d="M32.5001 39.25C32.3012 39.25 32.1104 39.171 31.9697 39.0303C31.8291 38.8897 31.7501 38.6989 31.7501 38.5V35.998C30.1865 35.3274 28.8549 34.2115 27.9213 32.7892C26.9877 31.3669 26.4934 29.7013 26.5001 28C26.5001 25.6131 27.4483 23.3239 29.1361 21.636C30.8239 19.9482 33.1131 19 35.5001 19C37.887 19 40.1762 19.9482 41.864 21.636C43.5519 23.3239 44.5001 25.6131 44.5001 28C44.511 29.309 44.2205 30.603 43.6513 31.7817C43.0821 32.9605 42.2493 33.9926 41.2173 34.798C41.1405 34.8615 41.0519 34.9091 40.9565 34.938C40.8611 34.9669 40.7609 34.9765 40.6617 34.9662C40.5626 34.9559 40.4665 34.926 40.3791 34.8781C40.2917 34.8303 40.2146 34.7655 40.1525 34.6875C40.0904 34.6096 40.0445 34.52 40.0174 34.4241C39.9903 34.3282 39.9826 34.2279 39.9947 34.1289C40.0068 34.03 40.0386 33.9345 40.088 33.848C40.1375 33.7614 40.2037 33.6856 40.2828 33.625C41.1369 32.9587 41.8263 32.1048 42.2975 31.1294C42.7687 30.154 43.0091 29.0832 43.0001 28C43.0001 26.0109 42.2099 24.1032 40.8034 22.6967C39.3968 21.2902 37.4892 20.5 35.5001 20.5C33.5109 20.5 31.6033 21.2902 30.1968 22.6967C28.7902 24.1032 28.0001 26.0109 28.0001 28C27.9997 29.4869 28.4578 30.9377 29.3119 32.1547C30.166 33.3717 31.3747 34.2958 32.7731 34.801C32.9137 34.856 33.0345 34.9521 33.1196 35.0768C33.2047 35.2015 33.2502 35.349 33.2501 35.5V37.5393L37.7501 36.4143V35.5C37.7501 35.3011 37.8291 35.1103 37.9697 34.9697C38.1104 34.829 38.3012 34.75 38.5001 34.75C38.699 34.75 38.8897 34.829 39.0304 34.9697C39.1711 35.1103 39.2501 35.3011 39.2501 35.5V37C39.2501 37.1672 39.1942 37.3296 39.0913 37.4614C38.9885 37.5932 38.8445 37.6869 38.6823 37.7275L32.6823 39.2275C32.6227 39.2424 32.5615 39.25 32.5001 39.25Z" fill="#EF7F1A"/>
<path d="M32.4999 41.4993C32.317 41.4991 32.1404 41.4321 32.0035 41.3108C31.8665 41.1895 31.7786 41.0224 31.7563 40.8408C31.734 40.6592 31.7788 40.4758 31.8824 40.3249C31.9859 40.1741 32.141 40.0663 32.3184 40.0218L38.3184 38.5218C38.4142 38.4971 38.514 38.4916 38.6119 38.5056C38.7099 38.5196 38.8041 38.5528 38.8891 38.6034C38.9742 38.6539 39.0484 38.7208 39.1074 38.8002C39.1665 38.8795 39.2093 38.9698 39.2334 39.0658C39.2574 39.1618 39.2622 39.2616 39.2475 39.3594C39.2329 39.4572 39.1989 39.5512 39.1478 39.6359C39.0966 39.7206 39.0292 39.7943 38.9494 39.8528C38.8696 39.9113 38.7791 39.9535 38.6829 39.9768L32.6829 41.4769C32.6231 41.492 32.5616 41.4996 32.4999 41.4993Z" fill="#EF7F1A"/>
<path d="M32.4999 43.7493C32.317 43.7491 32.1404 43.6821 32.0035 43.5608C31.8665 43.4395 31.7786 43.2724 31.7563 43.0908C31.734 42.9092 31.7788 42.7258 31.8824 42.5749C31.9859 42.4241 32.141 42.3163 32.3184 42.2718L38.3184 40.7718C38.4142 40.7471 38.514 40.7416 38.6119 40.7556C38.7099 40.7696 38.8041 40.8028 38.8891 40.8534C38.9742 40.9039 39.0484 40.9708 39.1074 41.0502C39.1665 41.1295 39.2093 41.2198 39.2334 41.3158C39.2574 41.4118 39.2622 41.5116 39.2475 41.6094C39.2329 41.7072 39.1989 41.8012 39.1478 41.8859C39.0966 41.9706 39.0292 42.0443 38.9494 42.1028C38.8696 42.1613 38.7791 42.2035 38.6829 42.2268L32.6829 43.7269C32.6231 43.742 32.5616 43.7496 32.4999 43.7493Z" fill="#EF7F1A"/>
<path d="M35.5 45.25C34.9033 45.25 34.331 45.0129 33.909 44.591C33.4871 44.169 33.25 43.5967 33.25 43C33.25 42.8011 33.329 42.6103 33.4697 42.4697C33.6103 42.329 33.8011 42.25 34 42.25C34.1989 42.25 34.3897 42.329 34.5303 42.4697C34.671 42.6103 34.75 42.8011 34.75 43C34.75 43.1989 34.829 43.3897 34.9697 43.5303C35.1103 43.671 35.3011 43.75 35.5 43.75C35.6989 43.75 35.8897 43.671 36.0303 43.5303C36.171 43.3897 36.25 43.1989 36.25 43V42.25C36.25 42.0511 36.329 41.8603 36.4697 41.7197C36.6103 41.579 36.8011 41.5 37 41.5C37.1989 41.5 37.3897 41.579 37.5303 41.7197C37.671 41.8603 37.75 42.0511 37.75 42.25V43C37.75 43.5967 37.5129 44.169 37.091 44.591C36.669 45.0129 36.0967 45.25 35.5 45.25Z" fill="#EF7F1A"/>
<path d="M36.25 36.2502H34.75C34.5871 36.2501 34.4286 36.197 34.2986 36.0989C34.1686 36.0008 34.074 35.8631 34.0292 35.7065L32.5292 30.4565C32.4892 30.3165 32.4907 30.168 32.5336 30.0289C32.5765 29.8898 32.659 29.7662 32.7709 29.6732C32.8829 29.5801 33.0195 29.5217 33.1641 29.505C33.3087 29.4882 33.455 29.514 33.5852 29.579C34.1856 29.8988 34.8313 30.1252 35.5 30.2502C36.1688 30.1256 36.8145 29.8992 37.4147 29.579C37.545 29.514 37.6913 29.4882 37.8359 29.505C37.9805 29.5217 38.1171 29.5801 38.229 29.6732C38.341 29.7662 38.4234 29.8898 38.4664 30.0289C38.5093 30.168 38.5108 30.3165 38.4707 30.4565L36.9707 35.7065C36.9259 35.8631 36.8314 36.0008 36.7013 36.0989C36.5713 36.197 36.4129 36.2501 36.25 36.2502ZM35.3155 34.7502H35.6845L36.6032 31.5335C36.2481 31.6595 35.8764 31.7325 35.5 31.7502C35.1236 31.7325 34.7518 31.6595 34.3967 31.5335L35.3155 34.7502Z" fill="#EF7F1A"/>
<path d="M35.5 17.5C35.3011 17.5 35.1103 17.421 34.9697 17.2803C34.829 17.1397 34.75 16.9489 34.75 16.75V16C34.75 15.8011 34.829 15.6103 34.9697 15.4697C35.1103 15.329 35.3011 15.25 35.5 15.25C35.6989 15.25 35.8897 15.329 36.0303 15.4697C36.171 15.6103 36.25 15.8011 36.25 16V16.75C36.25 16.9489 36.171 17.1397 36.0303 17.2803C35.8897 17.421 35.6989 17.5 35.5 17.5Z" fill="#EF7F1A"/>
<path d="M29.8751 19.0073C29.7433 19.0075 29.6138 18.9729 29.4996 18.907C29.3855 18.8412 29.2907 18.7464 29.2248 18.6323L28.8498 17.9828C28.7998 17.8975 28.7671 17.8031 28.7537 17.7051C28.7403 17.6071 28.7465 17.5074 28.7717 17.4118C28.797 17.3162 28.841 17.2265 28.901 17.1479C28.9611 17.0694 29.0362 17.0035 29.1218 16.954C29.2075 16.9045 29.3021 16.8725 29.4002 16.8598C29.4982 16.847 29.5979 16.8538 29.6933 16.8797C29.7888 16.9056 29.8782 16.9502 29.9563 17.0108C30.0345 17.0714 30.0999 17.1468 30.1488 17.2328L30.5238 17.8823C30.5896 17.9963 30.6243 18.1255 30.6243 18.2571C30.6243 18.3887 30.5897 18.518 30.524 18.632C30.4583 18.746 30.3637 18.8407 30.2498 18.9066C30.1359 18.9724 30.0067 19.0072 29.8751 19.0073Z" fill="#EF7F1A"/>
<path d="M25.7568 23.1255C25.6251 23.1258 25.4957 23.0911 25.3818 23.025L24.7323 22.65C24.6464 22.6011 24.5709 22.5357 24.5103 22.4576C24.4497 22.3794 24.4051 22.29 24.3792 22.1946C24.3533 22.0991 24.3465 21.9995 24.3593 21.9014C24.372 21.8033 24.4041 21.7087 24.4535 21.623C24.503 21.5374 24.5689 21.4624 24.6475 21.4023C24.726 21.3422 24.8157 21.2982 24.9113 21.273C25.0069 21.2477 25.1066 21.2416 25.2046 21.255C25.3026 21.2684 25.397 21.301 25.4823 21.351L26.1318 21.726C26.2748 21.8086 26.3865 21.936 26.4497 22.0885C26.5129 22.2411 26.524 22.4102 26.4812 22.5697C26.4385 22.7291 26.3444 22.87 26.2134 22.9705C26.0824 23.071 25.9219 23.1255 25.7568 23.1255Z" fill="#EF7F1A"/>
<path d="M24.25 28.75H23.5C23.3011 28.75 23.1103 28.671 22.9697 28.5303C22.829 28.3897 22.75 28.1989 22.75 28C22.75 27.8011 22.829 27.6103 22.9697 27.4697C23.1103 27.329 23.3011 27.25 23.5 27.25H24.25C24.4489 27.25 24.6397 27.329 24.7803 27.4697C24.921 27.6103 25 27.8011 25 28C25 28.1989 24.921 28.3897 24.7803 28.5303C24.6397 28.671 24.4489 28.75 24.25 28.75Z" fill="#EF7F1A"/>
<path d="M25.1089 34.7505C24.9438 34.7505 24.7833 34.696 24.6523 34.5955C24.5213 34.495 24.4272 34.3541 24.3844 34.1947C24.3417 34.0352 24.3528 33.8661 24.416 33.7135C24.4791 33.561 24.5909 33.4336 24.7339 33.351L25.3834 32.976C25.4687 32.926 25.5631 32.8934 25.6611 32.88C25.7591 32.8666 25.8587 32.8727 25.9544 32.898C26.05 32.9232 26.1397 32.9672 26.2182 33.0273C26.2968 33.0874 26.3627 33.1624 26.4122 33.248C26.4616 33.3337 26.4937 33.4283 26.5064 33.5264C26.5192 33.6245 26.5124 33.7241 26.4865 33.8196C26.4605 33.915 26.416 34.0044 26.3554 34.0826C26.2948 34.1607 26.2193 34.2261 26.1334 34.275L25.4839 34.65C25.3698 34.7159 25.2405 34.7505 25.1089 34.7505Z" fill="#EF7F1A"/>
<path d="M45.8914 34.7505C45.7597 34.7505 45.6304 34.7159 45.5164 34.65L44.8669 34.275C44.7809 34.2261 44.7054 34.1607 44.6448 34.0826C44.5842 34.0044 44.5397 33.915 44.5137 33.8196C44.4878 33.7241 44.4811 33.6245 44.4938 33.5264C44.5066 33.4283 44.5386 33.3337 44.588 33.248C44.6375 33.1624 44.7034 33.0874 44.782 33.0273C44.8605 32.9672 44.9502 32.9232 45.0458 32.898C45.1415 32.8727 45.2412 32.8666 45.3392 32.88C45.4371 32.8934 45.5315 32.926 45.6169 32.976L46.2664 33.351C46.4093 33.4336 46.5211 33.561 46.5842 33.7135C46.6474 33.8661 46.6585 34.0352 46.6158 34.1947C46.573 34.3541 46.4789 34.495 46.3479 34.5955C46.2169 34.696 46.0565 34.7505 45.8914 34.7505Z" fill="#EF7F1A"/>
<path d="M47.5 28.75H46.75C46.5511 28.75 46.3603 28.671 46.2197 28.5303C46.079 28.3897 46 28.1989 46 28C46 27.8011 46.079 27.6103 46.2197 27.4697C46.3603 27.329 46.5511 27.25 46.75 27.25H47.5C47.6989 27.25 47.8897 27.329 48.0303 27.4697C48.171 27.6103 48.25 27.8011 48.25 28C48.25 28.1989 48.171 28.3897 48.0303 28.5303C47.8897 28.671 47.6989 28.75 47.5 28.75Z" fill="#EF7F1A"/>
<path d="M45.2431 23.1255C45.078 23.1255 44.9176 23.071 44.7866 22.9705C44.6556 22.87 44.5615 22.7291 44.5187 22.5697C44.476 22.4102 44.4871 22.2411 44.5502 22.0885C44.6134 21.936 44.7252 21.8086 44.8681 21.726L45.5176 21.351C45.603 21.301 45.6973 21.2684 45.7953 21.255C45.8933 21.2416 45.993 21.2477 46.0886 21.273C46.1843 21.2982 46.2739 21.3422 46.3525 21.4023C46.4311 21.4624 46.497 21.5374 46.5465 21.623C46.5959 21.7087 46.6279 21.8033 46.6407 21.9014C46.6534 21.9995 46.6467 22.0991 46.6207 22.1946C46.5948 22.29 46.5503 22.3794 46.4897 22.4576C46.4291 22.5357 46.3536 22.6011 46.2676 22.65L45.6181 23.025C45.5042 23.0911 45.3748 23.1258 45.2431 23.1255Z" fill="#EF7F1A"/>
<path d="M41.125 19.0073C40.9934 19.0072 40.8641 18.9724 40.7502 18.9066C40.6363 18.8407 40.5418 18.746 40.476 18.632C40.4103 18.518 40.3757 18.3887 40.3757 18.2571C40.3758 18.1255 40.4104 17.9963 40.4762 17.8823L40.8512 17.2328C40.9001 17.1468 40.9655 17.0714 41.0437 17.0108C41.1219 16.9502 41.2112 16.9056 41.3067 16.8797C41.4021 16.8538 41.5018 16.847 41.5999 16.8598C41.698 16.8725 41.7925 16.9045 41.8782 16.954C41.9639 17.0035 42.0389 17.0694 42.099 17.1479C42.1591 17.2265 42.203 17.3162 42.2283 17.4118C42.2536 17.5074 42.2597 17.6071 42.2463 17.7051C42.2329 17.8031 42.2002 17.8975 42.1502 17.9828L41.7752 18.6323C41.7093 18.7464 41.6145 18.8412 41.5004 18.907C41.3862 18.9729 41.2567 19.0075 41.125 19.0073Z" fill="#EF7F1A"/>
</g>
<rect x="21" y="66" width="24" height="2" fill="#EF7F1A"/>
<defs>
<clipPath id="clip0_5236_7995">
<rect width="48" height="48" fill="white" transform="translate(10 10)"/>
</clipPath>
</defs>
</svg>
