<svg width="1056" height="468" viewBox="0 0 1056 468" fill="none" xmlns="http://www.w3.org/2000/svg">
<g opacity="0.5">
<mask id="mask0_4731_17995" style="mask-type:alpha" maskUnits="userSpaceOnUse" x="0" y="-117" width="1056" height="702">
<ellipse cx="527.999" cy="233.608" rx="527.999" ry="350.608" fill="url(#paint0_radial_4731_17995)"/>
</mask>
<g mask="url(#mask0_4731_17995)">
<g opacity="0.5">
<line y1="13.5238" x2="1056" y2="13.5238" stroke="#FFF2E6" stroke-width="0.55"/>
<line y1="57.5238" x2="1056" y2="57.5238" stroke="#FFF2E6" stroke-width="0.55"/>
<line y1="101.524" x2="1056" y2="101.524" stroke="#FFF2E6" stroke-width="0.55"/>
<line y1="145.524" x2="1056" y2="145.524" stroke="#FFF2E6" stroke-width="0.55"/>
<line y1="189.524" x2="1056" y2="189.524" stroke="#FFF2E6" stroke-width="0.55"/>
<line y1="233.524" x2="1056" y2="233.524" stroke="#FFF2E6" stroke-width="0.55"/>
<line y1="277.524" x2="1056" y2="277.524" stroke="#FFF2E6" stroke-width="0.55"/>
<line y1="321.524" x2="1056" y2="321.524" stroke="#FFF2E6" stroke-width="0.55"/>
<line y1="365.524" x2="1056" y2="365.524" stroke="#FFF2E6" stroke-width="0.55"/>
<line y1="409.524" x2="1056" y2="409.524" stroke="#FFF2E6" stroke-width="0.55"/>
<line y1="453.524" x2="1056" y2="453.524" stroke="#FFF2E6" stroke-width="0.55"/>
</g>
<g opacity="0.5">
<line x1="43.1737" y1="627.6" x2="43.1737" y2="-160" stroke="#FFF2E6" stroke-width="0.55"/>
<line x1="87.1737" y1="627.6" x2="87.1737" y2="-160" stroke="#FFF2E6" stroke-width="0.55"/>
<line x1="131.174" y1="627.6" x2="131.174" y2="-160" stroke="#FFF2E6" stroke-width="0.55"/>
<line x1="175.174" y1="627.6" x2="175.174" y2="-160" stroke="#FFF2E6" stroke-width="0.55"/>
<line x1="219.174" y1="627.6" x2="219.174" y2="-160" stroke="#FFF2E6" stroke-width="0.55"/>
<line x1="263.174" y1="627.6" x2="263.174" y2="-160" stroke="#FFF2E6" stroke-width="0.55"/>
<line x1="307.174" y1="627.6" x2="307.174" y2="-160" stroke="#FFF2E6" stroke-width="0.55"/>
<line x1="351.174" y1="627.6" x2="351.174" y2="-160" stroke="#FFF2E6" stroke-width="0.55"/>
<line x1="395.174" y1="627.6" x2="395.174" y2="-160" stroke="#FFF2E6" stroke-width="0.55"/>
<line x1="439.174" y1="627.6" x2="439.174" y2="-160" stroke="#FFF2E6" stroke-width="0.55"/>
<line x1="483.174" y1="627.6" x2="483.174" y2="-160" stroke="#FFF2E6" stroke-width="0.55"/>
<line x1="527.174" y1="627.6" x2="527.174" y2="-160" stroke="#FFF2E6" stroke-width="0.55"/>
<line x1="571.174" y1="627.6" x2="571.174" y2="-160" stroke="#FFF2E6" stroke-width="0.55"/>
<line x1="615.174" y1="627.6" x2="615.174" y2="-160" stroke="#FFF2E6" stroke-width="0.55"/>
<line x1="659.174" y1="627.6" x2="659.174" y2="-160" stroke="#FFF2E6" stroke-width="0.55"/>
<line x1="703.174" y1="627.6" x2="703.174" y2="-160" stroke="#FFF2E6" stroke-width="0.55"/>
<line x1="747.174" y1="627.6" x2="747.174" y2="-160" stroke="#FFF2E6" stroke-width="0.55"/>
<line x1="791.174" y1="627.6" x2="791.174" y2="-160" stroke="#FFF2E6" stroke-width="0.55"/>
<line x1="835.174" y1="627.6" x2="835.174" y2="-160" stroke="#FFF2E6" stroke-width="0.55"/>
<line x1="879.174" y1="627.6" x2="879.174" y2="-160" stroke="#FFF2E6" stroke-width="0.55"/>
<line x1="923.174" y1="627.6" x2="923.174" y2="-160" stroke="#FFF2E6" stroke-width="0.55"/>
<line x1="967.174" y1="627.6" x2="967.174" y2="-160" stroke="#FFF2E6" stroke-width="0.55"/>
<line x1="1011.17" y1="627.6" x2="1011.17" y2="-160" stroke="#FFF2E6" stroke-width="0.55"/>
<line x1="1055.17" y1="627.6" x2="1055.17" y2="-160" stroke="#FFF2E6" stroke-width="0.55"/>
</g>
</g>
</g>
<defs>
<radialGradient id="paint0_radial_4731_17995" cx="0" cy="0" r="1" gradientUnits="userSpaceOnUse" gradientTransform="translate(527.999 233.608) rotate(90) scale(350.608 527.999)">
<stop stop-color="#737373"/>
<stop offset="1" stop-color="#D9D9D9" stop-opacity="0"/>
</radialGradient>
</defs>
</svg>
