<svg width="59" height="21" viewBox="0 0 59 21" fill="none" xmlns="http://www.w3.org/2000/svg">
<path d="M16.3799 20.1595C14.7999 20.1595 13.4199 19.6895 12.2399 18.7495C11.6799 18.2895 11.0699 17.6795 10.4099 16.9195C9.74992 16.1795 9.10992 15.3795 8.48992 14.5195C7.86992 13.6395 7.31992 12.8195 6.83992 12.0595C5.99992 12.1995 5.21992 12.2895 4.49992 12.3295C4.09992 13.0895 3.75992 13.8195 3.47992 14.5195C3.19992 15.2195 2.98992 15.8895 2.84992 16.5295C2.82992 16.6495 2.80992 16.7495 2.78992 16.8295C2.78992 16.9095 2.78992 16.9695 2.78992 17.0095C2.78992 17.3695 2.85992 17.6795 2.99992 17.9395C3.13992 18.2195 3.29992 18.3695 3.47992 18.3895C3.63992 18.4095 3.76992 18.4495 3.86992 18.5095C3.96992 18.5695 4.03992 18.6395 4.07992 18.7195V18.7795C4.07992 18.9195 3.90992 18.9895 3.56992 18.9895C2.42992 18.9895 1.85992 18.4695 1.85992 17.4295C1.85992 17.3495 1.86992 17.2295 1.88992 17.0695C1.90992 16.9295 1.93992 16.7495 1.97992 16.5295C2.23992 15.2495 2.73992 13.8395 3.47992 12.2995C3.13992 12.1995 2.76992 12.0495 2.36992 11.8495C1.98992 11.6495 1.66992 11.3595 1.40992 10.9795C1.14992 10.5795 1.01992 10.0495 1.01992 9.38945C1.01992 8.68945 1.18992 8.10945 1.52992 7.64945C1.86992 7.16945 2.32992 6.92945 2.90992 6.92945C3.36992 6.92945 3.87992 7.09945 4.43992 7.43945C4.47992 7.45945 4.52992 7.49945 4.58992 7.55945C4.66992 7.61945 4.77992 7.68945 4.91992 7.76945C5.13992 7.90945 5.37992 8.13945 5.63992 8.45945C6.13992 7.71945 6.64992 7.01945 7.16992 6.35945C7.70992 5.67945 8.25992 5.02945 8.81992 4.40945C8.89992 4.32945 8.93992 4.21945 8.93992 4.07945V3.95945C8.93992 3.81945 8.96992 3.71945 9.02992 3.65945C9.18992 3.49945 9.51992 3.31945 10.0199 3.11945C10.1199 3.05945 10.1799 2.99945 10.1999 2.93945C10.2999 2.81945 10.4399 2.75945 10.6199 2.75945C10.8999 2.75945 11.1599 2.85945 11.3999 3.05945C11.6399 3.23945 11.6799 3.40945 11.5199 3.56945L10.9799 4.13945C10.5199 4.59945 9.98992 5.15945 9.38992 5.81945C8.86992 6.37945 8.35992 6.95945 7.85992 7.55945C7.35992 8.13945 6.87992 8.74945 6.41992 9.38945C6.57992 9.62945 6.75992 9.89945 6.95992 10.1995C7.15992 10.4995 7.35992 10.8195 7.55992 11.1595C8.77992 10.9395 9.90992 10.6595 10.9499 10.3195C12.0099 9.95945 13.0599 9.48945 14.0999 8.90945C15.3999 8.18945 16.3899 7.40945 17.0699 6.56945C17.7499 5.72945 18.0899 4.91945 18.0899 4.13945C18.0899 3.19945 17.5999 2.42945 16.6199 1.82945C15.6599 1.20945 14.2999 0.899453 12.5399 0.899453C11.9799 0.899453 11.3799 0.939453 10.7399 1.01945C10.0999 1.09945 9.40992 1.21945 8.66992 1.37945C7.20992 1.69945 5.74992 2.23945 4.28992 2.99945C2.82992 3.75945 1.61992 4.71945 0.659922 5.87945C0.439922 6.13945 0.249922 6.18945 0.0899219 6.02945C0.0299219 5.94945 0.0199219 5.81945 0.0599219 5.63945C0.0799219 5.49945 0.189922 5.27945 0.389922 4.97945C1.04992 4.03945 2.12992 3.19945 3.62992 2.45945C4.62992 1.93945 5.67992 1.49945 6.77992 1.13945C7.87992 0.779453 8.93992 0.499453 9.95992 0.299452C10.9799 0.0994519 11.8599 -0.000548005 12.5999 -0.000548005C14.0399 -0.000548005 15.3199 0.169452 16.4399 0.509453C18.6199 1.20945 19.7099 2.32945 19.7099 3.86945C19.7099 4.70945 19.3399 5.57945 18.5999 6.47945C17.8599 7.35945 16.7599 8.20945 15.2999 9.02945C14.3999 9.52945 13.2899 10.0395 11.9699 10.5595C10.6499 11.0595 9.31992 11.4795 7.97992 11.8195C8.15992 12.1395 8.42992 12.5395 8.78992 13.0195C9.14992 13.4995 9.53992 13.9995 9.95992 14.5195C10.3999 15.0195 10.8299 15.4995 11.2499 15.9595C11.6699 16.3995 12.0299 16.7595 12.3299 17.0395C13.9699 18.5595 15.6499 19.3195 17.3699 19.3195C18.9899 19.3195 20.3699 18.6295 21.5099 17.2495C21.5499 17.2095 21.5999 17.1895 21.6599 17.1895C21.7399 17.1895 21.7999 17.2295 21.8399 17.3095C21.8999 17.3895 21.8999 17.4795 21.8399 17.5795C21.1199 18.4395 20.2799 19.0795 19.3199 19.4995C18.3799 19.9395 17.3999 20.1595 16.3799 20.1595ZM3.95992 11.3095C4.05992 11.1095 4.19992 10.8495 4.37992 10.5295C4.57992 10.1895 4.80992 9.79945 5.06992 9.35945C4.66992 8.83945 4.22992 8.45945 3.74992 8.21945C3.28992 7.95945 2.82992 7.82945 2.36992 7.82945C1.96992 7.82945 1.76992 8.05945 1.76992 8.51945C1.76992 9.23945 1.94992 9.84945 2.30992 10.3495C2.66992 10.8295 3.21992 11.1495 3.95992 11.3095ZM5.06992 11.3995C5.20992 11.3995 5.38992 11.3995 5.60992 11.3995C5.82992 11.3795 6.09992 11.3595 6.41992 11.3395L5.75992 10.3195C5.61992 10.5195 5.48992 10.7095 5.36992 10.8895C5.26992 11.0695 5.16992 11.2395 5.06992 11.3995ZM17.7402 16.7695C17.3202 16.7695 16.9502 16.6595 16.6302 16.4395C16.1102 16.0395 15.8502 15.4395 15.8502 14.6395C15.8502 13.8395 16.1302 12.9895 16.6902 12.0895C17.2502 11.1895 18.1002 10.3595 19.2402 9.59945C19.4402 9.45945 19.7102 9.38945 20.0502 9.38945C20.4902 9.38945 20.8802 9.50945 21.2202 9.74945C21.5802 9.98945 21.7202 10.2995 21.6402 10.6795C21.5002 11.2995 21.1902 11.8495 20.7102 12.3295C20.2502 12.8095 19.7002 13.2395 19.0602 13.6195C18.4402 13.9795 17.8002 14.3295 17.1402 14.6695C17.1202 14.7295 17.1002 14.7895 17.0802 14.8495C17.0802 14.9095 17.0802 14.9695 17.0802 15.0295C17.0802 15.3095 17.1702 15.5595 17.3502 15.7795C17.5502 15.9795 17.8202 16.0795 18.1602 16.0795C18.4202 16.0795 18.6402 16.0395 18.8202 15.9595C19.1402 15.8395 19.4002 15.7295 19.6002 15.6295C19.8202 15.5295 20.0702 15.3795 20.3502 15.1795C20.6302 14.9795 21.0102 14.6795 21.4902 14.2795C21.7102 14.1195 21.8402 14.0395 21.8802 14.0395C22.0002 14.0395 22.0402 14.1295 22.0002 14.3095C21.8002 14.6295 21.4502 14.9795 20.9502 15.3595C20.4702 15.7395 19.9302 16.0695 19.3302 16.3495C18.7502 16.6295 18.2202 16.7695 17.7402 16.7695ZM17.3202 13.8595C17.4802 13.8595 17.8102 13.6995 18.3102 13.3795C18.8102 13.0595 19.2802 12.7095 19.7202 12.3295C20.4802 11.6295 20.8602 11.0895 20.8602 10.7095C20.8602 10.6095 20.8302 10.5195 20.7702 10.4395C20.7102 10.3395 20.6202 10.2895 20.5002 10.2895C20.1202 10.2895 19.4802 10.7395 18.5802 11.6395C17.9602 12.2395 17.5402 12.9795 17.3202 13.8595ZM21.7675 18.2095C21.3475 18.2095 21.1675 17.9995 21.2275 17.5795C21.3475 16.8195 21.5575 16.0595 21.8575 15.2995C22.0175 14.8995 22.2175 14.4395 22.4575 13.9195C22.7175 13.3995 23.0175 12.8195 23.3575 12.1795C23.5375 11.8395 23.6875 11.5395 23.8075 11.2795C23.9475 11.0195 24.0575 10.8095 24.1375 10.6495C24.2775 10.3695 24.4175 10.0695 24.5575 9.74945C24.7175 9.42945 24.8775 9.07945 25.0375 8.69945C25.7975 7.03945 26.4475 5.73945 26.9875 4.79945C27.5475 3.83945 28.1475 3.15945 28.7875 2.75945C28.8275 2.71945 28.9375 2.71945 29.1175 2.75945C29.2975 2.77945 29.4675 2.81945 29.6275 2.87945C29.8075 2.93945 29.9175 3.00945 29.9575 3.08945C30.0175 3.22945 30.0475 3.42945 30.0475 3.68945C30.0475 4.48945 29.6775 5.44945 28.9375 6.56945C28.5375 7.16945 28.0275 7.82945 27.4075 8.54945C26.8075 9.24945 26.0975 10.0095 25.2775 10.8295L24.7375 11.6995C24.1375 12.6595 23.6675 13.4795 23.3275 14.1595C23.0075 14.8395 22.8875 15.4395 22.9675 15.9595C23.0075 16.0795 23.0575 16.1395 23.1175 16.1395C23.1775 16.1395 23.2775 16.0895 23.4175 15.9895C23.5575 15.8895 23.6975 15.7695 23.8375 15.6295C23.9975 15.4895 24.1475 15.3195 24.2875 15.1195C24.3875 15.0195 24.4675 14.9095 24.5275 14.7895C24.6075 14.6695 24.6875 14.5595 24.7675 14.4595C24.8875 14.2395 25.0075 14.0595 25.1275 13.9195C25.5075 13.2795 25.8275 12.8295 26.0875 12.5695C26.5275 12.1295 26.9175 11.9095 27.2575 11.9095C27.6575 11.9095 28.0075 12.1295 28.3075 12.5695C28.6275 12.9895 28.9675 13.5995 29.3275 14.3995C29.5875 14.9995 29.8275 15.4595 30.0475 15.7795C30.2675 16.0795 30.4775 16.2295 30.6775 16.2295C30.8775 16.2295 31.1075 16.1095 31.3675 15.8695C31.6075 15.6495 31.8175 15.5295 31.9975 15.5095C32.1175 15.6495 32.1075 15.8295 31.9675 16.0495C31.8275 16.2495 31.6175 16.4395 31.3375 16.6195C31.0775 16.8195 30.8175 16.9795 30.5575 17.0995C30.2975 17.2195 30.0975 17.2595 29.9575 17.2195C29.3975 17.0595 28.9575 16.7795 28.6375 16.3795C28.3375 15.9595 28.0375 15.4195 27.7375 14.7595C27.6375 14.5395 27.5475 14.3495 27.4675 14.1895C27.3875 14.0095 27.3075 13.8695 27.2275 13.7695C27.0875 13.5695 26.8975 13.4695 26.6575 13.4695C26.4775 13.4695 26.2675 13.5595 26.0275 13.7395C25.7875 13.9395 25.5475 14.1795 25.3075 14.4595C25.0675 14.7195 24.8375 15.0395 24.6175 15.4195C24.4775 15.6195 24.3675 15.7795 24.2875 15.8995C24.2275 15.9995 24.1775 16.0695 24.1375 16.1095C24.0375 16.2495 23.8775 16.4495 23.6575 16.7095C23.4575 16.9895 23.2175 17.3295 22.9375 17.7295C22.8375 17.8495 22.6775 17.9595 22.4575 18.0595C22.2575 18.1595 22.0575 18.2095 21.8575 18.2095H21.7675ZM25.4275 9.59945C25.4875 9.63945 25.6375 9.54945 25.8775 9.32945C26.1175 9.08945 26.3875 8.78945 26.6875 8.42945C27.0075 8.04945 27.3175 7.65945 27.6175 7.25945C27.9375 6.83945 28.1875 6.46945 28.3675 6.14945C28.9875 5.08945 29.2975 4.38945 29.2975 4.04945C29.2975 3.90945 29.2475 3.80945 29.1475 3.74945C28.9475 3.58945 28.6775 3.67945 28.3375 4.01945C27.9975 4.33945 27.6575 4.76945 27.3175 5.30945C26.9775 5.82945 26.6875 6.34945 26.4475 6.86945C26.3075 7.18945 26.1575 7.54945 25.9975 7.94945C25.8575 8.34945 25.7375 8.70945 25.6375 9.02945C25.5375 9.32945 25.4675 9.51945 25.4275 9.59945ZM37.3816 17.2495C37.3416 17.2495 37.3016 17.2395 37.2616 17.2195C37.2216 17.2195 37.1816 17.2095 37.1416 17.1895C36.8616 17.0495 36.6816 16.8495 36.6016 16.5895C36.5216 16.3295 36.5016 15.9995 36.5416 15.5995C36.5816 15.4395 36.6216 15.1595 36.6616 14.7595C36.7216 14.3595 36.7916 14.0395 36.8716 13.7995L35.3416 15.2695L34.5016 16.0795C33.9216 16.6595 33.4416 16.9495 33.0616 16.9495C32.9016 16.9495 32.7716 16.8895 32.6716 16.7695C32.4916 16.5495 32.4016 16.2795 32.4016 15.9595C32.4016 15.5395 32.5116 15.0895 32.7316 14.6095C32.9516 14.1295 33.2116 13.6695 33.5116 13.2295C33.8116 12.7695 34.0816 12.3895 34.3216 12.0895C34.9216 11.3495 35.5016 10.7695 36.0616 10.3495C36.6416 9.92945 37.2416 9.71945 37.8616 9.71945C38.2016 9.71945 38.5316 9.77945 38.8516 9.89945C39.1916 10.0195 39.5016 10.2195 39.7816 10.4995L39.8116 10.5295C39.8116 10.5895 39.7616 10.6495 39.6616 10.7095C39.6216 10.7495 39.5816 10.7795 39.5416 10.7995C39.5216 10.8195 39.5016 10.8395 39.4816 10.8595C39.2416 11.0995 38.9716 11.4995 38.6716 12.0595C38.3716 12.6195 38.1116 13.2095 37.8916 13.8295C37.6716 14.4295 37.5616 14.9495 37.5616 15.3895C37.5616 15.7895 37.6616 16.0595 37.8616 16.1995C37.9616 16.2595 38.0716 16.2895 38.1916 16.2895C38.4516 16.2895 38.8116 16.1295 39.2716 15.8095C39.2916 15.7895 39.3316 15.7595 39.3916 15.7195C39.4716 15.6595 39.5816 15.5795 39.7216 15.4795C39.8816 15.3595 40.0116 15.2995 40.1116 15.2995C40.2116 15.2995 40.2616 15.3395 40.2616 15.4195C40.2616 15.5395 40.1816 15.6795 40.0216 15.8395C39.9016 15.9395 39.7616 16.0495 39.6016 16.1695C39.4616 16.2895 39.2916 16.4095 39.0916 16.5295C38.7916 16.7495 38.4816 16.9195 38.1616 17.0395C37.8416 17.1795 37.5816 17.2495 37.3816 17.2495ZM33.9916 15.3295C34.4116 15.3295 35.1916 14.7095 36.3316 13.4695C36.6316 13.1295 36.9016 12.8095 37.1416 12.5095C37.3816 12.1895 37.6016 11.8795 37.8016 11.5795C38.1616 10.9995 38.2816 10.5995 38.1616 10.3795C38.1016 10.2595 37.9816 10.1995 37.8016 10.1995C37.5816 10.1995 37.2816 10.3195 36.9016 10.5595C36.5216 10.7795 36.1316 11.0695 35.7316 11.4295C35.3516 11.7895 35.0016 12.1495 34.6816 12.5095C34.4616 12.7895 34.2416 13.1795 34.0216 13.6795C33.8016 14.1795 33.6916 14.5895 33.6916 14.9095C33.6916 15.1895 33.7916 15.3295 33.9916 15.3295ZM41.0533 16.9195C40.6933 16.9195 40.5133 16.7795 40.5133 16.4995C40.5133 16.3195 40.5733 16.0895 40.6933 15.8095C40.8333 15.5295 40.9733 15.2595 41.1133 14.9995C41.4933 14.3195 41.8433 13.6595 42.1633 13.0195C42.4833 12.3795 42.7933 11.6995 43.0933 10.9795C43.2333 10.6595 43.4433 10.4995 43.7233 10.4995C44.0233 10.4995 44.1133 10.6795 43.9933 11.0395C43.8733 11.3395 43.7533 11.6095 43.6333 11.8495C43.0733 12.9895 42.7933 13.7595 42.7933 14.1595C42.7933 14.3395 42.8533 14.4495 42.9733 14.4895C43.2533 14.2695 43.4633 14.1095 43.6033 14.0095C43.7433 13.8895 43.8233 13.8195 43.8433 13.7995C44.1233 13.5795 44.4333 13.3295 44.7733 13.0495C45.1333 12.7495 45.5233 12.4095 45.9433 12.0295C46.6033 11.4295 47.1533 11.1295 47.5933 11.1295C48.1333 11.1295 48.3633 11.6195 48.2833 12.5995C48.2633 12.9795 48.2633 13.3495 48.2833 13.7095C48.3033 13.7895 48.3133 13.9095 48.3133 14.0695C48.3133 14.2095 48.3133 14.3795 48.3133 14.5795C48.3133 14.7795 48.4333 14.8795 48.6733 14.8795C48.9533 14.8795 49.2133 14.7995 49.4533 14.6395L50.1133 14.1895L50.7733 13.7695C50.8133 13.7495 50.8833 13.7395 50.9833 13.7395C51.1033 13.7395 51.1033 13.8295 50.9833 14.0095C49.7233 15.5695 48.6833 16.3495 47.8633 16.3495C47.7033 16.3495 47.5433 16.3195 47.3833 16.2595C47.2433 16.1995 47.1433 16.0295 47.0833 15.7495C47.0233 15.4495 46.9833 15.1295 46.9633 14.7895C46.9633 14.4495 46.9633 14.1895 46.9633 14.0095L46.9933 13.0195C46.9933 12.5995 46.8833 12.3895 46.6633 12.3895C46.1433 12.3895 44.8633 13.4595 42.8233 15.5995C42.6633 15.7995 42.4133 16.0695 42.0733 16.4095C41.7333 16.7495 41.3933 16.9195 41.0533 16.9195ZM55.78 17.2495C55.74 17.2495 55.7 17.2395 55.66 17.2195C55.62 17.2195 55.58 17.2095 55.54 17.1895C55.26 17.0495 55.08 16.8495 55 16.5895C54.92 16.3295 54.9 15.9995 54.94 15.5995C54.98 15.4395 55.02 15.1595 55.06 14.7595C55.12 14.3595 55.19 14.0395 55.27 13.7995L53.74 15.2695L52.9 16.0795C52.32 16.6595 51.84 16.9495 51.46 16.9495C51.3 16.9495 51.17 16.8895 51.07 16.7695C50.89 16.5495 50.8 16.2795 50.8 15.9595C50.8 15.5395 50.91 15.0895 51.13 14.6095C51.35 14.1295 51.61 13.6695 51.91 13.2295C52.21 12.7695 52.48 12.3895 52.72 12.0895C53.32 11.3495 53.9 10.7695 54.46 10.3495C55.04 9.92945 55.64 9.71945 56.26 9.71945C56.6 9.71945 56.93 9.77945 57.25 9.89945C57.59 10.0195 57.9 10.2195 58.18 10.4995L58.21 10.5295C58.21 10.5895 58.16 10.6495 58.06 10.7095C58.02 10.7495 57.98 10.7795 57.94 10.7995C57.92 10.8195 57.9 10.8395 57.88 10.8595C57.64 11.0995 57.37 11.4995 57.07 12.0595C56.77 12.6195 56.51 13.2095 56.29 13.8295C56.07 14.4295 55.96 14.9495 55.96 15.3895C55.96 15.7895 56.06 16.0595 56.26 16.1995C56.36 16.2595 56.47 16.2895 56.59 16.2895C56.85 16.2895 57.21 16.1295 57.67 15.8095C57.69 15.7895 57.73 15.7595 57.79 15.7195C57.87 15.6595 57.98 15.5795 58.12 15.4795C58.28 15.3595 58.41 15.2995 58.51 15.2995C58.61 15.2995 58.66 15.3395 58.66 15.4195C58.66 15.5395 58.58 15.6795 58.42 15.8395C58.3 15.9395 58.16 16.0495 58 16.1695C57.86 16.2895 57.69 16.4095 57.49 16.5295C57.19 16.7495 56.88 16.9195 56.56 17.0395C56.24 17.1795 55.98 17.2495 55.78 17.2495ZM52.39 15.3295C52.81 15.3295 53.59 14.7095 54.73 13.4695C55.03 13.1295 55.3 12.8095 55.54 12.5095C55.78 12.1895 56 11.8795 56.2 11.5795C56.56 10.9995 56.68 10.5995 56.56 10.3795C56.5 10.2595 56.38 10.1995 56.2 10.1995C55.98 10.1995 55.68 10.3195 55.3 10.5595C54.92 10.7795 54.53 11.0695 54.13 11.4295C53.75 11.7895 53.4 12.1495 53.08 12.5095C52.86 12.7895 52.64 13.1795 52.42 13.6795C52.2 14.1795 52.09 14.5895 52.09 14.9095C52.09 15.1895 52.19 15.3295 52.39 15.3295Z" fill="#111827"/>
</svg>
