<svg width="128" height="121" viewBox="0 0 128 121" fill="none" xmlns="http://www.w3.org/2000/svg">
<path d="M31.845 63.687C33.052 51.872 34.16 44.824 37.304 40.399C39.884 41.628 42.813 43.695 46.551 46.603C46.832 46.822 47.192 46.453 46.966 46.177C44.002 42.557 41.876 39.706 40.578 37.18C45.013 34.13 52.029 33.034 63.687 31.843C51.872 30.636 44.824 29.528 40.399 26.383C41.628 23.803 43.695 20.874 46.603 17.136C46.822 16.855 46.453 16.495 46.177 16.721C42.557 19.685 39.705 21.811 37.18 23.109C34.13 18.674 33.034 11.658 31.843 0C30.636 11.815 29.528 18.863 26.383 23.288C23.803 22.059 20.874 19.992 17.136 17.084C16.855 16.865 16.495 17.234 16.721 17.51C19.685 21.13 21.811 23.981 23.109 26.507C18.674 29.557 11.658 30.653 0 31.844C11.815 33.051 18.863 34.159 23.288 37.304C22.059 39.884 19.992 42.813 17.084 46.551C16.865 46.832 17.234 47.192 17.51 46.966C21.13 44.002 23.981 41.876 26.507 40.578C29.559 45.014 30.655 52.029 31.845 63.687Z" fill="#EF7F1A"/>
<path d="M100.993 65.5329C106.101 62.0199 114.181 60.7579 127.608 59.3869C114.001 57.9969 105.884 56.7209 100.787 53.0989C102.202 50.1279 104.583 46.7539 107.932 42.4489C108.184 42.1249 107.759 41.7109 107.442 41.9709C103.273 45.3839 99.989 47.8329 97.08 49.3279C93.567 44.2199 92.305 36.1399 90.934 22.7129C89.544 36.3199 88.268 44.4369 84.646 49.5339C81.675 48.1189 78.301 45.7379 73.996 42.3889C73.672 42.1369 73.258 42.5619 73.518 42.8789C76.932 47.0479 79.38 50.3319 80.875 53.2409C75.767 56.7539 67.687 58.0159 54.26 59.3869C67.867 60.7769 75.984 62.0529 81.081 65.6749C79.666 68.6459 77.285 72.0199 73.936 76.3249C73.684 76.6489 74.109 77.0629 74.426 76.8029C78.595 73.3899 81.879 70.9409 84.788 69.4459C88.301 74.5539 89.563 82.6339 90.934 96.0609C92.324 82.4539 93.6 74.3369 97.222 69.2399C100.193 70.6549 103.567 73.0359 107.872 76.3849C108.196 76.6369 108.61 76.2119 108.35 75.8949C104.936 71.7259 102.487 68.4419 100.993 65.5329Z" fill="#EF7F1A"/>
<path d="M54.684 99.0693C55.378 97.6083 56.534 95.9553 58.182 93.8373C58.306 93.6783 58.097 93.4754 57.942 93.6024C55.89 95.2824 54.282 96.4694 52.851 97.2024C51.132 94.6954 50.513 90.7323 49.841 84.1523C49.16 90.8213 48.534 94.8034 46.762 97.3044C45.301 96.6104 43.648 95.4543 41.53 93.8063C41.371 93.6823 41.168 93.8914 41.295 94.0474C42.975 96.0994 44.162 97.7074 44.895 99.1374C42.388 100.856 38.425 101.475 31.845 102.147C38.514 102.828 42.496 103.454 44.997 105.226C44.303 106.687 43.147 108.339 41.499 110.458C41.375 110.617 41.584 110.82 41.74 110.692C43.792 109.012 45.4 107.825 46.83 107.092C48.549 109.599 49.168 113.562 49.84 120.142C50.521 113.473 51.147 109.491 52.919 106.99C54.38 107.684 56.033 108.84 58.151 110.488C58.31 110.612 58.513 110.403 58.386 110.247C56.706 108.196 55.519 106.587 54.786 105.157C57.293 103.438 61.255 102.819 67.836 102.147C61.167 101.467 57.185 100.842 54.684 99.0693Z" fill="#EF7F1A"/>
</svg>
