<svg width="1920" height="813" viewBox="0 0 1920 813" fill="none" xmlns="http://www.w3.org/2000/svg">
<path opacity="0.6" d="M1889.12 -118.513L1874.19 -125.363M1889.12 -118.513H1844.89M1889.12 -118.513L1904.53 -111.437M1889.12 -118.513H1920.43M1874.19 -125.363L1879.62 -125.361L1885 -125.346L1890.26 -125.304L1895.36 -125.222L1900.23 -125.089L1904.83 -124.888L1909.11 -124.609L1913.08 -124.254L1916.48 -123.763L1919.58 -123.193L1920.43 -122.994V-118.513M1874.19 -125.363H1830.68M1830.68 -125.363H1787.17M1830.68 -125.363L1844.89 -118.513M1787.17 -125.363H1743.66M1787.17 -125.363L1800.67 -118.513M1743.66 -125.363H1700.15M1743.66 -125.363L1756.45 -118.513M1700.15 -125.363H1656.64M1700.15 -125.363L1712.23 -118.513M1656.64 -125.363H1613.13M1656.64 -125.363L1668.01 -118.513M1613.13 -125.363H1569.62M1613.13 -125.363L1623.79 -118.513M1569.62 -125.363H1526.11M1569.62 -125.363L1579.57 -118.513M1526.11 -125.363H1482.6M1526.11 -125.363L1535.35 -118.513M1482.6 -125.363H1439.09M1482.6 -125.363L1491.13 -118.513M1439.09 -125.363H1395.58M1439.09 -125.363L1446.91 -118.513M1395.58 -125.363H1352.07M1395.58 -125.363L1402.68 -118.513M1352.07 -125.363H1308.56M1352.07 -125.363L1353.65 -123.671L1356.04 -121.109L1358.46 -118.513M1308.56 -125.363H1265.05M1308.56 -125.363L1309.96 -123.671L1314.24 -118.513M1265.05 -125.363H1221.54M1265.05 -125.363L1270.02 -118.513M1221.54 -125.363H1178.03M1221.54 -125.363L1223.12 -122.82L1224.72 -120.247L1225.26 -119.382L1225.8 -118.513M1178.03 -125.363H1134.52M1178.03 -125.363L1179.35 -122.82L1179.79 -121.967L1180.23 -121.109L1181.58 -118.513M1134.52 -125.363H1091.01M1134.52 -125.363L1137.36 -118.513M1091.01 -125.363L1091.27 -124.519L1091.53 -123.671L1092.87 -119.382L1093.14 -118.513M1091.01 -125.363H1047.5M1047.5 -125.363H1003.99M1047.5 -125.363L1048.92 -118.513M1003.99 -125.363H960.475M1003.99 -125.363L1004.25 -122.82L1004.7 -118.513M960.475 -125.363H916.965M960.475 -125.363V-118.513M916.965 -125.363H873.454M916.965 -125.363L916.701 -122.82L916.254 -118.513M873.454 -125.363H829.944M873.454 -125.363L872.033 -118.513M829.944 -125.363L829.681 -124.519L829.418 -123.671L828.083 -119.382L827.812 -118.513M829.944 -125.363H786.434M786.434 -125.363H742.923M786.434 -125.363L783.952 -119.382L783.591 -118.513M742.923 -125.363H699.413M742.923 -125.363L741.605 -122.82L741.161 -121.967L740.269 -120.247L739.821 -119.382L739.37 -118.513M699.413 -125.363H655.902M699.413 -125.363L697.831 -122.82L696.228 -120.247L695.69 -119.382L695.149 -118.513M655.902 -125.363H612.392M655.902 -125.363L650.929 -118.513M612.392 -125.363H568.881M612.392 -125.363L610.988 -123.671L606.708 -118.513M568.881 -125.363H525.371M568.881 -125.363L562.486 -118.513M525.371 -125.363H481.861M525.371 -125.363L518.265 -118.513M481.861 -125.363H438.35M481.861 -125.363L474.044 -118.513M438.35 -125.363H394.84M438.35 -125.363L429.823 -118.513M394.84 -125.363H351.33M394.84 -125.363L385.602 -118.513M351.33 -125.363H307.82M351.33 -125.363L341.381 -118.513M307.82 -125.363H264.308M307.82 -125.363L297.16 -118.513M264.308 -125.363H220.798M264.308 -125.363L252.939 -118.513M220.798 -125.363H177.288M220.798 -125.363L208.718 -118.513M177.288 -125.363H133.777M177.288 -125.363L164.497 -118.513M133.777 -125.363H90.2671M133.777 -125.363L120.277 -118.513M90.2671 -125.363H46.757M90.2671 -125.363L76.0557 -118.513M46.757 -125.363L41.3272 -125.361L35.9534 -125.346L30.6917 -125.304L25.5949 -125.222L20.7191 -125.089L16.1163 -124.888L11.8415 -124.609L7.87366 -124.254L4.46881 -123.763L1.36894 -123.193L0.516983 -122.994V-118.513M46.757 -125.363L31.8346 -118.513M120.277 -118.513H164.497M120.277 -118.513H76.0557M120.277 -118.513L106.326 -111.437M164.497 -118.513L151.281 -111.437M164.497 -118.513H208.718M297.16 -118.513H341.381M297.16 -118.513H252.939M297.16 -118.513L294.441 -116.766L286.148 -111.437M341.381 -118.513L331.103 -111.437M341.381 -118.513H385.602M474.044 -118.513H518.265M474.044 -118.513H429.823M474.044 -118.513L472.05 -116.766L471.046 -115.888L465.968 -111.437M518.265 -118.513L517.361 -117.642L516.452 -116.766L510.924 -111.437M518.265 -118.513H562.486M650.929 -118.513L650.295 -117.642L645.789 -111.437M650.929 -118.513H695.149M650.929 -118.513H606.708M695.149 -118.513L694.062 -116.766L693.514 -115.888L692.965 -115.005L690.744 -111.437M695.149 -118.513H739.37M827.812 -118.513H872.033M827.812 -118.513H783.591M827.812 -118.513L825.61 -111.437M872.033 -118.513L871.852 -117.642L871.671 -116.766L871.488 -115.888L870.936 -113.229L870.565 -111.437M872.033 -118.513H916.254M1004.7 -118.513H1048.92M1004.7 -118.513H960.475M1004.7 -118.513L1005.43 -111.437M1048.92 -118.513L1049.1 -117.642L1049.28 -116.766L1049.46 -115.888L1050.39 -111.437M1048.92 -118.513H1093.14M1181.58 -118.513H1225.8M1181.58 -118.513H1137.36M1181.58 -118.513L1182.49 -116.766L1184.32 -113.229L1184.79 -112.335L1185.25 -111.437M1225.8 -118.513L1226.89 -116.766L1227.44 -115.888L1227.99 -115.005L1230.21 -111.437M1225.8 -118.513H1270.02M1358.46 -118.513H1402.68M1358.46 -118.513H1314.24M1358.46 -118.513L1360.1 -116.766L1360.92 -115.888L1365.07 -111.437M1402.68 -118.513L1403.59 -117.642L1404.5 -116.766L1410.03 -111.437M1402.68 -118.513H1446.91M1535.35 -118.513H1579.57M1535.35 -118.513H1491.13M1535.35 -118.513L1537.7 -116.766L1538.89 -115.888L1544.89 -111.437M1579.57 -118.513L1589.85 -111.437M1579.57 -118.513H1623.79M1712.23 -118.513H1756.45M1712.23 -118.513H1668.01M1712.23 -118.513L1724.71 -111.437M1756.45 -118.513L1769.67 -111.437M1756.45 -118.513H1800.67M0.361991 -54.4559H0.516983M44.871 -54.4559L61.7543 -63.4964M44.871 -54.4559L27.3408 -45.0695M44.871 -54.4559H95.7378M44.871 -54.4559H0.516983M61.7543 -63.4964H11.8255M61.7543 -63.4964L78.0266 -72.2097M61.7543 -63.4964H111.683M11.8255 -63.4964L29.0017 -72.2097M11.8255 -63.4964H0.516983M11.8255 -63.4964L0.516983 -57.761M61.5523 -88.7235H108.864M61.5523 -88.7235L76.9897 -96.555M61.5523 -88.7235H14.2414M61.5523 -88.7235L45.566 -80.6134M108.864 -88.7235L123.49 -96.555M108.864 -88.7235L93.7199 -80.6134M108.864 -88.7235H156.176M76.9897 -96.555H123.49M76.9897 -96.555L91.906 -104.121M76.9897 -96.555H30.4907M123.49 -96.555H169.989M123.49 -96.555L137.62 -104.121M0.0300051 88.2392H0.516983M41.0742 88.2392L62.8453 73.2508M41.0742 88.2392L18.2212 103.974M41.0742 88.2392H106.746M41.0742 88.2392H0.516983M62.8453 73.2508L83.6094 58.9557M62.8453 73.2508H126.961M62.8453 73.2508H0.516983M20.9761 58.9557H83.6094M20.9761 58.9557L42.2172 45.3068M20.9761 58.9557H0.516983M20.9761 58.9557L0.516983 72.1019M62.5183 32.2611H122.382M62.5183 32.2611L81.9414 19.7809M62.5183 32.2611H2.65489M62.5183 32.2611L42.2172 45.3068M122.382 32.2611L140.511 19.7809M122.382 32.2611L103.433 45.3068M122.382 32.2611H182.246M81.9414 19.7809H140.511M81.9414 19.7809H23.373M81.9414 19.7809L100.543 7.82834M140.511 19.7809L157.871 7.82834M140.511 19.7809H199.079M135.477 -14.62H190.477M135.477 -14.62L151.901 -25.1737M135.477 -14.62H80.4775M135.477 -14.62L118.372 -3.62876M190.477 -14.62L205.806 -25.1737M190.477 -14.62L174.512 -3.62876M190.477 -14.62H245.477M151.901 -25.1737H205.806M151.901 -25.1737H97.9967M151.901 -25.1737L167.685 -35.3155M205.806 -25.1737L220.537 -35.3155M205.806 -25.1737H259.712M197.471 -54.4559H248.338M197.471 -54.4559L211.541 -63.4964M197.471 -54.4559H146.605M197.471 -54.4559L182.863 -45.0695M248.338 -54.4559L261.47 -63.4964M248.338 -54.4559L234.704 -45.0695M248.338 -54.4559H299.205M211.541 -63.4964H261.47M211.541 -63.4964H161.612M211.541 -63.4964L225.101 -72.2097M261.47 -63.4964L274.126 -72.2097M261.47 -63.4964H311.398M250.799 -88.7235H298.111M250.799 -88.7235L262.987 -96.555M250.799 -88.7235H203.488M250.799 -88.7235L238.179 -80.6134M298.111 -88.7235L309.486 -96.555M298.111 -88.7235L286.332 -80.6134M298.111 -88.7235H345.423M262.987 -96.555H309.486M262.987 -96.555L274.763 -104.121M262.987 -96.555H216.488M309.486 -96.555H355.985M309.486 -96.555L320.477 -104.121M34.1625 348.096L64.8032 318.562M34.1625 348.096L1.34995 379.722M34.1625 348.096H126.793M34.1625 348.096H0.516983M64.8032 318.562L93.4829 290.919M64.8032 318.562H154.37M64.8032 318.562H0.516983M64.1812 240.624H145.663M64.1812 240.624L90.3651 217.681M64.1812 240.624L36.3724 264.992M64.1812 240.624H0.516983M145.663 240.624L169.466 217.681M145.663 240.624L120.382 264.992M145.663 240.624H227.144M90.3651 217.681H169.466M90.3651 217.681H11.2645M90.3651 217.681L115.063 196.04M169.466 217.681L191.919 196.04M169.466 217.681H248.567M160.477 156.245H233.205M160.477 156.245L181.403 137.91M160.477 156.245H87.7502M160.477 156.245L138.397 175.594M233.205 156.245L252.228 137.91M233.205 156.245L213.131 175.594M233.205 156.245H305.932M181.403 137.91H252.228M181.403 137.91H110.578M181.403 137.91L201.261 120.509M252.228 137.91L270.281 120.509M252.228 137.91H323.052M238.089 88.2392H303.761M238.089 88.2392L255.195 73.2508M238.089 88.2392H172.418M238.089 88.2392L220.133 103.974M303.761 88.2392L319.311 73.2508M303.761 88.2392L287.436 103.974M303.761 88.2392H369.432M255.195 73.2508H319.311M255.195 73.2508H191.079M255.195 73.2508L271.509 58.9557M319.311 73.2508L334.142 58.9557M319.311 73.2508H383.427M301.974 32.2611H361.837M301.974 32.2611L316.217 19.7809M301.974 32.2611H242.109M301.974 32.2611L287.085 45.3068M361.837 32.2611L374.787 19.7809M361.837 32.2611L348.303 45.3068M361.837 32.2611H421.701M316.217 19.7809H374.787M316.217 19.7809H257.649M316.217 19.7809L329.858 7.82834M374.787 19.7809L387.187 7.82834M374.787 19.7809H433.355M355.477 -14.62H410.476M355.477 -14.62L367.521 -25.1737M355.477 -14.62H300.477M355.477 -14.62L342.933 -3.62876M410.476 -14.62L411.87 -15.9623L421.426 -25.1737M410.476 -14.62L399.074 -3.62876M410.476 -14.62H465.477M367.521 -25.1737H421.426M367.521 -25.1737H313.616M367.521 -25.1737L379.095 -35.3155M421.426 -25.1737L431.948 -35.3155M421.426 -25.1737H475.331M400.939 -54.4559H451.806M400.939 -54.4559L411.257 -63.4964M400.939 -54.4559H350.072M400.939 -54.4559L390.226 -45.0695M451.806 -54.4559L461.186 -63.4964M451.806 -54.4559L448.197 -50.9771L442.067 -45.0695M451.806 -54.4559H502.673M411.257 -63.4964H461.186M411.257 -63.4964H361.328M411.257 -63.4964L421.201 -72.2097M461.186 -63.4964L470.226 -72.2097M461.186 -63.4964H511.115M440.046 -88.7235H487.358M440.046 -88.7235L448.983 -96.555M440.046 -88.7235H392.735M440.046 -88.7235L430.791 -80.6134M487.358 -88.7235L493.478 -94.6217L494.482 -95.591L495.483 -96.555M487.358 -88.7235L478.944 -80.6134M487.358 -88.7235H534.67M448.983 -96.555H495.483M448.983 -96.555L457.619 -104.121M448.983 -96.555H402.484M495.483 -96.555H541.982M495.483 -96.555L503.333 -104.121M67.7241 684.527H195.261M67.7241 684.527L107.882 629.232M67.7241 684.527L23.596 745.29M67.7241 684.527L0.516983 684.528M195.261 684.527L229.682 629.232M195.261 684.527L157.436 745.29M195.261 684.527H322.796M107.882 629.232H229.682M107.882 629.232L144.584 578.697M107.882 629.232H0.516983M229.682 629.232L261.14 578.697M229.682 629.232H351.481M209.258 489.644H316.575M209.258 489.644L237.897 450.209M209.258 489.644H101.942M209.258 489.644L178.255 532.333M316.575 489.644L341.122 450.209M316.575 489.644L290.001 532.333M316.575 489.644H423.892M237.897 450.209H341.122M237.897 450.209H134.671M237.897 450.209L264.432 413.672M341.122 450.209L363.867 413.672M341.122 450.209H444.348M312.056 348.096H404.687M312.056 348.096L333.505 318.562M312.056 348.096H219.424M312.056 348.096L289.087 379.722M404.687 348.096L423.073 318.562M404.687 348.096L385 379.722M404.687 348.096H497.318M333.505 318.562H423.073M333.505 318.562H243.937M333.505 318.562L353.581 290.919M423.073 318.562L440.28 290.919M423.073 318.562H512.64M390.106 240.624H471.587M390.106 240.624L406.769 217.681M390.106 240.624H308.626M390.106 240.624L372.41 264.992M471.587 240.624L485.87 217.681M471.587 240.624L456.419 264.992M471.587 240.624H553.069M406.769 217.681H485.87M406.769 217.681H327.668M406.769 217.681L422.486 196.04M485.87 217.681L499.341 196.04M485.87 217.681H564.97M451.385 156.245H524.113M451.385 156.245L464.702 137.91M451.385 156.245H378.658M451.385 156.245L437.334 175.594M524.113 156.245L535.527 137.91M524.113 156.245L512.069 175.594M524.113 156.245H596.84M464.702 137.91H535.527M464.702 137.91H393.877M464.702 137.91L477.339 120.509M535.527 137.91L546.358 120.509M535.527 137.91H606.352M500.775 88.2392H566.446M500.775 88.2392L511.661 73.2508M500.775 88.2392H435.103M500.775 88.2392L489.349 103.974M566.446 88.2392L575.777 73.2508M566.446 88.2392L556.652 103.974M566.446 88.2392H632.117M511.661 73.2508H575.777M511.661 73.2508H447.543M511.661 73.2508L522.042 58.9557M575.777 73.2508L584.676 58.9557M575.777 73.2508H639.893M541.428 32.2611H601.293M541.428 32.2611L550.493 19.7809M541.428 32.2611H481.565M541.428 32.2611L531.955 45.3068M601.293 32.2611L609.061 19.7809M601.293 32.2611L593.172 45.3068M601.293 32.2611H661.156M550.493 19.7809H609.061M550.493 19.7809H491.924M550.493 19.7809L559.174 7.82834M609.061 19.7809L616.502 7.82834M609.061 19.7809H667.631M575.476 -14.62H630.477M575.476 -14.62L583.141 -25.1737M575.476 -14.62H520.476M575.476 -14.62L567.493 -3.62876M630.477 -14.62L629.636 -13.271L623.634 -3.62876M630.477 -14.62L637.045 -25.1737M630.477 -14.62H685.476M583.141 -25.1737H637.045M583.141 -25.1737H529.236M583.141 -25.1737L590.506 -35.3155M637.045 -25.1737L643.359 -35.3155M637.045 -25.1737H690.951M604.407 -54.4559H655.273M604.407 -54.4559L610.972 -63.4964M604.407 -54.4559H553.54M604.407 -54.4559L597.59 -45.0695M655.273 -54.4559L660.901 -63.4964M655.273 -54.4559L653.109 -50.9771L651.648 -48.6305L649.431 -45.0695M655.273 -54.4559H706.14M610.972 -63.4964H660.901M610.972 -63.4964H561.044M610.972 -63.4964L617.3 -72.2097M660.901 -63.4964L662.959 -66.8016L664.315 -68.9799L666.326 -72.2097M660.901 -63.4964H710.83M629.294 -88.7235H676.605M629.294 -88.7235L633.577 -94.6217L634.98 -96.555M629.294 -88.7235H581.982M629.294 -88.7235L624.151 -81.6433L623.404 -80.6134M676.605 -88.7235L680.277 -94.6217L680.879 -95.591L681.48 -96.555M676.605 -88.7235L674.103 -84.7048L671.557 -80.6134M676.605 -88.7235H723.917M634.98 -96.555H681.48M634.98 -96.555L640.476 -104.121M634.98 -96.555H588.481M681.48 -96.555H727.979M681.48 -96.555L686.19 -104.121M577.868 684.527H705.403M577.868 684.527L595.078 629.232M577.868 684.527H450.332M577.868 684.527L558.956 745.29M705.403 684.527L716.878 629.232M705.403 684.527L692.796 745.29M705.403 684.527H832.94M595.078 629.232H716.878M595.078 629.232H473.279M595.078 629.232L610.807 578.697M716.878 629.232L727.363 578.697M716.878 629.232H838.676M638.525 489.644H745.842M638.525 489.644L650.799 450.209M638.525 489.644H531.208M638.525 489.644L625.238 532.333M745.842 489.644L754.024 450.209M745.842 489.644L736.984 532.333M745.842 489.644H853.159M650.799 450.209H754.024M650.799 450.209H547.573M650.799 450.209L662.171 413.672M754.024 450.209L761.606 413.672M754.024 450.209H857.25M682.581 348.096H775.212M682.581 348.096L691.774 318.562M682.581 348.096H589.95M682.581 348.096L672.738 379.722M775.212 348.096L781.341 318.562M775.212 348.096L768.651 379.722M775.212 348.096H867.844M691.774 318.562H781.341M691.774 318.562H602.207M691.774 318.562L700.378 290.919M781.341 318.562L787.077 290.919M781.341 318.562H870.908M716.032 240.624H797.512M716.032 240.624L723.173 217.681M716.032 240.624H634.55M716.032 240.624L708.447 264.992M797.512 240.624L802.273 217.681M797.512 240.624L792.456 264.992M797.512 240.624H878.994M723.173 217.681H802.273M723.173 217.681H644.072M723.173 217.681L729.908 196.04M802.273 217.681L806.764 196.04M802.273 217.681H881.375M742.294 156.245H815.021M742.294 156.245L748 137.91M742.294 156.245H669.567M742.294 156.245L736.272 175.594M815.021 156.245L818.825 137.91M815.021 156.245L811.007 175.594M815.021 156.245H887.748M748 137.91H818.825M748 137.91H677.177M748 137.91L753.417 120.509M818.825 137.91L822.436 120.509M818.825 137.91H889.65M763.461 88.2392H829.132M763.461 88.2392L768.126 73.2508M763.461 88.2392H697.79M763.461 88.2392L758.564 103.974M829.132 88.2392L832.243 73.2508M829.132 88.2392L825.867 103.974M829.132 88.2392H894.804M768.126 73.2508H832.243M768.126 73.2508H704.009M768.126 73.2508L769.819 67.8117L772.575 58.9557M832.243 73.2508L835.209 58.9557M832.243 73.2508H896.359M780.884 32.2611H840.747M780.884 32.2611L784.769 19.7809M780.884 32.2611H721.02M780.884 32.2611L777.856 41.9909L776.823 45.3068M840.747 32.2611L841.732 27.5167L843.337 19.7809M840.747 32.2611L838.041 45.3068M840.747 32.2611H900.612M784.769 19.7809L785.242 18.2582L788.489 7.82834M784.769 19.7809H843.337M784.769 19.7809H726.199M843.337 19.7809L844.28 15.2384L844.59 13.74L844.9 12.251L845.817 7.82834M843.337 19.7809H901.907M795.475 -14.62H850.475M795.475 -14.62L797.134 -19.9501L797.544 -21.2654L797.951 -22.5754L798.357 -23.8772L798.76 -25.1737M795.475 -14.62H740.476M795.475 -14.62L792.055 -3.62876M850.475 -14.62L852.126 -22.5754L852.397 -23.8772L852.665 -25.1737M850.475 -14.62L848.195 -3.62876M850.475 -14.62H905.476M798.76 -25.1737H852.665M798.76 -25.1737H744.856M798.76 -25.1737L800.748 -31.5593L801.139 -32.8181L801.917 -35.3155M852.665 -25.1737L853.99 -31.5593L854.252 -32.8181L854.511 -34.0701L854.77 -35.3155M852.665 -25.1737H906.571M807.875 -54.4559H858.742M807.875 -54.4559L810.689 -63.4964M807.875 -54.4559H757.007M807.875 -54.4559L807.154 -52.143L806.061 -48.6305L804.953 -45.0695M858.742 -54.4559L858.502 -53.3021L857.041 -46.2623L856.794 -45.0695M858.742 -54.4559L860.618 -63.4964M858.742 -54.4559H909.608M810.689 -63.4964H860.618M810.689 -63.4964H760.76M810.689 -63.4964L813.401 -72.2097M860.618 -63.4964L861.303 -66.8016L861.529 -67.8934L861.755 -68.9799L862.425 -72.2097M860.618 -63.4964H910.546M818.54 -88.7235H865.851M818.54 -88.7235L820.376 -94.6217L820.977 -96.555M818.54 -88.7235H771.228M818.54 -88.7235L817.603 -85.7159L817.289 -84.7048L816.972 -83.6883L816.015 -80.6134M865.851 -88.7235L866.058 -89.7171L866.467 -91.6921L866.874 -93.6496L867.476 -96.555M865.851 -88.7235L865.017 -84.7048L864.807 -83.6883L864.382 -81.6433L864.169 -80.6134M865.851 -88.7235H913.163M820.977 -96.555H867.476M820.977 -96.555L823.042 -103.19L823.333 -104.121M820.977 -96.555H774.478M867.476 -96.555L867.676 -97.5149L867.874 -98.4708L868.072 -99.4226L868.268 -100.37L868.853 -103.19L869.047 -104.121M867.476 -96.555H913.976M1088.01 684.527H1215.55M1088.01 684.527L1082.27 629.232M1088.01 684.527H960.475M1088.01 684.527L1094.32 745.29M1215.55 684.527L1204.07 629.232M1215.55 684.527L1228.15 745.29M1215.55 684.527H1343.08M1082.27 629.232H1204.07M1082.27 629.232H960.475M1082.27 629.232L1077.03 578.697M1204.07 629.232L1193.59 578.697M1204.07 629.232H1325.87M1067.79 489.644H1175.11M1067.79 489.644L1063.7 450.209M1067.79 489.644H960.475M1067.79 489.644L1072.22 532.333M1175.11 489.644L1166.93 450.209M1175.11 489.644L1183.97 532.333M1175.11 489.644H1282.43M1063.7 450.209H1166.93M1063.7 450.209H960.475M1063.7 450.209L1059.91 413.672M1166.93 450.209L1159.34 413.672M1166.93 450.209H1270.15M1053.11 348.096H1145.74M1053.11 348.096L1050.04 318.562M1053.11 348.096H960.475M1053.11 348.096L1056.39 379.722M1145.74 348.096L1139.61 318.562M1145.74 348.096L1152.3 379.722M1145.74 348.096H1238.37M1050.04 318.562H1139.61M1050.04 318.562H960.475M1050.04 318.562L1047.17 290.919M1139.61 318.562L1133.87 290.919M1139.61 318.562H1229.18M1041.96 240.624H1123.44M1041.96 240.624L1039.58 217.681M1041.96 240.624H960.475M1041.96 240.624L1044.48 264.992M1123.44 240.624L1118.68 217.681M1123.44 240.624L1128.49 264.992M1123.44 240.624H1204.92M1039.58 217.681H1118.68M1039.58 217.681H960.475M1039.58 217.681L1037.33 196.04M1118.68 217.681L1114.19 196.04M1118.68 217.681H1197.78M1033.2 156.245H1105.93M1033.2 156.245L1031.3 137.91M1033.2 156.245H960.475M1033.2 156.245L1035.21 175.594M1105.93 156.245L1102.12 137.91M1105.93 156.245L1109.94 175.594M1105.93 156.245H1178.66M1031.3 137.91H1102.12M1031.3 137.91H960.475M1031.3 137.91L1029.49 120.509M1102.12 137.91L1098.51 120.509M1102.12 137.91H1172.95M1026.15 88.2392H1091.82M1026.15 88.2392L1024.59 73.2508M1026.15 88.2392H960.475M1026.15 88.2392L1027.78 103.974M1091.82 88.2392L1088.71 73.2508M1091.82 88.2392L1095.08 103.974M1091.82 88.2392H1157.49M1024.59 73.2508H1088.71M1024.59 73.2508H960.475M1024.59 73.2508L1023.11 58.9557M1088.71 73.2508L1085.74 58.9557M1088.71 73.2508H1152.82M1020.34 32.2611H1080.2M1020.34 32.2611L1019.04 19.7809M1020.34 32.2611H960.475M1020.34 32.2611L1021.69 45.3068M1080.2 32.2611L1077.93 21.3116L1077.61 19.7809M1080.2 32.2611L1082.91 45.3068M1080.2 32.2611H1140.07M1019.04 19.7809L1018.89 18.2582L1017.8 7.82834M1019.04 19.7809H1077.61M1019.04 19.7809H960.475M1077.61 19.7809L1076.67 15.2384L1076.36 13.74L1076.05 12.251L1075.13 7.82834M1077.61 19.7809H1136.18M1015.47 -14.62H1070.48M1015.47 -14.62L1014.38 -25.1737M1015.47 -14.62H960.475M1015.47 -14.62L1015.9 -10.5515L1016.04 -9.18092L1016.18 -7.80368L1016.47 -5.02757L1016.62 -3.62876M1070.48 -14.62L1068.82 -22.5754L1068.28 -25.1737M1070.48 -14.62L1072.76 -3.62876M1070.48 -14.62H1125.47M1014.38 -25.1737H1068.28M1014.38 -25.1737H960.475M1014.38 -25.1737L1013.33 -35.3155M1068.28 -25.1737L1066.96 -31.5593L1066.7 -32.8181L1066.44 -34.0701L1066.18 -35.3155M1068.28 -25.1737H1122.19M1011.34 -54.4559H1062.21M1011.34 -54.4559L1010.4 -63.4964M1011.34 -54.4559H960.475M1011.34 -54.4559L1012.32 -45.0695M1062.21 -54.4559L1062.45 -53.3021L1063.91 -46.2623L1064.16 -45.0695M1062.21 -54.4559L1060.33 -63.4964M1062.21 -54.4559H1113.08M1010.4 -63.4964H1060.33M1010.4 -63.4964H960.475M1010.4 -63.4964L1009.5 -72.2097M1060.33 -63.4964L1059.65 -66.8016L1059.42 -67.8934L1059.19 -68.9799L1058.52 -72.2097M1060.33 -63.4964H1110.26M1007.79 -88.7235H1055.1M1007.79 -88.7235L1006.97 -96.555M1007.79 -88.7235H960.475M1007.79 -88.7235L1008.63 -80.6134M1055.1 -88.7235L1054.89 -89.7171L1054.48 -91.6921L1054.28 -92.6736L1053.87 -94.6217L1053.67 -95.591L1053.47 -96.555M1055.1 -88.7235L1055.93 -84.7048L1056.14 -83.6883L1056.57 -81.6433L1056.78 -80.6134M1055.1 -88.7235H1102.41M1006.97 -96.555L1006.88 -97.5149L1006.78 -98.4708L1006.68 -99.4226L1006.19 -104.121M1006.97 -96.555H1053.47M1006.97 -96.555H960.475M1053.47 -96.555H1099.97M1053.47 -96.555L1053.08 -98.4708L1052.88 -99.4226L1052.68 -100.37L1052.1 -103.19L1051.9 -104.121M1598.15 684.527H1725.69M1598.15 684.527L1569.47 629.232M1598.15 684.527H1470.62M1598.15 684.527L1629.67 745.29M1725.69 684.527L1691.27 629.232M1725.69 684.527L1763.51 745.29M1725.69 684.527H1853.23M1569.47 629.232H1691.27M1569.47 629.232H1447.67M1569.47 629.232L1543.25 578.697M1691.27 629.232L1659.81 578.697M1691.27 629.232H1813.07M1497.06 489.644H1604.38M1497.06 489.644L1476.6 450.209M1497.06 489.644H1389.74M1497.06 489.644L1519.2 532.333M1604.38 489.644L1579.83 450.209M1604.38 489.644L1630.95 532.333M1604.38 489.644H1711.69M1476.6 450.209H1579.83M1476.6 450.209H1373.38M1476.6 450.209L1457.65 413.672M1579.83 450.209L1557.08 413.672M1579.83 450.209H1683.05M1423.63 348.096H1516.26M1423.63 348.096L1408.31 318.562M1423.63 348.096H1331M1423.63 348.096L1440.04 379.722M1516.26 348.096L1497.88 318.562M1516.26 348.096L1535.95 379.722M1516.26 348.096H1608.89M1408.31 318.562H1497.88M1408.31 318.562H1318.74M1408.31 318.562L1393.97 290.919M1497.88 318.562L1480.67 290.919M1497.88 318.562H1587.44M1367.88 240.624H1449.36M1367.88 240.624L1355.98 217.681M1367.88 240.624H1286.4M1367.88 240.624L1380.52 264.992M1449.36 240.624L1435.08 217.681M1449.36 240.624L1464.53 264.992M1449.36 240.624H1530.84M1355.98 217.681H1435.08M1355.98 217.681H1276.88M1355.98 217.681L1344.75 196.04M1435.08 217.681L1421.61 196.04M1435.08 217.681H1514.18M1324.11 156.245H1396.84M1324.11 156.245L1314.6 137.91M1324.11 156.245H1251.38M1324.11 156.245L1334.15 175.594M1396.84 156.245L1385.42 137.91M1396.84 156.245L1408.88 175.594M1396.84 156.245H1469.56M1314.6 137.91H1385.42M1314.6 137.91H1243.77M1314.6 137.91L1305.57 120.509M1385.42 137.91L1374.59 120.509M1385.42 137.91H1456.25M1288.83 88.2392H1354.5M1288.83 88.2392L1281.06 73.2508M1288.83 88.2392H1223.16M1288.83 88.2392L1296.99 103.974M1354.5 88.2392L1345.17 73.2508M1354.5 88.2392L1364.3 103.974M1354.5 88.2392H1420.18M1281.06 73.2508H1345.17M1281.06 73.2508H1216.94M1281.06 73.2508L1273.64 58.9557M1345.17 73.2508L1336.27 58.9557M1345.17 73.2508H1409.29M1259.79 32.2611L1260.62 33.8606L1261.46 35.468L1266.56 45.3068M1259.79 32.2611H1319.66M1259.79 32.2611L1253.32 19.7809M1259.79 32.2611H1199.93M1319.66 32.2611L1311.89 19.7809M1319.66 32.2611L1327.78 45.3068M1319.66 32.2611H1379.52M1253.32 19.7809H1311.89M1253.32 19.7809H1194.75M1253.32 19.7809L1247.12 7.82834M1311.89 19.7809L1304.45 7.82834M1311.89 19.7809H1370.46M1235.47 -14.62H1290.47M1235.47 -14.62L1230 -25.1737M1235.47 -14.62H1180.47M1235.47 -14.62L1241.18 -3.62876M1290.47 -14.62L1286.34 -21.2654L1283.9 -25.1737M1290.47 -14.62L1297.32 -3.62876M1290.47 -14.62H1345.47M1230 -25.1737H1283.9M1230 -25.1737H1176.09M1230 -25.1737L1225.39 -34.0701L1224.74 -35.3155M1283.9 -25.1737L1277.59 -35.3155M1283.9 -25.1737H1337.81M1214.81 -54.4559H1265.68M1214.81 -54.4559L1213.62 -56.7487L1210.12 -63.4964M1214.81 -54.4559H1163.94M1214.81 -54.4559L1216.01 -52.143L1218.44 -47.4498L1219.68 -45.0695M1265.68 -54.4559L1260.05 -63.4964M1265.68 -54.4559L1267.84 -50.9771L1269.3 -48.6305L1271.52 -45.0695M1265.68 -54.4559H1316.54M1210.12 -63.4964H1260.05M1210.12 -63.4964H1160.19M1210.12 -63.4964L1206.71 -70.0623L1205.6 -72.2097M1260.05 -63.4964L1257.99 -66.8016L1256.64 -68.9799L1254.62 -72.2097M1260.05 -63.4964H1309.98M1197.03 -88.7235H1244.35M1197.03 -88.7235L1194.48 -93.6496L1192.97 -96.555M1197.03 -88.7235H1149.72M1197.03 -88.7235L1201.24 -80.6134M1244.35 -88.7235L1240.67 -94.6217L1240.07 -95.591L1239.47 -96.555M1244.35 -88.7235L1246.85 -84.7048L1249.39 -80.6134M1244.35 -88.7235H1291.66M1192.97 -96.555H1239.47M1192.97 -96.555L1190.99 -100.37L1190.02 -102.254L1189.53 -103.19L1189.05 -104.121M1192.97 -96.555H1146.47M1239.47 -96.555H1285.97M1239.47 -96.555L1234.76 -104.121M1889.5 450.209H1786.28M1889.5 450.209L1855.39 413.672M1889.5 450.209H1920.43M1889.5 450.209L1920.43 483.333M1794.16 348.096H1886.79M1794.16 348.096L1766.58 318.562M1794.16 348.096H1701.53M1794.16 348.096L1823.69 379.722M1886.79 348.096L1856.15 318.562M1886.79 348.096L1919.6 379.722M1886.79 348.096H1920.43M1766.58 318.562H1856.15M1766.58 318.562H1677.01M1766.58 318.562L1740.77 290.919M1856.15 318.562L1827.47 290.919M1856.15 318.562H1920.43M1693.81 240.624H1775.29M1693.81 240.624L1672.38 217.681M1693.81 240.624H1612.32M1693.81 240.624L1716.56 264.992M1775.29 240.624L1751.48 217.681M1775.29 240.624L1800.57 264.992M1775.29 240.624H1856.77M1672.38 217.681H1751.48M1672.38 217.681H1593.28M1672.38 217.681L1652.18 196.04M1751.48 217.681L1729.03 196.04M1751.48 217.681H1830.59M1615.02 156.245H1687.75M1615.02 156.245L1597.9 137.91M1615.02 156.245H1542.29M1615.02 156.245L1633.08 175.594M1687.75 156.245L1668.72 137.91M1687.75 156.245L1707.82 175.594M1687.75 156.245H1760.47M1597.9 137.91H1668.72M1597.9 137.91H1527.07M1597.9 137.91L1581.65 120.509M1668.72 137.91L1650.67 120.509M1668.72 137.91H1739.55M1551.52 88.2392H1617.19M1551.52 88.2392L1537.52 73.2508M1551.52 88.2392H1485.85M1551.52 88.2392L1566.21 103.974M1617.19 88.2392L1601.64 73.2508M1617.19 88.2392L1633.51 103.974M1617.19 88.2392H1682.86M1537.52 73.2508H1601.64M1537.52 73.2508H1473.41M1537.52 73.2508L1524.17 58.9557M1601.64 73.2508L1586.81 58.9557M1601.64 73.2508H1665.76M1499.25 32.2611H1559.11M1499.25 32.2611L1487.6 19.7809M1499.25 32.2611H1439.39M1499.25 32.2611L1511.43 45.3068M1559.11 32.2611L1546.16 19.7809M1559.11 32.2611L1572.65 45.3068M1559.11 32.2611H1618.98M1487.6 19.7809H1546.16M1487.6 19.7809H1429.03M1487.6 19.7809L1476.43 7.82834M1546.16 19.7809L1533.76 7.82834M1546.16 19.7809H1604.73M1455.47 -14.62H1510.47M1455.47 -14.62L1445.62 -25.1737M1455.47 -14.62H1400.47M1455.47 -14.62L1465.74 -3.62876M1510.47 -14.62L1499.52 -25.1737M1510.47 -14.62L1521.88 -3.62876M1510.47 -14.62H1565.47M1445.62 -25.1737H1499.52M1445.62 -25.1737H1391.71M1445.62 -25.1737L1436.15 -35.3155M1499.52 -25.1737L1489 -35.3155M1499.52 -25.1737H1553.43M1418.28 -54.4559H1469.14M1418.28 -54.4559L1409.84 -63.4964M1418.28 -54.4559H1367.41M1418.28 -54.4559L1420.44 -52.143L1421.52 -50.9771L1427.04 -45.0695M1469.14 -54.4559L1459.76 -63.4964M1469.14 -54.4559L1478.88 -45.0695M1469.14 -54.4559H1520.01M1409.84 -63.4964H1459.76M1409.84 -63.4964H1359.91M1409.84 -63.4964L1401.7 -72.2097M1459.76 -63.4964L1450.72 -72.2097M1459.76 -63.4964H1509.69M1386.28 -88.7235H1433.59M1386.28 -88.7235L1378.97 -96.555M1386.28 -88.7235H1338.97M1386.28 -88.7235L1393.85 -80.6134M1433.59 -88.7235L1427.47 -94.6217L1426.47 -95.591L1425.47 -96.555M1433.59 -88.7235L1442.01 -80.6134M1433.59 -88.7235H1480.9M1378.97 -96.555H1425.47M1378.97 -96.555L1372.77 -103.19L1371.9 -104.121M1378.97 -96.555H1332.47M1425.47 -96.555H1471.97M1425.47 -96.555L1417.62 -104.121M1905.93 156.245L1881.2 137.91M1905.93 156.245H1833.2M1905.93 156.245L1920.43 167.001M1905.93 156.245H1920.43M1881.2 137.91H1810.37M1881.2 137.91L1857.73 120.509M1881.2 137.91H1920.43M1814.2 88.2392H1879.88M1814.2 88.2392L1793.99 73.2508M1814.2 88.2392H1748.53M1814.2 88.2392L1835.43 103.974M1879.88 88.2392L1858.1 73.2508M1879.88 88.2392L1902.73 103.974M1879.88 88.2392H1920.43M1793.99 73.2508H1858.1M1793.99 73.2508H1729.87M1793.99 73.2508L1774.71 58.9557M1858.1 73.2508L1837.34 58.9557M1858.1 73.2508H1920.43M1738.7 32.2611H1798.57M1738.7 32.2611L1721.87 19.7809M1738.7 32.2611H1678.84M1738.7 32.2611L1756.3 45.3068M1798.57 32.2611L1780.44 19.7809M1798.57 32.2611L1817.52 45.3068M1798.57 32.2611H1858.43M1721.87 19.7809H1780.44M1721.87 19.7809H1663.3M1721.87 19.7809L1705.75 7.82834M1780.44 19.7809L1763.08 7.82834M1780.44 19.7809H1839.01M1675.47 -14.62H1730.47M1675.47 -14.62L1661.24 -25.1737M1675.47 -14.62H1620.47M1675.47 -14.62L1690.3 -3.62876M1730.47 -14.62L1715.14 -25.1737M1730.47 -14.62L1746.44 -3.62876M1730.47 -14.62H1785.47M1661.24 -25.1737H1715.14M1661.24 -25.1737H1607.33M1661.24 -25.1737L1647.56 -35.3155M1715.14 -25.1737L1700.41 -35.3155M1715.14 -25.1737H1769.05M1621.75 -54.4559H1672.61M1621.75 -54.4559L1609.55 -63.4964M1621.75 -54.4559H1570.88M1621.75 -54.4559L1634.41 -45.0695M1672.61 -54.4559L1659.48 -63.4964M1672.61 -54.4559L1686.25 -45.0695M1672.61 -54.4559H1723.48M1609.55 -63.4964H1659.48M1609.55 -63.4964H1559.62M1609.55 -63.4964L1597.8 -72.2097M1659.48 -63.4964L1646.82 -72.2097M1659.48 -63.4964H1709.41M1575.53 -88.7235H1622.84M1575.53 -88.7235L1564.96 -96.555M1575.53 -88.7235H1528.22M1575.53 -88.7235L1586.46 -80.6134M1622.84 -88.7235L1611.46 -96.555M1622.84 -88.7235L1634.62 -80.6134M1622.84 -88.7235H1670.15M1564.96 -96.555H1611.46M1564.96 -96.555L1554.76 -104.121M1564.96 -96.555H1518.47M1611.46 -96.555H1657.96M1611.46 -96.555L1600.47 -104.121M1895.47 -14.62L1876.86 -25.1737M1895.47 -14.62H1840.47M1895.47 -14.62L1914.86 -3.62876M1895.47 -14.62H1920.43M1876.86 -25.1737H1822.95M1876.86 -25.1737L1858.97 -35.3155M1876.86 -25.1737H1920.43M1825.21 -54.4559H1876.08M1825.21 -54.4559L1809.27 -63.4964M1825.21 -54.4559H1774.35M1825.21 -54.4559L1841.77 -45.0695M1876.08 -54.4559L1859.2 -63.4964M1876.08 -54.4559L1893.61 -45.0695M1876.08 -54.4559H1920.43M1809.27 -63.4964H1859.2M1809.27 -63.4964H1759.34M1809.27 -63.4964L1793.9 -72.2097M1859.2 -63.4964L1842.92 -72.2097M1859.2 -63.4964H1909.12M1764.77 -88.7235H1812.09M1764.77 -88.7235L1750.96 -96.555M1764.77 -88.7235H1717.46M1764.77 -88.7235L1779.08 -80.6134M1812.09 -88.7235L1797.46 -96.555M1812.09 -88.7235L1827.23 -80.6134M1812.09 -88.7235H1859.4M1750.96 -96.555H1797.46M1750.96 -96.555L1737.62 -104.121M1750.96 -96.555H1704.46M1797.46 -96.555H1843.96M1797.46 -96.555L1783.33 -104.121M1827.23 -80.6134L1842.92 -72.2097M1827.23 -80.6134H1875.38M1827.23 -80.6134H1779.08M1859.4 -88.7235L1843.96 -96.555M1859.4 -88.7235L1875.38 -80.6134M1859.4 -88.7235H1906.71M1843.96 -96.555H1890.46M1843.96 -96.555L1829.04 -104.121M1783.33 -104.121H1737.62M1783.33 -104.121H1829.04M1783.33 -104.121L1769.67 -111.437M1875.38 -80.6134L1891.95 -72.2097M1875.38 -80.6134H1920.43M1906.71 -88.7235L1890.46 -96.555M1906.71 -88.7235L1920.43 -82.1097M1906.71 -88.7235H1920.43M1890.46 -96.555L1874.76 -104.121M1890.46 -96.555H1920.43M1829.04 -104.121H1874.76M1829.04 -104.121L1814.62 -111.437M1874.76 -104.121L1859.58 -111.437M1874.76 -104.121H1920.43M1842.92 -72.2097H1891.95M1842.92 -72.2097H1793.9M1909.12 -63.4964L1891.95 -72.2097M1909.12 -63.4964L1920.43 -57.761M1909.12 -63.4964H1920.43M1891.95 -72.2097H1920.43M1793.9 -72.2097H1744.87M1793.9 -72.2097L1779.08 -80.6134M1779.08 -80.6134H1730.92M1893.61 -45.0695L1911.82 -35.3155M1893.61 -45.0695H1841.77M1893.61 -45.0695H1920.43M1920.59 -54.4559H1920.43M1911.82 -35.3155H1858.97M1911.82 -35.3155L1920.43 -30.7057M1911.82 -35.3155H1920.43M1858.97 -35.3155H1806.12M1858.97 -35.3155L1841.77 -45.0695M1841.77 -45.0695H1789.93M1634.62 -80.6134L1646.82 -72.2097M1634.62 -80.6134H1682.77M1634.62 -80.6134H1586.46M1670.15 -88.7235L1657.96 -96.555M1670.15 -88.7235L1682.77 -80.6134M1670.15 -88.7235H1717.46M1657.96 -96.555H1704.46M1657.96 -96.555L1646.19 -104.121M1600.47 -104.121H1646.19M1600.47 -104.121L1589.85 -111.437M1600.47 -104.121H1554.76M1682.77 -80.6134L1695.85 -72.2097M1682.77 -80.6134H1730.92M1717.46 -88.7235L1704.46 -96.555M1717.46 -88.7235L1730.92 -80.6134M1704.46 -96.555L1691.9 -104.121M1646.19 -104.121H1691.9M1646.19 -104.121L1634.8 -111.437M1730.92 -80.6134L1744.87 -72.2097M1737.62 -104.121H1691.9M1737.62 -104.121L1724.71 -111.437M1691.9 -104.121L1679.76 -111.437M1646.82 -72.2097H1695.85M1646.82 -72.2097H1597.8M1709.41 -63.4964L1695.85 -72.2097M1709.41 -63.4964L1723.48 -54.4559M1709.41 -63.4964H1759.34M1695.85 -72.2097H1744.87M1597.8 -72.2097H1548.77M1597.8 -72.2097L1586.46 -80.6134M1744.87 -72.2097L1759.34 -63.4964M1586.46 -80.6134H1538.31M1723.48 -54.4559L1738.09 -45.0695M1723.48 -54.4559H1774.35M1759.34 -63.4964L1774.35 -54.4559M1774.35 -54.4559L1789.93 -45.0695M1686.25 -45.0695L1700.41 -35.3155M1686.25 -45.0695H1738.09M1686.25 -45.0695H1634.41M1738.09 -45.0695L1753.27 -35.3155M1738.09 -45.0695H1789.93M1789.93 -45.0695L1806.12 -35.3155M1700.41 -35.3155H1753.27M1700.41 -35.3155H1647.56M1769.05 -25.1737L1753.27 -35.3155M1769.05 -25.1737L1785.47 -14.62M1769.05 -25.1737H1822.95M1753.27 -35.3155H1806.12M1647.56 -35.3155H1594.71M1647.56 -35.3155L1634.41 -45.0695M1806.12 -35.3155L1822.95 -25.1737M1634.41 -45.0695H1582.56M1785.47 -14.62L1802.58 -3.62876M1785.47 -14.62H1840.47M1822.95 -25.1737L1840.47 -14.62M1840.47 -14.62L1858.72 -3.62876M1746.44 -3.62876L1763.08 7.82834M1746.44 -3.62876H1802.58M1746.44 -3.62876H1690.3M1802.58 -3.62876L1820.41 7.82834M1802.58 -3.62876H1858.72M1858.72 -3.62876L1877.74 7.82834M1858.72 -3.62876H1914.86M1914.86 -3.62876H1920.43M1914.86 -3.62876L1920.43 -0.468572M1763.08 7.82834H1820.41M1763.08 7.82834H1705.75M1839.01 19.7809L1820.41 7.82834M1839.01 19.7809L1858.43 32.2611M1839.01 19.7809H1897.58M1820.41 7.82834H1877.74M1705.75 7.82834H1648.42M1705.75 7.82834L1690.3 -3.62876M1877.74 7.82834L1897.58 19.7809M1877.74 7.82834H1920.43M1690.3 -3.62876H1634.16M1858.43 32.2611L1878.73 45.3068M1858.43 32.2611H1918.3M1897.58 19.7809L1918.3 32.2611M1897.58 19.7809H1920.43M1920.73 7.82834H1920.43M1918.3 32.2611L1920.43 33.5491M1918.3 32.2611H1920.43M1817.52 45.3068L1837.34 58.9557M1817.52 45.3068H1878.73M1817.52 45.3068H1756.3M1878.73 45.3068L1899.97 58.9557M1878.73 45.3068H1920.43M1920.95 33.8606L1920.43 33.5491M1837.34 58.9557H1899.97M1837.34 58.9557H1774.71M1899.97 58.9557H1920.43M1899.97 58.9557L1920.43 72.102M1774.71 58.9557H1712.07M1774.71 58.9557L1756.3 45.3068M1756.3 45.3068H1695.08M1902.73 103.974H1835.43M1902.73 103.974L1920.43 116.162M1902.73 103.974H1920.43M1920.92 88.2392H1920.43M1835.43 103.974H1768.12M1835.43 103.974L1857.73 120.509M1920.63 116.296L1920.43 116.162M1442.01 -80.6134L1450.72 -72.2097M1442.01 -80.6134H1490.16M1442.01 -80.6134H1393.85M1480.9 -88.7235L1471.97 -96.555M1480.9 -88.7235L1490.16 -80.6134M1480.9 -88.7235H1528.22M1471.97 -96.555H1518.47M1471.97 -96.555L1463.33 -104.121M1417.62 -104.121H1463.33M1417.62 -104.121L1414.74 -106.893L1410.03 -111.437M1417.62 -104.121H1371.9M1490.16 -80.6134L1499.75 -72.2097M1490.16 -80.6134H1538.31M1528.22 -88.7235L1518.47 -96.555M1528.22 -88.7235L1538.31 -80.6134M1518.47 -96.555L1509.05 -104.121M1463.33 -104.121H1509.05M1463.33 -104.121L1454.98 -111.437M1538.31 -80.6134L1548.77 -72.2097M1554.76 -104.121L1544.89 -111.437M1554.76 -104.121H1509.05M1509.05 -104.121L1507.89 -105.05L1505.59 -106.893L1499.94 -111.437M1450.72 -72.2097H1499.75M1450.72 -72.2097H1401.7M1509.69 -63.4964L1499.75 -72.2097M1509.69 -63.4964L1520.01 -54.4559M1509.69 -63.4964H1559.62M1499.75 -72.2097H1548.77M1401.7 -72.2097H1352.68M1401.7 -72.2097L1393.85 -80.6134M1548.77 -72.2097L1559.62 -63.4964M1393.85 -80.6134H1345.7M1520.01 -54.4559L1530.72 -45.0695M1520.01 -54.4559H1570.88M1559.62 -63.4964L1561.01 -62.3857L1570.88 -54.4559M1570.88 -54.4559L1582.56 -45.0695M1478.88 -45.0695L1480.13 -43.8699L1489 -35.3155M1478.88 -45.0695H1530.72M1478.88 -45.0695H1427.04M1530.72 -45.0695L1541.85 -35.3155M1530.72 -45.0695H1582.56M1582.56 -45.0695L1594.71 -35.3155M1489 -35.3155H1541.85M1489 -35.3155H1436.15M1553.43 -25.1737L1541.85 -35.3155M1553.43 -25.1737L1565.47 -14.62M1553.43 -25.1737H1607.33M1541.85 -35.3155H1594.71M1436.15 -35.3155H1383.3M1436.15 -35.3155L1427.04 -45.0695M1594.71 -35.3155L1607.33 -25.1737M1427.04 -45.0695H1375.2M1565.47 -14.62L1578.02 -3.62876M1565.47 -14.62H1620.47M1607.33 -25.1737L1620.47 -14.62M1620.47 -14.62L1634.16 -3.62876M1521.88 -3.62876L1533.76 7.82834M1521.88 -3.62876H1578.02M1521.88 -3.62876H1465.74M1578.02 -3.62876L1591.09 7.82834M1578.02 -3.62876H1634.16M1634.16 -3.62876L1648.42 7.82834M1533.76 7.82834H1591.09M1533.76 7.82834H1476.43M1604.73 19.7809L1591.09 7.82834M1604.73 19.7809L1618.98 32.2611M1604.73 19.7809H1663.3M1591.09 7.82834H1648.42M1476.43 7.82834H1419.11M1476.43 7.82834L1465.74 -3.62876M1648.42 7.82834L1663.3 19.7809M1465.74 -3.62876H1409.6M1618.98 32.2611L1633.86 45.3068M1618.98 32.2611H1678.84M1663.3 19.7809L1678.84 32.2611M1678.84 32.2611L1695.08 45.3068M1572.65 45.3068L1586.81 58.9557M1572.65 45.3068H1633.86M1572.65 45.3068H1511.43M1633.86 45.3068L1649.44 58.9557M1633.86 45.3068H1695.08M1695.08 45.3068L1712.07 58.9557M1586.81 58.9557H1649.44M1586.81 58.9557H1524.17M1665.76 73.2508L1649.44 58.9557M1665.76 73.2508L1682.86 88.2392M1665.76 73.2508H1729.87M1649.44 58.9557H1712.07M1524.17 58.9557H1461.54M1524.17 58.9557L1511.43 45.3068M1712.07 58.9557L1729.87 73.2508M1511.43 45.3068H1450.21M1682.86 88.2392L1700.82 103.974M1682.86 88.2392H1748.53M1729.87 73.2508L1748.53 88.2392M1748.53 88.2392L1768.12 103.974M1633.51 103.974L1650.67 120.509M1633.51 103.974H1700.82M1633.51 103.974H1566.21M1700.82 103.974L1719.69 120.509M1700.82 103.974H1768.12M1768.12 103.974L1788.71 120.509M1650.67 120.509H1719.69M1650.67 120.509H1581.65M1739.55 137.91L1719.69 120.509M1739.55 137.91L1760.47 156.245M1739.55 137.91H1810.37M1719.69 120.509H1788.71M1581.65 120.509H1512.63M1581.65 120.509L1566.21 103.974M1788.71 120.509L1810.37 137.91M1788.71 120.509H1857.73M1566.21 103.974H1498.91M1760.47 156.245L1782.55 175.594M1760.47 156.245H1833.2M1810.37 137.91L1833.2 156.245M1857.73 120.509H1920.43M1833.2 156.245L1857.29 175.594M1707.82 175.594L1729.03 196.04M1707.82 175.594H1782.55M1707.82 175.594H1633.08M1782.55 175.594L1805.89 196.04M1782.55 175.594H1857.29M1857.29 175.594L1882.74 196.04M1857.29 175.594H1920.43M1729.03 196.04H1805.89M1729.03 196.04H1652.18M1830.59 217.681L1805.89 196.04M1830.59 217.681L1856.77 240.624M1830.59 217.681H1909.69M1805.89 196.04H1882.74M1652.18 196.04H1575.32M1652.18 196.04L1633.08 175.594M1882.74 196.04L1909.69 217.681M1882.74 196.04H1920.43M1633.08 175.594H1558.35M1856.77 240.624L1884.58 264.992M1856.77 240.624H1920.43M1909.69 217.681H1920.43M1909.69 217.681L1920.43 226.314M1800.57 264.992L1827.47 290.919M1800.57 264.992H1884.58M1800.57 264.992H1716.56M1884.58 264.992L1914.17 290.919M1884.58 264.992H1920.43M1827.47 290.919H1914.17M1827.47 290.919H1740.77M1914.17 290.919L1920.43 296.41M1914.17 290.919H1920.43M1740.77 290.919H1654.07M1740.77 290.919L1716.56 264.992M1716.56 264.992H1632.55M1919.6 379.722H1823.69M1919.6 379.722H1920.43M1919.6 379.722L1920.43 380.525M1823.69 379.722H1727.78M1823.69 379.722L1855.39 413.672M1249.39 -80.6134L1251.33 -77.498L1251.99 -76.4492L1254.62 -72.2097M1249.39 -80.6134H1297.55M1249.39 -80.6134H1201.24M1291.66 -88.7235L1287.37 -94.6217L1285.97 -96.555M1291.66 -88.7235L1296.8 -81.6433L1297.55 -80.6134M1291.66 -88.7235H1338.97M1285.97 -96.555H1332.47M1285.97 -96.555L1280.47 -104.121M1234.76 -104.121H1280.47M1234.76 -104.121L1233.03 -106.893L1230.21 -111.437M1234.76 -104.121H1189.05M1297.55 -80.6134L1299.05 -78.5414L1303.65 -72.2097M1297.55 -80.6134H1345.7M1338.97 -88.7235L1332.47 -96.555M1338.97 -88.7235L1345.7 -80.6134M1332.47 -96.555L1327.74 -102.254L1326.19 -104.121M1280.47 -104.121H1326.19M1280.47 -104.121L1275.16 -111.437M1345.7 -80.6134L1352.68 -72.2097M1371.9 -104.121L1371.04 -105.05L1365.07 -111.437M1371.9 -104.121H1326.19M1326.19 -104.121L1323.89 -106.893L1320.12 -111.437M1254.62 -72.2097H1303.65M1254.62 -72.2097H1205.6M1309.98 -63.4964L1303.65 -72.2097M1309.98 -63.4964L1316.54 -54.4559M1309.98 -63.4964H1359.91M1303.65 -72.2097H1352.68M1205.6 -72.2097H1156.57M1205.6 -72.2097L1201.24 -80.6134M1352.68 -72.2097L1359.91 -63.4964M1201.24 -80.6134H1153.09M1316.54 -54.4559L1320.77 -48.6305L1321.63 -47.4498L1323.36 -45.0695M1316.54 -54.4559H1367.41M1359.91 -63.4964L1367.41 -54.4559M1367.41 -54.4559L1375.2 -45.0695M1271.52 -45.0695L1277.59 -35.3155M1271.52 -45.0695H1323.36M1271.52 -45.0695H1219.68M1323.36 -45.0695L1330.44 -35.3155M1323.36 -45.0695H1375.2M1375.2 -45.0695L1383.3 -35.3155M1277.59 -35.3155H1330.44M1277.59 -35.3155H1224.74M1337.81 -25.1737L1333.17 -31.5593L1332.26 -32.8181L1330.44 -35.3155M1337.81 -25.1737L1345.47 -14.62M1337.81 -25.1737H1391.71M1330.44 -35.3155H1383.3M1224.74 -35.3155H1171.89M1224.74 -35.3155L1219.68 -45.0695M1383.3 -35.3155L1391.71 -25.1737M1219.68 -45.0695H1167.84M1345.47 -14.62L1353.46 -3.62876M1345.47 -14.62H1400.47M1391.71 -25.1737L1400.47 -14.62M1400.47 -14.62L1409.6 -3.62876M1297.32 -3.62876L1300.85 2.03919L1301.74 3.47572L1304.45 7.82834M1297.32 -3.62876H1353.46M1297.32 -3.62876H1241.18M1353.46 -3.62876L1361.78 7.82834M1353.46 -3.62876H1409.6M1409.6 -3.62876L1419.11 7.82834M1304.45 7.82834H1361.78M1304.45 7.82834H1247.12M1370.46 19.7809L1361.78 7.82834M1370.46 19.7809L1379.52 32.2611M1370.46 19.7809H1429.03M1361.78 7.82834H1419.11M1247.12 7.82834H1189.79M1247.12 7.82834L1245.61 4.91895L1241.18 -3.62876M1419.11 7.82834L1429.03 19.7809M1241.18 -3.62876H1185.04M1379.52 32.2611L1389 45.3068M1379.52 32.2611H1439.39M1429.03 19.7809L1439.39 32.2611M1439.39 32.2611L1450.21 45.3068M1327.78 45.3068L1336.27 58.9557M1327.78 45.3068H1389M1327.78 45.3068H1266.56M1389 45.3068L1398.91 58.9557M1389 45.3068H1450.21M1450.21 45.3068L1461.54 58.9557M1336.27 58.9557H1398.91M1336.27 58.9557H1273.64M1409.29 73.2508L1398.91 58.9557M1409.29 73.2508L1420.18 88.2392M1409.29 73.2508H1473.41M1398.91 58.9557H1461.54M1273.64 58.9557H1211.01M1273.64 58.9557L1266.56 45.3068M1461.54 58.9557L1473.41 73.2508M1266.56 45.3068H1205.34M1420.18 88.2392L1431.6 103.974M1420.18 88.2392H1485.85M1473.41 73.2508L1485.85 88.2392M1485.85 88.2392L1498.91 103.974M1364.3 103.974L1374.59 120.509M1364.3 103.974H1431.6M1364.3 103.974H1296.99M1431.6 103.974L1443.61 120.509M1431.6 103.974H1498.91M1498.91 103.974L1512.63 120.509M1374.59 120.509H1443.61M1374.59 120.509H1305.57M1456.25 137.91L1443.61 120.509M1456.25 137.91L1469.56 156.245M1456.25 137.91H1527.07M1443.61 120.509H1512.63M1305.57 120.509H1236.55M1305.57 120.509L1296.99 103.974M1512.63 120.509L1527.07 137.91M1296.99 103.974H1229.69M1469.56 156.245L1483.62 175.594M1469.56 156.245H1542.29M1527.07 137.91L1542.29 156.245M1542.29 156.245L1558.35 175.594M1408.88 175.594L1421.61 196.04M1408.88 175.594H1483.62M1408.88 175.594H1334.15M1483.62 175.594L1498.46 196.04M1483.62 175.594H1558.35M1558.35 175.594L1575.32 196.04M1421.61 196.04H1498.46M1421.61 196.04H1344.75M1514.18 217.681L1498.46 196.04M1514.18 217.681L1530.84 240.624M1514.18 217.681H1593.28M1498.46 196.04H1575.32M1344.75 196.04H1267.9M1344.75 196.04L1334.15 175.594M1575.32 196.04L1593.28 217.681M1334.15 175.594H1259.41M1530.84 240.624L1548.54 264.992M1530.84 240.624H1612.32M1593.28 217.681L1612.32 240.624M1612.32 240.624L1632.55 264.992M1464.53 264.992L1480.67 290.919M1464.53 264.992H1548.54M1464.53 264.992H1380.52M1548.54 264.992L1567.37 290.919M1548.54 264.992H1632.55M1632.55 264.992L1654.07 290.919M1480.67 290.919H1567.37M1480.67 290.919H1393.97M1587.44 318.562L1567.37 290.919M1587.44 318.562L1608.89 348.096M1587.44 318.562H1677.01M1567.37 290.919H1654.07M1393.97 290.919H1307.27M1393.97 290.919L1380.52 264.992M1654.07 290.919L1677.01 318.562M1380.52 264.992H1296.51M1608.89 348.096L1631.86 379.722M1608.89 348.096H1701.53M1677.01 318.562L1701.53 348.096M1701.53 348.096L1727.78 379.722M1535.95 379.722L1557.08 413.672M1535.95 379.722H1631.86M1535.95 379.722H1440.04M1631.86 379.722L1656.52 413.672M1631.86 379.722H1727.78M1727.78 379.722L1755.95 413.672M1557.08 413.672H1656.52M1557.08 413.672H1457.65M1683.05 450.209L1656.52 413.672M1683.05 450.209L1711.69 489.644M1683.05 450.209H1786.28M1656.52 413.672H1755.95M1457.65 413.672H1358.21M1457.65 413.672L1440.04 379.722M1755.95 413.672L1786.28 450.209M1755.95 413.672H1855.39M1440.04 379.722H1344.13M1711.69 489.644L1742.7 532.333M1711.69 489.644H1819.01M1786.28 450.209L1819.01 489.644M1855.39 413.672H1920.43M1819.01 489.644L1854.44 532.333M1819.01 489.644H1920.43M1630.95 532.333L1659.81 578.697M1630.95 532.333H1742.7M1630.95 532.333H1519.2M1742.7 532.333L1776.37 578.697M1742.7 532.333H1854.44M1854.44 532.333L1892.92 578.697M1854.44 532.333H1920.43M1659.81 578.697H1776.37M1659.81 578.697H1543.25M1813.07 629.232L1776.37 578.697M1813.07 629.232L1853.23 684.527M1813.07 629.232H1920.43M1776.37 578.697H1892.92M1543.25 578.697H1426.7M1543.25 578.697L1519.2 532.333M1892.92 578.697H1920.43M1892.92 578.697L1920.43 611.843M1519.2 532.333H1407.46M1853.23 684.527L1897.35 745.29M1853.23 684.527H1920.43M1763.51 745.29L1805.27 812.373M1763.51 745.29H1897.35M1763.51 745.29H1629.67M1897.35 745.29L1920.43 777.07M1897.35 745.29H1920.43M1805.27 812.373H1664.47M1805.27 812.373L1920.43 812.371M1664.47 812.373H1523.67M1664.47 812.373L1629.67 745.29M1629.67 745.29H1495.83M1056.78 -80.6134L1057 -79.5794L1057.21 -78.5414L1057.43 -77.498L1057.64 -76.4492L1058.3 -73.2773L1058.52 -72.2097M1056.78 -80.6134H1104.93M1056.78 -80.6134H1008.63M1102.41 -88.7235L1100.57 -94.6217L1099.97 -96.555M1102.41 -88.7235L1103.98 -83.6883L1104.93 -80.6134M1102.41 -88.7235H1149.72M1099.97 -96.555H1146.47M1099.97 -96.555L1098.2 -102.254L1097.62 -104.121M1051.9 -104.121L1051.71 -105.05L1050.95 -108.723L1050.39 -111.437M1051.9 -104.121H1097.62M1051.9 -104.121H1006.19M1104.93 -80.6134L1105.26 -79.5794L1105.58 -78.5414L1105.9 -77.498L1106.23 -76.4492L1107.55 -72.2097M1104.93 -80.6134H1153.09M1149.72 -88.7235L1147.27 -94.6217L1146.47 -96.555M1149.72 -88.7235L1153.09 -80.6134M1146.47 -96.555L1144.89 -100.37L1143.72 -103.19L1143.33 -104.121M1097.62 -104.121L1097.33 -105.05L1096.76 -106.893L1096.19 -108.723L1095.9 -109.632L1095.34 -111.437M1097.62 -104.121H1143.33M1153.09 -80.6134L1155.69 -74.3396L1156.57 -72.2097M1189.05 -104.121L1186.19 -109.632L1185.25 -111.437M1189.05 -104.121H1143.33M1143.33 -104.121L1140.67 -110.536L1140.3 -111.437M1058.52 -72.2097H1107.55M1058.52 -72.2097H1009.5M1110.26 -63.4964L1107.55 -72.2097M1110.26 -63.4964L1113.08 -54.4559M1110.26 -63.4964H1160.19M1107.55 -72.2097H1156.57M1009.5 -72.2097H960.475M1009.5 -72.2097L1008.63 -80.6134M1156.57 -72.2097L1160.19 -63.4964M1008.63 -80.6134H960.475M1113.08 -54.4559L1113.8 -52.143L1114.89 -48.6305L1116 -45.0695M1113.08 -54.4559H1163.94M1160.19 -63.4964L1160.65 -62.3857L1163.94 -54.4559M1163.94 -54.4559L1164.42 -53.3021L1164.9 -52.143L1165.39 -50.9771L1167.84 -45.0695M1064.16 -45.0695L1066.18 -35.3155M1064.16 -45.0695H1116M1064.16 -45.0695H1012.32M1116 -45.0695L1119.03 -35.3155M1116 -45.0695H1167.84M1167.84 -45.0695L1170.86 -37.79L1171.37 -36.5554L1171.89 -35.3155M1066.18 -35.3155H1119.03M1066.18 -35.3155H1013.33M1122.19 -25.1737L1122.59 -23.8772L1123 -22.5754L1123.41 -21.2654L1125.47 -14.62M1122.19 -25.1737L1120.6 -30.2951L1120.2 -31.5593L1119.81 -32.8181L1119.03 -35.3155M1122.19 -25.1737H1176.09M1119.03 -35.3155H1171.89M1013.33 -35.3155H960.475M1013.33 -35.3155L1012.32 -45.0695M1171.89 -35.3155L1176.09 -25.1737M1012.32 -45.0695H960.475M1125.47 -14.62L1128.46 -5.02757L1128.9 -3.62876M1125.47 -14.62H1180.47M1176.09 -25.1737L1177.17 -22.5754L1180.47 -14.62M1180.47 -14.62L1182.16 -10.5515L1185.04 -3.62876M1072.76 -3.62876L1073.93 2.03919L1074.23 3.47572L1075.13 7.82834M1072.76 -3.62876H1128.9M1072.76 -3.62876H1016.62M1128.9 -3.62876L1132.46 7.82834M1128.9 -3.62876H1185.04M1185.04 -3.62876L1189.79 7.82834M1075.13 7.82834H1132.46M1075.13 7.82834H1017.8M1136.18 19.7809L1132.46 7.82834M1136.18 19.7809L1140.07 32.2611M1136.18 19.7809H1194.75M1132.46 7.82834H1189.79M1017.8 7.82834H960.475M1017.8 7.82834L1017.5 4.91895L1016.91 -0.809597L1016.62 -3.62876M1189.79 7.82834L1194.75 19.7809M1016.62 -3.62876H960.475M1140.07 32.2611L1143.09 41.9909L1144.13 45.3068M1140.07 32.2611H1199.93M1194.75 19.7809L1199.93 32.2611M1199.93 32.2611L1202.61 38.7113L1205.34 45.3068M1082.91 45.3068L1085.74 58.9557M1082.91 45.3068H1144.13M1082.91 45.3068H1021.69M1144.13 45.3068L1148.37 58.9557M1144.13 45.3068H1205.34M1205.34 45.3068L1211.01 58.9557M1085.74 58.9557H1148.37M1085.74 58.9557H1023.11M1152.82 73.2508L1151.69 69.6144L1148.37 58.9557M1152.82 73.2508L1157.49 88.2392M1152.82 73.2508H1216.94M1148.37 58.9557H1211.01M1023.11 58.9557H960.475M1023.11 58.9557L1021.69 45.3068M1211.01 58.9557L1216.94 73.2508M1021.69 45.3068H960.475M1157.49 88.2392L1162.39 103.974M1157.49 88.2392H1223.16M1216.94 73.2508L1223.16 88.2392M1223.16 88.2392L1229.69 103.974M1095.08 103.974L1098.51 120.509M1095.08 103.974H1162.39M1095.08 103.974H1027.78M1162.39 103.974L1167.53 120.509M1162.39 103.974H1229.69M1229.69 103.974L1236.55 120.509M1098.51 120.509H1167.53M1098.51 120.509H1029.49M1172.95 137.91L1167.53 120.509M1172.95 137.91L1178.66 156.245M1172.95 137.91H1243.77M1167.53 120.509H1236.55M1029.49 120.509H960.475M1029.49 120.509L1027.99 105.996L1027.78 103.974M1236.55 120.509L1243.77 137.91M1027.78 103.974H960.475M1178.66 156.245L1184.68 175.594M1178.66 156.245H1251.38M1243.77 137.91L1249.44 151.571L1251.38 156.245M1251.38 156.245L1259.41 175.594M1109.94 175.594L1114.19 196.04M1109.94 175.594H1184.68M1109.94 175.594H1035.21M1184.68 175.594L1191.04 196.04M1184.68 175.594H1259.41M1259.41 175.594L1267.9 196.04M1114.19 196.04H1191.04M1114.19 196.04H1037.33M1197.78 217.681L1191.04 196.04M1197.78 217.681L1204.92 240.624M1197.78 217.681H1276.88M1191.04 196.04H1267.9M1037.33 196.04H960.475M1037.33 196.04L1035.21 175.594M1267.9 196.04L1276.88 217.681M1035.21 175.594H960.475M1204.92 240.624L1212.5 264.992M1204.92 240.624H1286.4M1276.88 217.681L1286.4 240.624M1286.4 240.624L1296.51 264.992M1128.49 264.992L1133.87 290.919M1128.49 264.992H1212.5M1128.49 264.992H1044.48M1212.5 264.992L1220.57 290.919M1212.5 264.992H1296.51M1296.51 264.992L1307.27 290.919M1133.87 290.919H1220.57M1133.87 290.919H1047.17M1229.18 318.562L1220.57 290.919M1229.18 318.562L1238.37 348.096M1229.18 318.562H1318.74M1220.57 290.919H1307.27M1047.17 290.919H960.475M1047.17 290.919L1044.48 264.992M1307.27 290.919L1318.74 318.562M1044.48 264.992H960.475M1238.37 348.096L1248.21 379.722M1238.37 348.096H1331M1318.74 318.562L1331 348.096M1331 348.096L1344.13 379.722M1152.3 379.722L1159.34 413.672M1152.3 379.722H1248.21M1152.3 379.722H1056.39M1248.21 379.722L1258.78 413.672M1248.21 379.722H1344.13M1344.13 379.722L1358.21 413.672M1159.34 413.672H1258.78M1159.34 413.672H1059.91M1270.15 450.209L1258.78 413.672M1270.15 450.209L1282.43 489.644M1270.15 450.209H1373.38M1258.78 413.672H1358.21M1059.91 413.672H960.475M1059.91 413.672L1056.39 379.722M1358.21 413.672L1373.38 450.209M1056.39 379.722H960.475M1282.43 489.644L1295.71 532.333M1282.43 489.644H1389.74M1373.38 450.209L1389.74 489.644M1389.74 489.644L1407.46 532.333M1183.97 532.333L1193.59 578.697M1183.97 532.333H1295.71M1183.97 532.333H1072.22M1295.71 532.333L1310.14 578.697M1295.71 532.333H1407.46M1407.46 532.333L1426.7 578.697M1193.59 578.697H1310.14M1193.59 578.697H1077.03M1325.87 629.232L1310.14 578.697M1325.87 629.232L1343.08 684.527M1325.87 629.232H1447.67M1310.14 578.697H1426.7M1077.03 578.697H960.475M1077.03 578.697L1072.22 532.333M1426.7 578.697L1447.67 629.232M1072.22 532.333H960.475M1343.08 684.527L1361.99 745.29M1343.08 684.527H1470.62M1447.67 629.232L1470.62 684.527M1470.62 684.527L1495.83 745.29M1228.15 745.29L1242.07 812.373M1228.15 745.29H1361.99M1228.15 745.29H1094.32M1361.99 745.29L1382.87 812.373M1361.99 745.29H1495.83M1495.83 745.29L1523.67 812.373M1382.87 812.373H1242.07M1382.87 812.373H1523.67M1242.07 812.373H1101.28M1101.28 812.373H960.475M1101.28 812.373L1094.32 745.29M1094.32 745.29H960.475M864.169 -80.6134L863.954 -79.5794L863.739 -78.5414L863.522 -77.498L863.305 -76.4492L862.867 -74.3396L862.646 -73.2773L862.425 -72.2097M864.169 -80.6134H912.322M864.169 -80.6134H816.015M913.163 -88.7235L913.976 -96.555M913.163 -88.7235L912.322 -80.6134M913.163 -88.7235H960.475M913.976 -96.555L914.075 -97.5149L914.175 -98.4708L914.273 -99.4226L914.761 -104.121M913.976 -96.555H960.475M869.047 -104.121L869.239 -105.05L870.001 -108.723L870.565 -111.437M869.047 -104.121H914.761M869.047 -104.121H823.333M912.322 -80.6134L912.214 -79.5794L912.107 -78.5414L911.998 -77.498L911.45 -72.2097M912.322 -80.6134H960.475M960.475 -88.7235V-96.555M960.475 -88.7235V-80.6134M960.475 -96.555V-104.121M914.761 -104.121H960.475M914.761 -104.121L915.048 -106.893L915.144 -107.81L915.52 -111.437M960.475 -80.6134V-72.2097M1006.19 -104.121L1005.9 -106.893L1005.81 -107.81L1005.71 -108.723L1005.62 -109.632L1005.52 -110.536L1005.43 -111.437M1006.19 -104.121H960.475M960.475 -104.121V-111.437M862.425 -72.2097H911.45M862.425 -72.2097H813.401M910.546 -63.4964L910.43 -62.3857L910.315 -61.2682L909.608 -54.4559M910.546 -63.4964L911.45 -72.2097M910.546 -63.4964H960.475M911.45 -72.2097H960.475M813.401 -72.2097H764.376M813.401 -72.2097L814.063 -74.3396L814.393 -75.3964L814.72 -76.4492L815.047 -77.498L815.37 -78.5414L815.694 -79.5794L816.015 -80.6134M960.475 -72.2097V-63.4964M816.015 -80.6134H767.863M909.608 -54.4559L908.634 -45.0695M909.608 -54.4559H960.475M960.475 -63.4964V-54.4559M960.475 -54.4559V-45.0695M856.794 -45.0695L854.77 -35.3155M856.794 -45.0695H908.634M856.794 -45.0695H804.953M908.634 -45.0695L907.623 -35.3155M908.634 -45.0695H960.475M960.475 -45.0695V-35.3155M854.77 -35.3155H907.623M854.77 -35.3155H801.917M906.571 -25.1737L907.623 -35.3155M906.571 -25.1737L905.476 -14.62M906.571 -25.1737H960.475M907.623 -35.3155H960.475M801.917 -35.3155H749.064M801.917 -35.3155L804.953 -45.0695M960.475 -35.3155V-25.1737M804.953 -45.0695H753.112M905.476 -14.62L905.054 -10.5515L904.625 -6.41965L904.335 -3.62876M905.476 -14.62H960.475M960.475 -25.1737V-14.62M960.475 -14.62V-3.62876M848.195 -3.62876L847.018 2.03919L846.721 3.47572L845.817 7.82834M848.195 -3.62876H904.335M848.195 -3.62876H792.055M904.335 -3.62876L904.043 -0.809597L903.449 4.91895L903.147 7.82834M904.335 -3.62876H960.475M960.475 -3.62876V7.82834M845.817 7.82834H903.147M845.817 7.82834H788.489M901.907 19.7809L902.064 18.2582L903.147 7.82834M901.907 19.7809L900.612 32.2611M901.907 19.7809H960.475M903.147 7.82834H960.475M788.489 7.82834H731.16M788.489 7.82834L792.055 -3.62876M960.475 7.82834V19.7809M792.055 -3.62876H735.914M900.612 32.2611L899.258 45.3068M900.612 32.2611H960.475M960.475 19.7809V32.2611M960.475 32.2611V45.3068M838.041 45.3068L835.209 58.9557M838.041 45.3068H899.258M838.041 45.3068H776.823M899.258 45.3068L897.842 58.9557M899.258 45.3068H960.475M960.475 45.3068V58.9557M835.209 58.9557H897.842M835.209 58.9557H772.575M896.359 73.2508L897.842 58.9557M896.359 73.2508L894.804 88.2392M896.359 73.2508H960.475M897.842 58.9557H960.475M772.575 58.9557H709.942M772.575 58.9557L776.823 45.3068M960.475 58.9557V73.2508M776.823 45.3068H715.606M894.804 88.2392L893.171 103.974M894.804 88.2392H960.475M960.475 73.2508V88.2392M960.475 88.2392V103.974M825.867 103.974L822.436 120.509M825.867 103.974H893.171M825.867 103.974H758.564M893.171 103.974L891.456 120.509M893.171 103.974H960.475M960.475 103.974V120.509M822.436 120.509H891.456M822.436 120.509H753.417M889.65 137.91L891.456 120.509M889.65 137.91L887.748 156.245M889.65 137.91H960.475M891.456 120.509H960.475M753.417 120.509H684.397M753.417 120.509L758.564 103.974M960.475 120.509V137.91M758.564 103.974H691.26M887.748 156.245L885.74 175.594M887.748 156.245H960.475M960.475 137.91V156.245M960.475 156.245V175.594M811.007 175.594L806.764 196.04M811.007 175.594H885.74M811.007 175.594H736.272M885.74 175.594L883.62 196.04M885.74 175.594H960.475M960.475 175.594V196.04M806.764 196.04H883.62M806.764 196.04H729.908M881.375 217.681L883.62 196.04M881.375 217.681L878.994 240.624M881.375 217.681H960.475M883.62 196.04H960.475M729.908 196.04H653.053M729.908 196.04L736.272 175.594M960.475 196.04V217.681M736.272 175.594H661.537M878.994 240.624L876.466 264.992M878.994 240.624H960.475M960.475 217.681V240.624M960.475 240.624V264.992M792.456 264.992L787.077 290.919M792.456 264.992H876.466M792.456 264.992H708.447M876.466 264.992L873.776 290.919M876.466 264.992H960.475M960.475 264.992V290.919M787.077 290.919H873.776M787.077 290.919H700.378M870.908 318.562L873.776 290.919M870.908 318.562L867.844 348.096M870.908 318.562H960.475M873.776 290.919H960.475M700.378 290.919H613.678M700.378 290.919L708.447 264.992M960.475 290.919V318.562M708.447 264.992H624.438M867.844 348.096L864.562 379.722M867.844 348.096H960.475M960.475 318.562V348.096M960.475 348.096V379.722M768.651 379.722L761.606 413.672M768.651 379.722H864.562M768.651 379.722H672.738M864.562 379.722L861.04 413.672M864.562 379.722H960.475M960.475 379.722V413.672M761.606 413.672H861.04M761.606 413.672H662.171M857.25 450.209L861.04 413.672M857.25 450.209L853.159 489.644M857.25 450.209H960.475M861.04 413.672H960.475M662.171 413.672H562.736M662.171 413.672L672.738 379.722M960.475 413.672V450.209M672.738 379.722H576.825M853.159 489.644L848.729 532.333M853.159 489.644H960.475M960.475 450.209V489.644M960.475 489.644V532.333M736.984 532.333L727.363 578.697M736.984 532.333H848.729M736.984 532.333H625.238M848.729 532.333L843.919 578.697M848.729 532.333H960.475M960.475 532.333V578.697M727.363 578.697H843.919M727.363 578.697H610.807M838.676 629.232L843.919 578.697M838.676 629.232L832.94 684.527M838.676 629.232H960.475M843.919 578.697H960.475M610.807 578.697H494.251M610.807 578.697L625.238 532.333M960.475 578.697V629.232M625.238 532.333H513.493M832.94 684.527L826.635 745.29M832.94 684.527H960.475M960.475 629.232V684.527M960.475 684.527V745.29M692.796 745.29L678.876 812.373M692.796 745.29H826.635M692.796 745.29H558.956M826.635 745.29L819.675 812.373M826.635 745.29H960.475M960.475 745.29V812.373M819.675 812.373H678.876M819.675 812.373H960.475M678.876 812.373H538.077M538.077 812.373H397.277M538.077 812.373L558.956 745.29M558.956 745.29H425.115M671.557 -80.6134L668.965 -76.4492L666.326 -72.2097M671.557 -80.6134H719.71M671.557 -80.6134H623.404M723.917 -88.7235L727.979 -96.555M723.917 -88.7235L719.71 -80.6134M723.917 -88.7235H771.228M727.979 -96.555H774.478M727.979 -96.555L730.935 -102.254L731.904 -104.121M686.19 -104.121H731.904M686.19 -104.121L687.916 -106.893L690.744 -111.437M686.19 -104.121H640.476M719.71 -80.6134L715.351 -72.2097M719.71 -80.6134H767.863M771.228 -88.7235L774.478 -96.555M771.228 -88.7235L767.863 -80.6134M774.478 -96.555L776.062 -100.37L777.232 -103.19L777.618 -104.121M731.904 -104.121H777.618M731.904 -104.121L734.762 -109.632L735.699 -111.437M767.863 -80.6134L765.259 -74.3396L764.376 -72.2097M823.333 -104.121L823.621 -105.05L824.195 -106.893L825.047 -109.632L825.61 -111.437M823.333 -104.121H777.618M777.618 -104.121L778.003 -105.05L778.769 -106.893L780.654 -111.437M666.326 -72.2097H715.351M666.326 -72.2097H617.3M710.83 -63.4964L711.405 -64.6031L711.976 -65.7057L714.236 -70.0623L715.351 -72.2097M710.83 -63.4964L707.329 -56.7487L706.14 -54.4559M710.83 -63.4964H760.76M715.351 -72.2097H764.376M617.3 -72.2097H568.275M617.3 -72.2097L621.898 -78.5414L623.404 -80.6134M764.376 -72.2097L760.76 -63.4964M623.404 -80.6134H575.25M706.14 -54.4559L705.542 -53.3021L704.94 -52.143L703.119 -48.6305L702.505 -47.4498L701.271 -45.0695M706.14 -54.4559H757.007M760.76 -63.4964L760.298 -62.3857L757.007 -54.4559M757.007 -54.4559L756.529 -53.3021L756.047 -52.143L755.564 -50.9771L753.112 -45.0695M649.431 -45.0695L643.359 -35.3155M649.431 -45.0695H701.271M649.431 -45.0695H597.59M701.271 -45.0695L696.212 -35.3155M701.271 -45.0695H753.112M753.112 -45.0695L749.064 -35.3155M643.359 -35.3155H696.212M643.359 -35.3155H590.506M690.951 -25.1737L696.212 -35.3155M690.951 -25.1737L685.476 -14.62M690.951 -25.1737H744.856M696.212 -35.3155H749.064M590.506 -35.3155H537.654M590.506 -35.3155L597.59 -45.0695M749.064 -35.3155L744.856 -25.1737M597.59 -45.0695H545.748M685.476 -14.62L679.774 -3.62876M685.476 -14.62H740.476M744.856 -25.1737L743.777 -22.5754L740.476 -14.62M740.476 -14.62L738.787 -10.5515L737.072 -6.41965L735.914 -3.62876M623.634 -3.62876L620.105 2.03919L616.502 7.82834M623.634 -3.62876H679.774M623.634 -3.62876H567.493M679.774 -3.62876L673.831 7.82834M679.774 -3.62876H735.914M735.914 -3.62876L731.16 7.82834M616.502 7.82834H673.831M616.502 7.82834H559.174M667.631 19.7809L673.831 7.82834M667.631 19.7809L661.156 32.2611M667.631 19.7809H726.199M673.831 7.82834H731.16M559.174 7.82834H501.844M559.174 7.82834L567.493 -3.62876M731.16 7.82834L726.199 19.7809M567.493 -3.62876H511.354M661.156 32.2611L659.492 35.468L654.39 45.3068M661.156 32.2611H721.02M726.199 19.7809L721.02 32.2611M721.02 32.2611L720.357 33.8606L718.344 38.7113L715.606 45.3068M593.172 45.3068L584.676 58.9557M593.172 45.3068H654.39M593.172 45.3068H531.955M654.39 45.3068L647.309 58.9557M654.39 45.3068H715.606M715.606 45.3068L709.942 58.9557M584.676 58.9557H647.309M584.676 58.9557H522.042M639.893 73.2508L644.569 64.2386L647.309 58.9557M639.893 73.2508L632.117 88.2392M639.893 73.2508H704.009M647.309 58.9557H709.942M522.042 58.9557H459.409M522.042 58.9557L531.955 45.3068M709.942 58.9557L704.009 73.2508M531.955 45.3068H470.737M632.117 88.2392L623.956 103.974M632.117 88.2392H697.79M704.009 73.2508L697.79 88.2392M697.79 88.2392L691.26 103.974M556.652 103.974L546.358 120.509M556.652 103.974H623.956M556.652 103.974H489.349M623.956 103.974L615.378 120.509M623.956 103.974H691.26M691.26 103.974L684.397 120.509M546.358 120.509H615.378M546.358 120.509H477.339M606.352 137.91L615.378 120.509M606.352 137.91L596.84 156.245M606.352 137.91H677.177M615.378 120.509H684.397M477.339 120.509H408.32M477.339 120.509L489.349 103.974M684.397 120.509L677.177 137.91M489.349 103.974H422.045M596.84 156.245L586.803 175.594M596.84 156.245H669.567M677.177 137.91L669.567 156.245M669.567 156.245L661.537 175.594M512.069 175.594L499.341 196.04M512.069 175.594H586.803M512.069 175.594H437.334M586.803 175.594L576.197 196.04M586.803 175.594H661.537M661.537 175.594L653.053 196.04M499.341 196.04H576.197M499.341 196.04H422.486M564.97 217.681L576.197 196.04M564.97 217.681L553.069 240.624M564.97 217.681H644.072M576.197 196.04H653.053M422.486 196.04H345.63M422.486 196.04L437.334 175.594M653.053 196.04L644.072 217.681M437.334 175.594H362.6M553.069 240.624L540.428 264.992M553.069 240.624H634.55M644.072 217.681L634.55 240.624M634.55 240.624L624.438 264.992M456.419 264.992L440.28 290.919M456.419 264.992H540.428M456.419 264.992H372.41M540.428 264.992L526.979 290.919M540.428 264.992H624.438M624.438 264.992L613.678 290.919M440.28 290.919H526.979M440.28 290.919H353.581M512.64 318.562L526.979 290.919M512.64 318.562L497.318 348.096M512.64 318.562H602.207M526.979 290.919H613.678M353.581 290.919H266.881M353.581 290.919L372.41 264.992M613.678 290.919L602.207 318.562M372.41 264.992H288.4M497.318 348.096L480.913 379.722M497.318 348.096H589.95M602.207 318.562L589.95 348.096M589.95 348.096L576.825 379.722M385 379.722L363.867 413.672M385 379.722H480.913M385 379.722H289.087M480.913 379.722L463.302 413.672M480.913 379.722H576.825M576.825 379.722L562.736 413.672M363.867 413.672H463.302M363.867 413.672H264.432M444.348 450.209L463.302 413.672M444.348 450.209L423.892 489.644M444.348 450.209H547.573M463.302 413.672H562.736M264.432 413.672H164.998M264.432 413.672L289.087 379.722M562.736 413.672L547.573 450.209M289.087 379.722H193.175M423.892 489.644L401.747 532.333M423.892 489.644H531.208M547.573 450.209L531.208 489.644M531.208 489.644L513.493 532.333M290.001 532.333L261.14 578.697M290.001 532.333H401.747M290.001 532.333H178.255M401.747 532.333L377.696 578.697M401.747 532.333H513.493M513.493 532.333L494.251 578.697M261.14 578.697H377.696M261.14 578.697H144.584M351.481 629.232L377.696 578.697M351.481 629.232L322.796 684.527M351.481 629.232H473.279M377.696 578.697H494.251M144.584 578.697H28.0278M144.584 578.697L178.255 532.333M494.251 578.697L473.279 629.232M178.255 532.333H66.5101M322.796 684.527L291.276 745.29M322.796 684.527H450.332M473.279 629.232L450.332 684.527M450.332 684.527L425.115 745.29M157.436 745.29L115.678 812.373M157.436 745.29H291.276M157.436 745.29H23.596M291.276 745.29L256.478 812.373M291.276 745.29H425.115M425.115 745.29L397.277 812.373M256.478 812.373H115.678M256.478 812.373H397.277M115.678 812.373L0.516983 812.371M23.596 745.29L0.516983 777.07M23.596 745.29H0.516983M478.944 -80.6134L470.226 -72.2097M478.944 -80.6134H527.097M478.944 -80.6134H430.791M534.67 -88.7235L541.982 -96.555M534.67 -88.7235L527.097 -80.6134M534.67 -88.7235H581.982M541.982 -96.555H588.481M541.982 -96.555L549.048 -104.121M503.333 -104.121H549.048M503.333 -104.121L506.21 -106.893L510.924 -111.437M503.333 -104.121H457.619M527.097 -80.6134L519.25 -72.2097M527.097 -80.6134H575.25M581.982 -88.7235L588.481 -96.555M581.982 -88.7235L575.25 -80.6134M588.481 -96.555L593.212 -102.254L594.762 -104.121M549.048 -104.121L549.914 -105.05L555.879 -111.437M549.048 -104.121H594.762M575.25 -80.6134L568.275 -72.2097M640.476 -104.121L645.789 -111.437M640.476 -104.121H594.762M594.762 -104.121L597.063 -106.893L600.834 -111.437M470.226 -72.2097H519.25M470.226 -72.2097H421.201M511.115 -63.4964L519.25 -72.2097M511.115 -63.4964L502.673 -54.4559M511.115 -63.4964H561.044M519.25 -72.2097H568.275M421.201 -72.2097H372.176M421.201 -72.2097L430.791 -80.6134M568.275 -72.2097L561.044 -63.4964M430.791 -80.6134H382.638M502.673 -54.4559L500.512 -52.143L493.907 -45.0695M502.673 -54.4559H553.54M561.044 -63.4964L553.54 -54.4559M553.54 -54.4559L545.748 -45.0695M442.067 -45.0695L440.824 -43.8699L431.948 -35.3155M442.067 -45.0695H493.907M442.067 -45.0695H390.226M493.907 -45.0695L484.801 -35.3155M493.907 -45.0695H545.748M545.748 -45.0695L544.754 -43.8699L537.654 -35.3155M431.948 -35.3155H484.801M431.948 -35.3155H379.095M475.331 -25.1737L484.801 -35.3155M475.331 -25.1737L465.477 -14.62M475.331 -25.1737H529.236M484.801 -35.3155H537.654M379.095 -35.3155H326.243M379.095 -35.3155L390.226 -45.0695M537.654 -35.3155L529.236 -25.1737M390.226 -45.0695H338.385M465.477 -14.62L455.213 -3.62876M465.477 -14.62H520.476M529.236 -25.1737L520.476 -14.62M520.476 -14.62L511.354 -3.62876M399.074 -3.62876L387.187 7.82834M399.074 -3.62876H455.213M399.074 -3.62876H342.933M455.213 -3.62876L444.516 7.82834M455.213 -3.62876H511.354M511.354 -3.62876L501.844 7.82834M387.187 7.82834H444.516M387.187 7.82834H329.858M433.355 19.7809L444.516 7.82834M433.355 19.7809L421.701 32.2611M433.355 19.7809H491.924M444.516 7.82834H501.844M329.858 7.82834H272.529M329.858 7.82834L342.933 -3.62876M501.844 7.82834L491.924 19.7809M342.933 -3.62876H286.792M421.701 32.2611L409.52 45.3068M421.701 32.2611H481.565M491.924 19.7809L481.565 32.2611M481.565 32.2611L470.737 45.3068M348.303 45.3068L334.142 58.9557M348.303 45.3068H409.52M348.303 45.3068H287.085M409.52 45.3068L396.776 58.9557M409.52 45.3068H470.737M470.737 45.3068L459.409 58.9557M334.142 58.9557H396.776M334.142 58.9557H271.509M383.427 73.2508L396.776 58.9557M383.427 73.2508L369.432 88.2392M383.427 73.2508H447.543M396.776 58.9557H459.409M271.509 58.9557H208.876M271.509 58.9557L287.085 45.3068M459.409 58.9557L447.543 73.2508M287.085 45.3068H225.868M369.432 88.2392L354.741 103.974M369.432 88.2392H435.103M447.543 73.2508L435.103 88.2392M435.103 88.2392L422.045 103.974M287.436 103.974L270.281 120.509M287.436 103.974H354.741M287.436 103.974H220.133M354.741 103.974L339.3 120.509M354.741 103.974H422.045M422.045 103.974L408.32 120.509M270.281 120.509H339.3M270.281 120.509H201.261M323.052 137.91L339.3 120.509M323.052 137.91L305.932 156.245M323.052 137.91H393.877M339.3 120.509H408.32M201.261 120.509H132.242M201.261 120.509L220.133 103.974M408.32 120.509L393.877 137.91M220.133 103.974H152.829M305.932 156.245L287.865 175.594M305.932 156.245H378.658M393.877 137.91L378.658 156.245M378.658 156.245L362.6 175.594M213.131 175.594L191.919 196.04M213.131 175.594H287.865M213.131 175.594H138.397M287.865 175.594L268.774 196.04M287.865 175.594H362.6M362.6 175.594L345.63 196.04M191.919 196.04H268.774M191.919 196.04H115.063M248.567 217.681L268.774 196.04M248.567 217.681L227.144 240.624M248.567 217.681H327.668M268.774 196.04H345.63M115.063 196.04H38.2073M115.063 196.04L138.397 175.594M345.63 196.04L327.668 217.681M138.397 175.594H63.6622M227.144 240.624L204.391 264.992M227.144 240.624H308.626M327.668 217.681L308.626 240.624M308.626 240.624L288.4 264.992M120.382 264.992L93.4829 290.919M120.382 264.992H204.391M120.382 264.992H36.3724M204.391 264.992L180.182 290.919M204.391 264.992H288.4M288.4 264.992L266.881 290.919M93.4829 290.919H180.182M93.4829 290.919H6.78371M154.37 318.562L180.182 290.919M154.37 318.562L126.793 348.096M154.37 318.562H243.937M180.182 290.919H266.881M6.78371 290.919L36.3724 264.992M6.78371 290.919H0.516983M6.78371 290.919L0.516983 296.41M266.881 290.919L243.937 318.562M36.3724 264.992H0.516983M126.793 348.096L97.2628 379.722M126.793 348.096H219.424M243.937 318.562L219.424 348.096M219.424 348.096L193.175 379.722M1.34995 379.722H97.2628M1.34995 379.722H0.516983M1.34995 379.722L0.516983 380.525M97.2628 379.722L65.5621 413.672M97.2628 379.722H193.175M193.175 379.722L164.998 413.672M31.4456 450.209L65.5621 413.672M31.4456 450.209H134.671M31.4456 450.209H0.516983M31.4456 450.209L0.516983 483.333M65.5621 413.672H164.998M65.5621 413.672H0.516983M164.998 413.672L134.671 450.209M134.671 450.209L101.942 489.644M101.942 489.644L66.5101 532.333M101.942 489.644H0.516983M66.5101 532.333L28.0278 578.697M66.5101 532.333H0.516983M28.0278 578.697H0.516983M28.0278 578.697L0.516983 611.843M286.332 -80.6134L274.126 -72.2097M286.332 -80.6134H334.485M286.332 -80.6134H238.179M345.423 -88.7235L355.985 -96.555M345.423 -88.7235L334.485 -80.6134M345.423 -88.7235H392.735M355.985 -96.555H402.484M355.985 -96.555L366.191 -104.121M320.477 -104.121H366.191M320.477 -104.121L331.103 -111.437M320.477 -104.121H274.763M334.485 -80.6134L323.151 -72.2097M334.485 -80.6134H382.638M392.735 -88.7235L402.484 -96.555M392.735 -88.7235L382.638 -80.6134M402.484 -96.555L411.905 -104.121M366.191 -104.121L367.442 -105.05L376.058 -111.437M366.191 -104.121H411.905M382.638 -80.6134L372.176 -72.2097M457.619 -104.121L465.968 -111.437M457.619 -104.121H411.905M411.905 -104.121L413.06 -105.05L421.013 -111.437M274.126 -72.2097H323.151M274.126 -72.2097H225.101M311.398 -63.4964L323.151 -72.2097M311.398 -63.4964L299.205 -54.4559M311.398 -63.4964H361.328M323.151 -72.2097H372.176M225.101 -72.2097H176.076M225.101 -72.2097L238.179 -80.6134M372.176 -72.2097L361.328 -63.4964M238.179 -80.6134H190.026M299.205 -54.4559L286.545 -45.0695M299.205 -54.4559H350.072M361.328 -63.4964L359.943 -62.3857L350.072 -54.4559M350.072 -54.4559L338.385 -45.0695M234.704 -45.0695L220.537 -35.3155M234.704 -45.0695H286.545M234.704 -45.0695H182.863M286.545 -45.0695L273.39 -35.3155M286.545 -45.0695H338.385M338.385 -45.0695L326.243 -35.3155M220.537 -35.3155H273.39M220.537 -35.3155H167.685M259.712 -25.1737L273.39 -35.3155M259.712 -25.1737L245.477 -14.62M259.712 -25.1737H313.616M273.39 -35.3155H326.243M167.685 -35.3155H114.832M167.685 -35.3155L182.863 -45.0695M326.243 -35.3155L313.616 -25.1737M182.863 -45.0695H131.022M245.477 -14.62L230.653 -3.62876M245.477 -14.62H300.477M313.616 -25.1737L300.477 -14.62M300.477 -14.62L286.792 -3.62876M174.512 -3.62876L157.871 7.82834M174.512 -3.62876H230.653M174.512 -3.62876H118.372M230.653 -3.62876L215.201 7.82834M230.653 -3.62876H286.792M286.792 -3.62876L272.529 7.82834M157.871 7.82834H215.201M157.871 7.82834H100.543M199.079 19.7809L215.201 7.82834M199.079 19.7809L182.246 32.2611M199.079 19.7809H257.649M215.201 7.82834H272.529M100.543 7.82834H43.2141M100.543 7.82834L118.372 -3.62876M272.529 7.82834L257.649 19.7809M118.372 -3.62876H62.2323M182.246 32.2611L164.651 45.3068M182.246 32.2611H242.109M257.649 19.7809L242.109 32.2611M242.109 32.2611L225.868 45.3068M103.433 45.3068L83.6094 58.9557M103.433 45.3068H164.651M103.433 45.3068H42.2172M164.651 45.3068L146.243 58.9557M164.651 45.3068H225.868M225.868 45.3068L208.876 58.9557M83.6094 58.9557H146.243M126.961 73.2508L146.243 58.9557M126.961 73.2508L106.746 88.2392M126.961 73.2508H191.079M146.243 58.9557H208.876M208.876 58.9557L191.079 73.2508M42.2172 45.3068H0.516983M106.746 88.2392L85.5253 103.974M106.746 88.2392H172.418M191.079 73.2508L172.418 88.2392M172.418 88.2392L152.829 103.974M18.2212 103.974H85.5253M18.2212 103.974H0.516983M18.2212 103.974L0.516983 116.162M85.5253 103.974L63.2223 120.509M85.5253 103.974H152.829M152.829 103.974L132.242 120.509M39.7533 137.91L63.2223 120.509M39.7533 137.91L15.0233 156.245M39.7533 137.91H110.578M39.7533 137.91H0.516983M63.2223 120.509H132.242M63.2223 120.509H0.516983M132.242 120.509L110.578 137.91M0.321992 116.296L0.516983 116.162M15.0233 156.245H87.7502M15.0233 156.245H0.516983M15.0233 156.245L0.516983 167.001M110.578 137.91L87.7502 156.245M87.7502 156.245L63.6622 175.594M63.6622 175.594L38.2073 196.04M63.6622 175.594H0.516983M11.2645 217.681L38.2073 196.04M11.2645 217.681H0.516983M11.2645 217.681L0.516983 226.314M38.2073 196.04H0.516983M93.7199 -80.6134L78.0266 -72.2097M93.7199 -80.6134H141.873M93.7199 -80.6134H45.566M156.176 -88.7235L169.989 -96.555M156.176 -88.7235L141.873 -80.6134M156.176 -88.7235H203.488M169.989 -96.555H216.488M169.989 -96.555L183.334 -104.121M137.62 -104.121H183.334M137.62 -104.121L151.281 -111.437M137.62 -104.121H91.906M141.873 -80.6134L127.051 -72.2097M141.873 -80.6134H190.026M203.488 -88.7235L216.488 -96.555M203.488 -88.7235L190.026 -80.6134M216.488 -96.555L229.048 -104.121M183.334 -104.121H229.048M183.334 -104.121L196.237 -111.437M190.026 -80.6134L176.076 -72.2097M274.763 -104.121L286.148 -111.437M274.763 -104.121H229.048M229.048 -104.121L241.192 -111.437M78.0266 -72.2097H127.051M78.0266 -72.2097H29.0017M111.683 -63.4964L127.051 -72.2097M111.683 -63.4964L95.7378 -54.4559M111.683 -63.4964H161.612M127.051 -72.2097H176.076M29.0017 -72.2097L45.566 -80.6134M29.0017 -72.2097H0.516983M176.076 -72.2097L161.612 -63.4964M45.566 -80.6134H0.516983M95.7378 -54.4559L79.1815 -45.0695M95.7378 -54.4559H146.605M161.612 -63.4964L146.605 -54.4559M146.605 -54.4559L131.022 -45.0695M27.3408 -45.0695L9.1266 -35.3155M27.3408 -45.0695H79.1815M27.3408 -45.0695H0.516983M79.1815 -45.0695L61.9793 -35.3155M79.1815 -45.0695H131.022M131.022 -45.0695L114.832 -35.3155M44.0921 -25.1737L61.9793 -35.3155M44.0921 -25.1737L25.4779 -14.62M44.0921 -25.1737H97.9967M44.0921 -25.1737H0.516983M61.9793 -35.3155H9.1266M61.9793 -35.3155H114.832M9.1266 -35.3155L0.516983 -30.7057M9.1266 -35.3155H0.516983M114.832 -35.3155L97.9967 -25.1737M25.4779 -14.62L6.09174 -3.62876M25.4779 -14.62H80.4775M25.4779 -14.62H0.516983M97.9967 -25.1737L80.4775 -14.62M80.4775 -14.62L62.2323 -3.62876M6.09174 -3.62876H62.2323M6.09174 -3.62876L0.516983 -0.468541M6.09174 -3.62876H0.516983M62.2323 -3.62876L43.2141 7.82834M23.373 19.7809L43.2141 7.82834M23.373 19.7809L2.65489 32.2611M23.373 19.7809H0.516983M43.2141 7.82834H0.516983M0.216993 7.82834H0.516983M2.65489 32.2611H0.516983M2.65489 32.2611L0.516983 33.5491M0 33.8606L0.516983 33.5491M14.2414 -88.7235L30.4907 -96.555M14.2414 -88.7235H0.516983M14.2414 -88.7235L0.516983 -82.1097M30.4907 -96.555L46.192 -104.121M30.4907 -96.555H0.516983M91.906 -104.121L106.326 -111.437M91.906 -104.121H46.192M46.192 -104.121L61.3713 -111.437M46.192 -104.121H0.516983M1589.85 -111.437H1634.8M1589.85 -111.437H1544.89M1623.79 -118.513L1626.51 -116.766L1634.8 -111.437M1623.79 -118.513H1668.01M1634.8 -111.437H1679.76M1668.01 -118.513L1670.91 -116.766L1672.37 -115.888L1679.76 -111.437M1679.76 -111.437H1724.71M1724.71 -111.437H1769.67M1544.89 -111.437H1499.94M1769.67 -111.437H1814.62M1814.62 -111.437L1800.67 -118.513M1814.62 -111.437H1859.58M1800.67 -118.513H1844.89M1410.03 -111.437H1454.98M1410.03 -111.437H1365.07M1446.91 -118.513L1448.9 -116.766L1449.9 -115.888L1454.98 -111.437M1446.91 -118.513H1491.13M1454.98 -111.437H1499.94M1491.13 -118.513L1499.94 -111.437M1365.07 -111.437H1320.12M1230.21 -111.437H1275.16M1230.21 -111.437H1185.25M1270.02 -118.513L1270.66 -117.642L1271.29 -116.766L1271.93 -115.888L1275.16 -111.437M1270.02 -118.513H1314.24M1275.16 -111.437H1320.12M1314.24 -118.513L1320.12 -111.437M1185.25 -111.437H1140.3M1050.39 -111.437H1095.34M1050.39 -111.437H1005.43M1093.14 -118.513L1095.34 -111.437M1093.14 -118.513H1137.36M1095.34 -111.437H1140.3M1137.36 -118.513L1137.72 -117.642L1138.08 -116.766L1138.45 -115.888L1140.3 -111.437M1005.43 -111.437H960.475M870.565 -111.437H915.52M870.565 -111.437H825.61M916.254 -118.513L915.52 -111.437M916.254 -118.513H960.475M915.52 -111.437H960.475M960.475 -118.513V-111.437M825.61 -111.437H780.654M690.744 -111.437H735.699M690.744 -111.437H645.789M739.37 -118.513L738.464 -116.766L736.628 -113.229L735.699 -111.437M739.37 -118.513H783.591M735.699 -111.437H780.654M783.591 -118.513L783.229 -117.642L782.866 -116.766L782.501 -115.888L780.654 -111.437M645.789 -111.437H600.834M510.924 -111.437H555.879M510.924 -111.437H465.968M562.486 -118.513L560.855 -116.766L560.034 -115.888L555.879 -111.437M562.486 -118.513H606.708M555.879 -111.437H600.834M606.708 -118.513L605.984 -117.642L600.834 -111.437M465.968 -111.437H421.013M331.103 -111.437H376.058M331.103 -111.437H286.148M385.602 -118.513L383.245 -116.766L382.059 -115.888L376.058 -111.437M385.602 -118.513H429.823M376.058 -111.437H421.013M429.823 -118.513L428.737 -117.642L421.013 -111.437M286.148 -111.437H241.192M151.281 -111.437H196.237M151.281 -111.437H106.326M208.718 -118.513L196.237 -111.437M208.718 -118.513H252.939M196.237 -111.437H241.192M252.939 -118.513L250.039 -116.766L248.579 -115.888L241.192 -111.437M106.326 -111.437H61.3713M31.8346 -118.513L16.4163 -111.437M31.8346 -118.513H76.0557M31.8346 -118.513H0.516983M16.4163 -111.437H61.3713M16.4163 -111.437L0.516983 -104.139M16.4163 -111.437H0.516983M76.0557 -118.513L72.4299 -116.766L61.3713 -111.437M1844.89 -118.513L1848.52 -116.766L1859.58 -111.437M1859.58 -111.437H1904.53M1904.53 -111.437L1920.43 -104.139M1904.53 -111.437H1920.43M1920.43 226.314V217.681M1920.43 226.314V240.624M1920.43 217.681V196.04M1920.43 240.624V244.9V264.992M1920.43 264.992V290.919M1920.43 58.9557V45.3068M1920.43 58.9557V72.102M1920.43 -118.513V-111.437M1920.43 -111.437V-104.139M1920.43 -104.139L1920.47 -104.121H1920.43M1920.43 -104.139V-104.121M1920.43 -104.121V-96.555M1920.43 -96.555V-88.7235M1920.43 -88.7235V-82.1097M1920.43 -82.1097V-80.6134M1920.43 -80.6134V-72.2097M1920.43 -72.2097V-63.4964M1920.43 -63.4964V-57.761M1920.43 -57.761V-54.4559M1920.43 -54.4559V-45.0695M1920.43 -45.0695V-35.3155M1920.43 -35.3155V-30.7057M1920.43 -30.7057V-25.1737M1920.43 -25.1737V-14.62M1920.43 -14.62V-3.62876M1920.43 -3.62876V-0.468572M1920.43 -0.468572V7.82834M1920.43 7.82834V19.7809M1920.43 19.7809V32.2611M1920.43 32.2611V33.5491M1920.43 33.5491V45.3068M1920.43 73.2508V88.2392M1920.43 73.2508V72.102M1920.43 88.2392V103.974M1920.43 103.974V116.162M1920.43 116.162V120.509M1920.43 120.509V137.91M1920.43 137.91V156.245M1920.43 156.245V167.001M1920.43 167.001V175.594M1920.43 175.594V196.04M1920.43 290.919V296.41M1920.43 296.41V318.562M1920.43 318.562V348.096M1920.43 348.096V379.722M1920.43 379.722V380.525M1920.43 380.525V413.672M1920.43 413.672V450.209M1920.43 450.209V483.333M1920.43 483.333V489.644M1920.43 489.644V532.333M1920.43 532.333V578.697M1920.43 578.697V611.843M1920.43 611.843V629.232M1920.43 629.232V684.527M1920.43 684.527V745.29M1920.43 745.29V777.07M1920.43 777.07V812.371M1920.43 812.371V812.611H0.516983V812.371M0.516983 73.2508V88.2392M0.516983 73.2508V72.1019M0.516983 72.1019V58.9557M0.516983 58.9557V45.3068M0.516983 45.3068V33.5491M0.516983 33.5491V32.2611M0.516983 32.2611V19.7809M0.516983 19.7809V7.82834M0.516983 7.82834V-0.468541M0.516983 -0.468541V-3.62876M0.516983 -3.62876V-14.62M0.516983 -14.62V-25.1737M0.516983 -25.1737V-30.7057M0.516983 -30.7057V-35.3155M0.516983 -35.3155V-45.0695M0.516983 -45.0695V-54.4559M0.516983 -54.4559V-57.761M0.516983 -57.761V-63.4964M0.516983 -63.4964V-72.2097M0.516983 -72.2097V-80.6134M0.516983 -80.6134V-82.1097M0.516983 -82.1097V-88.7235M0.516983 -88.7235V-96.555M0.516983 -96.555V-104.121M0.516983 -104.121H0.477984L0.516983 -104.139M0.516983 -104.121V-104.139M0.516983 -104.139V-111.437M0.516983 -111.437V-118.513M0.516983 812.371V777.07M0.516983 777.07V745.29M0.516983 745.29V684.528M0.516983 684.528V629.232M0.516983 629.232V611.843M0.516983 611.843V578.697M0.516983 578.697V532.333M0.516983 532.333V489.644M0.516983 489.644V483.333M0.516983 483.333V450.209M0.516983 450.209V413.672M0.516983 413.672V380.525M0.516983 380.525V379.722M0.516983 379.722V348.096M0.516983 348.096V318.562M0.516983 318.562V296.41M0.516983 296.41V290.919M0.516983 290.919V264.992M0.516983 264.992V240.624M0.516983 240.624V226.314M0.516983 226.314V217.681M0.516983 217.681V196.04M0.516983 196.04V175.594M0.516983 175.594V167.001M0.516983 167.001V156.245M0.516983 156.245V137.91M0.516983 137.91V120.509M0.516983 120.509V116.162M0.516983 116.162V103.974M0.516983 103.974V88.2392" stroke="url(#paint0_linear_4731_17747)" stroke-width="1.2" stroke-miterlimit="10" stroke-linecap="round" stroke-linejoin="round"/>
<defs>
<linearGradient id="paint0_linear_4731_17747" x1="960" y1="-31.8633" x2="949.977" y2="2699.34" gradientUnits="userSpaceOnUse">
<stop stop-color="white"/>
<stop offset="1" stop-color="#EF7F1A"/>
</linearGradient>
</defs>
</svg>
