<svg width="48" height="48" viewBox="0 0 48 48" fill="none" xmlns="http://www.w3.org/2000/svg">
<g clip-path="url(#clip0_4731_17755)">
<path d="M26.2433 21.7498C26.0859 21.7498 25.9325 21.7003 25.8048 21.6083C25.6771 21.5162 25.5816 21.3863 25.5318 21.237C25.482 21.0877 25.4805 20.9265 25.5274 20.7762C25.5743 20.6259 25.6674 20.4943 25.7933 20.3998C27.9066 18.8199 29.3465 16.5012 29.8258 13.9065C30.3051 11.3118 29.7886 8.63178 28.3793 6.40108C28.3237 6.31791 28.2853 6.22446 28.2664 6.12623C28.2475 6.02801 28.2484 5.92699 28.2691 5.82913C28.2898 5.73126 28.3299 5.63853 28.387 5.55638C28.4441 5.47424 28.517 5.40434 28.6015 5.35081C28.686 5.29728 28.7804 5.26119 28.879 5.24467C28.9777 5.22815 29.0786 5.23154 29.176 5.25462C29.2733 5.27771 29.365 5.32003 29.4458 5.3791C29.5265 5.43817 29.5946 5.51279 29.646 5.59858C31.2573 8.14801 31.8482 11.2112 31.3009 14.177C30.7536 17.1429 29.1083 19.7934 26.6933 21.5998C26.5635 21.6972 26.4056 21.7498 26.2433 21.7498Z" fill="#EF7F1A"/>
<path d="M15 23.0602C14.8967 23.0602 14.7945 23.0388 14.7 22.9972C13.1058 22.3042 11.6812 21.273 10.5248 19.9752C9.36841 18.6773 8.50778 17.1438 8.00246 15.4805C7.49715 13.8173 7.35922 12.0641 7.59821 10.3423C7.83721 8.62055 8.44742 6.97124 9.38663 5.50851C10.3258 4.04579 11.5716 2.80458 13.0378 1.87076C14.504 0.936938 16.1555 0.332802 17.8782 0.100151C19.6009 -0.132501 21.3535 0.0118865 23.0149 0.523323C24.6762 1.03476 26.2066 1.90103 27.5002 3.06221C27.5768 3.12696 27.6397 3.20643 27.685 3.2959C27.7304 3.38537 27.7573 3.48303 27.7643 3.5831C27.7712 3.68317 27.758 3.78362 27.7254 3.8785C27.6929 3.97337 27.6416 4.06075 27.5747 4.13547C27.5077 4.21018 27.4265 4.27071 27.3357 4.31346C27.245 4.35622 27.1466 4.38034 27.0464 4.3844C26.9461 4.38845 26.8461 4.37236 26.7522 4.33707C26.6583 4.30178 26.5725 4.24802 26.4997 4.17896C25.3677 3.16334 24.0286 2.40575 22.575 1.95859C21.1214 1.51144 19.588 1.38538 18.0809 1.58916C16.5737 1.79293 15.1289 2.32167 13.8462 3.13879C12.5635 3.95591 11.4737 5.04192 10.652 6.32169C9.83039 7.60146 9.29656 9.04444 9.08746 10.5508C8.87836 12.0572 8.99899 13.591 9.44101 15.0462C9.88302 16.5014 10.6359 17.8432 11.6475 18.9788C12.6591 20.1144 13.9053 21.0166 15.3 21.6232C15.4576 21.6923 15.5868 21.8135 15.6657 21.9665C15.7446 22.1195 15.7684 22.295 15.7332 22.4635C15.6981 22.632 15.606 22.7833 15.4725 22.8919C15.3389 23.0006 15.1721 23.06 15 23.0602Z" fill="#EF7F1A"/>
<path d="M24 19.6628C23.8384 19.6629 23.6811 19.6109 23.5515 19.5144C23.4219 19.4178 23.3269 19.2821 23.2807 19.1272C23.2345 18.9724 23.2396 18.8067 23.2951 18.655C23.3507 18.5032 23.4538 18.3735 23.589 18.2851C24.9444 17.4034 25.9785 16.1073 26.5372 14.59C27.096 13.0727 27.1494 11.4154 26.6896 9.8653C26.2297 8.31516 25.2813 6.95514 23.9855 5.98796C22.6898 5.02078 21.1162 4.49825 19.4993 4.49825C17.8824 4.49825 16.3088 5.02078 15.013 5.98796C13.7173 6.95514 12.7688 8.31516 12.309 9.8653C11.8491 11.4154 11.9026 13.0727 12.4613 14.59C13.02 16.1073 14.0542 17.4034 15.4095 18.2851C15.5728 18.3953 15.6861 18.5653 15.7251 18.7584C15.7641 18.9514 15.7255 19.1521 15.6177 19.317C15.51 19.4819 15.3417 19.5978 15.1492 19.6396C14.9567 19.6814 14.7555 19.6458 14.589 19.5406C12.9632 18.4821 11.7229 16.9266 11.0529 15.106C10.383 13.2853 10.3193 11.2969 10.8713 9.43705C11.4234 7.57723 12.5616 5.94557 14.1164 4.78525C15.6712 3.62492 17.5592 2.99805 19.4993 2.99805C21.4393 2.99805 23.3274 3.62492 24.8822 4.78525C26.4369 5.94557 27.5752 7.57723 28.1272 9.43705C28.6792 11.2969 28.6156 13.2853 27.9456 15.106C27.2757 16.9266 26.0354 18.4821 24.4095 19.5406C24.2878 19.6202 24.1455 19.6626 24 19.6628Z" fill="#EF7F1A"/>
<path d="M15 15.4561C14.8707 15.4562 14.7436 15.4229 14.631 15.3595C14.5184 15.296 14.4241 15.2045 14.3573 15.0939C13.8099 14.1835 13.514 13.1441 13.4998 12.082C13.4856 11.0198 13.7537 9.97289 14.2767 9.04826C14.7996 8.12363 15.5586 7.3544 16.4762 6.81919C17.3938 6.28397 18.437 6.00195 19.4993 6.00195C20.5615 6.00195 21.6048 6.28397 22.5223 6.81919C23.4399 7.3544 24.1989 8.12363 24.7219 9.04826C25.2448 9.97289 25.5129 11.0198 25.4987 12.082C25.4846 13.1441 25.1887 14.1835 24.6413 15.0939C24.5921 15.1815 24.5259 15.2584 24.4465 15.32C24.3671 15.3816 24.2761 15.4265 24.1789 15.4523C24.0818 15.478 23.9804 15.4839 23.8809 15.4697C23.7815 15.4555 23.6858 15.4215 23.5998 15.3696C23.5137 15.3177 23.4389 15.249 23.3799 15.1677C23.3209 15.0864 23.2788 14.994 23.2562 14.8961C23.2336 14.7982 23.2309 14.6967 23.2482 14.5977C23.2656 14.4987 23.3027 14.4042 23.3573 14.3199C23.7672 13.637 23.9887 12.8576 23.9989 12.0612C24.0091 11.2649 23.8078 10.48 23.4155 9.78689C23.0232 9.09375 22.454 8.51716 21.7659 8.11598C21.0779 7.71481 20.2957 7.50342 19.4993 7.50342C18.7028 7.50342 17.9206 7.71481 17.2326 8.11598C16.5446 8.51716 15.9753 9.09375 15.583 9.78689C15.1907 10.48 14.9894 11.2649 14.9996 12.0612C15.0099 12.8576 15.2313 13.637 15.6413 14.3199C15.7096 14.4335 15.7465 14.5633 15.7483 14.6959C15.7501 14.8285 15.7167 14.9592 15.6515 15.0747C15.5864 15.1902 15.4917 15.2864 15.3773 15.3534C15.2628 15.4204 15.1326 15.4558 15 15.4561Z" fill="#EF7F1A"/>
<path d="M30.75 28.5C30.5511 28.5 30.3603 28.421 30.2197 28.2803C30.079 28.1397 30 27.9489 30 27.75V25.5C30 25.1022 29.842 24.7206 29.5607 24.4393C29.2794 24.158 28.8978 24 28.5 24C28.1022 24 27.7206 24.158 27.4393 24.4393C27.158 24.7206 27 25.1022 27 25.5V27.75C27 27.9489 26.921 28.1397 26.7803 28.2803C26.6397 28.421 26.4489 28.5 26.25 28.5C26.0511 28.5 25.8603 28.421 25.7197 28.2803C25.579 28.1397 25.5 27.9489 25.5 27.75V25.5C25.5 24.7044 25.8161 23.9413 26.3787 23.3787C26.9413 22.8161 27.7044 22.5 28.5 22.5C29.2956 22.5 30.0587 22.8161 30.6213 23.3787C31.1839 23.9413 31.5 24.7044 31.5 25.5V27.75C31.5 27.9489 31.421 28.1397 31.2803 28.2803C31.1397 28.421 30.9489 28.5 30.75 28.5Z" fill="#EF7F1A"/>
<path d="M26.25 28.5C26.0511 28.5 25.8603 28.421 25.7197 28.2803C25.579 28.1397 25.5 27.9489 25.5 27.75V24.75C25.5 24.3522 25.342 23.9706 25.0607 23.6893C24.7794 23.408 24.3978 23.25 24 23.25C23.6022 23.25 23.2206 23.408 22.9393 23.6893C22.658 23.9706 22.5 24.3522 22.5 24.75V27.75C22.5 27.9489 22.421 28.1397 22.2803 28.2803C22.1397 28.421 21.9489 28.5 21.75 28.5C21.5511 28.5 21.3603 28.421 21.2197 28.2803C21.079 28.1397 21 27.9489 21 27.75V24.75C21 23.9544 21.3161 23.1913 21.8787 22.6287C22.4413 22.0661 23.2044 21.75 24 21.75C24.7956 21.75 25.5587 22.0661 26.1213 22.6287C26.6839 23.1913 27 23.9544 27 24.75V27.75C27 27.9489 26.921 28.1397 26.7803 28.2803C26.6397 28.421 26.4489 28.5 26.25 28.5Z" fill="#EF7F1A"/>
<path d="M18.75 42C18.5975 42.0001 18.4487 41.9536 18.3233 41.867C18.1978 41.7803 18.1018 41.6574 18.048 41.5148C18.027 41.4585 15.897 35.9587 11.1953 35.25H8.25001C7.65327 35.25 7.08097 35.0129 6.65902 34.591C6.23706 34.169 6.00001 33.5967 6.00001 33V32.0408C5.99841 31.4607 6.22214 30.9027 6.62401 30.4845C7.21988 29.8569 7.93737 29.3572 8.73272 29.016C9.52806 28.6748 10.3846 28.4993 11.25 28.5C13.014 28.5234 14.7718 28.7135 16.5 29.0677V12C16.5 11.2044 16.8161 10.4413 17.3787 9.87868C17.9413 9.31607 18.7044 9 19.5 9C20.2957 9 21.0587 9.31607 21.6213 9.87868C22.1839 10.4413 22.5 11.2044 22.5 12V27.75C22.5 27.9489 22.421 28.1397 22.2803 28.2803C22.1397 28.421 21.9489 28.5 21.75 28.5C21.5511 28.5 21.3603 28.421 21.2197 28.2803C21.079 28.1397 21 27.9489 21 27.75V12C21 11.6022 20.842 11.2206 20.5607 10.9393C20.2794 10.658 19.8978 10.5 19.5 10.5C19.1022 10.5 18.7207 10.658 18.4393 10.9393C18.158 11.2206 18 11.6022 18 12V30C18 30.1139 17.974 30.2263 17.924 30.3287C17.8741 30.4311 17.8014 30.5208 17.7116 30.5909C17.6219 30.661 17.5173 30.7098 17.4058 30.7334C17.2944 30.7571 17.179 30.7551 17.0685 30.7275C15.16 30.2808 13.2097 30.0369 11.25 30C10.5871 29.9999 9.93107 30.1347 9.32195 30.3964C8.71282 30.658 8.16335 31.0409 7.70701 31.5217C7.57374 31.6616 7.49958 31.8475 7.50001 32.0408V33C7.50001 33.1989 7.57903 33.3897 7.71968 33.5303C7.86033 33.671 8.0511 33.75 8.25001 33.75H11.25C11.2856 33.7499 11.3212 33.7524 11.3565 33.7575C16.9815 34.5615 19.3545 40.7242 19.4565 40.9867C19.4992 41.1006 19.5135 41.223 19.4984 41.3436C19.4832 41.4642 19.439 41.5793 19.3694 41.679C19.2999 41.7787 19.2072 41.86 19.0993 41.9159C18.9914 41.9718 18.8715 42.0007 18.75 42Z" fill="#EF7F1A"/>
<path d="M35.25 48H17.25C17.0511 48 16.8603 47.921 16.7197 47.7803C16.579 47.6397 16.5 47.4489 16.5 47.25V41.25C16.5 41.0511 16.579 40.8603 16.7197 40.7197C16.8603 40.579 17.0511 40.5 17.25 40.5H35.25C35.4489 40.5 35.6397 40.579 35.7803 40.7197C35.921 40.8603 36 41.0511 36 41.25V42C36 42.1989 35.921 42.3897 35.7803 42.5303C35.6397 42.671 35.4489 42.75 35.25 42.75C35.0511 42.75 34.8603 42.671 34.7197 42.5303C34.579 42.3897 34.5 42.1989 34.5 42H18V46.5H34.5V45C34.5 44.8011 34.579 44.6103 34.7197 44.4697C34.8603 44.329 35.0511 44.25 35.25 44.25C35.4489 44.25 35.6397 44.329 35.7803 44.4697C35.921 44.6103 36 44.8011 36 45V47.25C36 47.4489 35.921 47.6397 35.7803 47.7803C35.6397 47.921 35.4489 48 35.25 48Z" fill="#EF7F1A"/>
<path d="M33.75 42C33.6222 41.9999 33.4965 41.9672 33.3849 41.9049C33.2733 41.8427 33.1795 41.7529 33.1123 41.6442C33.0452 41.5355 33.0069 41.4114 33.0011 41.2837C32.9954 41.1561 33.0223 41.0291 33.0795 40.9148L34.5 38.073V30C34.5 29.8011 34.579 29.6103 34.7196 29.4697C34.8603 29.329 35.0511 29.25 35.25 29.25C35.4489 29.25 35.6396 29.329 35.7803 29.4697C35.9209 29.6103 36 29.8011 36 30V38.25C36.0012 38.366 35.9756 38.4808 35.925 38.5852L34.425 41.5852C34.3624 41.7105 34.266 41.8157 34.1467 41.889C34.0274 41.9623 33.89 42.0008 33.75 42Z" fill="#EF7F1A"/>
<path d="M35.25 30.75C35.0511 30.75 34.8603 30.671 34.7197 30.5303C34.579 30.3897 34.5 30.1989 34.5 30V27C34.5 26.6022 34.342 26.2206 34.0607 25.9393C33.7794 25.658 33.3978 25.5 33 25.5C32.6022 25.5 32.2206 25.658 31.9393 25.9393C31.658 26.2206 31.5 26.6022 31.5 27V27.75C31.5 27.9489 31.421 28.1397 31.2803 28.2803C31.1397 28.421 30.9489 28.5 30.75 28.5C30.5511 28.5 30.3603 28.421 30.2197 28.2803C30.079 28.1397 30 27.9489 30 27.75V27C30 26.2044 30.3161 25.4413 30.8787 24.8787C31.4413 24.3161 32.2044 24 33 24C33.7956 24 34.5587 24.3161 35.1213 24.8787C35.6839 25.4413 36 26.2044 36 27V30C36 30.1989 35.921 30.3897 35.7803 30.5303C35.6397 30.671 35.4489 30.75 35.25 30.75Z" fill="#EF7F1A"/>
</g>
<defs>
<clipPath id="clip0_4731_17755">
<rect width="48" height="48" fill="white"/>
</clipPath>
</defs>
</svg>
