<svg width="24" height="24" viewBox="0 0 24 24" fill="none" xmlns="http://www.w3.org/2000/svg">
<path d="M8.5 6.14844H6C4.89543 6.14844 4 7.04387 4 8.14844V18.6484C4 19.753 4.89543 20.6484 6 20.6484H16.5C17.6046 20.6484 18.5 19.753 18.5 18.6484V16.1484" stroke="white" stroke-width="1.5" stroke-linecap="round" stroke-linejoin="round"/>
<path d="M20.3284 5.20344L19.4447 4.31975C19.0184 3.89342 18.3247 3.89342 17.8983 4.31975L10.829 11.3891C10.7636 11.4545 10.719 11.5378 10.7008 11.6285L10.259 13.8377C10.2283 13.9914 10.2763 14.1502 10.3872 14.261C10.4759 14.3498 10.5955 14.3983 10.7185 14.3983C10.7491 14.3983 10.7799 14.3953 10.8104 14.3892L13.0196 13.9473C13.1103 13.9292 13.1936 13.8846 13.2591 13.8191L20.3284 6.74984C20.3284 6.74984 20.3284 6.74984 20.3284 6.74981C20.7547 6.32351 20.7547 5.6298 20.3284 5.20344ZM12.6967 13.0561L11.3159 13.3323L11.5921 11.9515L17.346 6.19754L18.4506 7.30214L12.6967 13.0561ZM19.6657 6.0871L19.1134 6.6394L18.0088 5.53479L18.561 4.98252C18.622 4.9216 18.7211 4.92157 18.782 4.98249L19.6656 5.86618C19.7266 5.92707 19.7266 6.0262 19.6657 6.0871Z" fill="white"/>
</svg>
