<svg width="68" height="68" viewBox="0 0 68 68" fill="none" xmlns="http://www.w3.org/2000/svg">
<rect width="68" height="68" rx="8" fill="white"/>
<path d="M31.2114 53.1372H17.3313C16.6769 53.1364 16.0496 52.8761 15.587 52.4133C15.1243 51.9506 14.8641 51.3232 14.8633 50.6688V28.772C14.8646 27.9713 15.1328 27.1939 15.6256 26.5629L16.9465 24.8767C17.2805 24.4478 17.7083 24.1011 18.1971 23.8631C18.6859 23.6251 19.2226 23.5023 19.7663 23.5039H28.7737C29.3169 23.5023 29.8533 23.625 30.3418 23.8626C30.8302 24.1002 31.2579 24.4465 31.5919 24.8748L32.9156 26.5621C33.4092 27.1935 33.678 27.9717 33.6793 28.7732V50.6688C33.6786 51.3232 33.4184 51.9506 32.9557 52.4133C32.4931 52.8761 31.8657 53.1364 31.2114 53.1372ZM19.7682 25.0399C19.4577 25.0389 19.1511 25.1091 18.8719 25.245C18.5927 25.3809 18.3484 25.579 18.1577 25.8241L16.8352 27.511C16.5537 27.8714 16.4004 28.3154 16.3997 28.7728V50.6696C16.3999 50.9168 16.4982 51.1537 16.6729 51.3285C16.8476 51.5033 17.0845 51.6017 17.3317 51.602H31.2114C31.4585 51.6017 31.6955 51.5033 31.8702 51.3285C32.0449 51.1537 32.1431 50.9168 32.1433 50.6696V28.7732C32.1427 28.3156 31.9891 27.8713 31.7071 27.511L30.3835 25.8214C30.1926 25.5768 29.9483 25.3791 29.6693 25.2434C29.3903 25.1077 29.084 25.0376 28.7737 25.0384L19.7682 25.0399Z" fill="#EF7F1A"/>
<path d="M38.0297 50.3114C37.7057 50.3122 37.3847 50.2489 37.0852 50.1252C36.7858 50.0015 36.5137 49.8198 36.2848 49.5906L34.6186 47.924L35.7045 46.8381L37.3707 48.5039C37.5457 48.6782 37.7827 48.776 38.0297 48.776C38.2766 48.776 38.5136 48.6782 38.6886 48.5039L48.5033 38.6892C48.6778 38.5142 48.7758 38.2771 48.7758 38.0299C48.7758 37.7827 48.6778 37.5456 48.5033 37.3706L33.0204 21.8877C32.6963 21.5646 32.2735 21.359 31.8192 21.3036L29.6899 21.0463L29.8739 19.5215L32.0032 19.7788C32.7986 19.8758 33.5389 20.2358 34.1063 20.8017L49.5892 36.2846C50.0513 36.7479 50.3108 37.3756 50.3108 38.0299C50.3108 38.6842 50.0513 39.3119 49.5892 39.7752L39.7749 49.5906C39.5458 49.8198 39.2737 50.0014 38.9742 50.1251C38.6747 50.2488 38.3537 50.3121 38.0297 50.3114Z" fill="#EF7F1A"/>
<path d="M50.6687 33.6793H48.2702V32.1433H50.6687C50.9158 32.143 51.1528 32.0446 51.3275 31.8698C51.5022 31.695 51.6005 31.4581 51.6007 31.2109V17.3316C51.6005 17.0845 51.5022 16.8475 51.3275 16.6727C51.1528 16.4979 50.9158 16.3996 50.6687 16.3993H28.7722C28.3148 16.3999 27.8707 16.5533 27.5104 16.8351L25.8208 18.1592C25.5763 18.35 25.3786 18.5942 25.2429 18.8731C25.1072 19.1521 25.0371 19.4583 25.0378 19.7685V21.1636H23.5018V19.7685C23.5002 19.2254 23.6229 18.6892 23.8606 18.2008C24.0982 17.7125 24.4444 17.285 24.8727 16.9511L26.56 15.6271C27.1912 15.1332 27.9693 14.8644 28.7707 14.8633H50.6672C51.3215 14.8641 51.9488 15.1244 52.4115 15.5872C52.8742 16.0499 53.1344 16.6773 53.1351 17.3316V31.2109C53.1344 31.865 52.8744 32.4922 52.4121 32.9549C51.9497 33.4176 51.3228 33.6781 50.6687 33.6793Z" fill="#EF7F1A"/>
<path d="M24.2699 32.132C23.7145 32.132 23.1715 31.9673 22.7097 31.6587C22.2479 31.3502 21.888 30.9116 21.6754 30.3985C21.4629 29.8853 21.4073 29.3207 21.5156 28.776C21.624 28.2312 21.8914 27.7309 22.2842 27.3381C22.6769 26.9454 23.1773 26.6779 23.722 26.5696C24.2667 26.4612 24.8314 26.5168 25.3445 26.7294C25.8576 26.9419 26.2962 27.3019 26.6048 27.7637C26.9134 28.2255 27.0781 28.7684 27.0781 29.3238C27.0773 30.0684 26.7813 30.7822 26.2548 31.3087C25.7283 31.8352 25.0144 32.1313 24.2699 32.132ZM24.2699 28.052C24.0182 28.052 23.7723 28.1266 23.563 28.2664C23.3538 28.4062 23.1908 28.605 23.0945 28.8374C22.9982 29.0699 22.973 29.3257 23.0221 29.5725C23.0713 29.8193 23.1925 30.046 23.3704 30.2239C23.5484 30.4018 23.7751 30.523 24.0219 30.572C24.2687 30.621 24.5245 30.5958 24.757 30.4994C24.9894 30.4031 25.1881 30.24 25.3278 30.0307C25.4676 29.8215 25.5421 29.5755 25.5421 29.3238C25.5417 28.9865 25.4076 28.6632 25.1691 28.4247C24.9306 28.1863 24.6071 28.0522 24.2699 28.052Z" fill="#EF7F1A"/>
<rect x="21" y="66" width="24" height="2" fill="#EF7F1A"/>
</svg>
