<svg width="68" height="68" viewBox="0 0 68 68" fill="none" xmlns="http://www.w3.org/2000/svg">
<rect width="68" height="68" rx="8" fill="white"/>
<path d="M29.5 51.2509C29.3107 51.2515 29.1282 51.1804 28.9891 51.052C28.85 50.9236 28.7646 50.7474 28.75 50.5587C28.7013 49.9302 27.3955 35.1364 12.085 31.7337C11.9186 31.6965 11.7698 31.6038 11.6631 31.4707C11.5565 31.3376 11.4984 31.1722 11.4984 31.0017C11.4984 30.8311 11.5565 30.6657 11.6631 30.5326C11.7698 30.3995 11.9186 30.3068 12.085 30.2697C27.4 26.8662 28.7035 12.0724 28.75 11.4439C28.7646 11.2556 28.8498 11.0798 28.9884 10.9515C29.127 10.8232 29.3089 10.752 29.4978 10.752C29.6866 10.752 29.8685 10.8232 30.0072 10.9515C30.1458 11.0798 30.2309 11.2556 30.2455 11.4439C30.2943 12.0724 31.6 26.8662 46.9105 30.2689C47.077 30.306 47.2258 30.3988 47.3324 30.5319C47.4391 30.6649 47.4972 30.8304 47.4972 31.0009C47.4972 31.1714 47.4391 31.3369 47.3324 31.4699C47.2258 31.603 47.077 31.6958 46.9105 31.7329C31.6 35.1357 30.2965 49.9294 30.25 50.5579C30.2356 50.7468 30.1503 50.9232 30.0112 51.0518C29.8721 51.1803 29.6894 51.2515 29.5 51.2509ZM15.046 31.0009C24.571 34.2184 28.171 42.0469 29.5 46.7307C30.829 42.0469 34.4313 34.2184 43.954 31.0009C34.4313 27.7834 30.829 19.9549 29.5 15.2712C28.171 19.9549 24.5688 27.7834 15.046 31.0009Z" fill="#EF7F1A"/>
<path d="M46 57.25C45.8108 57.2506 45.6284 57.1796 45.4893 57.0514C45.3502 56.9232 45.2647 56.7471 45.25 56.5585C44.9772 54.156 43.9402 51.9045 42.2915 50.1358C40.6429 48.367 38.4699 47.1743 36.0925 46.7335C35.9237 46.6984 35.7722 46.6062 35.6635 46.4725C35.5547 46.3387 35.4954 46.1716 35.4954 45.9993C35.4954 45.8269 35.5547 45.6598 35.6635 45.5261C35.7722 45.3923 35.9237 45.3001 36.0925 45.265C38.4699 44.8242 40.6429 43.6315 42.2915 41.8627C43.9402 40.094 44.9772 37.8425 45.25 35.44C45.2651 35.2517 45.3507 35.076 45.4898 34.9481C45.6288 34.8201 45.811 34.7494 46 34.75C46.1884 34.7504 46.3698 34.8216 46.508 34.9496C46.6463 35.0776 46.7313 35.2529 46.7462 35.4408C47.019 37.8433 48.056 40.0947 49.7046 41.8635C51.3533 43.6323 53.5263 44.8249 55.9037 45.2658C56.0725 45.3009 56.224 45.3931 56.3327 45.5268C56.4415 45.6605 56.5008 45.8276 56.5008 46C56.5008 46.1724 56.4415 46.3395 56.3327 46.4732C56.224 46.6069 56.0725 46.6991 55.9037 46.7343C53.5269 47.1759 51.3546 48.3689 49.7067 50.1378C48.0588 51.9067 47.0224 54.1579 46.75 56.56C46.7348 56.7483 46.6492 56.924 46.5102 57.052C46.3711 57.1799 46.1889 57.2506 46 57.25ZM38.8442 46C40.4981 46.6606 41.992 47.6667 43.226 48.9509C44.46 50.235 45.4057 51.7678 46 53.4468C46.5942 51.7678 47.5399 50.235 48.7739 48.9509C50.0079 47.6667 51.5018 46.6606 53.1557 46C51.5018 45.3394 50.0079 44.3333 48.7739 43.0492C47.5399 41.765 46.5942 40.2322 46 38.5533C45.4057 40.2322 44.46 41.765 43.226 43.0492C41.992 44.3333 40.4981 45.3394 38.8442 46Z" fill="#EF7F1A"/>
<rect x="21" y="66" width="24" height="2" fill="#EF7F1A"/>
</svg>
