<svg width="68" height="68" viewBox="0 0 68 68" fill="none" xmlns="http://www.w3.org/2000/svg">
<rect width="68" height="68" rx="8" fill="white"/>
<path d="M34 53.971C30.0499 53.971 26.1886 52.7997 22.9042 50.6052C19.6199 48.4106 17.06 45.2915 15.5484 41.6421C14.0368 37.9927 13.6413 33.977 14.4119 30.1029C15.1825 26.2287 17.0847 22.6701 19.8778 19.877C22.6709 17.0839 26.2295 15.1817 30.1037 14.4111C33.9778 13.6405 37.9935 14.036 41.6429 15.5476C45.2923 17.0592 48.4114 19.6191 50.606 22.9034C52.8005 26.1878 53.9718 30.0491 53.9718 33.9992C53.9659 39.2942 51.8599 44.3707 48.1157 48.1149C44.3715 51.8591 39.295 53.9651 34 53.971ZM34 15.5634C30.3537 15.5634 26.7893 16.6446 23.7576 18.6704C20.7258 20.6961 18.3629 23.5754 16.9675 26.9441C15.5721 30.3128 15.207 34.0196 15.9184 37.5958C16.6297 41.1721 18.3856 44.457 20.9639 47.0353C23.5422 49.6136 26.8271 51.3694 30.4033 52.0808C33.9795 52.7921 37.6864 52.4271 41.0551 51.0317C44.4238 49.6363 47.3031 47.2734 49.3288 44.2416C51.3546 41.2098 52.4358 37.6455 52.4358 33.9992C52.4303 29.1114 50.4862 24.4253 47.03 20.9691C43.5738 17.5129 38.8878 15.5688 34 15.5634Z" fill="#EF7F1A"/>
<path d="M33.2321 14.7969H34.7681V53.2046H33.2321V14.7969Z" fill="#EF7F1A"/>
<path d="M34 18.8281H46.7008V20.3641H34V18.8281Z" fill="#EF7F1A"/>
<path d="M34 23.6309H50.6341V25.1669H34V23.6309Z" fill="#EF7F1A"/>
<path d="M34 28.4316H52.5994V29.9676H34V28.4316Z" fill="#EF7F1A"/>
<path d="M34 33.2344H53.2008V34.7704H34V33.2344Z" fill="#EF7F1A"/>
<path d="M34 38.0371H52.682V39.5731H34V38.0371Z" fill="#EF7F1A"/>
<path d="M34 42.8398H50.631V44.3758H34V42.8398Z" fill="#EF7F1A"/>
<path d="M34 47.6406H46.7008V49.1766H34V47.6406Z" fill="#EF7F1A"/>
<rect x="21" y="66" width="24" height="2" fill="#EF7F1A"/>
</svg>
