<svg width="1920" height="956" viewBox="0 0 1920 956" fill="none" xmlns="http://www.w3.org/2000/svg">
<g opacity="0.1">
<circle cx="-7.78989" cy="-46.2101" r="452.882" stroke="white" stroke-width="1.81516"/>
<circle cx="-33.2021" cy="-46.2101" r="452.882" stroke="white" stroke-width="1.81516"/>
<circle cx="-58.6144" cy="-46.2101" r="452.882" stroke="white" stroke-width="1.81516"/>
<circle cx="-84.0266" cy="-46.2101" r="452.882" stroke="white" stroke-width="1.81516"/>
<circle cx="-109.439" cy="-46.2101" r="452.882" stroke="white" stroke-width="1.81516"/>
<circle cx="-134.851" cy="-46.2101" r="452.882" stroke="white" stroke-width="1.81516"/>
<circle cx="-160.263" cy="-46.2101" r="452.882" stroke="white" stroke-width="1.81516"/>
<circle cx="-185.676" cy="-46.2101" r="452.882" stroke="white" stroke-width="1.81516"/>
<circle cx="-211.088" cy="-46.2101" r="452.882" stroke="white" stroke-width="1.81516"/>
<circle cx="-236.5" cy="-46.2101" r="452.882" stroke="white" stroke-width="1.81516"/>
<circle cx="-261.912" cy="-46.2101" r="452.882" stroke="white" stroke-width="1.81516"/>
<circle cx="-287.324" cy="-46.2101" r="452.882" stroke="white" stroke-width="1.81516"/>
<circle cx="-312.737" cy="-46.2101" r="452.882" stroke="white" stroke-width="1.81516"/>
<circle cx="-338.149" cy="-46.2101" r="452.882" stroke="white" stroke-width="1.81516"/>
<circle cx="-363.561" cy="-46.2101" r="452.882" stroke="white" stroke-width="1.81516"/>
<circle cx="-388.973" cy="-46.2101" r="452.882" stroke="white" stroke-width="1.81516"/>
<circle cx="-414.386" cy="-46.2101" r="452.882" stroke="white" stroke-width="1.81516"/>
<circle cx="-439.798" cy="-46.2101" r="452.882" stroke="white" stroke-width="1.81516"/>
</g>
<rect x="1853.22" y="-264" width="493" height="986" rx="246.5" transform="rotate(36.7695 1853.22 -264)" fill="url(#paint0_linear_4810_18640)"/>
<circle opacity="0.5" cx="1890.89" cy="-14" r="31.6483" stroke="white" stroke-width="0.703297"/>
<rect x="175.604" y="1237.81" width="493" height="986" rx="246.5" transform="rotate(-135 175.604 1237.81)" fill="url(#paint1_linear_4810_18640)"/>
<rect opacity="0.5" x="170.993" y="917.199" width="63" height="63" transform="rotate(-171.77 170.993 917.199)" stroke="white"/>
<rect opacity="0.5" x="75.2473" y="838.686" width="31" height="31" transform="rotate(-171.77 75.2473 838.686)" stroke="white"/>
<defs>
<linearGradient id="paint0_linear_4810_18640" x1="2099.72" y1="-264" x2="2099.72" y2="722" gradientUnits="userSpaceOnUse">
<stop stop-color="white" stop-opacity="0.15"/>
<stop offset="1" stop-color="white" stop-opacity="0"/>
</linearGradient>
<linearGradient id="paint1_linear_4810_18640" x1="422.104" y1="1237.81" x2="422.104" y2="2223.81" gradientUnits="userSpaceOnUse">
<stop stop-color="white" stop-opacity="0.15"/>
<stop offset="1" stop-color="white" stop-opacity="0"/>
</linearGradient>
</defs>
</svg>
