<svg width="1592" height="499" viewBox="0 0 1592 499" fill="none" xmlns="http://www.w3.org/2000/svg">
<g opacity="0.5">
<g opacity="0.15" filter="url(#filter0_f_5154_1611)">
<ellipse cx="144.925" cy="291.358" rx="144.925" ry="291.358" transform="matrix(-0.0133581 0.999911 -0.999382 -0.035158 1455.39 -89.8496)" fill="#EF7F1A"/>
</g>
<g opacity="0.15" filter="url(#filter1_f_5154_1611)">
<ellipse cx="144.925" cy="291.358" rx="144.925" ry="291.358" transform="matrix(-0.0133581 0.999911 -0.999382 -0.035158 722.567 -185.254)" fill="#7A231C"/>
</g>
<mask id="mask0_5154_1611" style="mask-type:alpha" maskUnits="userSpaceOnUse" x="279" y="-215" width="1050" height="698">
<ellipse cx="804.175" cy="133.707" rx="524.728" ry="348.436" fill="url(#paint0_radial_5154_1611)"/>
</mask>
<g mask="url(#mask0_5154_1611)">
<g opacity="0.5">
<line x1="140.488" y1="33.1172" x2="1467.86" y2="33.1172" stroke="#F3A561" stroke-width="0.691341"/>
<line x1="140.488" y1="88.4258" x2="1467.86" y2="88.4258" stroke="#F3A561" stroke-width="0.691341"/>
<line x1="140.488" y1="143.732" x2="1467.86" y2="143.732" stroke="#F3A561" stroke-width="0.691341"/>
<line x1="140.488" y1="199.039" x2="1467.86" y2="199.039" stroke="#F3A561" stroke-width="0.691341"/>
<line x1="140.488" y1="254.348" x2="1467.86" y2="254.348" stroke="#F3A561" stroke-width="0.691341"/>
<line x1="140.488" y1="309.654" x2="1467.86" y2="309.654" stroke="#F3A561" stroke-width="0.691341"/>
<line x1="140.488" y1="364.963" x2="1467.86" y2="364.963" stroke="#F3A561" stroke-width="0.691341"/>
<line x1="140.488" y1="420.27" x2="1467.86" y2="420.27" stroke="#F3A561" stroke-width="0.691341"/>
<line x1="140.488" y1="475.576" x2="1467.86" y2="475.576" stroke="#F3A561" stroke-width="0.691341"/>
</g>
<g opacity="0.5">
<line x1="305.371" y1="805" x2="305.371" y2="-185.001" stroke="#F3A561" stroke-width="0.691341"/>
<line x1="360.679" y1="805" x2="360.679" y2="-185.001" stroke="#F3A561" stroke-width="0.691341"/>
<line x1="415.986" y1="805" x2="415.986" y2="-185.001" stroke="#F3A561" stroke-width="0.691341"/>
<line x1="471.293" y1="805" x2="471.293" y2="-185.001" stroke="#F3A561" stroke-width="0.691341"/>
<line x1="526.601" y1="805" x2="526.601" y2="-185.001" stroke="#F3A561" stroke-width="0.691341"/>
<line x1="581.908" y1="805" x2="581.908" y2="-185.001" stroke="#F3A561" stroke-width="0.691341"/>
<line x1="637.215" y1="805" x2="637.215" y2="-185.001" stroke="#F3A561" stroke-width="0.691341"/>
<line x1="692.522" y1="805" x2="692.522" y2="-185.001" stroke="#F3A561" stroke-width="0.691341"/>
<line x1="747.83" y1="805" x2="747.83" y2="-185.001" stroke="#F3A561" stroke-width="0.691341"/>
<line x1="803.137" y1="805" x2="803.137" y2="-185.001" stroke="#F3A561" stroke-width="0.691341"/>
<line x1="858.444" y1="805" x2="858.444" y2="-185.001" stroke="#F3A561" stroke-width="0.691341"/>
<line x1="913.751" y1="805" x2="913.751" y2="-185.001" stroke="#F3A561" stroke-width="0.691341"/>
<line x1="969.059" y1="805" x2="969.059" y2="-185.001" stroke="#F3A561" stroke-width="0.691341"/>
<line x1="1024.37" y1="805" x2="1024.37" y2="-185.001" stroke="#F3A561" stroke-width="0.691341"/>
<line x1="1079.67" y1="805" x2="1079.67" y2="-185.001" stroke="#F3A561" stroke-width="0.691341"/>
<line x1="1134.98" y1="805" x2="1134.98" y2="-185.001" stroke="#F3A561" stroke-width="0.691341"/>
<line x1="1190.29" y1="805" x2="1190.29" y2="-185.001" stroke="#F3A561" stroke-width="0.691341"/>
<line x1="1245.6" y1="805" x2="1245.59" y2="-185.001" stroke="#F3A561" stroke-width="0.691341"/>
<line x1="1300.9" y1="805" x2="1300.9" y2="-185.001" stroke="#F3A561" stroke-width="0.691341"/>
</g>
</g>
</g>
<defs>
<filter id="filter0_f_5154_1611" x="732.822" y="-238.729" width="858.906" height="567.097" filterUnits="userSpaceOnUse" color-interpolation-filters="sRGB">
<feFlood flood-opacity="0" result="BackgroundImageFix"/>
<feBlend mode="normal" in="SourceGraphic" in2="BackgroundImageFix" result="shape"/>
<feGaussianBlur stdDeviation="69.1341" result="effect1_foregroundBlur_5154_1611"/>
</filter>
<filter id="filter1_f_5154_1611" x="4.57764e-05" y="-334.133" width="858.906" height="567.097" filterUnits="userSpaceOnUse" color-interpolation-filters="sRGB">
<feFlood flood-opacity="0" result="BackgroundImageFix"/>
<feBlend mode="normal" in="SourceGraphic" in2="BackgroundImageFix" result="shape"/>
<feGaussianBlur stdDeviation="69.1341" result="effect1_foregroundBlur_5154_1611"/>
</filter>
<radialGradient id="paint0_radial_5154_1611" cx="0" cy="0" r="1" gradientUnits="userSpaceOnUse" gradientTransform="translate(804.175 133.707) rotate(90) scale(348.436 524.728)">
<stop stop-color="#737373"/>
<stop offset="1" stop-color="#D9D9D9" stop-opacity="0"/>
</radialGradient>
</defs>
</svg>
