<svg width="1920" height="1087" viewBox="0 0 1920 1087" fill="none" xmlns="http://www.w3.org/2000/svg">
<path opacity="0.6" d="M2274.91 -144.937L2253.77 -154M2274.91 -144.937H2212.27M2274.91 -144.937L2296.75 -135.575M2274.91 -144.937H2319.27M2253.77 -154L2261.46 -153.996L2269.07 -153.977L2276.53 -153.922L2283.75 -153.813L2290.65 -153.637L2297.17 -153.371L2303.23 -153.003L2308.85 -152.532L2313.67 -151.882L2318.06 -151.129L2319.27 -150.865V-144.937M2253.77 -154H2192.14M2192.14 -154H2130.51M2192.14 -154L2212.27 -144.937M2130.51 -154H2068.87M2130.51 -154L2149.63 -144.937M2068.87 -154H2007.24M2068.87 -154L2086.99 -144.937M2007.24 -154H1945.61M2007.24 -154L2024.35 -144.937M1945.61 -154H1883.98M1945.61 -154L1961.72 -144.937M1883.98 -154H1822.35M1883.98 -154L1899.08 -144.937M1822.35 -154H1760.72M1822.35 -154L1836.44 -144.937M1760.72 -154H1699.08M1760.72 -154L1773.8 -144.937M1699.08 -154H1637.45M1699.08 -154L1711.16 -144.937M1637.45 -154H1575.82M1637.45 -154L1648.52 -144.937M1575.82 -154H1514.19M1575.82 -154L1585.88 -144.937M1514.19 -154H1452.55M1514.19 -154L1516.42 -151.761L1519.81 -148.371L1523.25 -144.937M1452.55 -154H1390.92M1452.55 -154L1454.54 -151.761L1460.61 -144.937M1390.92 -154H1329.29M1390.92 -154L1397.97 -144.937M1329.29 -154H1267.66M1329.29 -154L1331.53 -150.635L1333.8 -147.231L1334.57 -146.086L1335.33 -144.937M1267.66 -154H1206.03M1267.66 -154L1269.53 -150.635L1270.16 -149.506L1270.79 -148.371L1272.69 -144.937M1206.03 -154H1144.4M1206.03 -154L1210.05 -144.937M1144.4 -154L1144.77 -152.883L1145.14 -151.761L1147.03 -146.086L1147.42 -144.937M1144.4 -154H1082.76M1082.76 -154H1021.13M1082.76 -154L1084.78 -144.937M1021.13 -154H959.5M1021.13 -154L1021.51 -150.635L1022.14 -144.937M959.5 -154H897.868M959.5 -154V-144.937M897.868 -154H836.236M897.868 -154L897.495 -150.635L896.862 -144.937M836.236 -154H774.604M836.236 -154L834.223 -144.937M774.604 -154L774.232 -152.883L773.859 -151.761L771.968 -146.086L771.584 -144.937M774.604 -154H712.973M712.973 -154H651.34M712.973 -154L709.457 -146.086L708.946 -144.937M651.34 -154H589.708M651.34 -154L649.473 -150.635L648.844 -149.506L647.581 -147.231L646.946 -146.086L646.307 -144.937M589.708 -154H528.077M589.708 -154L587.468 -150.635L585.197 -147.231L584.435 -146.086L583.669 -144.937M528.077 -154H466.445M528.077 -154L521.032 -144.937M466.445 -154H404.812M466.445 -154L464.457 -151.761L458.393 -144.937M404.812 -154H343.181M404.812 -154L395.754 -144.937M343.181 -154H281.55M343.181 -154L333.116 -144.937M281.55 -154H219.917M281.55 -154L270.477 -144.937M219.917 -154H158.285M219.917 -154L207.839 -144.937M158.285 -154H96.6538M158.285 -154L145.2 -144.937M96.6538 -154H35.0223M96.6538 -154L82.5617 -144.937M35.0223 -154H-26.6106M35.0223 -154L19.9232 -144.937M-26.6106 -154H-88.2421M-26.6106 -154L-42.7153 -144.937M-88.2421 -154H-149.874M-88.2421 -154L-105.354 -144.937M-149.874 -154H-211.506M-149.874 -154L-167.992 -144.937M-211.506 -154H-273.138M-211.506 -154L-230.63 -144.937M-273.138 -154H-334.769M-273.138 -154L-293.268 -144.937M-334.769 -154L-342.461 -153.996L-350.072 -153.977L-357.526 -153.922L-364.745 -153.813L-371.652 -153.637L-378.171 -153.371L-384.227 -153.003L-389.847 -152.532L-394.67 -151.882L-399.061 -151.129L-400.268 -150.865V-144.937M-334.769 -154L-355.907 -144.937M-230.63 -144.937H-167.992M-230.63 -144.937H-293.268M-230.63 -144.937L-250.39 -135.575M-167.992 -144.937L-186.712 -135.575M-167.992 -144.937H-105.354M19.9232 -144.937H82.5617M19.9232 -144.937H-42.7153M19.9232 -144.937L16.072 -142.625L4.32411 -135.575M82.5617 -144.937L68.0023 -135.575M82.5617 -144.937H145.2M270.477 -144.937H333.116M270.477 -144.937H207.839M270.477 -144.937L267.653 -142.625L266.231 -141.464L259.037 -135.575M333.116 -144.937L331.834 -143.785L330.548 -142.625L322.716 -135.575M333.116 -144.937H395.754M521.032 -144.937L520.134 -143.785L513.751 -135.575M521.032 -144.937H583.669M521.032 -144.937H458.393M583.669 -144.937L582.129 -142.625L581.353 -141.464L580.575 -140.295L577.429 -135.575M583.669 -144.937H646.307M771.584 -144.937H834.223M771.584 -144.937H708.946M771.584 -144.937L768.466 -135.575M834.223 -144.937L833.967 -143.785L833.71 -142.625L833.451 -141.464L832.669 -137.946L832.144 -135.575M834.223 -144.937H896.862M1022.14 -144.937H1084.78M1022.14 -144.937H959.5M1022.14 -144.937L1023.18 -135.575M1084.78 -144.937L1085.03 -143.785L1085.29 -142.625L1085.55 -141.464L1086.86 -135.575M1084.78 -144.937H1147.42M1272.69 -144.937H1335.33M1272.69 -144.937H1210.05M1272.69 -144.937L1273.98 -142.625L1276.58 -137.946L1277.23 -136.763L1277.89 -135.575M1335.33 -144.937L1336.87 -142.625L1337.65 -141.464L1338.42 -140.295L1341.57 -135.575M1335.33 -144.937H1397.97M1523.25 -144.937H1585.88M1523.25 -144.937H1460.61M1523.25 -144.937L1525.56 -142.625L1526.72 -141.464L1532.61 -135.575M1585.88 -144.937L1587.17 -143.785L1588.45 -142.625L1596.28 -135.575M1585.88 -144.937H1648.52M1773.8 -144.937H1836.44M1773.8 -144.937H1711.16M1773.8 -144.937L1777.14 -142.625L1778.82 -141.464L1787.32 -135.575M1836.44 -144.937L1851 -135.575M1836.44 -144.937H1899.08M2024.35 -144.937H2086.99M2024.35 -144.937H1961.72M2024.35 -144.937L2042.03 -135.575M2086.99 -144.937L2105.71 -135.575M2086.99 -144.937H2149.63M-400.487 -60.185H-400.268M-337.441 -60.185L-313.526 -72.1461M-337.441 -60.185L-362.272 -47.7662M-337.441 -60.185H-265.389M-337.441 -60.185H-400.268M-313.526 -72.1461H-384.249M-313.526 -72.1461L-290.476 -83.6744M-313.526 -72.1461H-242.802M-384.249 -72.1461L-359.919 -83.6744M-384.249 -72.1461H-400.268M-384.249 -72.1461L-400.268 -64.5578M-313.812 -105.523H-246.795M-313.812 -105.523L-291.945 -115.885M-313.812 -105.523H-380.827M-313.812 -105.523L-336.456 -94.793M-246.795 -105.523L-226.079 -115.885M-246.795 -105.523L-268.247 -94.793M-246.795 -105.523H-179.779M-291.945 -115.885H-226.079M-291.945 -115.885L-270.816 -125.895M-291.945 -115.885H-357.81M-226.079 -115.885H-160.213M-226.079 -115.885L-206.063 -125.895M-400.957 128.61H-400.268M-342.819 128.61L-311.981 108.779M-342.819 128.61L-375.19 149.427M-342.819 128.61H-249.795M-342.819 128.61H-400.268M-311.981 108.779L-282.568 89.8658M-311.981 108.779H-221.161M-311.981 108.779H-400.268M-371.288 89.8658H-282.568M-371.288 89.8658L-341.2 71.8075M-371.288 89.8658H-400.268M-371.288 89.8658L-400.268 107.259M-312.444 54.5472H-227.648M-312.444 54.5472L-284.931 38.035M-312.444 54.5472H-397.239M-312.444 54.5472L-341.2 71.8075M-227.648 54.5472L-201.968 38.035M-227.648 54.5472L-254.488 71.8075M-227.648 54.5472H-142.851M-284.931 38.035H-201.968M-284.931 38.035H-367.892M-284.931 38.035L-258.583 22.221M-201.968 38.035L-177.378 22.221M-201.968 38.035H-119.007M-209.098 -7.47958H-131.192M-209.098 -7.47958L-185.834 -21.4428M-209.098 -7.47958H-287.005M-209.098 -7.47958L-233.328 7.06256M-131.192 -7.47958L-109.479 -21.4428M-131.192 -7.47958L-153.806 7.06256M-131.192 -7.47958H-53.2847M-185.834 -21.4428H-109.479M-185.834 -21.4428H-262.189M-185.834 -21.4428L-163.477 -34.861M-109.479 -21.4428L-88.6118 -34.861M-109.479 -21.4428H-33.1219M-121.284 -60.185H-49.2323M-121.284 -60.185L-101.355 -72.1461M-121.284 -60.185H-193.337M-121.284 -60.185L-141.977 -47.7662M-49.2323 -60.185L-30.6319 -72.1461M-49.2323 -60.185L-68.5453 -47.7662M-49.2323 -60.185H22.8198M-101.355 -72.1461H-30.6319M-101.355 -72.1461H-172.079M-101.355 -72.1461L-82.1472 -83.6744M-30.6319 -72.1461L-12.7042 -83.6744M-30.6319 -72.1461H40.0916M-45.7465 -105.523H21.2702M-45.7465 -105.523L-28.4831 -115.885M-45.7465 -105.523H-112.762M-45.7465 -105.523L-63.6232 -94.793M21.2702 -105.523L37.382 -115.885M21.2702 -105.523L4.58472 -94.793M21.2702 -105.523H88.2869M-28.4831 -115.885H37.382M-28.4831 -115.885L-11.8019 -125.895M-28.4831 -115.885H-94.3483M37.382 -115.885H103.249M37.382 -115.885L52.9514 -125.895M-352.609 472.416L-309.207 433.341M-352.609 472.416L-399.088 514.26M-352.609 472.416H-221.399M-352.609 472.416H-400.268M-309.207 433.341L-268.583 396.768M-309.207 433.341H-182.337M-309.207 433.341H-400.268M-310.088 330.224H-194.671M-310.088 330.224L-272.999 299.87M-310.088 330.224L-349.479 362.465M-310.088 330.224H-400.268M-194.671 330.224L-160.954 299.87M-194.671 330.224L-230.481 362.465M-194.671 330.224H-79.2535M-272.999 299.87H-160.954M-272.999 299.87H-385.044M-272.999 299.87L-238.015 271.236M-160.954 299.87L-129.15 271.236M-160.954 299.87H-48.908M-173.686 218.586H-70.6685M-173.686 218.586L-144.045 194.327M-173.686 218.586H-276.703M-173.686 218.586L-204.963 244.186M-70.6685 218.586L-43.7224 194.327M-70.6685 218.586L-99.1032 244.186M-70.6685 218.586H32.3481M-144.045 194.327H-43.7224M-144.045 194.327H-244.367M-144.045 194.327L-115.916 171.305M-43.7224 194.327L-18.1503 171.305M-43.7224 194.327H56.5987M-63.7507 128.61H29.273M-63.7507 128.61L-39.5199 108.779M-63.7507 128.61H-156.773M-63.7507 128.61L-89.184 149.427M29.273 128.61L51.2999 108.779M29.273 128.61L6.14989 149.427M29.273 128.61H122.295M-39.5199 108.779H51.2999M-39.5199 108.779H-130.34M-39.5199 108.779L-16.4109 89.8658M51.2999 108.779L72.3083 89.8658M51.2999 108.779H142.12M26.7419 54.5472H111.538M26.7419 54.5472L46.9174 38.035M26.7419 54.5472H-58.0552M26.7419 54.5472L5.6527 71.8075M111.538 54.5472L129.88 38.035M111.538 54.5472L92.3662 71.8075M111.538 54.5472H196.333M46.9174 38.035H129.88M46.9174 38.035H-36.044M46.9174 38.035L66.2389 22.221M129.88 38.035L147.445 22.221M129.88 38.035H212.842M102.528 -7.47958H180.434M102.528 -7.47958L119.588 -21.4428M102.528 -7.47958H24.6215M102.528 -7.47958L84.76 7.06256M180.434 -7.47958L182.408 -9.25551L195.944 -21.4428M180.434 -7.47958L164.282 7.06256M180.434 -7.47958H258.341M119.588 -21.4428H195.944M119.588 -21.4428H43.2333M119.588 -21.4428L135.984 -34.861M195.944 -21.4428L210.849 -34.861M195.944 -21.4428H272.3M166.924 -60.185H238.977M166.924 -60.185L181.54 -72.1461M166.924 -60.185H94.8719M166.924 -60.185L151.75 -47.7662M238.977 -60.185L252.264 -72.1461M238.977 -60.185L233.866 -55.5823L225.182 -47.7662M238.977 -60.185H311.03M181.54 -72.1461H252.264M181.54 -72.1461H110.817M181.54 -72.1461L195.625 -83.6744M252.264 -72.1461L265.068 -83.6744M252.264 -72.1461H322.987M222.319 -105.523H289.336M222.319 -105.523L234.979 -115.885M222.319 -105.523H155.304M222.319 -105.523L209.21 -94.793M289.336 -105.523L298.006 -113.327L299.428 -114.609L300.846 -115.885M289.336 -105.523L277.418 -94.793M289.336 -105.523H356.352M234.979 -115.885H300.846M234.979 -115.885L247.211 -125.895M234.979 -115.885H169.114M300.846 -115.885H366.711M300.846 -115.885L311.964 -125.895M-305.07 917.537H-124.416M-305.07 917.537L-248.186 844.377M-305.07 917.537L-367.577 997.93M-305.07 917.537L-400.268 917.538M-124.416 917.537L-75.6585 844.377M-124.416 917.537L-177.994 997.93M-124.416 917.537H56.2361M-248.186 844.377H-75.6585M-248.186 844.377L-196.199 777.516M-248.186 844.377H-400.268M-75.6585 844.377L-31.0993 777.516M-75.6585 844.377H96.8677M-104.589 659.694H47.4245M-104.589 659.694L-64.0226 607.519M-104.589 659.694H-256.601M-104.589 659.694L-148.504 716.174M47.4245 659.694L82.1949 607.519M47.4245 659.694L9.78302 716.174M47.4245 659.694H199.437M-64.0226 607.519H82.1949M-64.0226 607.519H-210.24M-64.0226 607.519L-26.435 559.178M82.1949 607.519L114.413 559.178M82.1949 607.519H228.412M41.0237 472.416H172.234M41.0237 472.416L71.406 433.341M41.0237 472.416H-90.1882M41.0237 472.416L8.4884 514.26M172.234 472.416L198.277 433.341M172.234 472.416L144.348 514.26M172.234 472.416H303.445M71.406 433.341H198.277M71.406 433.341H-55.466M71.406 433.341L99.8421 396.768M198.277 433.341L222.65 396.768M198.277 433.341H325.147M151.58 330.224H266.997M151.58 330.224L175.183 299.87M151.58 330.224H36.1639M151.58 330.224L126.513 362.465M266.997 330.224L287.228 299.87M266.997 330.224L245.511 362.465M266.997 330.224H382.415M175.183 299.87H287.228M175.183 299.87H63.1369M175.183 299.87L197.445 271.236M287.228 299.87L306.31 271.236M287.228 299.87H399.273M238.381 218.586H341.399M238.381 218.586L257.244 194.327M238.381 218.586H135.365M238.381 218.586L218.478 244.186M341.399 218.586L357.566 194.327M341.399 218.586L324.338 244.186M341.399 218.586H444.416M257.244 194.327H357.566M257.244 194.327H156.921M257.244 194.327L275.144 171.305M357.566 194.327L372.909 171.305M357.566 194.327H457.889M308.341 128.61H401.363M308.341 128.61L323.76 108.779M308.341 128.61H215.318M308.341 128.61L292.156 149.427M401.363 128.61L414.58 108.779M401.363 128.61L387.49 149.427M401.363 128.61H494.386M323.76 108.779H414.58M323.76 108.779H232.939M323.76 108.779L338.466 89.8658M414.58 108.779L427.185 89.8658M414.58 108.779H505.4M365.926 54.5472H450.723M365.926 54.5472L378.766 38.035M365.926 54.5472H281.13M365.926 54.5472L352.507 71.8075M450.723 54.5472L461.727 38.035M450.723 54.5472L439.22 71.8075M450.723 54.5472H535.519M378.766 38.035H461.727M378.766 38.035H295.803M378.766 38.035L391.062 22.221M461.727 38.035L472.267 22.221M461.727 38.035H544.69M414.154 -7.47958H492.062M414.154 -7.47958L425.011 -21.4428M414.154 -7.47958H336.248M414.154 -7.47958L402.847 7.06256M492.062 -7.47958L490.87 -5.69474L482.369 7.06256M492.062 -7.47958L501.366 -21.4428M492.062 -7.47958H569.968M425.011 -21.4428H501.366M425.011 -21.4428H348.656M425.011 -21.4428L435.444 -34.861M501.366 -21.4428L510.309 -34.861M501.366 -21.4428H577.723M455.134 -60.185H527.186M455.134 -60.185L464.434 -72.1461M455.134 -60.185H383.082M455.134 -60.185L445.478 -47.7662M527.186 -60.185L535.158 -72.1461M527.186 -60.185L524.119 -55.5823L522.05 -52.4776L518.91 -47.7662M527.186 -60.185H599.238M464.434 -72.1461H535.158M464.434 -72.1461H393.711M464.434 -72.1461L473.397 -83.6744M535.158 -72.1461L538.073 -76.5191L539.993 -79.4012L542.842 -83.6744M535.158 -72.1461H605.881M490.386 -105.523H557.401M490.386 -105.523L496.454 -113.327L498.441 -115.885M490.386 -105.523H423.369M490.386 -105.523L483.101 -96.1556L482.043 -94.793M557.401 -105.523L562.604 -113.327L563.456 -114.609L564.308 -115.885M557.401 -105.523L553.857 -100.206L550.251 -94.793M557.401 -105.523H624.418M498.441 -115.885H564.308M498.441 -115.885L506.226 -125.895M498.441 -115.885H432.576M564.308 -115.885H630.173M564.308 -115.885L570.979 -125.895M417.542 917.537H598.194M417.542 917.537L441.92 844.377M417.542 917.537H236.89M417.542 917.537L390.753 997.93M598.194 917.537L614.448 844.377M598.194 917.537L580.336 997.93M598.194 917.537H778.848M441.92 844.377H614.448M441.92 844.377H269.394M441.92 844.377L464.2 777.516M614.448 844.377L629.3 777.516M614.448 844.377H786.974M503.462 659.694H655.474M503.462 659.694L520.848 607.519M503.462 659.694H351.449M503.462 659.694L484.641 716.174M655.474 659.694L667.065 607.519M655.474 659.694L642.928 716.174M655.474 659.694H807.488M520.848 607.519H667.065M520.848 607.519H374.63M520.848 607.519L536.956 559.178M667.065 607.519L677.804 559.178M667.065 607.519H813.283M565.867 472.416H697.078M565.867 472.416L578.888 433.341M565.867 472.416H434.657M565.867 472.416L551.924 514.26M697.078 472.416L705.759 433.341M697.078 472.416L687.783 514.26M697.078 472.416H828.29M578.888 433.341H705.759M578.888 433.341H452.018M578.888 433.341L591.075 396.768M705.759 433.341L713.884 396.768M705.759 433.341H832.63M613.249 330.224H728.665M613.249 330.224L623.364 299.87M613.249 330.224H497.832M613.249 330.224L602.506 362.465M728.665 330.224L735.409 299.87M728.665 330.224L721.504 362.465M728.665 330.224H844.083M623.364 299.87H735.409M623.364 299.87H511.319M623.364 299.87L632.905 271.236M735.409 299.87L741.77 271.236M735.409 299.87H847.455M650.449 218.586H753.467M650.449 218.586L658.532 194.327M650.449 218.586H547.432M650.449 218.586L641.919 244.186M753.467 218.586L758.855 194.327M753.467 218.586L747.78 244.186M753.467 218.586H856.484M658.532 194.327H758.855M658.532 194.327H558.211M658.532 194.327L666.205 171.305M758.855 194.327L763.97 171.305M758.855 194.327H859.178M680.432 128.61H773.454M680.432 128.61L687.04 108.779M680.432 128.61H587.41M680.432 128.61L673.496 149.427M773.454 128.61L777.861 108.779M773.454 128.61L768.829 149.427M773.454 128.61H866.478M687.04 108.779H777.861M687.04 108.779H596.22M687.04 108.779L689.439 101.583L693.343 89.8658M777.861 108.779L782.062 89.8658M777.861 108.779H868.68M705.112 54.5472H789.907M705.112 54.5472L710.614 38.035M705.112 54.5472H620.315M705.112 54.5472L700.823 67.4203L699.36 71.8075M789.907 54.5472L791.303 48.27L793.576 38.035M789.907 54.5472L786.073 71.8075M789.907 54.5472H874.704M710.614 38.035L711.284 36.0204L715.884 22.221M710.614 38.035H793.576M710.614 38.035H627.652M793.576 38.035L794.912 32.025L795.351 30.0425L795.79 28.0725L797.089 22.221M793.576 38.035H876.539M725.78 -7.47958H803.686M725.78 -7.47958L728.13 -14.5316L728.711 -16.2718L729.287 -18.005L729.862 -19.7275L730.433 -21.4428M725.78 -7.47958H647.874M725.78 -7.47958L720.935 7.06256M803.686 -7.47958L806.025 -18.005L806.409 -19.7275L806.788 -21.4428M803.686 -7.47958L800.457 7.06256M803.686 -7.47958H881.594M730.433 -21.4428H806.788M730.433 -21.4428H654.078M730.433 -21.4428L733.249 -29.8913L733.803 -31.5568L734.905 -34.861M806.788 -21.4428L808.665 -29.8913L809.036 -31.5568L809.403 -33.2133L809.77 -34.861M806.788 -21.4428H883.145M743.344 -60.185H815.396M743.344 -60.185L747.33 -72.1461M743.344 -60.185H671.29M743.344 -60.185L742.323 -57.1249L740.774 -52.4776L739.205 -47.7662M815.396 -60.185L815.056 -58.6585L812.986 -49.3443L812.637 -47.7662M815.396 -60.185L818.053 -72.1461M815.396 -60.185H887.448M747.33 -72.1461H818.053M747.33 -72.1461H676.606M747.33 -72.1461L751.171 -83.6744M818.053 -72.1461L819.025 -76.5191L819.345 -77.9637L819.665 -79.4012L820.614 -83.6744M818.053 -72.1461H888.777M758.451 -105.523H825.467M758.451 -105.523L761.052 -113.327L761.903 -115.885M758.451 -105.523H691.435M758.451 -105.523L757.124 -101.544L756.679 -100.206L756.23 -98.8614L754.875 -94.793M825.467 -105.523L825.76 -106.838L826.339 -109.451L826.916 -112.041L827.768 -115.885M825.467 -105.523L824.285 -100.206L823.988 -98.8614L823.386 -96.1556L823.084 -94.793M825.467 -105.523H892.483M761.903 -115.885H827.768M761.903 -115.885L764.828 -124.663L765.24 -125.895M761.903 -115.885H696.038M827.768 -115.885L828.052 -117.155L828.332 -118.42L828.613 -119.679L828.89 -120.933L829.719 -124.663L829.994 -125.895M827.768 -115.885H893.635M1140.15 917.537H1320.81M1140.15 917.537L1132.03 844.377M1140.15 917.537H959.5M1140.15 917.537L1149.08 997.93M1320.81 917.537L1304.55 844.377M1320.81 917.537L1338.66 997.93M1320.81 917.537H1501.46M1132.03 844.377H1304.55M1132.03 844.377H959.5M1132.03 844.377L1124.6 777.516M1304.55 844.377L1289.7 777.516M1304.55 844.377H1477.08M1111.51 659.694H1263.53M1111.51 659.694L1105.72 607.519M1111.51 659.694H959.5M1111.51 659.694L1117.79 716.174M1263.53 659.694L1251.94 607.519M1263.53 659.694L1276.07 716.174M1263.53 659.694H1415.54M1105.72 607.519H1251.94M1105.72 607.519H959.5M1105.72 607.519L1100.35 559.178M1251.94 607.519L1241.2 559.178M1251.94 607.519H1398.15M1090.71 472.416H1221.92M1090.71 472.416L1086.37 433.341M1090.71 472.416H959.5M1090.71 472.416L1095.36 514.26M1221.92 472.416L1213.24 433.341M1221.92 472.416L1231.22 514.26M1221.92 472.416H1353.13M1086.37 433.341H1213.24M1086.37 433.341H959.5M1086.37 433.341L1082.31 396.768M1213.24 433.341L1205.12 396.768M1213.24 433.341H1340.11M1074.92 330.224H1190.33M1074.92 330.224L1071.54 299.87M1074.92 330.224H959.5M1074.92 330.224L1078.5 362.465M1190.33 330.224L1183.59 299.87M1190.33 330.224L1197.5 362.465M1190.33 330.224H1305.75M1071.54 299.87H1183.59M1071.54 299.87H959.5M1071.54 299.87L1068.37 271.236M1183.59 299.87L1177.23 271.236M1183.59 299.87H1295.64M1062.52 218.586H1165.53M1062.52 218.586L1059.82 194.327M1062.52 218.586H959.5M1062.52 218.586L1065.36 244.186M1165.53 218.586L1160.15 194.327M1165.53 218.586L1171.22 244.186M1165.53 218.586H1268.55M1059.82 194.327H1160.15M1059.82 194.327H959.5M1059.82 194.327L1057.26 171.305M1160.15 194.327L1155.03 171.305M1160.15 194.327H1260.47M1052.52 128.61H1145.55M1052.52 128.61L1050.32 108.779M1052.52 128.61H959.5M1052.52 128.61L1054.84 149.427M1145.55 128.61L1141.14 108.779M1145.55 128.61L1150.17 149.427M1145.55 128.61H1238.57M1050.32 108.779H1141.14M1050.32 108.779H959.5M1050.32 108.779L1048.22 89.8658M1141.14 108.779L1136.94 89.8658M1141.14 108.779H1231.96M1044.3 54.5472H1129.09M1044.3 54.5472L1042.46 38.035M1044.3 54.5472H959.5M1044.3 54.5472L1046.21 71.8075M1129.09 54.5472L1125.87 40.0602L1125.42 38.035M1129.09 54.5472L1132.93 71.8075M1129.09 54.5472H1213.89M1042.46 38.035L1042.24 36.0204L1040.71 22.221M1042.46 38.035H1125.42M1042.46 38.035H959.5M1125.42 38.035L1124.09 32.025L1123.65 30.0425L1123.21 28.0725L1121.91 22.221M1125.42 38.035H1208.39M1037.41 -7.47958H1115.31M1037.41 -7.47958L1035.86 -21.4428M1037.41 -7.47958H959.5M1037.41 -7.47958L1038 -2.09663L1038.21 -0.283309L1038.41 1.53888L1038.82 5.21184L1039.02 7.06256M1115.31 -7.47958L1112.98 -18.005L1112.21 -21.4428M1115.31 -7.47958L1118.54 7.06256M1115.31 -7.47958H1193.22M1035.86 -21.4428H1112.21M1035.86 -21.4428H959.5M1035.86 -21.4428L1034.37 -34.861M1112.21 -21.4428L1110.34 -29.8913L1109.96 -31.5568L1109.6 -33.2133L1109.23 -34.861M1112.21 -21.4428H1188.57M1031.55 -60.185H1103.6M1031.55 -60.185L1030.22 -72.1461M1031.55 -60.185H959.5M1031.55 -60.185L1032.93 -47.7662M1103.6 -60.185L1103.94 -58.6585L1106.01 -49.3443L1106.36 -47.7662M1103.6 -60.185L1100.95 -72.1461M1103.6 -60.185H1175.66M1030.22 -72.1461H1100.95M1030.22 -72.1461H959.5M1030.22 -72.1461L1028.94 -83.6744M1100.95 -72.1461L1099.98 -76.5191L1099.66 -77.9637L1099.34 -79.4012L1098.39 -83.6744M1100.95 -72.1461H1171.67M1026.52 -105.523H1093.53M1026.52 -105.523L1025.37 -115.885M1026.52 -105.523H959.5M1026.52 -105.523L1027.71 -94.793M1093.53 -105.523L1093.24 -106.838L1092.66 -109.451L1092.37 -110.749L1091.8 -113.327L1091.52 -114.609L1091.23 -115.885M1093.53 -105.523L1094.71 -100.206L1095.01 -98.8614L1095.61 -96.1556L1095.92 -94.793M1093.53 -105.523H1160.55M1025.37 -115.885L1025.23 -117.155L1025.08 -118.42L1024.94 -119.679L1024.25 -125.895M1025.37 -115.885H1091.23M1025.37 -115.885H959.5M1091.23 -115.885H1157.1M1091.23 -115.885L1090.67 -118.42L1090.39 -119.679L1090.11 -120.933L1089.28 -124.663L1089.01 -125.895M1862.76 917.537H2043.42M1862.76 917.537L1822.13 844.377M1862.76 917.537H1682.11M1862.76 917.537L1907.41 997.93M2043.42 917.537L1994.66 844.377M2043.42 917.537L2096.99 997.93M2043.42 917.537H2224.07M1822.13 844.377H1994.66M1822.13 844.377H1649.61M1822.13 844.377L1785 777.516M1994.66 844.377L1950.1 777.516M1994.66 844.377H2167.19M1719.56 659.694H1871.58M1719.56 659.694L1690.59 607.519M1719.56 659.694H1567.55M1719.56 659.694L1750.93 716.174M1871.58 659.694L1836.81 607.519M1871.58 659.694L1909.22 716.174M1871.58 659.694H2023.59M1690.59 607.519H1836.81M1690.59 607.519H1544.37M1690.59 607.519L1663.74 559.178M1836.81 607.519L1804.59 559.178M1836.81 607.519H1983.02M1615.56 472.416H1746.77M1615.56 472.416L1593.85 433.341M1615.56 472.416H1484.34M1615.56 472.416L1638.79 514.26M1746.77 472.416L1720.72 433.341M1746.77 472.416L1774.65 514.26M1746.77 472.416H1877.98M1593.85 433.341H1720.72M1593.85 433.341H1466.98M1593.85 433.341L1573.54 396.768M1720.72 433.341L1696.35 396.768M1720.72 433.341H1847.59M1536.59 330.224H1652M1536.59 330.224L1519.73 299.87M1536.59 330.224H1421.17M1536.59 330.224L1554.49 362.465M1652 330.224L1631.77 299.87M1652 330.224L1673.49 362.465M1652 330.224H1767.42M1519.73 299.87H1631.77M1519.73 299.87H1407.68M1519.73 299.87L1503.83 271.236M1631.77 299.87L1612.69 271.236M1631.77 299.87H1743.82M1474.58 218.586H1577.6M1474.58 218.586L1461.11 194.327M1474.58 218.586H1371.57M1474.58 218.586L1488.8 244.186M1577.6 218.586L1561.43 194.327M1577.6 218.586L1594.66 244.186M1577.6 218.586H1680.62M1461.11 194.327H1561.43M1461.11 194.327H1360.79M1461.11 194.327L1448.33 171.305M1561.43 194.327L1546.09 171.305M1561.43 194.327H1661.76M1424.61 128.61H1517.64M1424.61 128.61L1413.6 108.779M1424.61 128.61H1331.59M1424.61 128.61L1436.18 149.427M1517.64 128.61L1504.42 108.779M1517.64 128.61L1531.51 149.427M1517.64 128.61H1610.66M1413.6 108.779H1504.42M1413.6 108.779H1322.78M1413.6 108.779L1403.1 89.8658M1504.42 108.779L1491.82 89.8658M1504.42 108.779H1595.24M1383.48 54.5472L1384.66 56.6633L1385.84 58.7901L1393.07 71.8075M1383.48 54.5472H1468.28M1383.48 54.5472L1374.31 38.035M1383.48 54.5472H1298.69M1468.28 54.5472L1457.27 38.035M1468.28 54.5472L1479.78 71.8075M1468.28 54.5472H1553.07M1374.31 38.035H1457.27M1374.31 38.035H1291.35M1374.31 38.035L1365.53 22.221M1457.27 38.035L1446.73 22.221M1457.27 38.035H1540.23M1349.03 -7.47958H1426.94M1349.03 -7.47958L1341.28 -21.4428M1349.03 -7.47958H1271.13M1349.03 -7.47958L1357.11 7.06256M1426.94 -7.47958L1421.08 -16.2718L1417.63 -21.4428M1426.94 -7.47958L1436.63 7.06256M1426.94 -7.47958H1504.85M1341.28 -21.4428H1417.63M1341.28 -21.4428H1264.92M1341.28 -21.4428L1334.74 -33.2133L1333.83 -34.861M1417.63 -21.4428L1408.69 -34.861M1417.63 -21.4428H1493.99M1319.76 -60.185H1391.81M1319.76 -60.185L1318.08 -63.2185L1313.12 -72.1461M1319.76 -60.185H1247.71M1319.76 -60.185L1321.46 -57.1249L1324.91 -50.9154L1326.66 -47.7662M1391.81 -60.185L1383.84 -72.1461M1391.81 -60.185L1394.88 -55.5823L1396.95 -52.4776L1400.09 -47.7662M1391.81 -60.185H1463.87M1313.12 -72.1461H1383.84M1313.12 -72.1461H1242.39M1313.12 -72.1461L1308.29 -80.8333L1306.72 -83.6744M1383.84 -72.1461L1380.93 -76.5191L1379.01 -79.4012L1376.16 -83.6744M1383.84 -72.1461H1454.57M1294.58 -105.523H1361.6M1294.58 -105.523L1290.96 -112.041L1288.83 -115.885M1294.58 -105.523H1227.57M1294.58 -105.523L1300.54 -94.793M1361.6 -105.523L1356.4 -113.327L1355.54 -114.609L1354.69 -115.885M1361.6 -105.523L1365.14 -100.206L1368.75 -94.793M1361.6 -105.523H1428.61M1288.83 -115.885H1354.69M1288.83 -115.885L1286.02 -120.933L1284.64 -123.425L1283.95 -124.663L1283.27 -125.895M1288.83 -115.885H1222.96M1354.69 -115.885H1420.56M1354.69 -115.885L1348.02 -125.895M2275.46 607.519H2129.24M2275.46 607.519L2227.13 559.178M2275.46 607.519H2319.27M2275.46 607.519L2319.27 651.344M2140.4 472.416H2271.61M2140.4 472.416L2101.34 433.341M2140.4 472.416H2009.19M2140.4 472.416L2182.23 514.26M2271.61 472.416L2228.21 433.341M2271.61 472.416L2318.09 514.26M2271.61 472.416H2319.27M2101.34 433.341H2228.21M2101.34 433.341H1974.47M2101.34 433.341L2064.77 396.768M2228.21 433.341L2187.58 396.768M2228.21 433.341H2319.27M1998.25 330.224H2113.67M1998.25 330.224L1967.91 299.87M1998.25 330.224H1882.84M1998.25 330.224L2030.48 362.465M2113.67 330.224L2079.95 299.87M2113.67 330.224L2149.48 362.465M2113.67 330.224H2229.09M1967.91 299.87H2079.95M1967.91 299.87H1855.86M1967.91 299.87L1939.28 271.236M2079.95 299.87L2048.15 271.236M2079.95 299.87H2192M1886.65 218.586H1989.67M1886.65 218.586L1862.4 194.327M1886.65 218.586H1783.64M1886.65 218.586L1912.24 244.186M1989.67 218.586L1962.72 194.327M1989.67 218.586L2018.1 244.186M1989.67 218.586H2092.69M1862.4 194.327H1962.72M1862.4 194.327H1762.08M1862.4 194.327L1839.39 171.305M1962.72 194.327L1937.15 171.305M1962.72 194.327H2063.04M1796.7 128.61H1889.73M1796.7 128.61L1776.88 108.779M1796.7 128.61H1703.68M1796.7 128.61L1817.51 149.427M1889.73 128.61L1867.7 108.779M1889.73 128.61L1912.85 149.427M1889.73 128.61H1982.75M1776.88 108.779H1867.7M1776.88 108.779H1686.06M1776.88 108.779L1757.97 89.8658M1867.7 108.779L1846.69 89.8658M1867.7 108.779H1958.52M1722.67 54.5472H1807.46M1722.67 54.5472L1706.16 38.035M1722.67 54.5472H1637.87M1722.67 54.5472L1739.92 71.8075M1807.46 54.5472L1789.12 38.035M1807.46 54.5472L1826.63 71.8075M1807.46 54.5472H1892.26M1706.16 38.035H1789.12M1706.16 38.035H1623.2M1706.16 38.035L1690.35 22.221M1789.12 38.035L1771.55 22.221M1789.12 38.035H1872.08M1660.66 -7.47958H1738.56M1660.66 -7.47958L1646.7 -21.4428M1660.66 -7.47958H1582.75M1660.66 -7.47958L1675.2 7.06256M1738.56 -7.47958L1723.06 -21.4428M1738.56 -7.47958L1754.72 7.06256M1738.56 -7.47958H1816.47M1646.7 -21.4428H1723.06M1646.7 -21.4428H1570.34M1646.7 -21.4428L1633.29 -34.861M1723.06 -21.4428L1708.15 -34.861M1723.06 -21.4428H1799.41M1607.97 -60.185H1680.02M1607.97 -60.185L1596.01 -72.1461M1607.97 -60.185H1535.92M1607.97 -60.185L1611.03 -57.1249L1612.57 -55.5823L1620.39 -47.7662M1680.02 -60.185L1666.74 -72.1461M1680.02 -60.185L1693.82 -47.7662M1680.02 -60.185H1752.07M1596.01 -72.1461H1666.74M1596.01 -72.1461H1525.29M1596.01 -72.1461L1584.49 -83.6744M1666.74 -72.1461L1653.93 -83.6744M1666.74 -72.1461H1737.46M1562.65 -105.523H1629.66M1562.65 -105.523L1552.29 -115.885M1562.65 -105.523H1495.63M1562.65 -105.523L1573.37 -94.793M1629.66 -105.523L1620.99 -113.327L1619.57 -114.609L1618.15 -115.885M1629.66 -105.523L1641.58 -94.793M1629.66 -105.523H1696.68M1552.29 -115.885H1618.15M1552.29 -115.885L1543.51 -124.663L1542.28 -125.895M1552.29 -115.885H1486.42M1618.15 -115.885H1684.02M1618.15 -115.885L1607.04 -125.895M2298.72 218.586L2263.69 194.327M2298.72 218.586H2195.7M2298.72 218.586L2319.27 232.817M2298.72 218.586H2319.27M2263.69 194.327H2163.37M2263.69 194.327L2230.45 171.305M2263.69 194.327H2319.27M2168.8 128.61H2261.82M2168.8 128.61L2140.16 108.779M2168.8 128.61H2075.77M2168.8 128.61L2198.85 149.427M2261.82 128.61L2230.98 108.779M2261.82 128.61L2294.19 149.427M2261.82 128.61H2319.27M2140.16 108.779H2230.98M2140.16 108.779H2049.34M2140.16 108.779L2112.85 89.8658M2230.98 108.779L2201.57 89.8658M2230.98 108.779H2319.27M2061.85 54.5472H2146.65M2061.85 54.5472L2038.01 38.035M2061.85 54.5472H1977.06M2061.85 54.5472L2086.77 71.8075M2146.65 54.5472L2120.97 38.035M2146.65 54.5472L2173.49 71.8075M2146.65 54.5472H2231.44M2038.01 38.035H2120.97M2038.01 38.035H1955.04M2038.01 38.035L2015.17 22.221M2120.97 38.035L2096.38 22.221M2120.97 38.035H2203.93M1972.28 -7.47958H2050.19M1972.28 -7.47958L1952.12 -21.4428M1972.28 -7.47958H1894.38M1972.28 -7.47958L1993.28 7.06256M2050.19 -7.47958L2028.48 -21.4428M2050.19 -7.47958L2072.81 7.06256M2050.19 -7.47958H2128.1M1952.12 -21.4428H2028.48M1952.12 -21.4428H1875.77M1952.12 -21.4428L1932.75 -34.861M2028.48 -21.4428L2007.61 -34.861M2028.48 -21.4428H2104.83M1896.18 -60.185H1968.23M1896.18 -60.185L1878.91 -72.1461M1896.18 -60.185H1824.13M1896.18 -60.185L1914.11 -47.7662M1968.23 -60.185L1949.63 -72.1461M1968.23 -60.185L1987.55 -47.7662M1968.23 -60.185H2040.28M1878.91 -72.1461H1949.63M1878.91 -72.1461H1808.18M1878.91 -72.1461L1862.26 -83.6744M1949.63 -72.1461L1931.7 -83.6744M1949.63 -72.1461H2020.36M1830.71 -105.523H1897.73M1830.71 -105.523L1815.75 -115.885M1830.71 -105.523H1763.7M1830.71 -105.523L1846.21 -94.793M1897.73 -105.523L1881.62 -115.885M1897.73 -105.523L1914.42 -94.793M1897.73 -105.523H1964.75M1815.75 -115.885H1881.62M1815.75 -115.885L1801.3 -125.895M1815.75 -115.885H1749.89M1881.62 -115.885H1947.48M1881.62 -115.885L1866.05 -125.895M2283.91 -7.47958L2257.54 -21.4428M2283.91 -7.47958H2206M2283.91 -7.47958L2311.37 7.06256M2283.91 -7.47958H2319.27M2257.54 -21.4428H2181.19M2257.54 -21.4428L2232.21 -34.861M2257.54 -21.4428H2319.27M2184.39 -60.185H2256.44M2184.39 -60.185L2161.8 -72.1461M2184.39 -60.185H2112.34M2184.39 -60.185L2207.84 -47.7662M2256.44 -60.185L2232.53 -72.1461M2256.44 -60.185L2281.27 -47.7662M2256.44 -60.185H2319.27M2161.8 -72.1461H2232.53M2161.8 -72.1461H2091.08M2161.8 -72.1461L2140.03 -83.6744M2232.53 -72.1461L2209.48 -83.6744M2232.53 -72.1461H2303.25M2098.78 -105.523H2165.8M2098.78 -105.523L2079.21 -115.885M2098.78 -105.523H2031.76M2098.78 -105.523L2119.04 -94.793M2165.8 -105.523L2145.08 -115.885M2165.8 -105.523L2187.25 -94.793M2165.8 -105.523H2232.81M2079.21 -115.885H2145.08M2079.21 -115.885L2060.31 -125.895M2079.21 -115.885H2013.35M2145.08 -115.885H2210.95M2145.08 -115.885L2125.06 -125.895M2187.25 -94.793L2209.48 -83.6744M2187.25 -94.793H2255.46M2187.25 -94.793H2119.04M2232.81 -105.523L2210.95 -115.885M2232.81 -105.523L2255.46 -94.793M2232.81 -105.523H2299.83M2210.95 -115.885H2276.81M2210.95 -115.885L2189.82 -125.895M2125.06 -125.895H2060.31M2125.06 -125.895H2189.82M2125.06 -125.895L2105.71 -135.575M2255.46 -94.793L2278.92 -83.6744M2255.46 -94.793H2319.27M2299.83 -105.523L2276.81 -115.885M2299.83 -105.523L2319.27 -96.7728M2299.83 -105.523H2319.27M2276.81 -115.885L2254.57 -125.895M2276.81 -115.885H2319.27M2189.82 -125.895H2254.57M2189.82 -125.895L2169.39 -135.575M2254.57 -125.895L2233.07 -135.575M2254.57 -125.895H2319.27M2209.48 -83.6744H2278.92M2209.48 -83.6744H2140.03M2303.25 -72.1461L2278.92 -83.6744M2303.25 -72.1461L2319.27 -64.5578M2303.25 -72.1461H2319.27M2278.92 -83.6744H2319.27M2140.03 -83.6744H2070.59M2140.03 -83.6744L2119.04 -94.793M2119.04 -94.793H2050.83M2281.27 -47.7662L2307.07 -34.861M2281.27 -47.7662H2207.84M2281.27 -47.7662H2319.27M2319.49 -60.185H2319.27M2307.07 -34.861H2232.21M2307.07 -34.861L2319.27 -28.762M2307.07 -34.861H2319.27M2232.21 -34.861H2157.34M2232.21 -34.861L2207.84 -47.7662M2207.84 -47.7662H2134.41M1914.42 -94.793L1931.7 -83.6744M1914.42 -94.793H1982.62M1914.42 -94.793H1846.21M1964.75 -105.523L1947.48 -115.885M1964.75 -105.523L1982.62 -94.793M1964.75 -105.523H2031.76M1947.48 -115.885H2013.35M1947.48 -115.885L1930.8 -125.895M1866.05 -125.895H1930.8M1866.05 -125.895L1851 -135.575M1866.05 -125.895H1801.3M1982.62 -94.793L2001.15 -83.6744M1982.62 -94.793H2050.83M2031.76 -105.523L2013.35 -115.885M2031.76 -105.523L2050.83 -94.793M2013.35 -115.885L1995.56 -125.895M1930.8 -125.895H1995.56M1930.8 -125.895L1914.68 -135.575M2050.83 -94.793L2070.59 -83.6744M2060.31 -125.895H1995.56M2060.31 -125.895L2042.03 -135.575M1995.56 -125.895L1978.35 -135.575M1931.7 -83.6744H2001.15M1931.7 -83.6744H1862.26M2020.36 -72.1461L2001.15 -83.6744M2020.36 -72.1461L2040.28 -60.185M2020.36 -72.1461H2091.08M2001.15 -83.6744H2070.59M1862.26 -83.6744H1792.82M1862.26 -83.6744L1846.21 -94.793M2070.59 -83.6744L2091.08 -72.1461M1846.21 -94.793H1778M2040.28 -60.185L2060.98 -47.7662M2040.28 -60.185H2112.34M2091.08 -72.1461L2112.34 -60.185M2112.34 -60.185L2134.41 -47.7662M1987.55 -47.7662L2007.61 -34.861M1987.55 -47.7662H2060.98M1987.55 -47.7662H1914.11M2060.98 -47.7662L2082.48 -34.861M2060.98 -47.7662H2134.41M2134.41 -47.7662L2157.34 -34.861M2007.61 -34.861H2082.48M2007.61 -34.861H1932.75M2104.83 -21.4428L2082.48 -34.861M2104.83 -21.4428L2128.1 -7.47958M2104.83 -21.4428H2181.19M2082.48 -34.861H2157.34M1932.75 -34.861H1857.88M1932.75 -34.861L1914.11 -47.7662M2157.34 -34.861L2181.19 -21.4428M1914.11 -47.7662H1840.68M2128.1 -7.47958L2152.33 7.06256M2128.1 -7.47958H2206M2181.19 -21.4428L2206 -7.47958M2206 -7.47958L2231.85 7.06256M2072.81 7.06256L2096.38 22.221M2072.81 7.06256H2152.33M2072.81 7.06256H1993.28M2152.33 7.06256L2177.58 22.221M2152.33 7.06256H2231.85M2231.85 7.06256L2258.79 22.221M2231.85 7.06256H2311.37M2311.37 7.06256H2319.27M2311.37 7.06256L2319.27 11.2437M2096.38 22.221H2177.58M2096.38 22.221H2015.17M2203.93 38.035L2177.58 22.221M2203.93 38.035L2231.44 54.5472M2203.93 38.035H2286.89M2177.58 22.221H2258.79M2015.17 22.221H1933.97M2015.17 22.221L1993.28 7.06256M2258.79 22.221L2286.89 38.035M2258.79 22.221H2319.27M1993.28 7.06256H1913.76M2231.44 54.5472L2260.2 71.8075M2231.44 54.5472H2316.24M2286.89 38.035L2316.24 54.5472M2286.89 38.035H2319.27M2319.69 22.221H2319.27M2316.24 54.5472L2319.27 56.2513M2316.24 54.5472H2319.27M2173.49 71.8075L2201.57 89.8658M2173.49 71.8075H2260.2M2173.49 71.8075H2086.77M2260.2 71.8075L2290.29 89.8658M2260.2 71.8075H2319.27M2320 56.6633L2319.27 56.2513M2201.57 89.8658H2290.29M2201.57 89.8658H2112.85M2290.29 89.8658H2319.27M2290.29 89.8658L2319.27 107.259M2112.85 89.8658H2024.13M2112.85 89.8658L2086.77 71.8075M2086.77 71.8075H2000.06M2294.19 149.427H2198.85M2294.19 149.427L2319.27 165.554M2294.19 149.427H2319.27M2319.96 128.61H2319.27M2198.85 149.427H2103.52M2198.85 149.427L2230.45 171.305M2319.54 165.731L2319.27 165.554M1641.58 -94.793L1653.93 -83.6744M1641.58 -94.793H1709.79M1641.58 -94.793H1573.37M1696.68 -105.523L1684.02 -115.885M1696.68 -105.523L1709.79 -94.793M1696.68 -105.523H1763.7M1684.02 -115.885H1749.89M1684.02 -115.885L1671.79 -125.895M1607.04 -125.895H1671.79M1607.04 -125.895L1602.96 -129.563L1596.28 -135.575M1607.04 -125.895H1542.28M1709.79 -94.793L1723.38 -83.6744M1709.79 -94.793H1778M1763.7 -105.523L1749.89 -115.885M1763.7 -105.523L1778 -94.793M1749.89 -115.885L1736.54 -125.895M1671.79 -125.895H1736.54M1671.79 -125.895L1659.96 -135.575M1778 -94.793L1792.82 -83.6744M1801.3 -125.895L1787.32 -135.575M1801.3 -125.895H1736.54M1736.54 -125.895L1734.91 -127.125L1731.65 -129.563L1723.64 -135.575M1653.93 -83.6744H1723.38M1653.93 -83.6744H1584.49M1737.46 -72.1461L1723.38 -83.6744M1737.46 -72.1461L1752.07 -60.185M1737.46 -72.1461H1808.18M1723.38 -83.6744H1792.82M1584.49 -83.6744H1515.05M1584.49 -83.6744L1573.37 -94.793M1792.82 -83.6744L1808.18 -72.1461M1573.37 -94.793H1505.16M1752.07 -60.185L1767.25 -47.7662M1752.07 -60.185H1824.13M1808.18 -72.1461L1810.15 -70.6766L1824.13 -60.185M1824.13 -60.185L1840.68 -47.7662M1693.82 -47.7662L1695.58 -46.1791L1708.15 -34.861M1693.82 -47.7662H1767.25M1693.82 -47.7662H1620.39M1767.25 -47.7662L1783.02 -34.861M1767.25 -47.7662H1840.68M1840.68 -47.7662L1857.88 -34.861M1708.15 -34.861H1783.02M1708.15 -34.861H1633.29M1799.41 -21.4428L1783.02 -34.861M1799.41 -21.4428L1816.47 -7.47958M1799.41 -21.4428H1875.77M1783.02 -34.861H1857.88M1633.29 -34.861H1558.42M1633.29 -34.861L1620.39 -47.7662M1857.88 -34.861L1875.77 -21.4428M1620.39 -47.7662H1546.96M1816.47 -7.47958L1834.24 7.06256M1816.47 -7.47958H1894.38M1875.77 -21.4428L1894.38 -7.47958M1894.38 -7.47958L1913.76 7.06256M1754.72 7.06256L1771.55 22.221M1754.72 7.06256H1834.24M1754.72 7.06256H1675.2M1834.24 7.06256L1852.76 22.221M1834.24 7.06256H1913.76M1913.76 7.06256L1933.97 22.221M1771.55 22.221H1852.76M1771.55 22.221H1690.35M1872.08 38.035L1852.76 22.221M1872.08 38.035L1892.26 54.5472M1872.08 38.035H1955.04M1852.76 22.221H1933.97M1690.35 22.221H1609.14M1690.35 22.221L1675.2 7.06256M1933.97 22.221L1955.04 38.035M1675.2 7.06256H1595.67M1892.26 54.5472L1913.35 71.8075M1892.26 54.5472H1977.06M1955.04 38.035L1977.06 54.5472M1977.06 54.5472L2000.06 71.8075M1826.63 71.8075L1846.69 89.8658M1826.63 71.8075H1913.35M1826.63 71.8075H1739.92M1913.35 71.8075L1935.41 89.8658M1913.35 71.8075H2000.06M2000.06 71.8075L2024.13 89.8658M1846.69 89.8658H1935.41M1846.69 89.8658H1757.97M1958.52 108.779L1935.41 89.8658M1958.52 108.779L1982.75 128.61M1958.52 108.779H2049.34M1935.41 89.8658H2024.13M1757.97 89.8658H1669.25M1757.97 89.8658L1739.92 71.8075M2024.13 89.8658L2049.34 108.779M1739.92 71.8075H1653.21M1982.75 128.61L2008.18 149.427M1982.75 128.61H2075.77M2049.34 108.779L2075.77 128.61M2075.77 128.61L2103.52 149.427M1912.85 149.427L1937.15 171.305M1912.85 149.427H2008.18M1912.85 149.427H1817.51M2008.18 149.427L2034.92 171.305M2008.18 149.427H2103.52M2103.52 149.427L2132.68 171.305M1937.15 171.305H2034.92M1937.15 171.305H1839.39M2063.04 194.327L2034.92 171.305M2063.04 194.327L2092.69 218.586M2063.04 194.327H2163.37M2034.92 171.305H2132.68M1839.39 171.305H1741.62M1839.39 171.305L1817.51 149.427M2132.68 171.305L2163.37 194.327M2132.68 171.305H2230.45M1817.51 149.427H1722.18M2092.69 218.586L2123.96 244.186M2092.69 218.586H2195.7M2163.37 194.327L2195.7 218.586M2230.45 171.305H2319.27M2195.7 218.586L2229.82 244.186M2018.1 244.186L2048.15 271.236M2018.1 244.186H2123.96M2018.1 244.186H1912.24M2123.96 244.186L2157.01 271.236M2123.96 244.186H2229.82M2229.82 244.186L2265.88 271.236M2229.82 244.186H2319.27M2048.15 271.236H2157.01M2048.15 271.236H1939.28M2192 299.87L2157.01 271.236M2192 299.87L2229.09 330.224M2192 299.87H2304.04M2157.01 271.236H2265.88M1939.28 271.236H1830.42M1939.28 271.236L1912.24 244.186M2265.88 271.236L2304.04 299.87M2265.88 271.236H2319.27M1912.24 244.186H1806.38M2229.09 330.224L2268.48 362.465M2229.09 330.224H2319.27M2304.04 299.87H2319.27M2304.04 299.87L2319.27 311.291M2149.48 362.465L2187.58 396.768M2149.48 362.465H2268.48M2149.48 362.465H2030.48M2268.48 362.465L2310.39 396.768M2268.48 362.465H2319.27M2187.58 396.768H2310.39M2187.58 396.768H2064.77M2310.39 396.768L2319.27 404.033M2310.39 396.768H2319.27M2064.77 396.768H1941.97M2064.77 396.768L2030.48 362.465M2030.48 362.465H1911.48M2318.09 514.26H2182.23M2318.09 514.26H2319.27M2318.09 514.26L2319.27 515.322M2182.23 514.26H2046.37M2182.23 514.26L2227.13 559.178M1368.75 -94.793L1371.5 -90.6712L1372.42 -89.2836L1376.16 -83.6744M1368.75 -94.793H1436.96M1368.75 -94.793H1300.54M1428.61 -105.523L1422.55 -113.327L1420.56 -115.885M1428.61 -105.523L1435.9 -96.1556L1436.96 -94.793M1428.61 -105.523H1495.63M1420.56 -115.885H1486.42M1420.56 -115.885L1412.77 -125.895M1348.02 -125.895H1412.77M1348.02 -125.895L1345.58 -129.563L1341.57 -135.575M1348.02 -125.895H1283.27M1436.96 -94.793L1439.09 -92.0516L1445.6 -83.6744M1436.96 -94.793H1505.16M1495.63 -105.523L1486.42 -115.885M1495.63 -105.523L1505.16 -94.793M1486.42 -115.885L1479.72 -123.425L1477.53 -125.895M1412.77 -125.895H1477.53M1412.77 -125.895L1405.25 -135.575M1505.16 -94.793L1515.05 -83.6744M1542.28 -125.895L1541.05 -127.125L1532.61 -135.575M1542.28 -125.895H1477.53M1477.53 -125.895L1474.27 -129.563L1468.93 -135.575M1376.16 -83.6744H1445.6M1376.16 -83.6744H1306.72M1454.57 -72.1461L1445.6 -83.6744M1454.57 -72.1461L1463.87 -60.185M1454.57 -72.1461H1525.29M1445.6 -83.6744H1515.05M1306.72 -83.6744H1237.27M1306.72 -83.6744L1300.54 -94.793M1515.05 -83.6744L1525.29 -72.1461M1300.54 -94.793H1232.33M1463.87 -60.185L1469.86 -52.4776L1471.07 -50.9154L1473.52 -47.7662M1463.87 -60.185H1535.92M1525.29 -72.1461L1535.92 -60.185M1535.92 -60.185L1546.96 -47.7662M1400.09 -47.7662L1408.69 -34.861M1400.09 -47.7662H1473.52M1400.09 -47.7662H1326.66M1473.52 -47.7662L1483.56 -34.861M1473.52 -47.7662H1546.96M1546.96 -47.7662L1558.42 -34.861M1408.69 -34.861H1483.56M1408.69 -34.861H1333.83M1493.99 -21.4428L1487.42 -29.8913L1486.13 -31.5568L1483.56 -34.861M1493.99 -21.4428L1504.85 -7.47958M1493.99 -21.4428H1570.34M1483.56 -34.861H1558.42M1333.83 -34.861H1258.96M1333.83 -34.861L1326.66 -47.7662M1558.42 -34.861L1570.34 -21.4428M1326.66 -47.7662H1253.23M1504.85 -7.47958L1516.15 7.06256M1504.85 -7.47958H1582.75M1570.34 -21.4428L1582.75 -7.47958M1582.75 -7.47958L1595.67 7.06256M1436.63 7.06256L1441.63 14.5616L1442.89 16.4622L1446.73 22.221M1436.63 7.06256H1516.15M1436.63 7.06256H1357.11M1516.15 7.06256L1527.94 22.221M1516.15 7.06256H1595.67M1595.67 7.06256L1609.14 22.221M1446.73 22.221H1527.94M1446.73 22.221H1365.53M1540.23 38.035L1527.94 22.221M1540.23 38.035L1553.07 54.5472M1540.23 38.035H1623.2M1527.94 22.221H1609.14M1365.53 22.221H1284.32M1365.53 22.221L1363.39 18.3717L1357.11 7.06256M1609.14 22.221L1623.2 38.035M1357.11 7.06256H1277.59M1553.07 54.5472L1566.49 71.8075M1553.07 54.5472H1637.87M1623.2 38.035L1637.87 54.5472M1637.87 54.5472L1653.21 71.8075M1479.78 71.8075L1491.82 89.8658M1479.78 71.8075H1566.49M1479.78 71.8075H1393.07M1566.49 71.8075L1580.53 89.8658M1566.49 71.8075H1653.21M1653.21 71.8075L1669.25 89.8658M1491.82 89.8658H1580.53M1491.82 89.8658H1403.1M1595.24 108.779L1580.53 89.8658M1595.24 108.779L1610.66 128.61M1595.24 108.779H1686.06M1580.53 89.8658H1669.25M1403.1 89.8658H1314.38M1403.1 89.8658L1393.07 71.8075M1669.25 89.8658L1686.06 108.779M1393.07 71.8075H1306.35M1610.66 128.61L1626.84 149.427M1610.66 128.61H1703.68M1686.06 108.779L1703.68 128.61M1703.68 128.61L1722.18 149.427M1531.51 149.427L1546.09 171.305M1531.51 149.427H1626.84M1531.51 149.427H1436.18M1626.84 149.427L1643.86 171.305M1626.84 149.427H1722.18M1722.18 149.427L1741.62 171.305M1546.09 171.305H1643.86M1546.09 171.305H1448.33M1661.76 194.327L1643.86 171.305M1661.76 194.327L1680.62 218.586M1661.76 194.327H1762.08M1643.86 171.305H1741.62M1448.33 171.305H1350.56M1448.33 171.305L1436.18 149.427M1741.62 171.305L1762.08 194.327M1436.18 149.427H1340.84M1680.62 218.586L1700.52 244.186M1680.62 218.586H1783.64M1762.08 194.327L1783.64 218.586M1783.64 218.586L1806.38 244.186M1594.66 244.186L1612.69 271.236M1594.66 244.186H1700.52M1594.66 244.186H1488.8M1700.52 244.186L1721.55 271.236M1700.52 244.186H1806.38M1806.38 244.186L1830.42 271.236M1612.69 271.236H1721.55M1612.69 271.236H1503.83M1743.82 299.87L1721.55 271.236M1743.82 299.87L1767.42 330.224M1743.82 299.87H1855.86M1721.55 271.236H1830.42M1503.83 271.236H1394.96M1503.83 271.236L1488.8 244.186M1830.42 271.236L1855.86 299.87M1488.8 244.186H1382.94M1767.42 330.224L1792.49 362.465M1767.42 330.224H1882.84M1855.86 299.87L1882.84 330.224M1882.84 330.224L1911.48 362.465M1673.49 362.465L1696.35 396.768M1673.49 362.465H1792.49M1673.49 362.465H1554.49M1792.49 362.465L1819.16 396.768M1792.49 362.465H1911.48M1911.48 362.465L1941.97 396.768M1696.35 396.768H1819.16M1696.35 396.768H1573.54M1847.59 433.341L1819.16 396.768M1847.59 433.341L1877.98 472.416M1847.59 433.341H1974.47M1819.16 396.768H1941.97M1573.54 396.768H1450.73M1573.54 396.768L1554.49 362.465M1941.97 396.768L1974.47 433.341M1554.49 362.465H1435.49M1877.98 472.416L1910.51 514.26M1877.98 472.416H2009.19M1974.47 433.341L2009.19 472.416M2009.19 472.416L2046.37 514.26M1774.65 514.26L1804.59 559.178M1774.65 514.26H1910.51M1774.65 514.26H1638.79M1910.51 514.26L1945.44 559.178M1910.51 514.26H2046.37M2046.37 514.26L2086.28 559.178M1804.59 559.178H1945.44M1804.59 559.178H1663.74M1983.02 607.519L1945.44 559.178M1983.02 607.519L2023.59 659.694M1983.02 607.519H2129.24M1945.44 559.178H2086.28M1663.74 559.178H1522.89M1663.74 559.178L1638.79 514.26M2086.28 559.178L2129.24 607.519M2086.28 559.178H2227.13M1638.79 514.26H1502.94M2023.59 659.694L2067.5 716.174M2023.59 659.694H2175.6M2129.24 607.519L2175.6 659.694M2227.13 559.178H2319.27M2175.6 659.694L2225.79 716.174M2175.6 659.694H2319.27M1909.22 716.174L1950.1 777.516M1909.22 716.174H2067.5M1909.22 716.174H1750.93M2067.5 716.174L2115.2 777.516M2067.5 716.174H2225.79M2225.79 716.174L2280.3 777.516M2225.79 716.174H2319.27M1950.1 777.516H2115.2M1950.1 777.516H1785M2167.19 844.377L2115.2 777.516M2167.19 844.377L2224.07 917.537M2167.19 844.377H2319.27M2115.2 777.516H2280.3M1785 777.516H1619.9M1785 777.516L1750.93 716.174M2280.3 777.516H2319.27M2280.3 777.516L2319.27 821.371M1750.93 716.174H1592.64M2224.07 917.537L2286.58 997.93M2224.07 917.537H2319.27M2096.99 997.93L2156.14 1086.68M2096.99 997.93H2286.58M2096.99 997.93H1907.41M2286.58 997.93L2319.27 1039.98M2286.58 997.93H2319.27M2156.14 1086.68H1956.7M2156.14 1086.68L2319.27 1086.68M1956.7 1086.68H1757.26M1956.7 1086.68L1907.41 997.93M1907.41 997.93H1717.83M1095.92 -94.793L1096.22 -93.425L1096.53 -92.0516L1096.83 -90.6712L1097.14 -89.2836L1098.07 -85.0869L1098.39 -83.6744M1095.92 -94.793H1164.13M1095.92 -94.793H1027.71M1160.55 -105.523L1157.95 -113.327L1157.1 -115.885M1160.55 -105.523L1162.77 -98.8614L1164.13 -94.793M1160.55 -105.523H1227.57M1157.1 -115.885H1222.96M1157.1 -115.885L1154.58 -123.425L1153.76 -125.895M1089.01 -125.895L1088.73 -127.125L1087.66 -131.984L1086.86 -135.575M1089.01 -125.895H1153.76M1089.01 -125.895H1024.25M1164.13 -94.793L1164.58 -93.425L1165.04 -92.0516L1165.5 -90.6712L1165.96 -89.2836L1167.83 -83.6744M1164.13 -94.793H1232.33M1227.57 -105.523L1224.1 -113.327L1222.96 -115.885M1227.57 -105.523L1232.33 -94.793M1222.96 -115.885L1220.72 -120.933L1219.06 -124.663L1218.51 -125.895M1153.76 -125.895L1153.35 -127.125L1152.54 -129.563L1151.73 -131.984L1151.33 -133.186L1150.53 -135.575M1153.76 -125.895H1218.51M1232.33 -94.793L1236.02 -86.4924L1237.27 -83.6744M1283.27 -125.895L1279.22 -133.186L1277.89 -135.575M1283.27 -125.895H1218.51M1218.51 -125.895L1214.74 -134.383L1214.21 -135.575M1098.39 -83.6744H1167.83M1098.39 -83.6744H1028.94M1171.67 -72.1461L1167.83 -83.6744M1171.67 -72.1461L1175.66 -60.185M1171.67 -72.1461H1242.39M1167.83 -83.6744H1237.27M1028.94 -83.6744H959.5M1028.94 -83.6744L1027.71 -94.793M1237.27 -83.6744L1242.39 -72.1461M1027.71 -94.793H959.5M1175.66 -60.185L1176.68 -57.1249L1178.23 -52.4776L1179.8 -47.7662M1175.66 -60.185H1247.71M1242.39 -72.1461L1243.05 -70.6766L1247.71 -60.185M1247.71 -60.185L1248.39 -58.6585L1249.07 -57.1249L1249.75 -55.5823L1253.23 -47.7662M1106.36 -47.7662L1109.23 -34.861M1106.36 -47.7662H1179.8M1106.36 -47.7662H1032.93M1179.8 -47.7662L1184.1 -34.861M1179.8 -47.7662H1253.23M1253.23 -47.7662L1257.51 -38.1349L1258.23 -36.5015L1258.96 -34.861M1109.23 -34.861H1184.1M1109.23 -34.861H1034.37M1188.57 -21.4428L1189.14 -19.7275L1189.71 -18.005L1190.29 -16.2718L1193.22 -7.47958M1188.57 -21.4428L1186.31 -28.2187L1185.75 -29.8913L1185.2 -31.5568L1184.1 -34.861M1188.57 -21.4428H1264.92M1184.1 -34.861H1258.96M1034.37 -34.861H959.5M1034.37 -34.861L1032.93 -47.7662M1258.96 -34.861L1264.92 -21.4428M1032.93 -47.7662H959.5M1193.22 -7.47958L1197.45 5.21184L1198.07 7.06256M1193.22 -7.47958H1271.13M1264.92 -21.4428L1266.45 -18.005L1271.13 -7.47958M1271.13 -7.47958L1273.52 -2.09663L1277.59 7.06256M1118.54 7.06256L1120.21 14.5616L1120.63 16.4622L1121.91 22.221M1118.54 7.06256H1198.07M1118.54 7.06256H1039.02M1198.07 7.06256L1203.12 22.221M1198.07 7.06256H1277.59M1277.59 7.06256L1284.32 22.221M1121.91 22.221H1203.12M1121.91 22.221H1040.71M1208.39 38.035L1203.12 22.221M1208.39 38.035L1213.89 54.5472M1208.39 38.035H1291.35M1203.12 22.221H1284.32M1040.71 22.221H959.5M1040.71 22.221L1040.28 18.3717L1039.44 10.7925L1039.02 7.06256M1284.32 22.221L1291.35 38.035M1039.02 7.06256H959.5M1213.89 54.5472L1218.18 67.4203L1219.64 71.8075M1213.89 54.5472H1298.69M1291.35 38.035L1298.69 54.5472M1298.69 54.5472L1302.48 63.0812L1306.35 71.8075M1132.93 71.8075L1136.94 89.8658M1132.93 71.8075H1219.64M1132.93 71.8075H1046.21M1219.64 71.8075L1225.66 89.8658M1219.64 71.8075H1306.35M1306.35 71.8075L1314.38 89.8658M1136.94 89.8658H1225.66M1136.94 89.8658H1048.22M1231.96 108.779L1230.36 103.968L1225.66 89.8658M1231.96 108.779L1238.57 128.61M1231.96 108.779H1322.78M1225.66 89.8658H1314.38M1048.22 89.8658H959.5M1048.22 89.8658L1046.21 71.8075M1314.38 89.8658L1322.78 108.779M1046.21 71.8075H959.5M1238.57 128.61L1245.5 149.427M1238.57 128.61H1331.59M1322.78 108.779L1331.59 128.61M1331.59 128.61L1340.84 149.427M1150.17 149.427L1155.03 171.305M1150.17 149.427H1245.5M1150.17 149.427H1054.84M1245.5 149.427L1252.79 171.305M1245.5 149.427H1340.84M1340.84 149.427L1350.56 171.305M1155.03 171.305H1252.79M1155.03 171.305H1057.26M1260.47 194.327L1252.79 171.305M1260.47 194.327L1268.55 218.586M1260.47 194.327H1360.79M1252.79 171.305H1350.56M1057.26 171.305H959.5M1057.26 171.305L1055.13 152.103L1054.84 149.427M1350.56 171.305L1360.79 194.327M1054.84 149.427H959.5M1268.55 218.586L1277.08 244.186M1268.55 218.586H1371.57M1360.79 194.327L1368.82 212.402L1371.57 218.586M1371.57 218.586L1382.94 244.186M1171.22 244.186L1177.23 271.236M1171.22 244.186H1277.08M1171.22 244.186H1065.36M1277.08 244.186L1286.1 271.236M1277.08 244.186H1382.94M1382.94 244.186L1394.96 271.236M1177.23 271.236H1286.1M1177.23 271.236H1068.37M1295.64 299.87L1286.1 271.236M1295.64 299.87L1305.75 330.224M1295.64 299.87H1407.68M1286.1 271.236H1394.96M1068.37 271.236H959.5M1068.37 271.236L1065.36 244.186M1394.96 271.236L1407.68 299.87M1065.36 244.186H959.5M1305.75 330.224L1316.49 362.465M1305.75 330.224H1421.17M1407.68 299.87L1421.17 330.224M1421.17 330.224L1435.49 362.465M1197.5 362.465L1205.12 396.768M1197.5 362.465H1316.49M1197.5 362.465H1078.5M1316.49 362.465L1327.92 396.768M1316.49 362.465H1435.49M1435.49 362.465L1450.73 396.768M1205.12 396.768H1327.92M1205.12 396.768H1082.31M1340.11 433.341L1327.92 396.768M1340.11 433.341L1353.13 472.416M1340.11 433.341H1466.98M1327.92 396.768H1450.73M1082.31 396.768H959.5M1082.31 396.768L1078.5 362.465M1450.73 396.768L1466.98 433.341M1078.5 362.465H959.5M1353.13 472.416L1367.08 514.26M1353.13 472.416H1484.34M1466.98 433.341L1484.34 472.416M1484.34 472.416L1502.94 514.26M1231.22 514.26L1241.2 559.178M1231.22 514.26H1367.08M1231.22 514.26H1095.36M1367.08 514.26L1382.04 559.178M1367.08 514.26H1502.94M1502.94 514.26L1522.89 559.178M1241.2 559.178H1382.04M1241.2 559.178H1100.35M1398.15 607.519L1382.04 559.178M1398.15 607.519L1415.54 659.694M1398.15 607.519H1544.37M1382.04 559.178H1522.89M1100.35 559.178H959.5M1100.35 559.178L1095.36 514.26M1522.89 559.178L1544.37 607.519M1095.36 514.26H959.5M1415.54 659.694L1434.36 716.174M1415.54 659.694H1567.55M1544.37 607.519L1567.55 659.694M1567.55 659.694L1592.64 716.174M1276.07 716.174L1289.7 777.516M1276.07 716.174H1434.36M1276.07 716.174H1117.79M1434.36 716.174L1454.8 777.516M1434.36 716.174H1592.64M1592.64 716.174L1619.9 777.516M1289.7 777.516H1454.8M1289.7 777.516H1124.6M1477.08 844.377L1454.8 777.516M1477.08 844.377L1501.46 917.537M1477.08 844.377H1649.61M1454.8 777.516H1619.9M1124.6 777.516H959.5M1124.6 777.516L1117.79 716.174M1619.9 777.516L1649.61 844.377M1117.79 716.174H959.5M1501.46 917.537L1528.25 997.93M1501.46 917.537H1682.11M1649.61 844.377L1682.11 917.537M1682.11 917.537L1717.83 997.93M1338.66 997.93L1358.38 1086.68M1338.66 997.93H1528.25M1338.66 997.93H1149.08M1528.25 997.93L1557.82 1086.68M1528.25 997.93H1717.83M1717.83 997.93L1757.26 1086.68M1557.82 1086.68H1358.38M1557.82 1086.68H1757.26M1358.38 1086.68H1158.94M1158.94 1086.68H959.5M1158.94 1086.68L1149.08 997.93M1149.08 997.93H959.5M823.084 -94.793L822.78 -93.425L822.475 -92.0516L822.168 -90.6712L821.86 -89.2836L821.24 -86.4924L820.927 -85.0869L820.614 -83.6744M823.084 -94.793H891.292M823.084 -94.793H754.875M892.483 -105.523L893.635 -115.885M892.483 -105.523L891.292 -94.793M892.483 -105.523H959.5M893.635 -115.885L893.775 -117.155L893.917 -118.42L894.056 -119.679L894.747 -125.895M893.635 -115.885H959.5M829.994 -125.895L830.266 -127.125L831.345 -131.984L832.144 -135.575M829.994 -125.895H894.747M829.994 -125.895H765.24M891.292 -94.793L891.139 -93.425L890.988 -92.0516L890.833 -90.6712L890.057 -83.6744M891.292 -94.793H959.5M959.5 -105.523V-115.885M959.5 -105.523V-94.793M959.5 -115.885V-125.895M894.747 -125.895H959.5M894.747 -125.895L895.153 -129.563L895.289 -130.776L895.822 -135.575M959.5 -94.793V-83.6744M1024.25 -125.895L1023.85 -129.563L1023.71 -130.776L1023.58 -131.984L1023.44 -133.186L1023.31 -134.383L1023.18 -135.575M1024.25 -125.895H959.5M959.5 -125.895V-135.575M820.614 -83.6744H890.057M820.614 -83.6744H751.171M888.777 -72.1461L888.612 -70.6766L888.449 -69.1982L887.448 -60.185M888.777 -72.1461L890.057 -83.6744M888.777 -72.1461H959.5M890.057 -83.6744H959.5M751.171 -83.6744H681.728M751.171 -83.6744L752.109 -86.4924L752.576 -87.8906L753.039 -89.2836L753.502 -90.6712L753.961 -92.0516L754.42 -93.425L754.875 -94.793M959.5 -83.6744V-72.1461M754.875 -94.793H686.667M887.448 -60.185L886.068 -47.7662M887.448 -60.185H959.5M959.5 -72.1461V-60.185M959.5 -60.185V-47.7662M812.637 -47.7662L809.77 -34.861M812.637 -47.7662H886.068M812.637 -47.7662H739.205M886.068 -47.7662L884.635 -34.861M886.068 -47.7662H959.5M959.5 -47.7662V-34.861M809.77 -34.861H884.635M809.77 -34.861H734.905M883.145 -21.4428L884.635 -34.861M883.145 -21.4428L881.594 -7.47958M883.145 -21.4428H959.5M884.635 -34.861H959.5M734.905 -34.861H660.04M734.905 -34.861L739.205 -47.7662M959.5 -34.861V-21.4428M739.205 -47.7662H665.773M881.594 -7.47958L880.996 -2.09663L880.388 3.37003L879.978 7.06256M881.594 -7.47958H959.5M959.5 -21.4428V-7.47958M959.5 -7.47958V7.06256M800.457 7.06256L798.79 14.5616L798.369 16.4622L797.089 22.221M800.457 7.06256H879.978M800.457 7.06256H720.935M879.978 7.06256L879.564 10.7925L878.723 18.3717L878.295 22.221M879.978 7.06256H959.5M959.5 7.06256V22.221M797.089 22.221H878.295M797.089 22.221H715.884M876.539 38.035L876.761 36.0204L878.295 22.221M876.539 38.035L874.704 54.5472M876.539 38.035H959.5M878.295 22.221H959.5M715.884 22.221H634.678M715.884 22.221L720.935 7.06256M959.5 22.221V38.035M720.935 7.06256H641.412M874.704 54.5472L872.787 71.8075M874.704 54.5472H959.5M959.5 38.035V54.5472M959.5 54.5472V71.8075M786.073 71.8075L782.062 89.8658M786.073 71.8075H872.787M786.073 71.8075H699.36M872.787 71.8075L870.781 89.8658M872.787 71.8075H959.5M959.5 71.8075V89.8658M782.062 89.8658H870.781M782.062 89.8658H693.343M868.68 108.779L870.781 89.8658M868.68 108.779L866.478 128.61M868.68 108.779H959.5M870.781 89.8658H959.5M693.343 89.8658H604.623M693.343 89.8658L699.36 71.8075M959.5 89.8658V108.779M699.36 71.8075H612.646M866.478 128.61L864.165 149.427M866.478 128.61H959.5M959.5 108.779V128.61M959.5 128.61V149.427M768.829 149.427L763.97 171.305M768.829 149.427H864.165M768.829 149.427H673.496M864.165 149.427L861.736 171.305M864.165 149.427H959.5M959.5 149.427V171.305M763.97 171.305H861.736M763.97 171.305H666.205M859.178 194.327L861.736 171.305M859.178 194.327L856.484 218.586M859.178 194.327H959.5M861.736 171.305H959.5M666.205 171.305H568.439M666.205 171.305L673.496 149.427M959.5 171.305V194.327M673.496 149.427H578.16M856.484 218.586L853.639 244.186M856.484 218.586H959.5M959.5 194.327V218.586M959.5 218.586V244.186M747.78 244.186L741.77 271.236M747.78 244.186H853.639M747.78 244.186H641.919M853.639 244.186L850.635 271.236M853.639 244.186H959.5M959.5 244.186V271.236M741.77 271.236H850.635M741.77 271.236H632.905M847.455 299.87L850.635 271.236M847.455 299.87L844.083 330.224M847.455 299.87H959.5M850.635 271.236H959.5M632.905 271.236H524.04M632.905 271.236L641.919 244.186M959.5 271.236V299.87M641.919 244.186H536.059M844.083 330.224L840.502 362.465M844.083 330.224H959.5M959.5 299.87V330.224M959.5 330.224V362.465M721.504 362.465L713.884 396.768M721.504 362.465H840.502M721.504 362.465H602.506M840.502 362.465L836.692 396.768M840.502 362.465H959.5M959.5 362.465V396.768M713.884 396.768H836.692M713.884 396.768H591.075M832.63 433.341L836.692 396.768M832.63 433.341L828.29 472.416M832.63 433.341H959.5M836.692 396.768H959.5M591.075 396.768H468.267M591.075 396.768L602.506 362.465M959.5 396.768V433.341M602.506 362.465H483.508M828.29 472.416L823.641 514.26M828.29 472.416H959.5M959.5 433.341V472.416M959.5 472.416V514.26M687.783 514.26L677.804 559.178M687.783 514.26H823.641M687.783 514.26H551.924M823.641 514.26L818.652 559.178M823.641 514.26H959.5M959.5 514.26V559.178M677.804 559.178H818.652M677.804 559.178H536.956M813.283 607.519L818.652 559.178M813.283 607.519L807.488 659.694M813.283 607.519H959.5M818.652 559.178H959.5M536.956 559.178H396.109M536.956 559.178L551.924 514.26M959.5 559.178V607.519M551.924 514.26H416.065M807.488 659.694L801.213 716.174M807.488 659.694H959.5M959.5 607.519V659.694M959.5 659.694V716.174M642.928 716.174L629.3 777.516M642.928 716.174H801.213M642.928 716.174H484.641M801.213 716.174L794.4 777.516M801.213 716.174H959.5M959.5 716.174V777.516M629.3 777.516H794.4M629.3 777.516H464.2M786.974 844.377L794.4 777.516M786.974 844.377L778.848 917.537M786.974 844.377H959.5M794.4 777.516H959.5M464.2 777.516H299.1M464.2 777.516L484.641 716.174M959.5 777.516V844.377M484.641 716.174H326.355M778.848 917.537L769.917 997.93M778.848 917.537H959.5M959.5 844.377V917.537M959.5 917.537V997.93M580.336 997.93L560.619 1086.68M580.336 997.93H769.917M580.336 997.93H390.753M769.917 997.93L760.059 1086.68M769.917 997.93H959.5M959.5 997.93V1086.68M760.059 1086.68H560.619M760.059 1086.68H959.5M560.619 1086.68H361.178M361.178 1086.68H161.737M361.178 1086.68L390.753 997.93M390.753 997.93H201.17M550.251 -94.793L546.58 -89.2836L542.842 -83.6744M550.251 -94.793H618.459M550.251 -94.793H482.043M624.418 -105.523L630.173 -115.885M624.418 -105.523L618.459 -94.793M624.418 -105.523H691.435M630.173 -115.885H696.038M630.173 -115.885L634.36 -123.425L635.732 -125.895M570.979 -125.895H635.732M570.979 -125.895L573.424 -129.563L577.429 -135.575M570.979 -125.895H506.226M618.459 -94.793L612.285 -83.6744M618.459 -94.793H686.667M691.435 -105.523L696.038 -115.885M691.435 -105.523L686.667 -94.793M696.038 -115.885L698.282 -120.933L699.939 -124.663L700.486 -125.895M635.732 -125.895H700.486M635.732 -125.895L639.78 -133.186L641.108 -135.575M686.667 -94.793L682.979 -86.4924L681.728 -83.6744M765.24 -125.895L765.648 -127.125L766.461 -129.563L767.668 -133.186L768.466 -135.575M765.24 -125.895H700.486M700.486 -125.895L701.031 -127.125L702.116 -129.563L704.786 -135.575M542.842 -83.6744H612.285M542.842 -83.6744H473.397M605.881 -72.1461L606.696 -73.6104L607.504 -75.0692L610.705 -80.8333L612.285 -83.6744M605.881 -72.1461L600.922 -63.2185L599.238 -60.185M605.881 -72.1461H676.606M612.285 -83.6744H681.728M473.397 -83.6744H403.954M473.397 -83.6744L479.91 -92.0516L482.043 -94.793M681.728 -83.6744L676.606 -72.1461M482.043 -94.793H413.834M599.238 -60.185L598.391 -58.6585L597.538 -57.1249L594.959 -52.4776L594.089 -50.9154L592.342 -47.7662M599.238 -60.185H671.29M676.606 -72.1461L675.952 -70.6766L671.29 -60.185M671.29 -60.185L670.613 -58.6585L669.93 -57.1249L669.246 -55.5823L665.773 -47.7662M518.91 -47.7662L510.309 -34.861M518.91 -47.7662H592.342M518.91 -47.7662H445.478M592.342 -47.7662L585.174 -34.861M592.342 -47.7662H665.773M665.773 -47.7662L660.04 -34.861M510.309 -34.861H585.174M510.309 -34.861H435.444M577.723 -21.4428L585.174 -34.861M577.723 -21.4428L569.968 -7.47958M577.723 -21.4428H654.078M585.174 -34.861H660.04M435.444 -34.861H360.579M435.444 -34.861L445.478 -47.7662M660.04 -34.861L654.078 -21.4428M445.478 -47.7662H372.045M569.968 -7.47958L561.891 7.06256M569.968 -7.47958H647.874M654.078 -21.4428L652.55 -18.005L647.874 -7.47958M647.874 -7.47958L645.482 -2.09663L643.052 3.37003L641.412 7.06256M482.369 7.06256L477.37 14.5616L472.267 22.221M482.369 7.06256H561.891M482.369 7.06256H402.847M561.891 7.06256L553.472 22.221M561.891 7.06256H641.412M641.412 7.06256L634.678 22.221M472.267 22.221H553.472M472.267 22.221H391.062M544.69 38.035L553.472 22.221M544.69 38.035L535.519 54.5472M544.69 38.035H627.652M553.472 22.221H634.678M391.062 22.221H309.855M391.062 22.221L402.847 7.06256M634.678 22.221L627.652 38.035M402.847 7.06256H323.326M535.519 54.5472L533.162 58.7901L525.934 71.8075M535.519 54.5472H620.315M627.652 38.035L620.315 54.5472M620.315 54.5472L619.375 56.6633L616.524 63.0812L612.646 71.8075M439.22 71.8075L427.185 89.8658M439.22 71.8075H525.934M439.22 71.8075H352.507M525.934 71.8075L515.904 89.8658M525.934 71.8075H612.646M612.646 71.8075L604.623 89.8658M427.185 89.8658H515.904M427.185 89.8658H338.466M505.4 108.779L512.023 96.8555L515.904 89.8658M505.4 108.779L494.386 128.61M505.4 108.779H596.22M515.904 89.8658H604.623M338.466 89.8658H249.747M338.466 89.8658L352.507 71.8075M604.623 89.8658L596.22 108.779M352.507 71.8075H265.793M494.386 128.61L482.825 149.427M494.386 128.61H587.41M596.22 108.779L587.41 128.61M587.41 128.61L578.16 149.427M387.49 149.427L372.909 171.305M387.49 149.427H482.825M387.49 149.427H292.156M482.825 149.427L470.675 171.305M482.825 149.427H578.16M578.16 149.427L568.439 171.305M372.909 171.305H470.675M372.909 171.305H275.144M457.889 194.327L470.675 171.305M457.889 194.327L444.416 218.586M457.889 194.327H558.211M470.675 171.305H568.439M275.144 171.305H177.38M275.144 171.305L292.156 149.427M568.439 171.305L558.211 194.327M292.156 149.427H196.82M444.416 218.586L430.199 244.186M444.416 218.586H547.432M558.211 194.327L547.432 218.586M547.432 218.586L536.059 244.186M324.338 244.186L306.31 271.236M324.338 244.186H430.199M324.338 244.186H218.478M430.199 244.186L415.175 271.236M430.199 244.186H536.059M536.059 244.186L524.04 271.236M306.31 271.236H415.175M306.31 271.236H197.445M399.273 299.87L415.175 271.236M399.273 299.87L382.415 330.224M399.273 299.87H511.319M415.175 271.236H524.04M197.445 271.236H88.5801M197.445 271.236L218.478 244.186M524.04 271.236L511.319 299.87M218.478 244.186H112.618M382.415 330.224L364.51 362.465M382.415 330.224H497.832M511.319 299.87L497.832 330.224M497.832 330.224L483.508 362.465M245.511 362.465L222.65 396.768M245.511 362.465H364.51M245.511 362.465H126.513M364.51 362.465L345.459 396.768M364.51 362.465H483.508M483.508 362.465L468.267 396.768M222.65 396.768H345.459M222.65 396.768H99.8421M325.147 433.341L345.459 396.768M325.147 433.341L303.445 472.416M325.147 433.341H452.018M345.459 396.768H468.267M99.8421 396.768H-22.9661M99.8421 396.768L126.513 362.465M468.267 396.768L452.018 433.341M126.513 362.465H7.5153M303.445 472.416L280.207 514.26M303.445 472.416H434.657M452.018 433.341L434.657 472.416M434.657 472.416L416.065 514.26M144.348 514.26L114.413 559.178M144.348 514.26H280.207M144.348 514.26H8.4884M280.207 514.26L255.261 559.178M280.207 514.26H416.065M416.065 514.26L396.109 559.178M114.413 559.178H255.261M114.413 559.178H-26.435M228.412 607.519L255.261 559.178M228.412 607.519L199.437 659.694M228.412 607.519H374.63M255.261 559.178H396.109M-26.435 559.178H-167.283M-26.435 559.178L8.4884 514.26M396.109 559.178L374.63 607.519M8.4884 514.26H-127.371M199.437 659.694L168.068 716.174M199.437 659.694H351.449M374.63 607.519L351.449 659.694M351.449 659.694L326.355 716.174M9.78302 716.174L-31.0993 777.516M9.78302 716.174H168.068M9.78302 716.174H-148.504M168.068 716.174L134.001 777.516M168.068 716.174H326.355M326.355 716.174L299.1 777.516M-31.0993 777.516H134.001M-31.0993 777.516H-196.199M96.8677 844.377L134.001 777.516M96.8677 844.377L56.2361 917.537M96.8677 844.377H269.394M134.001 777.516H299.1M-196.199 777.516H-361.299M-196.199 777.516L-148.504 716.174M299.1 777.516L269.394 844.377M-148.504 716.174H-306.789M56.2361 917.537L11.589 997.93M56.2361 917.537H236.89M269.394 844.377L236.89 917.537M236.89 917.537L201.17 997.93M-177.994 997.93L-237.144 1086.68M-177.994 997.93H11.589M-177.994 997.93H-367.577M11.589 997.93L-37.7026 1086.68M11.589 997.93H201.17M201.17 997.93L161.737 1086.68M-37.7026 1086.68H-237.144M-37.7026 1086.68H161.737M-237.144 1086.68L-400.268 1086.68M-367.577 997.93L-400.268 1039.98M-367.577 997.93H-400.268M277.418 -94.793L265.068 -83.6744M277.418 -94.793H345.626M277.418 -94.793H209.21M356.352 -105.523L366.711 -115.885M356.352 -105.523L345.626 -94.793M356.352 -105.523H423.369M366.711 -115.885H432.576M366.711 -115.885L376.719 -125.895M311.964 -125.895H376.719M311.964 -125.895L316.039 -129.563L322.716 -135.575M311.964 -125.895H247.211M345.626 -94.793L334.511 -83.6744M345.626 -94.793H413.834M423.369 -105.523L432.576 -115.885M423.369 -105.523L413.834 -94.793M432.576 -115.885L439.277 -123.425L441.472 -125.895M376.719 -125.895L377.946 -127.125L386.395 -135.575M376.719 -125.895H441.472M413.834 -94.793L403.954 -83.6744M506.226 -125.895L513.751 -135.575M506.226 -125.895H441.472M441.472 -125.895L444.732 -129.563L450.073 -135.575M265.068 -83.6744H334.511M265.068 -83.6744H195.625M322.987 -72.1461L334.511 -83.6744M322.987 -72.1461L311.03 -60.185M322.987 -72.1461H393.711M334.511 -83.6744H403.954M195.625 -83.6744H126.182M195.625 -83.6744L209.21 -94.793M403.954 -83.6744L393.711 -72.1461M209.21 -94.793H141.002M311.03 -60.185L307.969 -57.1249L298.613 -47.7662M311.03 -60.185H383.082M393.711 -72.1461L383.082 -60.185M383.082 -60.185L372.045 -47.7662M225.182 -47.7662L223.421 -46.1791L210.849 -34.861M225.182 -47.7662H298.613M225.182 -47.7662H151.75M298.613 -47.7662L285.714 -34.861M298.613 -47.7662H372.045M372.045 -47.7662L370.637 -46.1791L360.579 -34.861M210.849 -34.861H285.714M210.849 -34.861H135.984M272.3 -21.4428L285.714 -34.861M272.3 -21.4428L258.341 -7.47958M272.3 -21.4428H348.656M285.714 -34.861H360.579M135.984 -34.861H61.1185M135.984 -34.861L151.75 -47.7662M360.579 -34.861L348.656 -21.4428M151.75 -47.7662H78.3181M258.341 -7.47958L243.803 7.06256M258.341 -7.47958H336.248M348.656 -21.4428L336.248 -7.47958M336.248 -7.47958L323.326 7.06256M164.282 7.06256L147.445 22.221M164.282 7.06256H243.803M164.282 7.06256H84.76M243.803 7.06256L228.65 22.221M243.803 7.06256H323.326M323.326 7.06256L309.855 22.221M147.445 22.221H228.65M147.445 22.221H66.2389M212.842 38.035L228.65 22.221M212.842 38.035L196.333 54.5472M212.842 38.035H295.803M228.65 22.221H309.855M66.2389 22.221H-14.9662M66.2389 22.221L84.76 7.06256M309.855 22.221L295.803 38.035M84.76 7.06256H5.23769M196.333 54.5472L179.08 71.8075M196.333 54.5472H281.13M295.803 38.035L281.13 54.5472M281.13 54.5472L265.793 71.8075M92.3662 71.8075L72.3083 89.8658M92.3662 71.8075H179.08M92.3662 71.8075H5.6527M179.08 71.8075L161.027 89.8658M179.08 71.8075H265.793M265.793 71.8075L249.747 89.8658M72.3083 89.8658H161.027M72.3083 89.8658H-16.4109M142.12 108.779L161.027 89.8658M142.12 108.779L122.295 128.61M142.12 108.779H232.939M161.027 89.8658H249.747M-16.4109 89.8658H-105.13M-16.4109 89.8658L5.6527 71.8075M249.747 89.8658L232.939 108.779M5.6527 71.8075H-81.0608M122.295 128.61L101.485 149.427M122.295 128.61H215.318M232.939 108.779L215.318 128.61M215.318 128.61L196.82 149.427M6.14989 149.427L-18.1503 171.305M6.14989 149.427H101.485M6.14989 149.427H-89.184M101.485 149.427L79.6142 171.305M101.485 149.427H196.82M196.82 149.427L177.38 171.305M-18.1503 171.305H79.6142M-18.1503 171.305H-115.916M56.5987 194.327L79.6142 171.305M56.5987 194.327L32.3481 218.586M56.5987 194.327H156.921M79.6142 171.305H177.38M-115.916 171.305H-213.681M-115.916 171.305L-89.184 149.427M177.38 171.305L156.921 194.327M-89.184 149.427H-184.519M32.3481 218.586L6.75751 244.186M32.3481 218.586H135.365M156.921 194.327L135.365 218.586M135.365 218.586L112.618 244.186M-99.1032 244.186L-129.15 271.236M-99.1032 244.186H6.75751M-99.1032 244.186H-204.963M6.75751 244.186L-20.2848 271.236M6.75751 244.186H112.618M112.618 244.186L88.5801 271.236M-129.15 271.236H-20.2848M-129.15 271.236H-238.015M-48.908 299.87L-20.2848 271.236M-48.908 299.87L-79.2535 330.224M-48.908 299.87H63.1369M-20.2848 271.236H88.5801M-238.015 271.236H-346.88M-238.015 271.236L-204.963 244.186M88.5801 271.236L63.1369 299.87M-204.963 244.186H-310.823M-79.2535 330.224L-111.483 362.465M-79.2535 330.224H36.1639M63.1369 299.87L36.1639 330.224M36.1639 330.224L7.5153 362.465M-230.481 362.465L-268.583 396.768M-230.481 362.465H-111.483M-230.481 362.465H-349.479M-111.483 362.465L-145.774 396.768M-111.483 362.465H7.5153M7.5153 362.465L-22.9661 396.768M-268.583 396.768H-145.774M-268.583 396.768H-391.391M-182.337 433.341L-145.774 396.768M-182.337 433.341L-221.399 472.416M-182.337 433.341H-55.466M-145.774 396.768H-22.9661M-391.391 396.768L-349.479 362.465M-391.391 396.768H-400.268M-391.391 396.768L-400.268 404.033M-22.9661 396.768L-55.466 433.341M-349.479 362.465H-400.268M-221.399 472.416L-263.229 514.26M-221.399 472.416H-90.1882M-55.466 433.341L-90.1882 472.416M-90.1882 472.416L-127.371 514.26M-399.088 514.26H-263.229M-399.088 514.26H-400.268M-399.088 514.26L-400.268 515.322M-263.229 514.26L-308.132 559.178M-263.229 514.26H-127.371M-127.371 514.26L-167.283 559.178M-356.458 607.519L-308.132 559.178M-356.458 607.519H-210.24M-356.458 607.519H-400.268M-356.458 607.519L-400.268 651.344M-308.132 559.178H-167.283M-308.132 559.178H-400.268M-167.283 559.178L-210.24 607.519M-210.24 607.519L-256.601 659.694M-256.601 659.694L-306.789 716.174M-256.601 659.694H-400.268M-306.789 716.174L-361.299 777.516M-306.789 716.174H-400.268M-361.299 777.516H-400.268M-361.299 777.516L-400.268 821.371M4.58472 -94.793L-12.7042 -83.6744M4.58472 -94.793H72.7941M4.58472 -94.793H-63.6232M88.2869 -105.523L103.249 -115.885M88.2869 -105.523L72.7941 -94.793M88.2869 -105.523H155.304M103.249 -115.885H169.114M103.249 -115.885L117.705 -125.895M52.9514 -125.895H117.705M52.9514 -125.895L68.0023 -135.575M52.9514 -125.895H-11.8019M72.7941 -94.793L56.7389 -83.6744M72.7941 -94.793H141.002M155.304 -105.523L169.114 -115.885M155.304 -105.523L141.002 -94.793M169.114 -115.885L182.458 -125.895M117.705 -125.895L119.477 -127.125L131.681 -135.575M117.705 -125.895H182.458M141.002 -94.793L126.182 -83.6744M247.211 -125.895L259.037 -135.575M247.211 -125.895H182.458M182.458 -125.895L184.094 -127.125L195.359 -135.575M-12.7042 -83.6744H56.7389M-12.7042 -83.6744H-82.1472M40.0916 -72.1461L56.7389 -83.6744M40.0916 -72.1461L22.8198 -60.185M40.0916 -72.1461H110.817M56.7389 -83.6744H126.182M-82.1472 -83.6744H-151.59M-82.1472 -83.6744L-63.6232 -94.793M126.182 -83.6744L110.817 -72.1461M-63.6232 -94.793H-131.831M22.8198 -60.185L4.88644 -47.7662M22.8198 -60.185H94.8719M110.817 -72.1461L108.855 -70.6766L94.8719 -60.185M94.8719 -60.185L78.3181 -47.7662M-68.5453 -47.7662L-88.6118 -34.861M-68.5453 -47.7662H4.88644M-68.5453 -47.7662H-141.977M4.88644 -47.7662L-13.7466 -34.861M4.88644 -47.7662H78.3181M78.3181 -47.7662L61.1185 -34.861M-88.6118 -34.861H-13.7466M-88.6118 -34.861H-163.477M-33.1219 -21.4428L-13.7466 -34.861M-33.1219 -21.4428L-53.2847 -7.47958M-33.1219 -21.4428H43.2333M-13.7466 -34.861H61.1185M-163.477 -34.861H-238.342M-163.477 -34.861L-141.977 -47.7662M61.1185 -34.861L43.2333 -21.4428M-141.977 -47.7662H-215.409M-53.2847 -7.47958L-74.2832 7.06256M-53.2847 -7.47958H24.6215M43.2333 -21.4428L24.6215 -7.47958M24.6215 -7.47958L5.23769 7.06256M-153.806 7.06256L-177.378 22.221M-153.806 7.06256H-74.2832M-153.806 7.06256H-233.328M-74.2832 7.06256L-96.1712 22.221M-74.2832 7.06256H5.23769M5.23769 7.06256L-14.9662 22.221M-177.378 22.221H-96.1712M-177.378 22.221H-258.583M-119.007 38.035L-96.1712 22.221M-119.007 38.035L-142.851 54.5472M-119.007 38.035H-36.044M-96.1712 22.221H-14.9662M-258.583 22.221H-339.788M-258.583 22.221L-233.328 7.06256M-14.9662 22.221L-36.044 38.035M-233.328 7.06256H-312.849M-142.851 54.5472L-167.774 71.8075M-142.851 54.5472H-58.0552M-36.044 38.035L-58.0552 54.5472M-58.0552 54.5472L-81.0608 71.8075M-254.488 71.8075L-282.568 89.8658M-254.488 71.8075H-167.774M-254.488 71.8075H-341.2M-167.774 71.8075L-193.849 89.8658M-167.774 71.8075H-81.0608M-81.0608 71.8075L-105.13 89.8658M-282.568 89.8658H-193.849M-221.161 108.779L-193.849 89.8658M-221.161 108.779L-249.795 128.61M-221.161 108.779H-130.34M-193.849 89.8658H-105.13M-105.13 89.8658L-130.34 108.779M-341.2 71.8075H-400.268M-249.795 128.61L-279.855 149.427M-249.795 128.61H-156.773M-130.34 108.779L-156.773 128.61M-156.773 128.61L-184.519 149.427M-375.19 149.427H-279.855M-375.19 149.427H-400.268M-375.19 149.427L-400.268 165.554M-279.855 149.427L-311.447 171.305M-279.855 149.427H-184.519M-184.519 149.427L-213.681 171.305M-344.69 194.327L-311.447 171.305M-344.69 194.327L-379.72 218.586M-344.69 194.327H-244.367M-344.69 194.327H-400.268M-311.447 171.305H-213.681M-311.447 171.305H-400.268M-213.681 171.305L-244.367 194.327M-400.544 165.731L-400.268 165.554M-379.72 218.586H-276.703M-379.72 218.586H-400.268M-379.72 218.586L-400.268 232.817M-244.367 194.327L-276.703 218.586M-276.703 218.586L-310.823 244.186M-310.823 244.186L-346.88 271.236M-310.823 244.186H-400.268M-385.044 299.87L-346.88 271.236M-385.044 299.87H-400.268M-385.044 299.87L-400.268 311.291M-346.88 271.236H-400.268M-268.247 -94.793L-290.476 -83.6744M-268.247 -94.793H-200.039M-268.247 -94.793H-336.456M-179.779 -105.523L-160.213 -115.885M-179.779 -105.523L-200.039 -94.793M-179.779 -105.523H-112.762M-160.213 -115.885H-94.3483M-160.213 -115.885L-141.31 -125.895M-206.063 -125.895H-141.31M-206.063 -125.895L-186.712 -135.575M-206.063 -125.895H-270.816M-200.039 -94.793L-221.033 -83.6744M-200.039 -94.793H-131.831M-112.762 -105.523L-94.3483 -115.885M-112.762 -105.523L-131.831 -94.793M-94.3483 -115.885L-76.5566 -125.895M-141.31 -125.895H-76.5566M-141.31 -125.895L-123.032 -135.575M-131.831 -94.793L-151.59 -83.6744M-11.8019 -125.895L4.32411 -135.575M-11.8019 -125.895H-76.5566M-76.5566 -125.895L-59.3541 -135.575M-290.476 -83.6744H-221.033M-290.476 -83.6744H-359.919M-242.802 -72.1461L-221.033 -83.6744M-242.802 -72.1461L-265.389 -60.185M-242.802 -72.1461H-172.079M-221.033 -83.6744H-151.59M-359.919 -83.6744L-336.456 -94.793M-359.919 -83.6744H-400.268M-151.59 -83.6744L-172.079 -72.1461M-336.456 -94.793H-400.268M-265.389 -60.185L-288.84 -47.7662M-265.389 -60.185H-193.337M-172.079 -72.1461L-193.337 -60.185M-193.337 -60.185L-215.409 -47.7662M-362.272 -47.7662L-388.072 -34.861M-362.272 -47.7662H-288.84M-362.272 -47.7662H-400.268M-288.84 -47.7662L-313.207 -34.861M-288.84 -47.7662H-215.409M-215.409 -47.7662L-238.342 -34.861M-338.544 -21.4428L-313.207 -34.861M-338.544 -21.4428L-364.911 -7.47958M-338.544 -21.4428H-262.189M-338.544 -21.4428H-400.268M-313.207 -34.861H-388.072M-313.207 -34.861H-238.342M-388.072 -34.861L-400.268 -28.762M-388.072 -34.861H-400.268M-238.342 -34.861L-262.189 -21.4428M-364.911 -7.47958L-392.371 7.06256M-364.911 -7.47958H-287.005M-364.911 -7.47958H-400.268M-262.189 -21.4428L-287.005 -7.47958M-287.005 -7.47958L-312.849 7.06256M-392.371 7.06256H-312.849M-392.371 7.06256L-400.268 11.2437M-392.371 7.06256H-400.268M-312.849 7.06256L-339.788 22.221M-367.892 38.035L-339.788 22.221M-367.892 38.035L-397.239 54.5472M-367.892 38.035H-400.268M-339.788 22.221H-400.268M-400.693 22.221H-400.268M-397.239 54.5472H-400.268M-397.239 54.5472L-400.268 56.2512M-401 56.6633L-400.268 56.2512M-380.827 -105.523L-357.81 -115.885M-380.827 -105.523H-400.268M-380.827 -105.523L-400.268 -96.7728M-357.81 -115.885L-335.57 -125.895M-357.81 -115.885H-400.268M-270.816 -125.895L-250.39 -135.575M-270.816 -125.895H-335.57M-335.57 -125.895L-314.068 -135.575M-335.57 -125.895H-400.268M1851 -135.575H1914.68M1851 -135.575H1787.32M1899.08 -144.937L1902.93 -142.625L1914.68 -135.575M1899.08 -144.937H1961.72M1914.68 -135.575H1978.35M1961.72 -144.937L1965.82 -142.625L1967.89 -141.464L1978.35 -135.575M1978.35 -135.575H2042.03M2042.03 -135.575H2105.71M1787.32 -135.575H1723.64M2105.71 -135.575H2169.39M2169.39 -135.575L2149.63 -144.937M2169.39 -135.575H2233.07M2149.63 -144.937H2212.27M1596.28 -135.575H1659.96M1596.28 -135.575H1532.61M1648.52 -144.937L1651.35 -142.625L1652.77 -141.464L1659.96 -135.575M1648.52 -144.937H1711.16M1659.96 -135.575H1723.64M1711.16 -144.937L1723.64 -135.575M1532.61 -135.575H1468.93M1341.57 -135.575H1405.25M1341.57 -135.575H1277.89M1397.97 -144.937L1398.87 -143.785L1399.77 -142.625L1400.67 -141.464L1405.25 -135.575M1397.97 -144.937H1460.61M1405.25 -135.575H1468.93M1460.61 -144.937L1468.93 -135.575M1277.89 -135.575H1214.21M1086.86 -135.575H1150.53M1086.86 -135.575H1023.18M1147.42 -144.937L1150.53 -135.575M1147.42 -144.937H1210.05M1150.53 -135.575H1214.21M1210.05 -144.937L1210.57 -143.785L1211.08 -142.625L1211.6 -141.464L1214.21 -135.575M1023.18 -135.575H959.5M832.144 -135.575H895.822M832.144 -135.575H768.466M896.862 -144.937L895.822 -135.575M896.862 -144.937H959.5M895.822 -135.575H959.5M959.5 -144.937V-135.575M768.466 -135.575H704.786M577.429 -135.575H641.108M577.429 -135.575H513.751M646.307 -144.937L645.024 -142.625L642.424 -137.946L641.108 -135.575M646.307 -144.937H708.946M641.108 -135.575H704.786M708.946 -144.937L708.433 -143.785L707.919 -142.625L707.402 -141.464L704.786 -135.575M513.751 -135.575H450.073M322.716 -135.575H386.395M322.716 -135.575H259.037M395.754 -144.937L393.443 -142.625L392.28 -141.464L386.395 -135.575M395.754 -144.937H458.393M386.395 -135.575H450.073M458.393 -144.937L457.368 -143.785L450.073 -135.575M259.037 -135.575H195.359M68.0023 -135.575H131.681M68.0023 -135.575H4.32411M145.2 -144.937L141.862 -142.625L140.182 -141.464L131.681 -135.575M145.2 -144.937H207.839M131.681 -135.575H195.359M207.839 -144.937L206.301 -143.785L195.359 -135.575M4.32411 -135.575H-59.3541M-186.712 -135.575H-123.032M-186.712 -135.575H-250.39M-105.354 -144.937L-123.032 -135.575M-105.354 -144.937H-42.7153M-123.032 -135.575H-59.3541M-42.7153 -144.937L-46.823 -142.625L-48.8909 -141.464L-59.3541 -135.575M-250.39 -135.575H-314.068M-355.907 -144.937L-377.747 -135.575M-355.907 -144.937H-293.268M-355.907 -144.937H-400.268M-377.747 -135.575H-314.068M-377.747 -135.575L-400.268 -125.919M-377.747 -135.575H-400.268M-293.268 -144.937L-298.404 -142.625L-314.068 -135.575M2212.27 -144.937L2217.4 -142.625L2233.07 -135.575M2233.07 -135.575H2296.75M2296.75 -135.575L2319.27 -125.919M2296.75 -135.575H2319.27M2319.27 311.291V299.87M2319.27 311.291V330.224M2319.27 299.87V271.236M2319.27 330.224V335.882V362.465M2319.27 362.465V396.768M2319.27 89.8658V71.8075M2319.27 89.8658V107.259M2319.27 -144.937V-135.575M2319.27 -135.575V-125.919M2319.27 -125.919L2319.32 -125.895H2319.27M2319.27 -125.919V-125.895M2319.27 -125.895V-115.885M2319.27 -115.885V-105.523M2319.27 -105.523V-96.7728M2319.27 -96.7728V-94.793M2319.27 -94.793V-83.6744M2319.27 -83.6744V-72.1461M2319.27 -72.1461V-64.5578M2319.27 -64.5578V-60.185M2319.27 -60.185V-47.7662M2319.27 -47.7662V-34.861M2319.27 -34.861V-28.762M2319.27 -28.762V-21.4428M2319.27 -21.4428V-7.47958M2319.27 -7.47958V7.06256M2319.27 7.06256V11.2437M2319.27 11.2437V22.221M2319.27 22.221V38.035M2319.27 38.035V54.5472M2319.27 54.5472V56.2513M2319.27 56.2513V71.8075M2319.27 108.779V128.61M2319.27 108.779V107.259M2319.27 128.61V149.427M2319.27 149.427V165.554M2319.27 165.554V171.305M2319.27 171.305V194.327M2319.27 194.327V218.586M2319.27 218.586V232.817M2319.27 232.817V244.186M2319.27 244.186V271.236M2319.27 396.768V404.033M2319.27 404.033V433.341M2319.27 433.341V472.416M2319.27 472.416V514.26M2319.27 514.26V515.322M2319.27 515.322V559.178M2319.27 559.178V607.519M2319.27 607.519V651.344M2319.27 651.344V659.694M2319.27 659.694V716.174M2319.27 716.174V777.516M2319.27 777.516V821.371M2319.27 821.371V844.377M2319.27 844.377V917.537M2319.27 917.537V997.93M2319.27 997.93V1039.98M2319.27 1039.98V1086.68M2319.27 1086.68V1087H-400.268V1086.68M-400.268 108.779V128.61M-400.268 108.779V107.259M-400.268 107.259V89.8658M-400.268 89.8658V71.8075M-400.268 71.8075V56.2512M-400.268 56.2512V54.5472M-400.268 54.5472V38.035M-400.268 38.035V22.221M-400.268 22.221V11.2437M-400.268 11.2437V7.06256M-400.268 7.06256V-7.47958M-400.268 -7.47958V-21.4428M-400.268 -21.4428V-28.762M-400.268 -28.762V-34.861M-400.268 -34.861V-47.7662M-400.268 -47.7662V-60.185M-400.268 -60.185V-64.5578M-400.268 -64.5578V-72.1461M-400.268 -72.1461V-83.6744M-400.268 -83.6744V-94.793M-400.268 -94.793V-96.7728M-400.268 -96.7728V-105.523M-400.268 -105.523V-115.885M-400.268 -115.885V-125.895M-400.268 -125.895H-400.323L-400.268 -125.919M-400.268 -125.895V-125.919M-400.268 -125.919V-135.575M-400.268 -135.575V-144.937M-400.268 1086.68V1039.98M-400.268 1039.98V997.93M-400.268 997.93V917.538M-400.268 917.538V844.377M-400.268 844.377V821.371M-400.268 821.371V777.516M-400.268 777.516V716.174M-400.268 716.174V659.694M-400.268 659.694V651.344M-400.268 651.344V607.519M-400.268 607.519V559.178M-400.268 559.178V515.322M-400.268 515.322V514.26M-400.268 514.26V472.416M-400.268 472.416V433.341M-400.268 433.341V404.033M-400.268 404.033V396.768M-400.268 396.768V362.465M-400.268 362.465V330.224M-400.268 330.224V311.291M-400.268 311.291V299.87M-400.268 299.87V271.236M-400.268 271.236V244.186M-400.268 244.186V232.817M-400.268 232.817V218.586M-400.268 218.586V194.327M-400.268 194.327V171.305M-400.268 171.305V165.554M-400.268 165.554V149.427M-400.268 149.427V128.61" stroke="url(#paint0_linear_4810_19107)" stroke-width="1.2" stroke-miterlimit="10" stroke-linecap="round" stroke-linejoin="round"/>
<defs>
<linearGradient id="paint0_linear_4810_19107" x1="939.5" y1="-154" x2="960" y2="1777" gradientUnits="userSpaceOnUse">
<stop stop-color="white"/>
<stop offset="1" stop-color="#EF7F1A"/>
</linearGradient>
</defs>
</svg>
