<svg width="48" height="48" viewBox="0 0 48 48" fill="none" xmlns="http://www.w3.org/2000/svg">
<path d="M31.0185 36.0001C30.6952 36.0003 30.3791 35.9045 30.1103 35.7248L24 31.6501L17.8898 35.7233C17.534 35.948 17.1069 36.0311 16.6929 35.9562C16.2788 35.8814 15.9079 35.654 15.6533 35.3191C15.5018 35.1083 15.4025 34.8647 15.3634 34.6081C15.3243 34.3515 15.3465 34.0894 15.4283 33.8431L17.8425 26.6018L12.15 23.4406C11.8235 23.2588 11.5637 22.9772 11.4088 22.6371C11.2539 22.2969 11.2121 21.9161 11.2894 21.5505C11.3668 21.1848 11.5592 20.8535 11.8385 20.6052C12.1178 20.3569 12.4693 20.2045 12.8415 20.1706L19.725 19.5451L22.275 13.1701C22.4129 12.8252 22.6509 12.5297 22.9584 12.3215C23.2659 12.1132 23.6287 12.002 24 12.002C24.3714 12.002 24.7342 12.1132 25.0417 12.3215C25.3491 12.5297 25.5872 12.8252 25.725 13.1701L28.275 19.5451L35.1585 20.1706C35.531 20.2042 35.8828 20.3564 36.1624 20.6047C36.442 20.8531 36.6345 21.1845 36.7118 21.5504C36.7891 21.9163 36.747 22.2973 36.5918 22.6375C36.4365 22.9777 36.1763 23.2592 35.8493 23.4406L30.1575 26.6033L32.5718 33.8446C32.6537 34.0907 32.6761 34.3528 32.6369 34.6092C32.5978 34.8657 32.4983 35.1092 32.3466 35.3197C32.1949 35.5301 31.9954 35.7016 31.7645 35.8199C31.5336 35.9382 31.278 35.9999 31.0185 36.0001ZM24 30.0001C24.1482 30 24.293 30.0439 24.4163 30.1261L30.9413 34.4761C30.9717 34.4932 31.0071 34.4992 31.0415 34.4931C31.0758 34.4869 31.107 34.469 31.1295 34.4423C31.1427 34.4249 31.1513 34.4044 31.1546 34.3828C31.1579 34.3612 31.1557 34.3391 31.1483 34.3186L28.5383 26.4871C28.483 26.3211 28.4875 26.1411 28.5509 25.9782C28.6143 25.8152 28.7327 25.6795 28.8855 25.5946L35.1218 22.1296C35.1685 22.1039 35.2057 22.0639 35.228 22.0155C35.2502 21.967 35.2563 21.9127 35.2453 21.8606C35.2342 21.8084 35.2067 21.7612 35.1668 21.7259C35.1269 21.6906 35.0766 21.6691 35.0235 21.6646L27.6825 21.0001C27.5447 20.9877 27.4129 20.9375 27.3019 20.8549C27.1908 20.7723 27.1048 20.6605 27.0533 20.5321L24.3323 13.7251C24.3005 13.6644 24.2528 13.6136 24.1942 13.5781C24.1356 13.5427 24.0685 13.5239 24 13.5239C23.9316 13.5239 23.8644 13.5427 23.8058 13.5781C23.7473 13.6136 23.6995 13.6644 23.6678 13.7251L20.9468 20.5291C20.8957 20.6581 20.8099 20.7704 20.6988 20.8536C20.5877 20.9367 20.4557 20.9874 20.3175 21.0001L12.9765 21.6676C12.9237 21.6725 12.8738 21.6941 12.8341 21.7294C12.7944 21.7647 12.767 21.8117 12.756 21.8636C12.7449 21.9156 12.7508 21.9697 12.7726 22.018C12.7945 22.0664 12.8312 22.1065 12.8775 22.1326L19.1145 25.5976C19.2674 25.6825 19.3857 25.8182 19.4491 25.9812C19.5126 26.1441 19.517 26.3241 19.4618 26.4901L16.851 34.3193C16.8436 34.3399 16.8414 34.362 16.8447 34.3836C16.848 34.4052 16.8566 34.4256 16.8698 34.4431C16.8923 34.4697 16.9235 34.4877 16.9578 34.4938C16.9922 34.5 17.0276 34.494 17.058 34.4768L23.583 30.1268C23.7064 30.0442 23.8515 30.0001 24 30.0001Z" fill="#111827"/>
<path d="M42.2685 34.5004C41.9451 34.5006 41.629 34.4048 41.3602 34.2251L35.25 30.1504L33.4162 31.3729C33.2507 31.4833 33.0482 31.5234 32.8531 31.4844C32.658 31.4455 32.4864 31.3306 32.376 31.1651C32.2656 30.9996 32.2254 30.797 32.2644 30.602C32.3034 30.4069 32.4182 30.2353 32.5837 30.1249L34.8337 28.6249C34.957 28.5426 35.1018 28.4987 35.25 28.4987C35.3981 28.4987 35.543 28.5426 35.6662 28.6249L42.1912 32.9749C42.2216 32.992 42.2571 32.998 42.2914 32.9919C42.3258 32.9857 42.3569 32.9678 42.3795 32.9411C42.3927 32.9237 42.4013 32.9032 42.4045 32.8816C42.4078 32.86 42.4056 32.8379 42.3982 32.8174L39.7882 24.9874C39.733 24.8214 39.7374 24.6414 39.8009 24.4785C39.8643 24.3155 39.9826 24.1798 40.1355 24.0949L46.3717 20.6299C46.4185 20.6042 46.4557 20.5642 46.4779 20.5158C46.5002 20.4673 46.5062 20.413 46.4952 20.3609C46.4842 20.3087 46.4567 20.2615 46.4168 20.2262C46.3768 20.1909 46.3266 20.1694 46.2735 20.1649L38.9325 19.5004C38.7946 19.488 38.6629 19.4377 38.5518 19.3551C38.4407 19.2725 38.3547 19.1608 38.3032 19.0324L35.5822 12.2254C35.5505 12.1647 35.5027 12.1139 35.4442 12.0784C35.3856 12.043 35.3184 12.0242 35.25 12.0242C35.1815 12.0242 35.1144 12.043 35.0558 12.0784C34.9972 12.1139 34.9495 12.1647 34.9177 12.2254L32.4967 18.2794C32.4601 18.3709 32.4058 18.4542 32.3369 18.5248C32.2681 18.5953 32.186 18.6515 32.0954 18.6903C32.0048 18.7291 31.9074 18.7497 31.8088 18.7508C31.7103 18.752 31.6125 18.7337 31.521 18.6971C31.4295 18.6605 31.3461 18.6062 31.2756 18.5373C31.2051 18.4684 31.1488 18.3864 31.11 18.2957C31.0712 18.2051 31.0507 18.1078 31.0495 18.0092C31.0483 17.9107 31.0666 17.8129 31.1032 17.7214L33.525 11.6681C33.6628 11.3233 33.9009 11.0277 34.2083 10.8195C34.5158 10.6113 34.8786 10.5 35.25 10.5C35.6213 10.5 35.9841 10.6113 36.2916 10.8195C36.5991 11.0277 36.8371 11.3233 36.975 11.6681L39.525 18.0431L46.4085 18.6686C46.7809 18.7022 47.1328 18.8544 47.4123 19.1028C47.6919 19.3511 47.8845 19.6826 47.9618 20.0484C48.039 20.4143 47.997 20.7953 47.8417 21.1356C47.6865 21.4758 47.4262 21.7572 47.0992 21.9386L41.4075 25.1014L43.8217 32.3426C43.9041 32.5889 43.9268 32.8512 43.8878 33.108C43.8489 33.3647 43.7495 33.6085 43.5978 33.8193C43.446 34.0301 43.2464 34.2017 43.0153 34.3202C42.7841 34.4386 42.5282 34.5003 42.2685 34.5004Z" fill="#111827"/>
<path d="M5.73152 34.5001C5.47203 34.5 5.21626 34.4384 4.98527 34.3201C4.75428 34.2019 4.55469 34.0305 4.40293 33.82C4.25118 33.6095 4.1516 33.3659 4.11241 33.1094C4.07323 32.8529 4.09554 32.5908 4.17752 32.3446L6.59177 25.1033L0.900024 21.9406C0.573453 21.7588 0.313693 21.4772 0.15882 21.1371C0.00394633 20.7969 -0.0378946 20.4161 0.0394301 20.0505C0.116755 19.6848 0.309178 19.3535 0.588495 19.1052C0.867811 18.8569 1.21933 18.7045 1.59152 18.6706L8.47502 18.0451L11.025 11.6701C11.1629 11.3253 11.4009 11.0297 11.7084 10.8215C12.0159 10.6132 12.3787 10.502 12.75 10.502C13.1214 10.502 13.4842 10.6132 13.7917 10.8215C14.0991 11.0297 14.3372 11.3253 14.475 11.6701L16.8968 17.7233C16.9708 17.9081 16.9683 18.1147 16.89 18.2977C16.8116 18.4807 16.6638 18.6251 16.479 18.6991C16.2942 18.7731 16.0876 18.7706 15.9046 18.6923C15.7216 18.6139 15.5773 18.4661 15.5033 18.2813L13.0823 12.2251C13.0505 12.1644 13.0028 12.1136 12.9442 12.0781C12.8856 12.0427 12.8185 12.0239 12.75 12.0239C12.6816 12.0239 12.6144 12.0427 12.5558 12.0781C12.4973 12.1136 12.4495 12.1644 12.4178 12.2251L9.69677 19.0291C9.64573 19.1581 9.55988 19.2704 9.44879 19.3536C9.3377 19.4367 9.20572 19.4874 9.06752 19.5001L1.72652 20.1676C1.67366 20.1725 1.62375 20.1941 1.58408 20.2294C1.5444 20.2647 1.51704 20.3117 1.50598 20.3636C1.49493 20.4156 1.50076 20.4697 1.52262 20.518C1.54449 20.5664 1.58124 20.6065 1.62752 20.6326L7.86452 24.0976C8.01737 24.1825 8.13574 24.3182 8.19914 24.4812C8.26255 24.6441 8.26702 24.8241 8.21177 24.9901L5.60102 32.8193C5.5936 32.8399 5.59142 32.862 5.5947 32.8836C5.59797 32.9052 5.60659 32.9256 5.61977 32.9431C5.64232 32.9697 5.67346 32.9877 5.70782 32.9938C5.74219 33 5.77762 32.994 5.80802 32.9768L12.333 28.6268C12.4563 28.5446 12.6011 28.5007 12.7493 28.5007C12.8974 28.5007 13.0423 28.5446 13.1655 28.6268L15.4155 30.1268C15.4975 30.1815 15.5678 30.2517 15.6226 30.3336C15.6774 30.4155 15.7156 30.5073 15.7348 30.6039C15.7541 30.7005 15.7542 30.8 15.7351 30.8966C15.7159 30.9932 15.6779 31.0851 15.6233 31.1671C15.5686 31.249 15.4983 31.3194 15.4165 31.3742C15.3346 31.429 15.2428 31.4671 15.1462 31.4864C15.0496 31.5057 14.9501 31.5057 14.8535 31.4866C14.7569 31.4675 14.665 31.4295 14.583 31.3748L12.75 30.1501L6.63977 34.2248C6.37095 34.4045 6.05485 34.5003 5.73152 34.5001Z" fill="#111827"/>
<path d="M24 6C23.8011 6 23.6103 5.92098 23.4697 5.78033C23.329 5.63968 23.25 5.44891 23.25 5.25V2.25C23.25 2.05109 23.329 1.86032 23.4697 1.71967C23.6103 1.57902 23.8011 1.5 24 1.5C24.1989 1.5 24.3897 1.57902 24.5303 1.71967C24.671 1.86032 24.75 2.05109 24.75 2.25V5.25C24.75 5.44891 24.671 5.63968 24.5303 5.78033C24.3897 5.92098 24.1989 6 24 6Z" fill="#111827"/>
<path d="M17.25 9.00067C17.0511 9.00063 16.8604 8.92159 16.7198 8.78092L14.4548 6.51517C14.3182 6.37372 14.2426 6.18427 14.2443 5.98762C14.246 5.79098 14.3249 5.60287 14.4639 5.46381C14.603 5.32475 14.7911 5.24588 14.9877 5.24417C15.1844 5.24246 15.3738 5.31806 15.5153 5.45467L17.7803 7.72042C17.8852 7.82531 17.9566 7.95894 17.9855 8.1044C18.0144 8.24987 17.9996 8.40064 17.9428 8.53767C17.8861 8.67469 17.7899 8.79181 17.6666 8.87423C17.5433 8.95664 17.3984 9.00064 17.25 9.00067Z" fill="#111827"/>
<path d="M30.75 9.00067C30.6016 9.00064 30.4567 8.95664 30.3334 8.87423C30.2101 8.79181 30.114 8.67469 30.0572 8.53767C30.0005 8.40064 29.9856 8.24987 30.0145 8.1044C30.0435 7.95894 30.1149 7.82531 30.2197 7.72042L32.4847 5.45467C32.6262 5.31806 32.8156 5.24246 33.0123 5.24417C33.2089 5.24588 33.397 5.32475 33.5361 5.46381C33.6751 5.60287 33.754 5.79098 33.7557 5.98762C33.7574 6.18427 33.6818 6.37372 33.5452 6.51517L31.2802 8.78092C31.1396 8.92159 30.9489 9.00063 30.75 9.00067Z" fill="#111827"/>
<path d="M24 46.5C23.8011 46.5 23.6103 46.421 23.4697 46.2803C23.329 46.1397 23.25 45.9489 23.25 45.75V42.75C23.25 42.5511 23.329 42.3603 23.4697 42.2197C23.6103 42.079 23.8011 42 24 42C24.1989 42 24.3897 42.079 24.5303 42.2197C24.671 42.3603 24.75 42.5511 24.75 42.75V45.75C24.75 45.9489 24.671 46.1397 24.5303 46.2803C24.3897 46.421 24.1989 46.5 24 46.5Z" fill="#111827"/>
<path d="M14.985 42.7659C14.8366 42.766 14.6915 42.7221 14.5681 42.6398C14.4447 42.5574 14.3484 42.4403 14.2916 42.3032C14.2348 42.1662 14.2198 42.0153 14.2487 41.8698C14.2776 41.7243 14.3491 41.5906 14.454 41.4857L16.719 39.2199C16.8596 39.0792 17.0504 39.0001 17.2493 39C17.4483 38.9999 17.6391 39.0789 17.7798 39.2195C17.9206 39.3602 17.9997 39.5509 17.9997 39.7499C17.9998 39.9488 17.9208 40.1397 17.7802 40.2804L15.5152 42.5469C15.3745 42.6873 15.1838 42.7661 14.985 42.7659Z" fill="#111827"/>
<path d="M33.015 42.7659C32.8162 42.7661 32.6255 42.6873 32.4848 42.5469L30.2198 40.2804C30.0791 40.1397 30.0002 39.9488 30.0002 39.7499C30.0003 39.5509 30.0794 39.3602 30.2201 39.2195C30.3609 39.0789 30.5517 38.9999 30.7507 39C30.9496 39.0001 31.1404 39.0792 31.281 39.2199L33.546 41.4857C33.6509 41.5906 33.7223 41.7243 33.7512 41.8698C33.7801 42.0153 33.7652 42.1662 33.7084 42.3032C33.6515 42.4403 33.5553 42.5574 33.4319 42.6398C33.3085 42.7221 33.1634 42.766 33.015 42.7659Z" fill="#111827"/>
</svg>
