<svg width="121" height="77" viewBox="0 0 121 77" fill="none" xmlns="http://www.w3.org/2000/svg">
<path d="M116.725 2.1358C116.725 3.31537 117.682 4.2716 118.862 4.2716C120.043 4.2716 121 3.31537 121 2.1358C121 0.956232 120.043 2.79338e-06 118.862 2.74178e-06C117.682 2.69017e-06 116.725 0.956231 116.725 2.1358Z" fill="#EF7F1A"/>
<path d="M116.725 23.0249C116.725 24.2045 117.682 25.1607 118.862 25.1607C120.043 25.1607 121 24.2045 121 23.0249C121 21.8454 120.043 20.8891 118.862 20.8891C117.682 20.8891 116.725 21.8454 116.725 23.0249Z" fill="#EF7F1A"/>
<path d="M116.725 43.9141C116.725 45.0936 117.682 46.0499 118.862 46.0499C120.043 46.0499 121 45.0936 121 43.9141C121 42.7345 120.043 41.7783 118.862 41.7783C117.682 41.7783 116.725 42.7345 116.725 43.9141Z" fill="#EF7F1A"/>
<path d="M116.725 64.8032C116.725 65.9828 117.682 66.939 118.862 66.939C120.043 66.939 121 65.9828 121 64.8032C121 63.6236 120.043 62.6674 118.862 62.6674C117.682 62.6674 116.725 63.6236 116.725 64.8032Z" fill="#EF7F1A"/>
<path d="M116.725 85.6663C116.725 86.8459 117.682 87.8021 118.862 87.8021C120.043 87.8021 121 86.8459 121 85.6663C121 84.4867 120.043 83.5305 118.862 83.5305C117.682 83.5305 116.725 84.4867 116.725 85.6663Z" fill="#EF7F1A"/>
<path d="M116.725 106.555C116.725 107.735 117.682 108.691 118.862 108.691C120.043 108.691 121 107.735 121 106.555C121 105.376 120.043 104.42 118.862 104.42C117.682 104.42 116.725 105.376 116.725 106.555Z" fill="#EF7F1A"/>
<path d="M116.725 127.445C116.725 128.624 117.682 129.58 118.862 129.58C120.043 129.58 121 128.624 121 127.445C121 126.265 120.043 125.309 118.862 125.309C117.682 125.309 116.725 126.265 116.725 127.445Z" fill="#EF7F1A"/>
<path d="M116.725 148.334C116.725 149.513 117.682 150.469 118.862 150.469C120.043 150.469 121 149.513 121 148.334C121 147.154 120.043 146.198 118.862 146.198C117.682 146.198 116.725 147.154 116.725 148.334Z" fill="#EF7F1A"/>
<path d="M95.8164 2.1358C95.8164 3.31537 96.7734 4.2716 97.9541 4.2716C99.1347 4.2716 100.092 3.31537 100.092 2.1358C100.092 0.956231 99.1347 1.87946e-06 97.9541 1.82785e-06C96.7734 1.77624e-06 95.8164 0.95623 95.8164 2.1358Z" fill="#EF7F1A"/>
<path d="M95.8164 23.0249C95.8164 24.2045 96.7734 25.1607 97.9541 25.1607C99.1347 25.1607 100.092 24.2045 100.092 23.0249C100.092 21.8454 99.1347 20.8891 97.9541 20.8891C96.7734 20.8891 95.8164 21.8454 95.8164 23.0249Z" fill="#EF7F1A"/>
<path d="M95.8163 43.9141C95.8163 45.0936 96.7734 46.0499 97.9541 46.0499C99.1347 46.0499 100.092 45.0936 100.092 43.9141C100.092 42.7345 99.1347 41.7783 97.9541 41.7783C96.7734 41.7783 95.8163 42.7345 95.8163 43.9141Z" fill="#EF7F1A"/>
<path d="M95.8163 64.8032C95.8163 65.9828 96.7734 66.939 97.9541 66.939C99.1347 66.939 100.092 65.9828 100.092 64.8032C100.092 63.6236 99.1347 62.6674 97.9541 62.6674C96.7734 62.6674 95.8163 63.6236 95.8163 64.8032Z" fill="#EF7F1A"/>
<path d="M95.8163 85.6663C95.8163 86.8459 96.7734 87.8021 97.9541 87.8021C99.1347 87.8021 100.092 86.8459 100.092 85.6663C100.092 84.4867 99.1347 83.5305 97.9541 83.5305C96.7734 83.5305 95.8163 84.4867 95.8163 85.6663Z" fill="#EF7F1A"/>
<path d="M95.8163 106.555C95.8163 107.735 96.7734 108.691 97.9541 108.691C99.1347 108.691 100.092 107.735 100.092 106.555C100.092 105.376 99.1347 104.42 97.9541 104.42C96.7734 104.42 95.8163 105.376 95.8163 106.555Z" fill="#EF7F1A"/>
<path d="M95.8163 127.445C95.8163 128.624 96.7734 129.58 97.9541 129.58C99.1347 129.58 100.092 128.624 100.092 127.445C100.092 126.265 99.1347 125.309 97.9541 125.309C96.7734 125.309 95.8163 126.265 95.8163 127.445Z" fill="#EF7F1A"/>
<path d="M95.8163 148.334C95.8163 149.513 96.7734 150.469 97.9541 150.469C99.1347 150.469 100.092 149.513 100.092 148.334C100.092 147.154 99.1347 146.198 97.9541 146.198C96.7734 146.198 95.8163 147.154 95.8163 148.334Z" fill="#EF7F1A"/>
<path d="M74.9082 2.1358C74.9082 3.31537 75.8653 4.27159 77.0459 4.27159C78.2266 4.27159 79.1837 3.31537 79.1837 2.1358C79.1837 0.95623 78.2266 9.65532e-07 77.0459 9.13925e-07C75.8653 8.62317e-07 74.9082 0.956229 74.9082 2.1358Z" fill="#EF7F1A"/>
<path d="M74.9082 23.0249C74.9082 24.2045 75.8653 25.1607 77.0459 25.1607C78.2266 25.1607 79.1837 24.2045 79.1837 23.0249C79.1837 21.8454 78.2266 20.8891 77.0459 20.8891C75.8653 20.8891 74.9082 21.8454 74.9082 23.0249Z" fill="#EF7F1A"/>
<path d="M74.9082 43.9141C74.9082 45.0936 75.8653 46.0499 77.0459 46.0499C78.2266 46.0499 79.1837 45.0936 79.1837 43.9141C79.1837 42.7345 78.2266 41.7783 77.0459 41.7783C75.8653 41.7783 74.9082 42.7345 74.9082 43.9141Z" fill="#EF7F1A"/>
<path d="M74.9082 64.8032C74.9082 65.9828 75.8653 66.939 77.0459 66.939C78.2266 66.939 79.1837 65.9828 79.1837 64.8032C79.1837 63.6236 78.2266 62.6674 77.0459 62.6674C75.8653 62.6674 74.9082 63.6236 74.9082 64.8032Z" fill="#EF7F1A"/>
<path d="M74.9082 85.6663C74.9082 86.8459 75.8653 87.8021 77.0459 87.8021C78.2266 87.8021 79.1837 86.8459 79.1837 85.6663C79.1837 84.4867 78.2266 83.5305 77.0459 83.5305C75.8653 83.5305 74.9082 84.4867 74.9082 85.6663Z" fill="#EF7F1A"/>
<path d="M74.9082 106.555C74.9082 107.735 75.8653 108.691 77.0459 108.691C78.2266 108.691 79.1837 107.735 79.1837 106.555C79.1837 105.376 78.2266 104.42 77.0459 104.42C75.8653 104.42 74.9082 105.376 74.9082 106.555Z" fill="#EF7F1A"/>
<path d="M74.9082 127.445C74.9082 128.624 75.8653 129.58 77.0459 129.58C78.2266 129.58 79.1837 128.624 79.1837 127.445C79.1837 126.265 78.2266 125.309 77.0459 125.309C75.8653 125.309 74.9082 126.265 74.9082 127.445Z" fill="#EF7F1A"/>
<path d="M74.9082 148.334C74.9082 149.513 75.8653 150.469 77.0459 150.469C78.2266 150.469 79.1837 149.513 79.1837 148.334C79.1837 147.154 78.2266 146.198 77.0459 146.198C75.8653 146.198 74.9082 147.154 74.9082 148.334Z" fill="#EF7F1A"/>
<path d="M54 2.1358C54 3.31536 54.9571 4.27159 56.1377 4.27159C57.3184 4.27159 58.2755 3.31536 58.2755 2.1358C58.2755 0.956229 57.3184 5.16075e-08 56.1377 0C54.9571 -5.16075e-08 54 0.956229 54 2.1358Z" fill="#EF7F1A"/>
<path d="M54 23.0249C54 24.2045 54.9571 25.1607 56.1377 25.1607C57.3184 25.1607 58.2755 24.2045 58.2755 23.0249C58.2755 21.8454 57.3184 20.8891 56.1377 20.8891C54.9571 20.8891 54 21.8454 54 23.0249Z" fill="#EF7F1A"/>
<path d="M54 43.9141C54 45.0936 54.9571 46.0499 56.1377 46.0499C57.3184 46.0499 58.2755 45.0936 58.2755 43.9141C58.2755 42.7345 57.3184 41.7783 56.1377 41.7783C54.9571 41.7783 54 42.7345 54 43.9141Z" fill="#EF7F1A"/>
<path d="M54 64.8032C54 65.9828 54.9571 66.939 56.1377 66.939C57.3184 66.939 58.2755 65.9828 58.2755 64.8032C58.2755 63.6236 57.3184 62.6674 56.1377 62.6674C54.9571 62.6674 54 63.6236 54 64.8032Z" fill="#EF7F1A"/>
<path d="M54 85.6663C54 86.8459 54.9571 87.8021 56.1377 87.8021C57.3184 87.8021 58.2755 86.8459 58.2755 85.6663C58.2755 84.4867 57.3184 83.5305 56.1377 83.5305C54.9571 83.5305 54 84.4867 54 85.6663Z" fill="#EF7F1A"/>
<path d="M54 106.555C54 107.735 54.9571 108.691 56.1377 108.691C57.3184 108.691 58.2755 107.735 58.2755 106.555C58.2755 105.376 57.3184 104.42 56.1377 104.42C54.9571 104.42 54 105.376 54 106.555Z" fill="#EF7F1A"/>
<path d="M54 127.445C54 128.624 54.9571 129.58 56.1377 129.58C57.3184 129.58 58.2755 128.624 58.2755 127.445C58.2755 126.265 57.3184 125.309 56.1377 125.309C54.9571 125.309 54 126.265 54 127.445Z" fill="#EF7F1A"/>
<path d="M54 148.334C54 149.513 54.9571 150.469 56.1377 150.469C57.3184 150.469 58.2755 149.513 58.2755 148.334C58.2755 147.154 57.3184 146.198 56.1377 146.198C54.9571 146.198 54 147.154 54 148.334Z" fill="#EF7F1A"/>
<path d="M31.7245 2.1358C31.7245 3.31537 32.6816 4.2716 33.8623 4.2716C35.0429 4.2716 36 3.31537 36 2.1358C36 0.956232 35.0429 2.79338e-06 33.8623 2.74178e-06C32.6816 2.69017e-06 31.7245 0.956231 31.7245 2.1358Z" fill="#EF7F1A"/>
<path d="M31.7245 23.0249C31.7245 24.2045 32.6816 25.1607 33.8623 25.1607C35.0429 25.1607 36 24.2045 36 23.0249C36 21.8454 35.0429 20.8891 33.8623 20.8891C32.6816 20.8891 31.7245 21.8454 31.7245 23.0249Z" fill="#EF7F1A"/>
<path d="M31.7245 43.9141C31.7245 45.0936 32.6816 46.0499 33.8623 46.0499C35.0429 46.0499 36 45.0936 36 43.9141C36 42.7345 35.0429 41.7783 33.8623 41.7783C32.6816 41.7783 31.7245 42.7345 31.7245 43.9141Z" fill="#EF7F1A"/>
<path d="M31.7245 64.8032C31.7245 65.9828 32.6816 66.939 33.8623 66.939C35.0429 66.939 36 65.9828 36 64.8032C36 63.6236 35.0429 62.6674 33.8623 62.6674C32.6816 62.6674 31.7245 63.6236 31.7245 64.8032Z" fill="#EF7F1A"/>
<path d="M31.7245 85.6663C31.7245 86.8459 32.6816 87.8021 33.8623 87.8021C35.0429 87.8021 36 86.8459 36 85.6663C36 84.4867 35.0429 83.5305 33.8623 83.5305C32.6816 83.5305 31.7245 84.4867 31.7245 85.6663Z" fill="#EF7F1A"/>
<path d="M31.7245 106.555C31.7245 107.735 32.6816 108.691 33.8623 108.691C35.0429 108.691 36 107.735 36 106.555C36 105.376 35.0429 104.42 33.8623 104.42C32.6816 104.42 31.7245 105.376 31.7245 106.555Z" fill="#EF7F1A"/>
<path d="M31.7245 127.445C31.7245 128.624 32.6816 129.58 33.8623 129.58C35.0429 129.58 36 128.624 36 127.445C36 126.265 35.0429 125.309 33.8623 125.309C32.6816 125.309 31.7245 126.265 31.7245 127.445Z" fill="#EF7F1A"/>
<path d="M31.7245 148.334C31.7245 149.513 32.6816 150.469 33.8623 150.469C35.0429 150.469 36 149.513 36 148.334C36 147.154 35.0429 146.198 33.8623 146.198C32.6816 146.198 31.7245 147.154 31.7245 148.334Z" fill="#EF7F1A"/>
<path d="M10.8163 2.1358C10.8163 3.31537 11.7734 4.2716 12.9541 4.2716C14.1347 4.2716 15.0918 3.31537 15.0918 2.1358C15.0918 0.956231 14.1347 1.87946e-06 12.9541 1.82785e-06C11.7734 1.77624e-06 10.8163 0.95623 10.8163 2.1358Z" fill="#EF7F1A"/>
<path d="M10.8163 23.0249C10.8163 24.2045 11.7734 25.1607 12.9541 25.1607C14.1347 25.1607 15.0918 24.2045 15.0918 23.0249C15.0918 21.8454 14.1347 20.8891 12.9541 20.8891C11.7734 20.8891 10.8163 21.8454 10.8163 23.0249Z" fill="#EF7F1A"/>
<path d="M10.8163 43.9141C10.8163 45.0936 11.7734 46.0499 12.9541 46.0499C14.1347 46.0499 15.0918 45.0936 15.0918 43.9141C15.0918 42.7345 14.1347 41.7783 12.9541 41.7783C11.7734 41.7783 10.8163 42.7345 10.8163 43.9141Z" fill="#EF7F1A"/>
<path d="M10.8163 64.8032C10.8163 65.9828 11.7734 66.939 12.9541 66.939C14.1347 66.939 15.0918 65.9828 15.0918 64.8032C15.0918 63.6236 14.1347 62.6674 12.9541 62.6674C11.7734 62.6674 10.8163 63.6236 10.8163 64.8032Z" fill="#EF7F1A"/>
<path d="M10.8163 85.6663C10.8163 86.8459 11.7734 87.8021 12.9541 87.8021C14.1347 87.8021 15.0918 86.8459 15.0918 85.6663C15.0918 84.4867 14.1347 83.5305 12.9541 83.5305C11.7734 83.5305 10.8163 84.4867 10.8163 85.6663Z" fill="#EF7F1A"/>
<path d="M10.8163 106.555C10.8163 107.735 11.7734 108.691 12.9541 108.691C14.1347 108.691 15.0918 107.735 15.0918 106.555C15.0918 105.376 14.1347 104.42 12.9541 104.42C11.7734 104.42 10.8163 105.376 10.8163 106.555Z" fill="#EF7F1A"/>
<path d="M10.8163 127.445C10.8163 128.624 11.7734 129.58 12.9541 129.58C14.1347 129.58 15.0918 128.624 15.0918 127.445C15.0918 126.265 14.1347 125.309 12.9541 125.309C11.7734 125.309 10.8163 126.265 10.8163 127.445Z" fill="#EF7F1A"/>
<path d="M10.8163 148.334C10.8163 149.513 11.7734 150.469 12.9541 150.469C14.1347 150.469 15.0918 149.513 15.0918 148.334C15.0918 147.154 14.1347 146.198 12.9541 146.198C11.7734 146.198 10.8163 147.154 10.8163 148.334Z" fill="#EF7F1A"/>
<path d="M-10.0918 2.1358C-10.0918 3.31537 -9.13473 4.27159 -7.95408 4.27159C-6.77344 4.27159 -5.81634 3.31537 -5.81634 2.1358C-5.81634 0.95623 -6.77344 9.65532e-07 -7.95408 9.13925e-07C-9.13473 8.62317e-07 -10.0918 0.956229 -10.0918 2.1358Z" fill="#EF7F1A"/>
<path d="M-10.0918 23.0249C-10.0918 24.2045 -9.13473 25.1607 -7.95408 25.1607C-6.77344 25.1607 -5.81634 24.2045 -5.81634 23.0249C-5.81634 21.8454 -6.77344 20.8891 -7.95408 20.8891C-9.13473 20.8891 -10.0918 21.8454 -10.0918 23.0249Z" fill="#EF7F1A"/>
<path d="M-10.0918 43.9141C-10.0918 45.0936 -9.13473 46.0499 -7.95408 46.0499C-6.77344 46.0499 -5.81634 45.0936 -5.81634 43.9141C-5.81634 42.7345 -6.77344 41.7783 -7.95408 41.7783C-9.13473 41.7783 -10.0918 42.7345 -10.0918 43.9141Z" fill="#EF7F1A"/>
<path d="M-10.0918 64.8032C-10.0918 65.9828 -9.13473 66.939 -7.95408 66.939C-6.77344 66.939 -5.81634 65.9828 -5.81634 64.8032C-5.81634 63.6236 -6.77344 62.6674 -7.95408 62.6674C-9.13473 62.6674 -10.0918 63.6236 -10.0918 64.8032Z" fill="#EF7F1A"/>
<path d="M-10.0918 85.6663C-10.0918 86.8459 -9.13473 87.8021 -7.95409 87.8021C-6.77344 87.8021 -5.81634 86.8459 -5.81634 85.6663C-5.81634 84.4867 -6.77344 83.5305 -7.95409 83.5305C-9.13473 83.5305 -10.0918 84.4867 -10.0918 85.6663Z" fill="#EF7F1A"/>
<path d="M-10.0918 106.555C-10.0918 107.735 -9.13473 108.691 -7.95409 108.691C-6.77344 108.691 -5.81634 107.735 -5.81634 106.555C-5.81634 105.376 -6.77344 104.42 -7.95409 104.42C-9.13473 104.42 -10.0918 105.376 -10.0918 106.555Z" fill="#EF7F1A"/>
<path d="M-10.0918 127.445C-10.0918 128.624 -9.13473 129.58 -7.95409 129.58C-6.77345 129.58 -5.81634 128.624 -5.81634 127.445C-5.81634 126.265 -6.77345 125.309 -7.95409 125.309C-9.13473 125.309 -10.0918 126.265 -10.0918 127.445Z" fill="#EF7F1A"/>
<path d="M-10.0918 148.334C-10.0918 149.513 -9.13473 150.469 -7.95409 150.469C-6.77345 150.469 -5.81634 149.513 -5.81634 148.334C-5.81634 147.154 -6.77345 146.198 -7.95409 146.198C-9.13473 146.198 -10.0918 147.154 -10.0918 148.334Z" fill="#EF7F1A"/>
<path d="M-31 2.1358C-31 3.31536 -30.0429 4.27159 -28.8623 4.27159C-27.6816 4.27159 -26.7245 3.31536 -26.7245 2.1358C-26.7245 0.956229 -27.6816 5.16075e-08 -28.8623 0C-30.0429 -5.16075e-08 -31 0.956229 -31 2.1358Z" fill="#EF7F1A"/>
<path d="M-31 23.0249C-31 24.2045 -30.0429 25.1607 -28.8623 25.1607C-27.6816 25.1607 -26.7245 24.2045 -26.7245 23.0249C-26.7245 21.8454 -27.6816 20.8891 -28.8623 20.8891C-30.0429 20.8891 -31 21.8454 -31 23.0249Z" fill="#EF7F1A"/>
<path d="M-31 43.9141C-31 45.0936 -30.0429 46.0499 -28.8623 46.0499C-27.6816 46.0499 -26.7245 45.0936 -26.7245 43.9141C-26.7245 42.7345 -27.6816 41.7783 -28.8623 41.7783C-30.0429 41.7783 -31 42.7345 -31 43.9141Z" fill="#EF7F1A"/>
<path d="M-31 64.8032C-31 65.9828 -30.0429 66.939 -28.8623 66.939C-27.6816 66.939 -26.7245 65.9828 -26.7245 64.8032C-26.7245 63.6236 -27.6816 62.6674 -28.8623 62.6674C-30.0429 62.6674 -31 63.6236 -31 64.8032Z" fill="#EF7F1A"/>
<path d="M-31 85.6663C-31 86.8459 -30.0429 87.8021 -28.8623 87.8021C-27.6816 87.8021 -26.7245 86.8459 -26.7245 85.6663C-26.7245 84.4867 -27.6816 83.5305 -28.8623 83.5305C-30.0429 83.5305 -31 84.4867 -31 85.6663Z" fill="#EF7F1A"/>
<path d="M-31 106.555C-31 107.735 -30.0429 108.691 -28.8623 108.691C-27.6816 108.691 -26.7245 107.735 -26.7245 106.555C-26.7245 105.376 -27.6816 104.42 -28.8623 104.42C-30.0429 104.42 -31 105.376 -31 106.555Z" fill="#EF7F1A"/>
<path d="M-31 127.445C-31 128.624 -30.0429 129.58 -28.8623 129.58C-27.6816 129.58 -26.7245 128.624 -26.7245 127.445C-26.7245 126.265 -27.6816 125.309 -28.8623 125.309C-30.0429 125.309 -31 126.265 -31 127.445Z" fill="#EF7F1A"/>
<path d="M-31 148.334C-31 149.513 -30.0429 150.469 -28.8623 150.469C-27.6816 150.469 -26.7245 149.513 -26.7245 148.334C-26.7245 147.154 -27.6816 146.198 -28.8623 146.198C-30.0429 146.198 -31 147.154 -31 148.334Z" fill="#EF7F1A"/>
</svg>
