<svg width="666" height="1976" viewBox="0 0 666 1976" fill="none" xmlns="http://www.w3.org/2000/svg">
<mask id="mask0_4600_44574" style="mask-type:alpha" maskUnits="userSpaceOnUse" x="0" y="0" width="1500" height="1976">
<ellipse cx="750" cy="988" rx="750" ry="988" fill="url(#paint0_radial_4600_44574)"/>
</mask>
<g mask="url(#mask0_4600_44574)">
<path fill-rule="evenodd" clip-rule="evenodd" d="M712.008 111.368C703.46 111.198 695.504 115.692 691.268 123.117C689.357 126.477 688.303 130.311 688.226 134.197L687.883 152.562C683.798 154.661 680.322 157.914 677.986 162.001C675.851 165.763 674.773 170.036 674.87 174.395L675.252 190.919C670.883 193.059 667.187 196.482 664.685 200.858L664.692 200.845C662.313 205.016 661.21 209.76 661.507 214.573L662.434 229.379C657.833 231.585 653.934 235.155 651.345 239.695L651.331 239.688C648.722 244.275 647.613 249.484 648.138 254.765L649.443 267.839C644.679 270.097 640.682 273.773 637.984 278.505C635.117 283.528 634.016 289.208 634.788 294.95L636.329 306.369C631.448 308.707 627.348 312.483 624.59 317.314C621.527 322.687 620.399 329.005 621.426 335.128L623.074 344.926C618.123 347.347 613.957 351.212 611.177 356.097C607.863 361.892 606.763 368.709 608.07 375.294L609.715 383.525C604.745 386.035 600.554 389.972 597.744 394.886C594.179 401.137 593.113 408.439 594.727 415.465L596.259 422.133C591.286 424.711 587.157 428.664 584.304 433.655L584.311 433.642C580.482 440.341 579.437 448.155 581.372 455.631L582.704 460.791C577.779 463.453 573.684 467.435 570.838 472.411C566.758 479.566 565.761 487.872 568.016 495.796L569.067 499.48C564.219 502.228 560.179 506.232 557.359 511.16C553.082 518.664 552.09 527.708 554.66 535.961L555.359 538.209C550.609 541.026 546.64 545.036 543.866 549.902C539.319 557.869 538.393 567.431 541.311 576.113L541.601 576.977C536.966 579.86 533.085 583.862 530.354 588.65L530.367 588.657C525.642 596.921 524.717 606.784 527.782 615.784C523.295 618.718 519.527 622.689 516.848 627.386C512.104 635.699 511.084 645.504 513.965 654.563C509.603 657.521 505.984 661.424 503.316 666.107C498.546 674.483 497.431 684.244 500.136 693.373C495.914 696.367 492.4 700.238 489.784 704.829L489.778 704.809C484.965 713.25 483.774 722.991 486.309 732.172C482.213 735.189 478.794 739.03 476.226 743.537L476.239 743.544C471.465 751.895 470.188 761.785 472.512 770.985C468.539 774.03 465.207 777.838 462.681 782.252L462.667 782.245C457.881 790.655 456.518 800.534 458.694 809.8C454.835 812.855 451.593 816.624 449.122 820.96C444.284 829.429 442.854 839.283 444.893 848.602C441.142 851.667 437.978 855.402 435.55 859.661L435.537 859.654C430.671 868.185 429.169 878.049 431.078 887.427C427.438 890.496 424.359 894.185 421.979 898.362C417.076 906.95 415.493 916.808 417.268 926.234C413.731 929.306 410.723 932.959 408.374 937.063L408.38 937.05C401.203 949.644 400.978 964.794 407.775 977.592L1009.31 2110.61C1014.58 2120.54 1023.4 2127.84 1034.16 2131.15C1044.91 2134.48 1056.29 2133.42 1066.22 2128.17L2199.39 1530.05C2206.45 1526.32 2212.27 1520.69 2216.22 1513.79C2223.4 1501.21 2223.64 1486.05 2216.84 1473.25L1615.3 340.231C1612.27 334.516 1608.06 329.673 1602.97 325.958C1600.4 322.361 1597.29 319.232 1593.75 316.662C1591.16 313.016 1588.02 309.903 1584.52 307.38C1581.98 303.75 1578.86 300.604 1575.28 298.049C1572.76 294.424 1569.66 291.287 1566.08 288.751C1563.56 285.083 1560.44 281.97 1556.92 279.487C1554.43 275.791 1551.28 272.604 1547.62 270.068C1545.19 266.441 1542.11 263.315 1538.52 260.826C1536.08 257.124 1532.95 253.944 1529.28 251.438C1526.88 247.765 1523.78 244.611 1520.12 242.134C1517.7 238.372 1514.56 235.215 1510.96 232.792C1508.57 229.015 1505.43 225.85 1501.81 223.439C1499.49 219.699 1496.38 216.499 1492.64 214.04C1490.31 210.249 1487.18 207.08 1483.55 204.707C1481.3 200.934 1478.2 197.707 1474.4 195.266C1472.29 191.684 1469.39 188.596 1465.83 186.22C1465.64 186.094 1465.46 185.97 1465.26 185.85C1463.04 182 1459.9 178.789 1456.2 176.46C1454.01 172.575 1450.87 169.337 1447.13 167.016C1444.98 163.11 1441.84 159.853 1438.08 157.548C1435.97 153.633 1432.84 150.364 1429.07 148.077C1427 144.147 1423.88 140.86 1420.09 138.587C1416.29 131.157 1408.62 125.985 1399.72 125.796L712.008 111.368ZM1414.37 136.1C1410.79 131.961 1405.53 129.291 1399.64 129.163L711.956 114.749C704.637 114.593 697.831 118.442 694.212 124.798C692.572 127.663 691.671 130.941 691.613 134.268L691.297 151.126C693.539 150.38 695.903 149.96 698.318 149.909L1407.24 135.175C1409.71 135.123 1412.11 135.45 1414.37 136.1ZM691.23 154.703C693.471 153.823 695.891 153.331 698.406 153.278L1407.3 138.517C1410.98 138.445 1414.45 139.338 1417.48 140.963C1418.01 142.128 1418.43 143.351 1418.73 144.618C1417.43 144.489 1416.1 144.46 1414.76 144.54L690.604 188.097L691.23 154.703ZM687.81 156.436C685.013 158.203 682.641 160.66 680.917 163.675C679.073 166.903 678.148 170.586 678.225 174.333L678.578 189.583C680.518 188.964 682.551 188.58 684.642 188.456L687.214 188.301L687.81 156.436ZM687.151 191.668L684.856 191.806C682.704 191.935 680.62 192.381 678.66 193.111L679.426 226.18L686.519 225.49L687.151 191.668ZM686.456 228.862L679.504 229.538L680.267 262.497L685.841 261.759L686.456 228.862ZM689.231 261.31L689.846 228.532L1419.09 157.603L1418.96 164.717L689.231 261.31ZM685.777 265.159L680.345 265.878L681.086 297.869L685.178 297.192L685.777 265.159ZM688.569 296.63L689.168 264.71L1418.89 168.126L1418.75 175.733L688.569 296.63ZM685.114 300.614L681.165 301.268L681.886 332.385L684.53 331.864L685.114 300.614ZM687.921 331.196L688.505 300.052L1418.69 179.155L1418.54 187.229L687.921 331.196ZM684.465 335.302L681.965 335.795L682.667 366.099L683.895 365.82L684.465 335.302ZM687.286 365.05L687.857 334.634L1418.47 190.668L1418.31 199.152L687.286 365.05ZM683.83 369.283L682.746 369.529L683.343 395.304L683.83 369.283ZM686.664 398.256L687.221 368.514L1418.25 202.624L1418.08 211.489L686.664 398.256ZM686.053 430.843L686.598 401.735L1418.02 214.959L1417.84 224.202L686.053 430.843ZM685.453 462.849L685.987 434.346L1417.78 227.724L1417.6 237.253L685.453 462.849ZM685.209 475.85L685.386 466.398L1417.53 240.811L1417.35 250.653L685.631 494.092L685.209 475.85ZM683.375 573.677L683.515 566.184L684.185 576.88L684.333 583.277L683.375 573.677ZM680.001 574.024L679.752 587.357L677.772 588.149L674.381 563.02L678.738 561.37L680.001 574.024ZM680.821 530.163L680.539 545.26L679.094 530.778L680.821 530.163ZM680.922 524.759L680.889 526.559L678.749 527.321L676.103 500.814L679.356 499.732L680.922 524.759ZM681.841 475.623L681.698 483.281L680.731 467.833L681.654 467.548L681.841 475.623ZM679.683 591.005L679.498 600.935L678.236 591.584L679.683 591.005ZM682.587 615.693L682.836 602.426L684.096 615.058L682.587 615.693ZM682.453 622.833L682.518 619.375L684.446 618.564L685.362 627.736L685.724 643.391L685.255 643.597L682.453 622.833ZM679.083 623.115L678.79 620.943L673.314 623.246L677.326 647.089L678.646 646.508L679.083 623.115ZM678.576 650.219L677.902 650.516L678.504 654.089L678.576 650.219ZM681.53 672.075L681.968 648.725L682.508 648.488L685.687 672.045L681.823 673.819L681.53 672.075ZM678.162 672.38L678.103 675.528L672.046 678.309L667.416 655.133L674.719 651.917L678.162 672.38ZM678.033 679.281L677.566 704.226L677.254 704.375L672.727 681.717L678.033 679.281ZM680.957 702.607L681.187 690.363L683.076 701.595L680.957 702.607ZM680.609 721.171L680.887 706.377L683.658 705.054L687.427 727.453L682.365 729.958L680.609 721.171ZM677.243 721.511L677.036 732.595L671.635 735.268L666.568 713.213L674.8 709.283L677.243 721.511ZM676.965 736.385L676.583 756.807L672.409 738.64L676.965 736.385ZM679.901 758.925L680.315 736.886L684.271 756.689L679.901 758.925ZM679.688 770.323L679.83 762.74L684.956 760.117L688.88 779.756L688.923 781.602L682.997 784.73L679.688 770.323ZM676.324 770.674L675.061 765.18L665.971 769.831L671.398 790.852L675.992 788.428L676.324 770.674ZM679.382 786.638L679.428 784.188L679.925 786.352L679.382 786.638ZM675.919 792.283L672.266 794.212L675.639 807.277L675.919 792.283ZM678.768 819.395L679.31 790.494L680.707 789.756L690.053 830.443L690.262 839.482C686.976 837.936 684.18 835.527 682.165 832.555L678.768 819.395ZM675.404 819.838L675.384 820.933C675.29 825.698 676.643 830.162 679.037 833.908L691.226 881.119L691.255 882.374C691.353 886.59 692.538 890.531 694.535 893.935L707.068 942.48L707.153 943.83C707.38 947.488 708.398 950.916 710.031 953.955L722.89 1003.76L723.038 1005.24C723.348 1008.36 724.21 1011.28 725.517 1013.94L738.756 1065.21L738.956 1066.69C739.297 1069.24 739.996 1071.65 740.993 1073.88L754.519 1126.27L754.828 1128.1C755.172 1130.14 755.736 1132.08 756.494 1133.91L770.404 1187.79L770.753 1189.54C771.042 1190.98 771.439 1192.38 771.934 1193.72L784.583 1242.71L658.691 801.377L669.205 795.827L675.404 819.838ZM683.94 839.429C685.847 840.994 688.006 842.265 690.348 843.171L690.883 866.322L683.94 839.429ZM696.764 844.654L702.511 869.673L700.954 844.791L698.285 844.735C697.773 844.724 697.266 844.697 696.764 844.654ZM705.325 844.883L708.74 861.976L707.037 844.918L705.325 844.883ZM706.621 841.548L704.65 841.506L703.884 837.67L702.648 817.934L706.621 841.548ZM712.441 845.032L719.786 899.454L720.283 902.407L1424.65 887.76C1431.98 887.604 1438.5 883.726 1442.14 877.363L1442.13 877.356C1443.97 874.129 1444.89 870.446 1444.81 866.711L1433.83 392.242L1417.93 400.637L1409.77 836.348C1409.69 840.233 1408.64 844.067 1406.73 847.414C1402.5 854.839 1394.55 859.353 1385.98 859.156L712.441 845.032ZM1414.5 402.445L1406.37 836.256C1406.32 839.584 1405.43 842.868 1403.79 845.733L1403.79 845.753C1400.16 852.102 1393.36 855.951 1386.03 855.809L711.986 841.66L704.814 788.52L703.725 777.607L1414.5 402.445ZM1418 396.775L1433.75 388.464L1433.48 377.115L1418.22 384.925L1418 396.775ZM1414.8 386.676L1414.58 398.583L703.363 773.98L701.153 751.829L1414.8 386.676ZM1418.29 381.11L1433.4 373.381L1433.14 362.172L1418.51 369.41L1418.29 381.11ZM1415.09 371.104L1414.87 382.861L700.794 748.235L698.546 725.705L1415.09 371.104ZM1418.58 365.62L1433.05 358.459L1432.8 347.405L1418.8 354.087L1418.58 365.62ZM1415.38 355.721L1415.16 367.313L698.189 722.127L695.902 699.208L1415.38 355.721ZM1418.87 350.306L1432.71 343.698L1432.46 332.798L1419.08 338.941L1418.87 350.306ZM1415.66 340.511L1415.45 351.939L695.546 695.642L694.061 680.759L693.523 672.167L1415.66 340.511ZM1419.15 335.202L1432.37 329.13L1432.13 318.396L1419.36 324.016L1419.15 335.202ZM1415.94 325.521L1415.73 336.773L693.296 668.55L691.785 644.403L1415.94 325.521ZM1419.43 320.303L1432.04 314.751L1431.8 304.221L1419.64 309.335L1419.43 320.303ZM1416.22 310.773L1416.01 321.808L691.56 640.82L690.02 616.22L1416.22 310.773ZM1419.71 305.636L1431.71 300.586L1431.47 290.238L1419.91 294.865L1419.71 305.636ZM1416.49 296.231L1416.29 307.073L689.797 612.66L688.228 587.586L1416.49 296.231ZM1419.98 291.209L1431.39 286.642L1431.16 276.492L1420.18 280.65L1419.98 291.209ZM1416.76 281.942L1416.56 292.575L688.007 584.055L687.544 576.661L687.116 558.198L1416.76 281.942ZM1420.24 277.036L1431.07 272.935L1430.84 263.019L1420.44 266.727L1420.24 277.036ZM1417.02 267.942L1416.83 278.328L687.034 554.633L686.421 528.168L1417.02 267.942ZM1420.5 263.132L1430.76 259.478L1430.54 249.807L1420.69 253.084L1420.5 263.132ZM1417.28 254.218L1417.09 264.348L686.338 524.618L685.713 497.617L1417.28 254.218ZM1420.76 249.518L1430.46 246.291L1430.24 236.896L1420.94 239.761L1420.76 249.518ZM1421.01 236.202L1430.16 233.383L1429.95 224.287L1421.18 226.762L1421.01 236.202ZM1421.25 223.24L1429.87 220.806L1429.66 211.984L1421.42 214.089L1421.25 223.24ZM1421.49 210.619L1429.58 208.552L1429.39 200.095L1421.65 201.851L1421.49 210.619ZM1421.72 198.379L1429.31 196.656L1429.12 188.569L1421.87 189.997L1421.72 198.379ZM1421.94 186.559L1429.04 185.159L1428.87 177.47L1422.09 178.593L1421.94 186.559ZM1422.15 175.17L1428.79 174.072L1428.62 166.838L1422.29 167.676L1422.15 175.17ZM1422.36 164.268L1428.54 163.449L1428.43 158.719C1428.42 158.29 1428.4 157.864 1428.36 157.442C1426.51 157.138 1424.59 157.067 1422.64 157.258L1422.49 157.273L1422.36 164.268ZM1422.55 153.882C1424.32 153.728 1426.06 153.759 1427.76 153.96C1427.45 152.75 1427.02 151.584 1426.5 150.472C1425.28 149.801 1423.98 149.247 1422.63 148.824C1422.63 149.084 1422.63 149.344 1422.63 149.605L1422.55 153.882ZM1419.22 148.057C1417.84 147.864 1416.42 147.805 1414.98 147.891L690.541 191.464L689.909 225.16L1419.16 154.211L1419.24 149.534C1419.25 149.037 1419.24 148.545 1419.22 148.057ZM1422.3 145.245C1422.61 145.323 1422.92 145.407 1423.22 145.497C1422.87 145.103 1422.51 144.723 1422.13 144.356C1422.19 144.651 1422.25 144.947 1422.3 145.245ZM700.743 841.424L698.343 841.374C697.538 841.357 696.745 841.292 695.966 841.182L693.413 830.07L692.69 798.824L700.534 838.087L700.743 841.424ZM667.602 202.525C669.487 199.221 672.168 196.543 675.339 194.686L676.076 226.506L670.966 227.003C669.167 227.176 667.411 227.54 665.722 228.076L664.864 214.379C664.599 210.217 665.549 206.129 667.602 202.525ZM671.307 230.335L676.153 229.864L676.919 262.94L667.978 264.123L665.939 231.551C667.653 230.93 669.454 230.516 671.307 230.335ZM668.189 267.487L676.997 266.321L677.74 298.423L670.204 299.671L668.189 267.487ZM670.415 303.048L677.819 301.822L678.541 333.044L672.369 334.26L670.415 303.048ZM672.581 337.644L678.62 336.454L679.324 366.857L674.478 367.957L672.581 337.644ZM674.691 371.357L679.403 370.288L680.09 399.934L676.537 400.842L674.691 371.357ZM676.75 404.25L680.169 403.377L680.839 432.315L678.548 432.962L676.75 404.25ZM678.762 436.386L680.919 435.777L681.573 464.044L680.514 464.37L678.762 436.386ZM689.796 673.878L689.89 677.933L691.046 686.504L690.742 681.65L689.959 673.803L689.796 673.878ZM687.027 699.709L686.532 678.302L686.16 675.548L682.404 677.273L686.242 700.084L687.027 699.709ZM685.827 647.83L685.808 647.034L685.724 647.071L685.827 647.83ZM687.163 705.554L687.113 703.404L686.824 703.542L687.163 705.554ZM690.595 708.407L690.996 725.687L692.807 724.79L690.595 708.407ZM683.048 733.375L687.753 731.047L688.298 754.628L687.387 755.095L683.048 733.375ZM691.613 752.337L691.626 752.926L691.705 752.885L691.613 752.337ZM688.072 758.523L688.385 758.362L688.43 760.317L688.072 758.523ZM691.713 756.659L692.239 779.384L692.324 779.807L695.915 777.911L692.29 756.364L691.713 756.659ZM689.667 813.762L689.01 785.374L683.78 788.135L689.667 813.762ZM693.8 846.753L694.585 880.659L697.677 892.634C699.359 895.363 701.656 897.673 704.37 899.37L703.802 890.296L693.8 846.753ZM704.62 903.355C702.797 902.447 701.103 901.314 699.576 899.992L705.955 924.699L704.62 903.355ZM714.882 923.524L710.725 905.428C711.508 905.58 712.303 905.694 713.11 905.768L714.882 923.524ZM730.583 963.624L720.847 905.759L1424.72 891.123C1433.1 890.939 1440.89 886.31 1445.06 879.03C1447.2 875.275 1448.28 871.002 1448.19 866.643L1437.17 390.483L1451.09 383.133L1483.26 897.14C1483.53 901.302 1482.57 905.403 1480.52 908.994L1480.53 908.98C1476.94 915.271 1470.51 919.276 1463.29 919.706L733.169 963.622C732.297 963.675 731.434 963.675 730.583 963.624ZM1450.86 379.431L1437.08 386.706L1436.82 375.41L1450.18 368.572L1450.86 379.431ZM1449.95 364.911L1436.73 371.676L1436.47 360.522L1449.28 354.184L1449.95 364.911ZM1449.05 350.542L1436.39 356.81L1436.13 345.813L1448.39 339.961L1449.05 350.542ZM1448.16 336.322L1436.05 342.106L1435.8 331.265L1447.51 325.886L1448.16 336.322ZM1447.28 322.283L1435.71 327.598L1435.46 316.926L1446.64 312.005L1447.28 322.283ZM1446.42 308.421L1435.38 313.281L1435.14 302.816L1445.78 298.338L1446.42 308.421ZM1445.56 294.761L1435.05 299.181L1434.81 288.902L1444.94 284.851L1445.56 294.761ZM1444.72 281.31L1434.73 285.306L1434.5 275.227L1444.11 271.587L1444.72 281.31ZM1443.89 268.082L1434.42 271.67L1434.19 261.828L1443.3 258.584L1443.89 268.082ZM1443.08 255.092L1434.11 258.287L1433.88 248.694L1442.5 245.828L1443.08 255.092ZM1442.28 242.358L1433.8 245.178L1433.59 235.865L1441.72 233.359L1442.28 242.358ZM1441.5 229.888L1433.51 232.351L1433.3 223.342L1440.96 221.179L1441.5 229.888ZM1440.74 217.736L1433.22 219.861L1433.01 211.129L1440.21 209.291L1440.74 217.736ZM1440 205.892L1432.94 207.696L1432.74 199.335L1439.49 197.803L1440 205.892ZM1439.28 194.394L1432.66 195.895L1432.48 187.908L1438.8 186.663L1439.28 194.394ZM1438.58 183.279L1432.4 184.498L1432.22 176.914L1437.92 175.972C1437.99 175.96 1438.05 175.949 1438.12 175.938L1438.58 183.279ZM1437.37 172.651L1432.14 173.516L1431.98 166.457C1433.87 166.348 1435.73 166.475 1437.52 166.814C1437.57 167.174 1437.6 167.538 1437.62 167.904L1437.91 172.566C1437.73 172.593 1437.55 172.621 1437.37 172.651ZM1436.82 163.289C1435.21 163.07 1433.57 162.998 1431.9 163.087L1431.8 158.664C1431.8 158.54 1431.79 158.416 1431.79 158.292C1433.09 158.728 1434.34 159.282 1435.53 159.944C1436.05 161.011 1436.48 162.129 1436.82 163.289ZM1432.08 154.856C1431.84 154.786 1431.61 154.719 1431.37 154.656C1431.33 154.43 1431.28 154.205 1431.23 153.982C1431.52 154.265 1431.81 154.557 1432.08 154.856ZM709.888 901.785C710.825 902.04 711.787 902.23 712.769 902.351L712.165 896.303L705.45 862.692L707.152 889.874L709.888 901.785ZM662.664 233.051C659.211 234.985 656.291 237.837 654.282 241.356C652.018 245.336 651.063 249.856 651.516 254.431L652.726 266.549C654.199 266.083 655.726 265.743 657.296 265.537L664.636 264.566L662.664 233.051ZM664.847 267.929L657.736 268.871C656.123 269.084 654.561 269.46 653.069 269.987L656.261 301.979L666.868 300.223L664.847 267.929ZM667.079 303.6L656.596 305.336L659.731 336.75L669.04 334.916L667.079 303.6ZM669.251 338.3L660.066 340.11L663.103 370.538L671.155 368.711L669.251 338.3ZM671.368 372.111L663.439 373.91L666.386 403.434L673.219 401.689L671.368 372.111ZM673.432 405.097L666.723 406.811L669.585 435.493L675.235 433.897L673.432 405.097ZM675.449 437.322L669.923 438.882L672.707 466.776L677.206 465.389L675.449 437.322ZM677.423 468.852L673.048 470.2L675.76 497.376L679.138 496.252L677.423 468.852ZM700.62 785.54L700.286 780.202L701.407 788.51L701.827 792.71L700.62 785.54ZM693.993 733.576L695.093 751.152L694.855 751.274L691.167 729.357L693.282 728.31L693.993 733.576ZM697.273 785.981L698.968 813.064L693.014 783.261L696.505 781.418L697.273 785.981ZM710.413 941.963L708.443 910.499L717.531 950.06L718.411 958.885C716.301 957.175 714.517 955.069 713.178 952.674L710.413 941.963ZM715.223 960.593C716.346 961.613 717.562 962.531 718.855 963.333L720.699 981.803L715.223 960.593ZM724.631 965.96L726.397 973.645L725.389 966.18C725.248 966.141 725.109 966.102 724.969 966.061C724.856 966.028 724.743 965.995 724.631 965.96ZM731.156 967.034L738.777 1012.33L741.021 1023.56C743.996 1024.62 747.245 1025.07 750.592 1024.74L1501.92 951.665C1509.04 950.968 1515.4 946.855 1518.95 940.644L1518.94 940.658C1521.22 936.684 1522.17 932.165 1521.71 927.569L1466.57 374.966L1454.35 381.412L1486.62 896.946C1486.92 901.759 1485.83 906.509 1483.45 910.681C1479.3 917.934 1471.83 922.58 1463.49 923.083L733.369 966.999C732.626 967.044 731.888 967.055 731.156 967.034ZM1454.12 377.71L1466.2 371.333L1465.16 360.906L1453.44 366.902L1454.12 377.71ZM1453.22 363.241L1464.8 357.312L1463.78 347.01L1452.55 352.567L1453.22 363.241ZM1452.32 348.924L1463.42 343.432L1462.41 333.27L1451.66 338.399L1452.32 348.924ZM1451.43 334.76L1462.05 329.692L1461.05 319.668L1450.78 324.382L1451.43 334.76ZM1450.56 320.78L1460.69 316.125L1459.71 306.25L1449.92 310.561L1450.56 320.78ZM1449.69 306.977L1459.36 302.722L1458.39 293.036L1449.07 296.957L1449.69 306.977ZM1448.84 293.38L1458.04 289.513L1457.09 279.991L1448.23 283.536L1448.84 293.38ZM1448.01 279.995L1456.74 276.501L1455.81 267.159L1447.4 270.341L1448.01 279.995ZM1447.18 266.836L1455.46 263.701L1454.55 254.575L1446.59 257.41L1447.18 266.836ZM1446.37 253.918L1454.21 251.128L1453.32 242.228L1445.8 244.73L1446.37 253.918ZM1445.58 241.26L1452.98 238.799L1452.12 230.156L1445.02 232.341L1445.58 241.26ZM1444.81 228.869L1451.77 226.723L1450.94 218.361L1444.27 220.244L1444.81 228.869ZM1444.05 216.801L1450.6 214.953L1449.79 206.845L1443.53 208.444L1444.05 216.801ZM1443.32 205.046L1449.45 203.478L1448.68 195.718L1442.81 197.049L1443.32 205.046ZM1442.6 193.64L1448.34 192.337L1447.61 185.012C1446.93 185.088 1446.26 185.193 1445.58 185.326L1442.12 186.007L1442.6 193.64ZM1441.91 182.623L1444.92 182.03C1445.71 181.876 1446.49 181.755 1447.28 181.668L1446.82 177.076C1446.79 176.772 1446.75 176.471 1446.71 176.171C1445.01 175.809 1443.26 175.631 1441.48 175.655L1441.91 182.623ZM1441.27 172.291C1442.83 172.26 1444.38 172.367 1445.9 172.602C1445.55 171.499 1445.12 170.436 1444.61 169.419C1443.46 168.762 1442.24 168.203 1440.98 167.752L1441.27 172.291ZM1440.48 164.06C1440.65 164.109 1440.82 164.159 1440.99 164.211C1440.78 163.996 1440.58 163.785 1440.37 163.579C1440.41 163.738 1440.44 163.899 1440.48 164.06ZM724.891 962.492C724.5 962.356 724.114 962.209 723.733 962.052L720.902 949.726L718.968 930.35L723.852 954.796L724.891 962.492ZM640.914 280.179C643.058 276.422 646.135 273.43 649.802 271.438L652.906 302.535L643.626 304.071C642.237 304.302 640.881 304.636 639.567 305.068L638.141 294.503C637.461 289.493 638.42 284.542 640.914 280.179ZM644.173 307.392L653.241 305.891L656.386 337.409L644.255 339.8L640.026 308.468C641.36 307.991 642.747 307.629 644.173 307.392ZM644.705 343.137L656.721 340.769L659.768 371.295L648.84 373.775L644.705 343.137ZM649.292 377.121L660.105 374.667L663.06 404.283L653.294 406.777L649.292 377.121ZM653.746 410.125L663.397 407.66L666.269 436.429L657.625 438.87L653.746 410.125ZM658.078 442.226L666.607 439.818L669.399 467.795L661.843 470.123L658.078 442.226ZM662.301 473.511L669.741 471.219L672.461 498.474L665.961 500.636L662.301 473.511ZM666.42 504.035L672.804 501.912L675.457 528.494L669.984 530.443L666.42 504.035ZM670.445 533.858L675.802 531.95L678.392 557.905L673.919 559.599L670.445 533.858ZM715.188 892.476L715.543 896.031L716.706 901.851L716.464 900.056L715.188 892.476ZM723.55 976.262L726.247 1003.29L728.669 1012.67C729.648 1014.61 730.901 1016.37 732.373 1017.92L731.309 1010.04L723.55 976.262ZM733.065 1023.05C732.298 1022.47 731.565 1021.85 730.867 1021.19L734.946 1036.99L733.065 1023.05ZM752.806 1082.55L741.773 1027.32C744.669 1028.11 747.75 1028.4 750.906 1028.09L1502.24 955.003C1510.45 954.213 1517.78 949.466 1521.86 942.312C1524.49 937.731 1525.58 932.515 1525.06 927.235L1469.77 373.275L1480.49 367.618L1560.17 958.005C1560.85 962.995 1559.88 967.959 1557.39 972.322L1557.4 972.309C1553.83 978.56 1547.7 982.688 1540.57 983.631L768.021 1085.88C762.507 1086.61 757.182 1085.31 752.806 1082.55ZM1480 364.048L1469.41 369.642L1468.37 359.265L1478.65 354.006L1480 364.048ZM1478.17 350.472L1468.01 355.67L1466.99 345.42L1476.83 340.549L1478.17 350.472ZM1476.36 337.029L1466.63 341.841L1465.62 331.733L1475.04 327.24L1476.36 337.029ZM1474.56 323.718L1465.27 328.155L1464.27 318.187L1473.26 314.06L1474.56 323.718ZM1472.79 310.571L1463.92 314.644L1462.94 304.828L1471.5 301.057L1472.79 310.571ZM1471.03 297.581L1462.59 301.3L1461.63 291.675L1469.77 288.248L1471.03 297.581ZM1469.3 284.774L1461.27 288.151L1460.33 278.694L1468.07 275.599L1469.3 284.774ZM1467.6 272.156L1459.98 275.204L1459.06 265.929L1466.39 263.154L1467.6 272.156ZM1465.93 259.74L1458.71 262.471L1457.81 253.416L1464.74 250.947L1465.93 259.74ZM1464.28 247.541L1457.46 249.968L1456.58 241.142L1463.12 238.967L1464.28 247.541ZM1462.66 235.577L1456.24 237.714L1455.39 229.148L1461.54 227.252L1462.66 235.577ZM1461.08 223.854L1455.04 225.715L1454.22 217.435L1459.99 215.804L1461.08 223.854ZM1459.54 212.428L1453.88 214.027L1453.08 206.006L1458.49 204.624L1459.54 212.428ZM1458.04 201.287L1452.74 202.639L1451.97 194.97L1453.23 194.686C1454.5 194.396 1455.79 194.206 1457.07 194.113L1458.04 201.287ZM1452.46 191.402L1451.64 191.589L1450.97 184.866C1452.63 184.908 1454.28 185.12 1455.89 185.499C1455.93 185.751 1455.97 186.005 1456.01 186.261L1456.62 190.774C1455.23 190.883 1453.84 191.092 1452.46 191.402ZM1454.97 181.883C1453.54 181.641 1452.09 181.511 1450.63 181.497L1450.2 177.202C1451.41 177.663 1452.58 178.219 1453.69 178.865C1454.18 179.83 1454.62 180.838 1454.97 181.883ZM1449.88 173.533C1449.84 173.52 1449.8 173.507 1449.76 173.494C1449.71 173.478 1449.66 173.463 1449.61 173.447L1449.59 173.377L1449.57 173.305C1449.56 173.265 1449.55 173.225 1449.54 173.186C1449.62 173.26 1449.69 173.335 1449.77 173.411C1449.8 173.451 1449.84 173.492 1449.88 173.533ZM636.806 309.901C632.962 311.968 629.732 315.084 627.508 318.982C624.824 323.681 623.851 329.21 624.747 334.581L626.265 343.605C627.462 343.195 628.692 342.865 629.95 342.619L640.93 340.455L636.806 309.901ZM641.381 343.792L630.61 345.914C629.315 346.17 628.052 346.527 626.833 346.979L631.985 377.6L645.529 374.526L641.381 343.792ZM645.981 377.872L632.543 380.921L637.569 410.792L649.996 407.619L645.981 377.872ZM650.448 410.967L638.128 414.113L642.989 443.003L654.339 439.798L650.448 410.967ZM654.792 443.154L643.548 446.329L648.256 474.31L658.569 471.132L654.792 443.154ZM659.026 474.52L648.82 477.665L653.389 504.819L662.698 501.722L659.026 474.52ZM663.157 505.121L653.955 508.183L658.395 534.571L666.731 531.602L663.157 505.121ZM667.192 535.017L658.963 537.948L663.283 563.625L670.675 560.827L667.192 535.017ZM671.137 564.248L663.852 567.007L668.063 592.034L674.538 589.443L671.137 564.248ZM675.002 592.878L668.634 595.425L672.74 619.834L678.323 617.486L675.002 592.878ZM734.645 1009.55L734.339 1007.28L735.374 1012.46L735.538 1013.44L734.645 1009.55ZM742.073 1064.59L739.557 1045.95L744.974 1069.53L746.077 1076.08C745.354 1075.03 744.717 1073.91 744.175 1072.73L742.073 1064.59ZM746.53 1081.85C746.732 1082.05 746.938 1082.25 747.146 1082.44L748.015 1087.6L746.53 1081.85ZM753.67 1086.88L762.089 1129.02L764.678 1140.28C769.913 1145.57 777.552 1148.34 785.43 1147.03L1579.19 1015.6C1586.24 1014.43 1592.31 1010.2 1595.85 1004.01L1595.86 1004.01C1598.54 999.314 1599.52 993.771 1598.63 988.42L1493.05 360.987L1483.65 365.947L1563.51 957.564C1564.28 963.306 1563.18 968.987 1560.32 973.996C1556.23 981.164 1549.19 985.894 1541.01 986.984L768.455 1089.23C763.213 1089.92 758.119 1089.01 753.67 1086.88ZM1483.17 362.376L1492.46 357.474L1490.83 347.775L1481.82 352.382L1483.17 362.376ZM1481.35 348.848L1490.24 344.296L1488.63 334.711L1480.01 338.975L1481.35 348.848ZM1479.54 335.455L1488.05 331.245L1486.45 321.788L1478.22 325.718L1479.54 335.455ZM1477.75 322.196L1485.87 318.319L1484.3 308.989L1476.45 312.593L1477.75 322.196ZM1475.98 309.104L1483.72 305.549L1482.17 296.357L1474.7 299.647L1475.98 309.104ZM1474.24 296.171L1481.6 292.929L1480.08 283.913L1472.98 286.898L1474.24 296.171ZM1472.51 283.423L1479.5 280.484L1478.01 271.62L1471.28 274.311L1472.51 283.423ZM1470.82 270.868L1477.44 268.219L1475.98 259.523L1469.61 261.932L1470.82 270.868ZM1469.15 258.518L1475.41 256.15L1473.98 247.656L1467.98 249.794L1469.15 258.518ZM1467.52 246.388L1473.41 244.288L1472.02 236.006L1466.37 237.887L1467.52 246.388ZM1465.91 234.496L1471.45 232.652L1470.1 224.614L1464.8 226.248L1465.91 234.496ZM1464.34 222.851L1469.54 221.249L1468.23 213.479L1463.26 214.881L1464.34 222.851ZM1462.81 211.505L1467.57 210.161L1467.67 210.134L1466.5 203.219C1464.93 203.268 1463.35 203.46 1461.77 203.804L1462.81 211.505ZM1461.32 200.479C1462.86 200.158 1464.41 199.965 1465.94 199.893L1465.19 195.426C1465.16 195.225 1465.12 195.026 1465.08 194.827C1463.57 194.44 1462.02 194.196 1460.46 194.097L1461.32 200.479ZM1460 190.708C1461.36 190.762 1462.72 190.913 1464.06 191.16C1463.69 190.157 1463.25 189.189 1462.76 188.261C1461.69 187.63 1460.58 187.085 1459.45 186.627L1460 190.708ZM1458.75 182.8L1458.76 182.802L1458.75 182.794L1458.75 182.8ZM614.108 357.771C616.389 353.776 619.711 350.561 623.661 348.418L628.696 378.347L616.274 381.166C615.118 381.427 613.985 381.759 612.881 382.159L611.379 374.64C610.229 368.854 611.2 362.873 614.108 357.771ZM617.027 384.442L629.255 381.668L634.295 411.628L619.522 415.4L613.549 385.505C614.676 385.07 615.838 384.714 617.027 384.442ZM620.18 418.696L634.854 414.949L639.728 443.924L625.995 447.801L620.18 418.696ZM626.654 451.099L640.288 447.249L645.009 475.311L632.275 479.234L626.654 451.099ZM632.939 482.558L645.573 478.665L650.154 505.895L638.384 509.811L632.939 482.558ZM639.049 513.142L650.72 509.259L655.171 535.719L644.331 539.58L639.049 513.142ZM644.998 542.922L655.739 539.096L660.07 564.842L650.13 568.605L644.998 542.922ZM650.798 571.949L660.639 568.223L664.861 593.315L655.791 596.944L650.798 571.949ZM656.461 600.295L665.431 596.707L669.548 621.177L661.324 624.637L656.461 600.295ZM661.997 628.007L670.122 624.589L674.143 648.49L666.74 651.75L661.997 628.007ZM757.782 1125.29L757.854 1125.71L758.093 1126.64L757.782 1125.29ZM777.948 1198.05L765.92 1145.69C771.546 1149.67 778.673 1151.53 785.978 1150.32L1579.73 1018.9C1587.79 1017.57 1594.72 1012.75 1598.77 1005.66C1601.84 1000.31 1602.96 993.97 1601.93 987.86L1496.18 359.335L1504.43 354.979L1637.06 1018.82C1638.22 1024.59 1637.24 1030.59 1634.33 1035.69L1634.35 1035.7C1630.83 1041.86 1624.82 1046.18 1617.84 1047.55L802.873 1208.14C793.019 1210.09 783.349 1205.81 777.948 1198.05ZM1503.74 351.519L1495.59 355.822L1493.97 346.169L1501.86 342.127L1503.74 351.519ZM1501.18 338.699L1493.38 342.69L1491.78 333.154L1499.32 329.418L1501.18 338.699ZM1498.64 326.001L1491.19 329.687L1489.61 320.282L1496.81 316.843L1498.64 326.001ZM1496.13 313.421L1489.03 316.812L1487.47 307.535L1494.32 304.385L1496.13 313.421ZM1493.65 300.992L1486.89 304.096L1485.35 294.959L1491.87 292.089L1493.65 300.992ZM1491.19 288.704L1484.77 291.531L1483.27 282.573L1489.45 279.973L1491.19 288.704ZM1488.77 276.586L1482.69 279.144L1481.21 270.342L1487.05 268.002L1488.77 276.586ZM1486.38 264.641L1480.64 266.941L1479.18 258.308L1484.7 256.219L1486.38 264.641ZM1484.03 252.884L1478.62 254.935L1477.2 246.509L1482.39 244.66L1484.03 252.884ZM1481.73 241.327L1476.63 243.141L1475.25 234.931L1480.12 233.31L1481.73 241.327ZM1479.46 229.989L1474.69 231.577L1473.35 223.614L1476.14 222.753C1476.73 222.571 1477.32 222.409 1477.92 222.267L1479.46 229.989ZM1475.13 219.526L1472.78 220.25L1471.51 212.728C1472.99 212.485 1474.47 212.365 1475.94 212.367L1477.25 218.951C1476.54 219.117 1475.83 219.309 1475.13 219.526ZM1475.27 209.009C1473.83 209.039 1472.39 209.172 1470.96 209.408L1469.93 203.337C1471.42 203.487 1472.87 203.762 1474.29 204.155C1474.33 204.302 1474.36 204.45 1474.39 204.598L1475.27 209.009ZM1473.17 200.448C1471.92 200.194 1470.65 200.021 1469.36 199.931L1468.71 196.053C1469.79 196.514 1470.85 197.052 1471.88 197.668C1472.37 198.564 1472.8 199.492 1473.17 200.448ZM610.404 386.975C606.382 389.202 602.991 392.506 600.675 396.56C597.523 402.071 596.58 408.518 597.998 414.725L599.379 420.739C600.434 420.339 601.519 419.996 602.631 419.713L616.25 416.236L610.404 386.975ZM616.909 419.532L603.464 422.965C602.323 423.256 601.213 423.619 600.14 424.049L606.839 453.211L622.74 448.721L616.909 419.532ZM623.399 452.018L607.59 456.482L614.103 484.833L629.036 480.232L623.399 452.018ZM629.7 483.556L614.86 488.129L621.158 515.542L635.16 510.883L629.7 483.556ZM635.826 514.214L621.916 518.842L628.015 545.391L641.122 540.723L635.826 514.214ZM641.79 544.065L628.775 548.7L634.691 574.451L646.935 569.815L641.79 544.065ZM647.603 573.159L635.451 577.76L641.199 602.782L652.609 598.217L647.603 573.159ZM653.279 601.568L641.961 606.096L647.551 630.43L658.154 625.97L653.279 601.568ZM658.827 629.34L648.316 633.761L653.761 657.465L663.583 653.14L658.827 629.34ZM664.259 656.524L654.529 660.808L659.838 683.916L668.9 679.754L664.259 656.524ZM669.581 683.162L660.611 687.282L665.795 709.846L674.118 705.872L669.581 683.162ZM779.506 1204.83C785.821 1210.48 794.612 1213.21 803.527 1211.45L1618.52 1050.86C1626.43 1049.3 1633.27 1044.38 1637.28 1037.37C1640.59 1031.58 1641.69 1024.76 1640.38 1018.19L1507.54 353.337L1514.78 349.519L1675.51 1049.25C1676.94 1055.45 1675.99 1061.9 1672.84 1067.42L1672.83 1067.43C1669.34 1073.57 1663.38 1077.98 1656.48 1079.55L820.296 1269.3C807.546 1272.19 794.789 1264.86 790.653 1252.75L789.394 1247.87L779.506 1204.83ZM1506.85 349.877L1513.99 346.108L1511.9 336.993L1504.99 340.53L1506.85 349.877ZM1504.3 337.103L1511.12 333.612L1509.05 324.604L1502.46 327.869L1504.3 337.103ZM1501.77 324.451L1508.28 321.232L1506.24 312.344L1499.95 315.344L1501.77 324.451ZM1499.27 311.922L1505.46 308.966L1503.45 300.196L1497.47 302.938L1499.27 311.922ZM1496.8 299.545L1502.68 296.844L1500.69 288.203L1495.03 290.697L1496.8 299.545ZM1494.35 287.312L1499.92 284.859L1497.98 276.385L1492.62 278.639L1494.35 287.312ZM1491.94 275.251L1497.21 273.037L1495.29 264.706L1490.24 266.728L1491.94 275.251ZM1489.57 263.367L1494.53 261.382L1492.65 253.209L1487.9 255.009L1489.57 263.367ZM1487.23 251.673L1491.89 249.908L1490.06 241.928L1485.6 243.516L1487.23 251.673ZM1484.94 240.183L1489.3 238.628L1487.58 231.112C1486.3 231.351 1485.03 231.679 1483.76 232.1L1483.35 232.237L1484.94 240.183ZM1482.68 228.916L1482.69 228.913C1484.06 228.457 1485.44 228.099 1486.82 227.834L1485.37 221.524C1484.01 221.475 1482.62 221.526 1481.24 221.684L1482.68 228.916ZM1480.58 218.363C1481.92 218.199 1483.26 218.124 1484.6 218.135L1483.59 213.756C1483.58 213.719 1483.57 213.682 1483.56 213.645C1483.55 213.586 1483.54 213.527 1483.52 213.469C1482.18 213.071 1480.81 212.78 1479.42 212.597L1480.58 218.363ZM1478.73 209.135C1479.93 209.248 1481.12 209.432 1482.29 209.687C1481.92 208.792 1481.5 207.922 1481.04 207.082C1480.06 206.486 1479.05 205.953 1478 205.487L1478.73 209.135ZM587.235 435.329C589.612 431.164 592.987 427.819 597.041 425.535L603.608 454.123L588.955 458.261C587.879 458.564 586.828 458.923 585.806 459.335L584.636 454.804C582.931 448.181 583.853 441.257 587.235 435.329ZM589.888 461.48L604.359 457.394L610.89 485.824L593.989 491.031L586.653 462.615C587.698 462.173 588.778 461.794 589.888 461.48ZM594.833 494.299L611.647 489.119L617.961 516.606L601.966 521.927L594.833 494.299ZM602.811 525.199L618.719 519.906L624.833 546.524L609.708 551.912L602.811 525.199ZM610.554 555.19L625.594 549.834L631.524 575.65L617.233 581.06L610.554 555.19ZM618.079 584.337L632.284 578.959L638.046 604.043L624.56 609.438L618.079 584.337ZM625.407 612.719L638.808 607.358L644.411 631.751L631.701 637.097L625.407 612.719ZM632.552 640.392L645.176 635.082L650.634 658.842L638.675 664.108L632.552 640.392ZM639.528 667.413L651.402 662.185L656.723 685.347L645.49 690.505L639.528 667.413ZM646.349 693.832L657.496 688.713L662.691 711.328L652.164 716.354L646.349 693.832ZM653.023 719.679L663.464 714.694L668.542 736.799L658.7 741.669L653.023 719.679ZM659.56 744.999L669.316 740.17L674.285 761.799L665.109 766.494L659.56 744.999ZM805.834 1311.55L793.562 1264.02C800.324 1271.31 810.688 1274.92 821.056 1272.56L1657.24 1082.81C1665.05 1081.03 1671.82 1076.03 1675.77 1069.08C1679.33 1062.84 1680.4 1055.52 1678.79 1048.5L1517.85 347.895L1524.19 344.553L1713.98 1079.65C1715.7 1086.28 1714.77 1093.19 1711.38 1099.13L1711.39 1099.13C1707.87 1105.34 1702.08 1109.73 1695.16 1111.5L837.766 1330.42C823.755 1333.99 809.449 1325.53 805.834 1311.55ZM1523.32 341.186L1517.07 344.484L1514.99 335.413L1521.03 332.321L1523.32 341.186ZM1520.17 328.984L1514.21 332.032L1512.15 323.071L1517.9 320.223L1520.17 328.984ZM1517.05 316.893L1511.38 319.699L1509.35 310.86L1514.81 308.249L1517.05 316.893ZM1513.95 304.912L1508.57 307.481L1506.57 298.762L1511.75 296.382L1513.95 304.912ZM1510.89 293.07L1505.8 295.411L1503.82 286.824L1508.72 284.666L1510.89 293.07ZM1507.87 281.359L1503.06 283.479L1501.12 275.062L1505.74 273.119L1507.87 281.359ZM1504.89 269.806L1500.35 271.714L1498.45 263.442L1502.8 261.705L1504.89 269.806ZM1501.95 258.414L1497.69 260.118L1495.83 252.007L1499.01 250.8C1499.31 250.689 1499.6 250.582 1499.9 250.481L1501.95 258.414ZM1497.82 247.664L1495.07 248.706L1493.26 240.855C1494.56 240.486 1495.88 240.207 1497.2 240.017L1499.06 247.222C1498.64 247.361 1498.23 247.509 1497.82 247.664ZM1496.35 236.74C1495.06 236.941 1493.78 237.218 1492.51 237.573L1490.93 230.687C1492.22 230.6 1493.51 230.601 1494.79 230.687L1496.35 236.74ZM1493.91 227.277C1492.67 227.236 1491.42 227.268 1490.17 227.373L1488.91 221.877C1490.21 222.092 1491.5 222.399 1492.75 222.792C1492.76 222.831 1492.77 222.87 1492.78 222.908L1493.91 227.277ZM1491.41 218.945C1490.32 218.692 1489.22 218.497 1488.1 218.361L1487.3 214.902C1487.91 215.186 1488.51 215.494 1489.11 215.825C1489.46 216.023 1489.81 216.227 1490.15 216.439C1490.61 217.245 1491.03 218.081 1491.41 218.945ZM583.572 464.155C579.523 466.516 576.154 469.907 573.769 474.085C570.15 480.441 569.242 487.825 571.261 494.876L572.14 497.954C573.167 497.512 574.223 497.123 575.305 496.788L590.768 492.024L583.572 464.155ZM591.611 495.292L576.305 500.008C575.196 500.349 574.117 500.756 573.072 501.225L580.97 528.912L598.763 522.992L591.611 495.292ZM599.608 526.264L581.896 532.157L589.576 559.082L606.523 553.046L599.608 526.264ZM607.369 556.325L590.503 562.332L597.93 588.368L614.065 582.26L607.369 556.325ZM614.911 585.536L598.856 591.615L606.053 616.843L621.408 610.7L614.911 585.536ZM622.255 613.98L606.979 620.091L613.959 644.56L628.564 638.416L622.255 613.98ZM629.415 641.711L614.889 647.821L621.671 671.596L635.552 665.484L629.415 641.711ZM636.406 668.789L622.604 674.866L629.199 697.987L642.381 691.933L636.406 668.789ZM643.24 695.26L630.138 701.277L636.563 723.802L649.068 717.832L643.24 695.26ZM649.926 721.158L637.501 727.09L643.768 749.059L655.616 743.195L649.926 721.158ZM656.476 746.525L644.706 752.349L650.826 773.802L662.037 768.065L656.476 746.525ZM662.899 771.403L651.766 777.099L657.745 798.059L668.338 792.468L662.899 771.403ZM807.321 1322.42L821.714 1372.88C825.809 1387.23 840.827 1395.6 855.202 1391.55L1733.82 1143.45C1740.67 1141.52 1746.4 1137.04 1749.93 1130.86L1749.91 1130.87C1753.53 1124.5 1754.43 1117.13 1752.42 1110.06L1532.77 340.023L1527.25 342.937L1717.24 1078.83C1719.16 1086.3 1718.14 1094.1 1714.31 1100.8C1710.31 1107.8 1703.8 1112.75 1696 1114.75L838.592 1333.69C826.539 1336.76 814.265 1331.91 807.321 1322.42ZM1526.38 339.571L1531.82 336.699L1529.35 328.061L1524.1 330.75L1526.38 339.571ZM1523.24 327.412L1528.41 324.764L1525.98 316.227L1520.99 318.697L1523.24 327.412ZM1520.13 315.367L1525.04 312.937L1522.64 304.514L1517.91 306.771L1520.13 315.367ZM1517.05 303.433L1521.7 301.214L1519.33 292.903L1514.86 294.954L1517.05 303.433ZM1514 291.642L1518.39 289.627L1516.06 281.438L1511.85 283.291L1514 291.642ZM1510.99 279.984L1515.12 278.166L1512.83 270.137L1508.88 271.799L1510.99 279.984ZM1508.03 268.487L1511.9 266.858L1509.69 259.118C1508.66 259.415 1507.64 259.764 1506.64 260.167L1505.95 260.444L1508.03 268.487ZM1505.1 257.153L1505.37 257.044C1506.49 256.597 1507.62 256.21 1508.77 255.882L1506.79 248.954C1505.57 249.081 1504.35 249.282 1503.14 249.557L1505.1 257.153ZM1502.3 246.304C1503.48 246.032 1504.66 245.824 1505.86 245.679L1504.19 239.848C1503 239.735 1501.8 239.694 1500.6 239.727L1502.3 246.304ZM1499.74 236.391C1500.9 236.332 1502.05 236.334 1503.21 236.397L1501.98 232.101C1500.81 231.711 1499.61 231.395 1498.39 231.157L1499.74 236.391ZM1497.47 227.591C1498.5 227.741 1499.53 227.942 1500.55 228.19C1500.17 227.379 1499.77 226.59 1499.32 225.825C1498.45 225.278 1497.55 224.78 1496.63 224.331L1497.47 227.591ZM560.289 512.834C562.661 508.681 566.01 505.259 570.021 502.826L577.766 529.978L561.642 535.342C560.536 535.71 559.456 536.136 558.405 536.615L557.893 534.968C555.605 527.595 556.48 519.527 560.289 512.834ZM562.722 538.537L578.692 533.223L586.391 560.216L567.805 566.836L559.417 539.866C560.484 539.358 561.588 538.914 562.722 538.537ZM568.808 570.06L587.318 563.466L594.763 589.567L576.97 596.304L568.808 570.06ZM577.971 599.522L595.689 592.814L602.903 618.103L585.87 624.918L577.971 599.522ZM586.871 628.136L603.829 621.351L610.825 645.878L594.522 652.736L586.871 628.136ZM595.527 655.965L611.755 649.139L618.553 672.969L602.952 679.839L595.527 655.965ZM603.959 683.076L619.486 676.239L626.095 699.412L611.172 706.266L603.959 683.076ZM612.185 709.523L627.034 702.703L633.473 725.277L619.204 732.09L612.185 709.523ZM620.215 735.342L634.411 728.565L640.691 750.581L627.054 757.33L620.215 735.342ZM628.066 760.584L641.63 753.872L647.762 775.37L634.738 782.034L628.066 760.584ZM635.751 785.294L648.702 778.667L654.693 799.67L642.263 806.23L635.751 785.294ZM643.283 809.509L655.639 802.988L814.745 1360.78L643.283 809.509ZM837.586 1434.22L820.313 1378.68C826.619 1391.77 841.664 1398.88 856.102 1394.8L1734.72 1146.7C1742.43 1144.53 1748.86 1139.5 1752.84 1132.54C1756.92 1125.39 1757.93 1117.09 1755.66 1109.16L1535.82 338.415L1540.63 335.875L1790.89 1140.46C1793.17 1147.84 1792.31 1155.89 1788.48 1162.59L1788.49 1162.6C1784.97 1168.77 1779.28 1173.33 1772.47 1175.42L872.651 1452.69C857.899 1457.24 842.169 1448.95 837.586 1434.22ZM1539.6 332.59L1534.87 335.09L1532.42 326.495L1536.98 324.159L1539.6 332.59ZM1535.97 320.899L1531.47 323.198L1529.05 314.707L1533.38 312.567L1535.97 320.899ZM1532.36 309.313L1528.11 311.416L1525.72 303.04L1529.81 301.091L1532.36 309.313ZM1528.79 297.827L1524.78 299.74L1522.43 291.478L1526.27 289.714L1528.79 297.827ZM1525.26 286.473L1521.49 288.203L1519.17 280.066L1521.89 278.867C1522.19 278.738 1522.48 278.613 1522.78 278.493L1525.26 286.473ZM1520.52 275.789L1518.24 276.794L1515.98 268.868C1517.13 268.457 1518.29 268.112 1519.46 267.833L1521.77 275.264C1521.35 275.431 1520.94 275.606 1520.52 275.789ZM1518.46 264.598C1517.31 264.877 1516.17 265.214 1515.05 265.608L1512.98 258.356C1514.11 258.156 1515.25 258.019 1516.39 257.945L1518.46 264.598ZM1515.36 254.653C1514.26 254.751 1513.15 254.902 1512.05 255.106L1510.25 248.794C1511.37 248.806 1512.49 248.88 1513.61 249.016L1515.36 254.653ZM1512.53 245.531C1511.45 245.449 1510.37 245.417 1509.29 245.438L1507.87 240.43C1509 240.684 1510.13 241.005 1511.24 241.394L1512.53 245.531ZM1509.69 237.407C1508.74 237.161 1507.79 236.958 1506.83 236.798L1505.96 233.757C1506.83 234.197 1507.68 234.681 1508.5 235.206C1508.93 235.917 1509.32 236.651 1509.69 237.407ZM556.393 541.534C552.449 544.03 549.145 547.464 546.797 551.576C542.724 558.717 541.889 567.258 544.511 575.053L544.6 575.318C545.701 574.782 546.836 574.305 547.999 573.89L564.617 567.971L556.393 541.534ZM565.62 571.195L549.139 577.065C547.951 577.487 546.798 577.982 545.684 578.545L554.5 604.811L573.803 597.503L565.62 571.195ZM574.804 600.722L555.571 608.004L564.163 633.602L582.722 626.177L574.804 600.722ZM583.723 629.395L565.234 636.792L573.546 661.559L591.392 654.052L583.723 629.395ZM592.397 657.281L574.62 664.758L582.678 688.767L599.84 681.21L592.397 657.281ZM600.847 684.447L583.754 691.973L591.573 715.267L608.076 707.688L600.847 684.447ZM609.089 710.944L592.655 718.492L600.255 741.136L616.124 733.56L609.089 710.944ZM617.135 736.812L601.336 744.355L608.734 766.396L623.989 758.847L617.135 736.812ZM625.001 762.101L609.814 769.617L617.024 791.097L631.687 783.595L625.001 762.101ZM632.701 786.854L618.107 794.322L625.137 815.27L639.227 807.833L632.701 786.854ZM640.247 811.112L626.226 818.512L853.465 1495.55C858.542 1510.65 874.971 1518.85 890.081 1513.83L1811.12 1207.39C1817.87 1205.15 1823.53 1200.51 1827.05 1194.34L1827.03 1194.34C1831.1 1187.22 1831.94 1178.66 1829.33 1170.87L1547.8 332.088L1543.64 334.285L1794.09 1139.49C1796.66 1147.74 1795.68 1156.77 1791.4 1164.28C1787.46 1171.2 1781.07 1176.31 1773.45 1178.65L873.631 1455.91C857.119 1461 839.5 1451.71 834.373 1435.21L640.247 811.112ZM1542.62 330.999L1546.71 328.839L1543.94 320.596L1540.01 322.61L1542.62 330.999ZM1538.99 319.35L1542.86 317.372L1540.13 309.226L1536.42 311.062L1538.99 319.35ZM1535.4 307.808L1539.05 306.005L1536.35 297.968L1532.86 299.633L1535.4 307.808ZM1531.85 296.368L1535.26 294.736L1532.65 286.962C1531.59 287.331 1530.54 287.752 1529.51 288.227L1529.34 288.304L1531.85 296.368ZM1528.33 285.064C1529.4 284.581 1530.49 284.149 1531.58 283.77L1529.18 276.601C1528.09 276.806 1527.01 277.067 1525.94 277.384L1528.33 285.064ZM1524.94 274.166C1525.99 273.856 1527.04 273.594 1528.1 273.38L1525.94 266.966C1524.89 267 1523.83 267.085 1522.78 267.223L1524.94 274.166ZM1521.76 263.953C1522.78 263.804 1523.8 263.699 1524.83 263.639L1523.01 258.212C1521.97 258.06 1520.93 257.96 1519.88 257.911L1521.76 263.953ZM1518.83 254.521C1519.83 254.532 1520.83 254.587 1521.82 254.685L1520.47 250.67C1519.44 250.291 1518.39 249.97 1517.33 249.706L1518.83 254.521ZM1516.18 246.015C1517.07 246.181 1517.94 246.382 1518.81 246.618C1518.45 245.899 1518.06 245.199 1517.65 244.521C1516.89 244.033 1516.1 243.576 1515.29 243.153L1516.18 246.015ZM533.285 590.324C535.609 586.254 538.848 582.822 542.707 580.273L551.344 606.006L534.356 612.438C533.12 612.906 531.917 613.445 530.752 614.049C528.258 606.137 529.166 597.558 533.285 590.324ZM535.543 615.587L552.416 609.198L561.028 634.856L541.068 642.842L531.88 617.258C533.058 616.623 534.281 616.064 535.543 615.587ZM542.205 646.005L562.099 638.046L570.431 662.869L551.171 670.971L542.205 646.005ZM552.31 674.142L571.505 666.069L579.581 690.131L560.992 698.316L552.31 674.142ZM562.133 701.494L580.657 693.337L588.493 716.681L570.548 724.922L562.133 701.494ZM571.695 728.118L589.575 719.906L597.192 742.599L579.867 750.87L571.695 728.118ZM581.012 754.058L598.272 745.818L605.686 767.904L588.958 776.183L581.012 754.058ZM590.103 779.371L606.767 771.125L613.991 792.649L597.84 800.914L590.103 779.371ZM598.986 804.105L615.074 795.874L622.119 816.863L606.524 825.094L598.986 804.105ZM607.677 828.303L623.207 820.106L850.284 1496.64C855.939 1513.51 874.283 1522.66 891.154 1517.03L1812.19 1210.6C1819.73 1208.09 1826.05 1202.91 1829.97 1196.03C1834.52 1188.06 1835.44 1178.51 1832.53 1169.81L1550.81 330.498L1554.38 328.617L1867.79 1201.28C1870.74 1209.49 1869.94 1218.53 1865.63 1226.1C1862.11 1232.27 1856.48 1236.98 1849.78 1239.36L907.524 1574.97C892.043 1580.49 874.903 1572.38 869.352 1556.9L607.677 828.303ZM1553.22 325.401L1549.72 327.249L1546.97 319.048L1550.33 317.331L1553.22 325.401ZM1549.18 314.139L1545.89 315.823L1543.17 307.721L1544.73 306.947C1545.26 306.685 1545.79 306.438 1546.33 306.204L1549.18 314.139ZM1543.25 303.927L1542.09 304.5L1539.43 296.591C1540.44 296.192 1541.47 295.84 1542.5 295.536L1545.19 303.029C1544.54 303.31 1543.89 303.609 1543.25 303.927ZM1541.35 292.351C1540.35 292.653 1539.34 292.997 1538.36 293.382L1535.88 286.014C1536.87 285.774 1537.87 285.579 1538.87 285.429L1541.35 292.351ZM1537.71 282.204C1536.74 282.367 1535.77 282.57 1534.81 282.81L1532.57 276.135C1533.54 276.051 1534.52 276.011 1535.49 276.013L1537.71 282.204ZM1534.28 272.665C1533.35 272.694 1532.41 272.758 1531.47 272.859L1529.52 267.051C1530.48 267.127 1531.44 267.247 1532.4 267.409L1534.28 272.665ZM1531.11 263.82C1530.19 263.712 1529.28 263.641 1528.36 263.604L1526.82 259.015C1527.8 259.283 1528.76 259.6 1529.72 259.963L1531.11 263.82ZM1527.96 255.851C1527.17 255.625 1526.37 255.427 1525.56 255.259L1524.65 252.552C1525.4 252.955 1526.12 253.386 1526.83 253.844C1527.23 254.496 1527.61 255.165 1527.96 255.851ZM528.951 619.051C525.2 621.647 522.045 625.062 519.766 629.053C515.624 636.314 514.631 644.824 516.918 652.767C518.137 652.106 519.403 651.511 520.713 650.986L537.944 644.092L528.951 619.051ZM539.081 647.255L521.966 654.102C520.6 654.65 519.287 655.283 518.031 655.995L527.539 680.911L548.067 672.276L539.081 647.255ZM549.206 675.448L528.739 684.056L538.038 708.424L557.907 699.675L549.206 675.448ZM559.048 702.852L539.241 711.575L548.243 735.166L567.481 726.331L559.048 702.852ZM568.628 729.527L549.452 738.334L558.186 761.221L576.817 752.326L568.628 729.527ZM577.962 755.514L559.391 764.38L567.876 786.616L585.924 777.684L577.962 755.514ZM587.069 780.873L569.082 789.774L577.336 811.405L594.822 802.458L587.069 780.873ZM595.968 805.65L578.542 814.566L586.577 835.623L603.521 826.68L595.968 805.65ZM604.673 829.888L587.79 838.8L885.224 1618.24C888.16 1625.91 893.897 1632 901.412 1635.38C908.913 1638.76 917.28 1639.02 924.973 1636.11L1888.44 1271.33C1895.1 1268.81 1900.71 1264.03 1904.21 1257.87L1904.23 1257.86C1908.81 1249.84 1909.54 1240.3 1906.26 1231.68L1560.42 325.429C1560.27 325.505 1560.13 325.582 1559.98 325.66L1557.38 327.031L1870.96 1200.15C1874.25 1209.29 1873.37 1219.34 1868.56 1227.78C1864.65 1234.64 1858.38 1239.88 1850.92 1242.54L908.67 1578.14C891.435 1584.27 872.372 1575.25 866.183 1558.02L604.673 829.888ZM1556.23 323.816L1558.39 322.673C1558.66 322.529 1558.94 322.389 1559.21 322.252L1556.27 314.556C1555.29 314.928 1554.31 315.344 1553.35 315.802L1556.23 323.816ZM1552.21 312.622C1553.15 312.181 1554.11 311.778 1555.07 311.413L1552.32 304.184C1551.36 304.417 1550.41 304.688 1549.47 305.001L1552.21 312.622ZM1548.33 301.83C1549.25 301.522 1550.18 301.25 1551.11 301.013L1548.55 294.315C1547.62 294.419 1546.7 294.56 1545.78 294.737L1548.33 301.83ZM1544.63 291.524C1545.52 291.34 1546.41 291.188 1547.31 291.067L1545.02 285.063C1544.12 285.036 1543.22 285.044 1542.32 285.087L1544.63 291.524ZM1541.13 281.788C1542 281.723 1542.86 281.688 1543.73 281.683L1541.8 276.622C1540.92 276.452 1540.03 276.317 1539.13 276.218L1541.13 281.788ZM1537.88 272.732C1538.73 272.789 1539.57 272.875 1540.41 272.99L1538.99 269.254C1538.1 268.904 1537.2 268.593 1536.3 268.322L1537.88 272.732ZM1534.91 264.476C1535.65 264.643 1536.38 264.835 1537.11 265.05C1536.77 264.414 1536.41 263.792 1536.03 263.185C1535.38 262.753 1534.7 262.344 1534.01 261.959L1534.91 264.476ZM506.247 667.781C508.515 663.804 511.534 660.448 515.155 657.838L524.454 682.208L507.057 689.526C505.688 690.105 504.368 690.758 503.099 691.483C501.005 683.513 502.085 675.065 506.247 667.781ZM508.37 692.624L525.655 685.354L534.973 709.774L513.931 719.04L504.373 695.329C504.298 695.14 504.224 694.952 504.152 694.763C505.493 693.958 506.901 693.243 508.37 692.624ZM515.19 722.165L536.175 712.925L545.196 736.565L524.775 745.944L515.19 722.165ZM526.041 749.085L546.405 739.733L555.156 762.668L535.331 772.133L526.041 749.085ZM536.593 775.264L556.361 765.827L564.863 788.107L545.61 797.635L536.593 775.264ZM546.872 800.765L566.068 791.266L574.338 812.939L555.636 822.508L546.872 800.765ZM556.898 825.64L575.544 816.1L583.595 837.197L565.423 846.789L556.898 825.64ZM566.691 849.936L584.807 840.374L882.075 1619.43C885.327 1627.95 891.707 1634.7 900.035 1638.45C908.383 1642.19 917.66 1642.47 926.18 1639.25L1889.64 1274.48C1897.03 1271.68 1903.25 1266.37 1907.15 1259.53C1912.23 1250.63 1913.05 1240.05 1909.39 1230.49L1563.5 324.018C1564.38 323.655 1565.28 323.327 1566.19 323.033L1944.7 1262.09C1948.34 1271.12 1947.67 1281.17 1942.83 1289.64L1942.81 1289.64C1939.26 1295.9 1933.8 1300.63 1927.1 1303.31L942.415 1697.26C934.541 1700.39 925.919 1700.3 918.119 1696.95C910.318 1693.61 904.269 1687.44 901.097 1679.58L566.691 849.936ZM1564.92 319.89C1564.04 320.182 1563.16 320.504 1562.29 320.857L1559.48 313.505C1560.35 313.264 1561.22 313.056 1562.09 312.878L1564.92 319.89ZM1560.82 309.711C1559.97 309.896 1559.12 310.109 1558.28 310.35L1555.68 303.532C1556.52 303.409 1557.37 303.316 1558.21 303.252L1560.82 309.711ZM1556.9 299.985C1556.08 300.069 1555.26 300.177 1554.45 300.312L1552.08 294.097C1552.9 294.088 1553.72 294.107 1554.55 294.155L1556.9 299.985ZM1553.17 290.729C1552.38 290.715 1551.59 290.724 1550.8 290.758L1548.75 285.382C1549.57 285.496 1550.38 285.64 1551.18 285.812L1553.17 290.729ZM1549.7 282.123C1548.93 282.005 1548.17 281.911 1547.4 281.841L1545.8 277.648C1546.63 277.915 1547.45 278.213 1548.25 278.543L1549.7 282.123ZM1546.28 274.28C1545.63 274.081 1544.97 273.899 1544.31 273.735L1543.41 271.389C1544.04 271.749 1544.64 272.127 1545.24 272.524C1545.6 273.096 1545.95 273.682 1546.28 274.28ZM501.299 696.687C497.824 699.311 494.915 702.614 492.709 706.483C488.538 713.794 487.37 722.2 489.29 730.194C490.609 729.408 491.985 728.7 493.414 728.074L510.855 720.394L501.299 696.687ZM512.114 723.52L494.767 731.158C493.202 731.848 491.706 732.645 490.286 733.543C490.508 734.169 490.75 734.79 491.012 735.407L500.248 757.207L521.718 747.347L512.114 723.52ZM522.985 750.489L501.569 760.325L511.41 783.554L532.293 773.583L522.985 750.489ZM533.555 776.715L512.725 786.659L522.269 809.186L542.59 799.129L533.555 776.715ZM543.852 802.26L523.584 812.29L532.852 834.166L552.632 824.045L543.852 802.26ZM553.895 827.177L534.167 837.271L543.175 858.532L562.435 848.366L553.895 827.177ZM563.703 851.513L544.496 861.651L917.003 1740.92C924.042 1757.54 943.272 1765.36 959.892 1758.37L1965.78 1335.26C1972.45 1332.46 1977.87 1327.66 1981.45 1321.39L1981.44 1321.4C1986.53 1312.48 1987.16 1301.94 1983.15 1292.48L1571.86 321.66C1571.04 321.793 1570.23 321.952 1569.43 322.138L1947.79 1260.82C1951.83 1270.83 1951.07 1281.93 1945.73 1291.3C1941.77 1298.21 1935.78 1303.45 1928.35 1306.42L943.662 1700.35C934.967 1703.85 925.409 1703.73 916.782 1700.04C908.161 1696.34 901.462 1689.52 897.967 1680.83L563.703 851.513ZM1568.15 318.966C1568.93 318.775 1569.72 318.608 1570.51 318.463L1567.84 312.174C1567.05 312.209 1566.27 312.269 1565.48 312.353L1568.15 318.966ZM1564.18 309.124C1564.93 309.025 1565.69 308.947 1566.45 308.891L1564.08 303.284C1563.31 303.219 1562.54 303.177 1561.78 303.16L1564.18 309.124ZM1560.41 299.783C1561.15 299.774 1561.88 299.784 1562.61 299.814L1560.58 295.032C1559.83 294.856 1559.07 294.706 1558.32 294.579L1560.41 299.783ZM1556.86 290.975C1557.57 291.056 1558.28 291.158 1558.99 291.278L1557.52 287.807C1557.03 287.603 1556.54 287.409 1556.04 287.226C1555.78 287.126 1555.51 287.03 1555.24 286.938L1556.86 290.975ZM1553.63 282.944C1554.23 283.104 1554.83 283.279 1555.43 283.469C1555.12 282.924 1554.8 282.389 1554.46 281.865C1553.9 281.488 1553.33 281.128 1552.76 280.785L1553.63 282.944ZM479.156 745.211C481.301 741.449 484.101 738.198 487.427 735.568C487.576 735.956 487.732 736.342 487.895 736.727L497.171 758.621L479.778 766.608C478.288 767.295 476.855 768.069 475.484 768.926C473.783 760.918 475.039 752.431 479.156 745.211ZM481.184 769.687L498.492 761.738L508.352 785.013L486.461 795.465L477.617 775.519C477.157 774.48 476.752 773.423 476.403 772.352C477.912 771.348 479.509 770.456 481.184 769.687ZM487.827 798.546L509.668 788.119L519.23 810.689L497.893 821.249L487.827 798.546ZM499.259 824.328L520.546 813.794L529.832 835.712L509.026 846.357L499.259 824.328ZM510.391 849.437L531.147 838.817L540.171 860.117L519.877 870.829L510.391 849.437ZM521.248 873.922L541.493 863.236L913.893 1742.23C921.663 1760.54 942.876 1769.18 961.205 1761.47L1967.1 1338.36C1974.46 1335.27 1980.44 1329.99 1984.38 1323.06C1989.99 1313.22 1990.68 1301.6 1986.26 1291.16L1575.34 321.257C1576.05 321.207 1576.76 321.178 1577.47 321.168L2021.6 1322.86C2025.91 1332.59 2025.33 1343.92 2020.06 1353.17C2016.48 1359.44 2011.07 1364.31 2004.44 1367.23L977.321 1819.51C969.109 1823.14 959.94 1823.33 951.54 1820.08C943.153 1816.84 936.516 1810.52 932.869 1802.28L521.248 873.922ZM1575.99 317.834C1575.31 317.867 1574.63 317.916 1573.96 317.981L1571.5 312.193C1572.19 312.23 1572.88 312.286 1573.57 312.362L1575.99 317.834ZM1572.01 308.858C1571.36 308.818 1570.71 308.792 1570.06 308.783L1567.96 303.824C1568.64 303.956 1569.31 304.106 1569.98 304.275L1572.01 308.858ZM1568.29 300.458C1567.66 300.342 1567.03 300.24 1566.4 300.153L1564.76 296.279C1565.45 296.53 1566.13 296.801 1566.8 297.091L1568.29 300.458ZM1564.59 292.666C1564.07 292.496 1563.55 292.338 1563.03 292.19L1562.18 290.189C1562.67 290.489 1563.16 290.801 1563.63 291.124C1563.96 291.627 1564.29 292.141 1564.59 292.666ZM473.572 774.453C470.384 777.085 467.689 780.282 465.604 783.939C461.471 791.177 460.144 799.617 461.685 807.656C463.107 806.735 464.596 805.903 466.147 805.163L483.429 796.912L474.546 776.879C474.192 776.08 473.867 775.27 473.572 774.453ZM484.795 799.993L467.588 808.208C465.815 809.056 464.129 810.038 462.542 811.142C463.003 812.67 463.572 814.175 464.249 815.644L472.622 833.755L494.881 822.739L484.795 799.993ZM496.246 825.819L474.034 836.811L484.298 859.01L506.032 847.889L496.246 825.819ZM507.397 850.969L485.71 862.066L495.669 883.607L516.9 872.4L507.397 850.969ZM518.271 875.493L497.087 886.674L948.761 1863.65C952.659 1872.05 959.588 1878.45 968.274 1881.67C976.973 1884.89 986.397 1884.52 994.811 1880.66L2043.13 1399.22C2049.73 1396.18 2055.12 1391.26 2058.71 1384.97L2058.7 1384.95C2064.24 1375.24 2064.74 1363.39 2060.06 1353.24L1583.07 321.501C1582.45 321.419 1581.83 321.351 1581.2 321.299L2024.68 1321.51C2029.44 1332.2 2028.79 1344.66 2023 1354.83C2019.06 1361.74 2013.12 1367.09 2005.82 1370.3L978.708 1822.56C969.655 1826.56 959.575 1826.77 950.342 1823.19C941.096 1819.61 933.794 1812.66 929.798 1803.61L518.271 875.493ZM1579.66 317.822C1580.25 317.846 1580.84 317.882 1581.42 317.931L1579.35 313.459C1578.75 313.295 1578.14 313.146 1577.53 313.012L1579.66 317.822ZM1575.88 309.285C1576.44 309.375 1577 309.476 1577.57 309.589L1576.09 306.396C1575.49 306.126 1574.88 305.872 1574.26 305.634L1575.88 309.285ZM1572.4 301.447C1572.86 301.583 1573.32 301.728 1573.78 301.881C1573.49 301.403 1573.19 300.933 1572.88 300.471C1572.46 300.178 1572.03 299.894 1571.59 299.619L1572.4 301.447ZM452.032 822.64C454.057 819.087 456.651 815.955 459.708 813.334C460.132 814.582 460.624 815.814 461.184 817.024L469.608 835.246L452.505 843.71C450.893 844.505 449.348 845.401 447.875 846.39C446.476 838.326 447.883 829.919 452.032 822.64ZM453.992 846.73L471.021 838.302L481.303 860.542L458.729 872.093L450.867 855.729C449.963 853.847 449.233 851.909 448.679 849.935C450.344 848.727 452.119 847.655 453.992 846.73ZM460.186 875.125L482.715 863.598L492.692 885.178L470.616 896.831L460.186 875.125ZM472.078 899.874L494.11 888.246L945.69 1865.04C949.95 1874.26 957.55 1881.28 967.096 1884.8C976.635 1888.34 986.976 1887.94 996.204 1883.7L2044.52 1402.26C2051.77 1398.92 2057.69 1393.51 2061.62 1386.61C2067.69 1375.97 2068.24 1362.98 2063.09 1351.85L1587.1 322.255C1587.65 322.386 1588.19 322.529 1588.73 322.684L2098.52 1383.64C2103.58 1394.2 2103.15 1406.57 2097.35 1416.73L2097.33 1416.74C2093.73 1423.04 2088.36 1428.02 2081.78 1431.17L1012.25 1941.79C994.513 1950.26 973.155 1942.72 964.634 1924.99L472.078 899.874ZM1586.83 318.737C1586.34 318.63 1585.84 318.532 1585.34 318.443L1583.71 314.924C1584.26 315.145 1584.8 315.378 1585.34 315.622L1586.83 318.737ZM1582.14 310.785C1582.01 310.742 1581.88 310.7 1581.74 310.658L1581 309.063C1581.38 309.303 1581.75 309.55 1582.11 309.805C1582.38 310.21 1582.65 310.622 1582.91 311.04C1582.65 310.953 1582.4 310.868 1582.14 310.785ZM445.862 852.199C442.928 854.809 440.429 857.886 438.461 861.341C434.287 868.653 432.812 877.036 434.08 885.126C435.598 884.069 437.195 883.111 438.861 882.258L455.747 873.618L447.841 857.163C447.063 855.543 446.404 853.884 445.862 852.199ZM457.204 876.651L440.395 885.252C438.43 886.258 436.571 887.424 434.834 888.736C435.468 891.156 436.356 893.531 437.499 895.821L444.789 910.462L467.651 898.395L457.204 876.651ZM469.114 901.439L446.294 913.484L980.507 1986.33C984.878 1995.11 992.403 2001.65 1001.69 2004.79C1010.99 2007.94 1020.94 2007.26 1029.72 2002.92L2120.46 1463.14C2127 1459.89 2132.37 1454.85 2135.99 1448.53C2142.05 1437.9 2142.43 1425 2136.97 1414.04L1594.62 324.895C1594.15 324.676 1593.68 324.466 1593.21 324.264L2101.53 1382.2C2107.08 1393.76 2106.6 1407.29 2100.25 1418.41C2096.31 1425.3 2090.44 1430.76 2083.23 1434.2L1013.69 1944.82C994.284 1954.08 970.894 1945.85 961.581 1926.44L469.114 901.439ZM1591.1 319.894L1590.41 318.438C1590.71 318.637 1591.01 318.841 1591.3 319.05C1591.57 319.435 1591.83 319.826 1592.08 320.224C1591.76 320.11 1591.43 320 1591.1 319.894ZM424.896 900.03C426.809 896.687 429.207 893.681 432.007 891.098C432.651 893.213 433.475 895.291 434.479 897.308L441.812 912.034L425.205 920.799C423.49 921.706 421.848 922.724 420.288 923.846C419.153 915.737 420.698 907.376 424.896 900.03ZM426.799 923.773L443.317 915.055L977.534 1987.83C982.301 1997.39 990.511 2004.55 1000.66 2007.97C1010.81 2011.4 1021.67 2010.67 1031.26 2005.93L2122 1466.15C2129.15 1462.61 2135.01 1457.09 2138.94 1450.19C2145.56 1438.58 2145.97 1424.51 2140 1412.54L1599.89 327.893C1600.1 328.039 1600.31 328.187 1600.53 328.337C1601.48 329.71 1602.35 331.155 1603.13 332.666L2175.41 1444.42C2181.27 1455.79 2180.99 1469.21 2174.64 1480.31L2174.64 1480.33C2171.03 1486.66 2165.66 1491.76 2159.14 1495.1L1047.18 2064.06C1028.7 2073.52 1005.93 2066.16 996.406 2047.69L424.131 935.913C422.739 933.215 421.694 930.402 420.993 927.532C422.801 926.117 424.742 924.859 426.799 923.773ZM418.159 929.983C418.894 932.537 419.885 935.041 421.13 937.46L993.419 2049.24C1003.78 2069.37 1028.61 2077.38 1048.74 2067.07L2160.7 1498.11C2167.81 1494.47 2173.64 1488.88 2177.59 1481.99C2184.47 1469.9 2184.79 1455.28 2178.41 1442.9L1608.78 336.289C1610.1 338.008 1611.29 339.851 1612.32 341.805L2213.85 1474.82C2220.1 1486.59 2219.89 1500.54 2213.29 1512.11L2213.3 1512.12C2209.69 1518.46 2204.34 1523.64 2197.83 1527.08L1064.66 2125.2C1055.52 2130.01 1045.05 2130.99 1035.16 2127.94C1025.25 2124.89 1017.14 2118.18 1012.29 2109.04L410.749 976.032C404.512 964.256 404.716 950.314 411.324 938.731C413.176 935.479 415.479 932.539 418.159 929.983Z" fill="#EF7F1A" fill-opacity="0.3"/>
</g>
<defs>
<radialGradient id="paint0_radial_4600_44574" cx="0" cy="0" r="1" gradientUnits="userSpaceOnUse" gradientTransform="translate(750 988) rotate(90) scale(988 750)">
<stop stop-color="#737373"/>
<stop offset="1" stop-color="#D9D9D9" stop-opacity="0"/>
</radialGradient>
</defs>
</svg>
