<svg width="488" height="1008" viewBox="0 0 488 1008" fill="none" xmlns="http://www.w3.org/2000/svg">
<mask id="mask0_4600_44571" style="mask-type:alpha" maskUnits="userSpaceOnUse" x="-709" y="0" width="1197" height="1008">
<ellipse cx="-110.5" cy="504" rx="598.5" ry="504" fill="url(#paint0_radial_4600_44571)"/>
</mask>
<g mask="url(#mask0_4600_44571)">
<path fill-rule="evenodd" clip-rule="evenodd" d="M-1157.74 91.7577C-1164.88 96.4524 -1168.9 104.658 -1168.2 113.178C-1167.87 117.029 -1166.57 120.787 -1164.44 124.035L-1154.33 139.374C-1156.51 143.415 -1157.54 148.064 -1157.16 152.756C-1156.79 157.066 -1155.26 161.2 -1152.72 164.739L-1143.05 178.15C-1145.45 182.386 -1146.56 187.299 -1146.15 192.323L-1146.15 192.309C-1145.75 197.094 -1143.98 201.631 -1141.01 205.431L-1131.87 217.117C-1134.42 221.538 -1135.61 226.688 -1135.18 231.896L-1135.19 231.898C-1134.75 237.157 -1132.72 242.08 -1129.3 246.138L-1120.83 256.182C-1123.48 260.738 -1124.7 266.03 -1124.25 271.459C-1123.77 277.222 -1121.46 282.529 -1117.58 286.828L-1109.85 295.372C-1112.55 300.062 -1113.8 305.495 -1113.34 311.039C-1112.83 317.202 -1110.18 323.051 -1105.87 327.519L-1098.97 334.667C-1101.69 339.463 -1102.93 345.007 -1102.46 350.608C-1101.92 357.262 -1098.97 363.506 -1094.17 368.196L-1088.16 374.054C-1090.83 378.936 -1092.06 384.553 -1091.6 390.194C-1091.01 397.365 -1087.75 403.99 -1082.45 408.871L-1077.41 413.504C-1080.06 418.443 -1081.23 424.038 -1080.76 429.768L-1080.76 429.753C-1080.13 437.443 -1076.57 444.478 -1070.74 449.548L-1066.73 453.05C-1069.28 458.031 -1070.41 463.632 -1069.94 469.345C-1069.26 477.553 -1065.38 484.966 -1059.04 490.225L-1056.09 492.669C-1058.53 497.678 -1059.6 503.264 -1059.14 508.923C-1058.42 517.531 -1054.12 525.55 -1047.33 530.902L-1045.49 532.361C-1047.81 537.371 -1048.82 542.922 -1048.35 548.504C-1047.59 557.646 -1042.95 566.055 -1035.63 571.565L-1034.9 572.113C-1037.1 577.113 -1038.03 582.608 -1037.58 588.101L-1037.56 588.1C-1036.78 597.587 -1031.97 606.245 -1024.35 611.932C-1026.39 616.89 -1027.25 622.296 -1026.8 627.684C-1026.01 637.223 -1021.31 645.886 -1013.81 651.728C-1015.73 656.633 -1016.51 661.9 -1016.06 667.27C-1015.26 676.875 -1010.66 685.556 -1003.26 691.554C-1005.05 696.411 -1005.76 701.591 -1005.32 706.856L-1005.33 706.844C-1004.53 716.527 -1000 725.234 -992.718 731.372C-994.389 736.176 -995.036 741.278 -994.605 746.447L-994.59 746.445C-993.804 756.032 -989.262 764.91 -982.142 771.183C-983.696 775.941 -984.29 780.966 -983.877 786.035L-983.892 786.037C-983.082 795.679 -978.618 804.597 -971.582 811.008C-973.036 815.71 -973.578 820.651 -973.164 825.625C-972.363 835.345 -967.968 844.28 -961.016 850.812C-962.376 855.462 -962.873 860.331 -962.465 865.217L-962.48 865.219C-961.667 875.006 -957.327 883.99 -950.448 890.644C-951.713 895.233 -952.166 900.017 -951.766 904.809C-950.952 914.664 -946.681 923.688 -939.886 930.458C-941.065 934.992 -941.48 939.706 -941.095 944.419L-941.097 944.404C-939.893 958.85 -931.509 971.47 -918.665 978.18L218.268 1572.29C228.226 1577.49 239.632 1578.53 250.376 1575.18C261.121 1571.84 269.91 1564.52 275.131 1554.58L871.293 420.378C875.006 413.304 876.62 405.374 875.973 397.445C874.786 383.013 866.4 370.378 853.556 363.668L-283.376 -230.44C-289.111 -233.437 -295.325 -235.047 -301.616 -235.237C-305.771 -236.749 -310.107 -237.569 -314.482 -237.685C-318.681 -239.226 -323.027 -240.02 -327.347 -240.116C-331.496 -241.673 -335.847 -242.503 -340.244 -242.586C-344.368 -244.153 -348.702 -244.984 -353.087 -245.051C-357.242 -246.65 -361.574 -247.453 -365.882 -247.509C-370.028 -249.148 -374.423 -249.997 -378.876 -250.019C-382.931 -251.635 -387.239 -252.471 -391.612 -252.489C-395.715 -254.165 -400.094 -255.018 -404.543 -255.005C-408.595 -256.679 -412.936 -257.526 -417.355 -257.499C-421.476 -259.234 -425.852 -260.061 -430.199 -260.019C-434.303 -261.783 -438.681 -262.618 -443.031 -262.558C-447.057 -264.332 -451.432 -265.212 -455.913 -265.12C-459.973 -266.932 -464.345 -267.776 -468.688 -267.676C-472.673 -269.517 -477.058 -270.423 -481.571 -270.286C-485.332 -272.05 -489.474 -272.954 -493.752 -272.902C-493.978 -272.899 -494.204 -272.894 -494.43 -272.886C-498.445 -274.8 -502.846 -275.675 -507.216 -275.502C-511.221 -277.465 -515.643 -278.359 -520.035 -278.161C-524.02 -280.164 -528.452 -281.074 -532.854 -280.85C-536.81 -282.884 -541.241 -283.808 -545.646 -283.56C-549.574 -285.632 -554.008 -286.576 -558.42 -286.307C-565.755 -290.285 -575.001 -290.216 -582.454 -285.332L-1157.74 91.7577ZM-564.541 -285.124C-569.838 -286.51 -575.683 -285.739 -580.613 -282.512L-1155.87 94.5748C-1161.99 98.5859 -1165.43 105.61 -1164.82 112.899C-1164.55 116.189 -1163.44 119.401 -1161.6 122.178L-1152.33 136.259C-1150.9 134.375 -1149.19 132.692 -1147.23 131.284L-570.948 -281.852C-568.937 -283.293 -566.776 -284.38 -564.541 -285.124ZM-1150.36 139.247C-1149.01 137.253 -1147.29 135.479 -1145.25 134.012L-569.001 -279.134C-566.011 -281.272 -562.64 -282.501 -559.221 -282.875C-558.128 -282.213 -557.092 -281.441 -556.13 -280.563C-557.274 -279.937 -558.382 -279.211 -559.443 -278.386L-1131.99 167.14L-1150.36 139.247ZM-1152.2 142.61C-1153.51 145.65 -1154.08 149.017 -1153.79 152.479C-1153.49 156.183 -1152.17 159.744 -1149.98 162.791L-1141.07 175.167C-1139.82 173.559 -1138.36 172.093 -1136.7 170.808L-1134.67 169.225L-1152.2 142.61ZM-1132.82 172.037L-1134.63 173.449C-1136.33 174.772 -1137.8 176.319 -1139 178.03L-1119.67 204.867L-1114.21 200.286L-1132.82 172.037ZM-1112.35 203.103L-1117.7 207.593L-1098.43 234.341L-1094.25 230.58L-1112.35 203.103ZM-1091.71 228.292L-1109.74 200.913L-548.484 -270.063L-544.57 -264.12L-1091.71 228.292ZM-1092.38 233.42L-1096.45 237.085L-1077.75 263.047L-1074.76 260.174L-1092.38 233.42ZM-1072.28 257.793L-1089.84 231.132L-542.695 -261.273L-538.509 -254.919L-1072.28 257.793ZM-1072.87 263.033L-1075.76 265.805L-1057.57 291.059L-1055.68 289.134L-1072.87 263.033ZM-1053.26 286.664L-1070.4 260.652L-536.626 -252.061L-532.184 -245.317L-1053.26 286.664ZM-1053.79 292.006L-1055.57 293.826L-1037.85 318.419L-1037 317.495L-1053.79 292.006ZM-1034.64 314.942L-1051.37 289.536L-530.293 -242.445L-525.625 -235.358L-1034.64 314.942ZM-1035.09 320.388L-1035.85 321.203L-1020.77 342.121L-1035.09 320.388ZM-1016.37 342.677L-1032.73 317.835L-523.715 -232.458L-518.837 -225.054L-1016.37 342.677ZM-998.439 369.896L-1014.45 345.584L-516.928 -222.156L-511.843 -214.435L-998.439 369.896ZM-980.83 396.629L-996.511 372.822L-509.905 -211.494L-504.663 -203.534L-980.83 396.629ZM-973.677 407.489L-978.877 399.594L-502.705 -200.562L-497.29 -192.342L-963.01 422.293L-973.677 407.489ZM-919.856 489.201L-923.978 482.942L-917.376 491.384L-913.635 496.576L-919.856 489.201ZM-922.441 491.395L-915.105 502.531L-916.29 504.304L-933.3 485.5L-930.64 481.674L-922.441 491.395ZM-946.574 454.76L-938.267 467.37L-947.651 456.245L-946.574 454.76ZM-949.547 450.247L-948.557 451.751L-949.891 453.589L-967.066 433.226L-964.996 430.494L-949.547 450.247ZM-976.583 409.206L-972.369 415.603L-981.905 403.41L-981.304 402.653L-976.583 409.206ZM-913.099 505.578L-907.635 513.872L-913.965 506.874L-913.099 505.578ZM-896.74 524.295L-904.039 513.214L-895.854 522.917L-896.74 524.295ZM-892.812 530.258L-894.714 527.371L-893.582 525.611L-887.64 532.657L-878.486 545.362L-878.756 545.797L-892.812 530.258ZM-895.431 532.398L-896.901 530.772L-900.114 535.769L-883.32 553.161L-882.56 551.936L-895.431 532.398ZM-880.518 555.036L-880.906 555.661L-878.389 558.268L-880.518 555.036ZM-865.72 571.389L-878.566 551.886L-878.255 551.384L-862.309 569.012L-864.491 572.661L-865.72 571.389ZM-868.325 573.546L-866.593 576.175L-870.014 581.894L-886.942 565.401L-882.738 558.618L-868.325 573.546ZM-864.528 579.309L-850.803 600.144L-850.977 600.444L-867.525 584.319L-864.528 579.309ZM-848.923 596.891L-855.659 586.664L-847.747 594.858L-848.923 596.891ZM-838.709 612.397L-846.848 600.04L-845.311 597.381L-829.534 613.721L-832.291 618.65L-838.709 612.397ZM-841.293 614.582L-835.194 623.839L-838.136 629.098L-854.79 613.776L-850.224 605.879L-841.293 614.582ZM-833.109 627.005L-821.873 644.062L-835.59 631.441L-833.109 627.005ZM-817.938 643.931L-830.063 625.523L-815.599 639.616L-817.938 643.931ZM-811.667 653.451L-815.839 647.118L-813.095 642.055L-798.751 656.032L-797.672 657.53L-800.789 663.46L-811.667 653.451ZM-814.243 655.645L-818.392 651.827L-823.257 660.805L-806.891 675.07L-804.475 670.473L-814.243 655.645ZM-802.691 667.079L-804.039 665.033L-802.405 666.536L-802.691 667.079ZM-802.353 673.693L-804.276 677.35L-794.103 686.217L-802.353 673.693ZM-784.669 694.44L-800.57 670.3L-799.835 668.901L-769.114 697.167L-763.829 704.503C-767.412 705.087 -771.081 704.681 -774.424 703.37L-784.669 694.44ZM-787.193 696.708L-786.59 697.622C-783.972 701.605 -780.331 704.521 -776.238 706.256L-739.483 738.294L-738.749 739.313C-736.283 742.734 -733.077 745.314 -729.505 746.992L-691.71 779.936L-690.877 781C-688.621 783.889 -685.842 786.14 -682.777 787.722L-644 821.523L-643.039 822.662C-641.024 825.052 -638.657 826.978 -636.078 828.428L-596.157 863.225L-595.155 864.333C-593.435 866.236 -591.497 867.828 -589.411 869.106L-548.624 904.657L-547.331 905.996C-545.897 907.48 -544.332 908.763 -542.67 909.847L-500.725 946.409L-499.449 947.652C-498.394 948.679 -497.277 949.605 -496.111 950.431L-457.967 983.679L-811.417 690.936L-805.886 680.414L-787.193 696.708ZM-769.072 708.035C-766.615 708.247 -764.115 708.075 -761.671 707.497L-748.135 726.286L-769.072 708.035ZM-755.542 705.091L-736.65 722.472L-752.009 702.834L-754.241 704.297C-754.669 704.577 -755.103 704.842 -755.542 705.091ZM-748.352 700.437L-735.868 712.601L-746.92 699.498L-748.352 700.437ZM-749.17 696.954L-750.818 698.034L-753.62 695.304L-765.803 679.727L-749.17 696.954ZM-742.399 696.535L-705.559 737.26L-703.479 739.414L-130.902 328.925C-124.946 324.651 -121.762 317.763 -122.36 310.458L-122.375 310.46C-122.68 306.755 -124 303.195 -126.182 300.163L-403.608 -84.9042L-411.976 -68.9837L-172.255 294.945C-170.121 298.192 -168.821 301.95 -168.498 305.787C-167.792 314.307 -171.794 322.525 -178.971 327.209L-742.399 696.535ZM-413.778 -65.5559L-175.105 296.789C-173.271 299.565 -172.145 302.776 -171.877 306.066L-171.86 306.079C-171.264 313.37 -174.7 320.393 -180.822 324.419L-744.681 694.012L-780.654 654.245L-787.724 645.862L-413.778 -65.5559ZM-414.101 -72.2095L-405.816 -87.9702L-412.452 -97.1805L-420.621 -82.108L-414.101 -72.2095ZM-422.453 -78.7269L-415.903 -68.7816L-790.074 643.076L-804.426 626.059L-422.453 -78.7269ZM-422.72 -85.2944L-414.636 -100.211L-421.19 -109.308L-429.157 -95.0666L-422.72 -85.2944ZM-431.021 -91.7342L-424.552 -81.9134L-806.755 623.298L-821.353 605.991L-431.021 -91.7342ZM-431.242 -98.2326L-423.361 -112.321L-429.824 -121.293L-437.587 -107.865L-431.242 -98.2326ZM-439.484 -104.583L-433.107 -94.9002L-823.671 603.242L-838.521 585.635L-439.484 -104.583ZM-439.668 -111.023L-431.991 -124.301L-438.365 -133.148L-445.921 -120.516L-439.668 -111.023ZM-447.852 -117.287L-441.565 -107.741L-840.832 582.895L-850.474 571.462L-855.778 564.681L-447.852 -117.287ZM-447.978 -123.639L-440.509 -136.124L-446.786 -144.836L-454.132 -132.982L-447.978 -123.639ZM-456.099 -129.807L-449.909 -120.409L-858.01 561.827L-872.916 542.768L-456.099 -129.807ZM-456.175 -136.084L-448.917 -147.794L-455.074 -156.34L-462.209 -145.244L-456.175 -136.084ZM-464.214 -142.126L-458.142 -132.909L-875.127 539.941L-890.312 520.525L-464.214 -142.126ZM-464.244 -148.334L-457.2 -159.29L-463.25 -167.688L-470.17 -157.33L-464.244 -148.334ZM-472.214 -154.272L-466.249 -145.216L-892.509 517.715L-907.986 497.926L-472.214 -154.272ZM-472.182 -160.385L-465.352 -170.606L-471.287 -178.844L-477.991 -169.204L-472.182 -160.385ZM-480.076 -166.207L-474.226 -157.326L-910.166 495.139L-914.73 489.303L-925.525 474.32L-480.076 -166.207ZM-479.98 -172.223L-473.367 -181.731L-479.165 -189.778L-485.652 -180.833L-479.98 -172.223ZM-487.778 -177.901L-482.064 -169.226L-927.61 471.426L-943.085 449.948L-487.778 -177.901ZM-487.629 -183.835L-481.235 -192.652L-486.89 -200.501L-493.158 -192.229L-487.629 -183.835ZM-495.329 -189.364L-489.756 -180.903L-945.161 447.067L-960.949 425.154L-495.329 -189.364ZM-495.119 -195.207L-488.946 -203.354L-494.44 -210.979L-500.488 -203.356L-495.119 -195.207ZM-502.446 -206.329L-496.494 -213.83L-501.812 -221.212L-507.64 -214.214L-502.446 -206.329ZM-509.577 -217.156L-503.847 -224.037L-509.006 -231.197L-514.612 -224.799L-509.577 -217.156ZM-516.521 -227.697L-511.013 -233.983L-515.957 -240.845L-521.345 -235.02L-516.521 -227.697ZM-523.255 -237.92L-517.968 -243.637L-522.697 -250.2L-527.867 -244.921L-523.255 -237.92ZM-529.759 -247.794L-524.691 -252.968L-529.186 -259.207L-534.142 -254.447L-529.759 -247.794ZM-536.024 -257.306L-531.173 -261.966L-535.403 -267.836L-540.148 -263.565L-536.024 -257.306ZM-542.023 -266.412L-537.385 -270.587L-540.15 -274.426C-540.401 -274.774 -540.661 -275.112 -540.929 -275.44C-542.629 -274.642 -544.253 -273.614 -545.756 -272.352L-545.872 -272.255L-542.023 -266.412ZM-547.737 -275.087C-546.365 -276.215 -544.909 -277.176 -543.393 -277.972C-544.339 -278.79 -545.348 -279.512 -546.406 -280.134C-547.796 -279.995 -549.178 -279.719 -550.531 -279.304C-550.381 -279.092 -550.234 -278.877 -550.09 -278.659L-547.737 -275.087ZM-553.781 -278.006C-555.027 -277.384 -556.23 -276.631 -557.371 -275.744L-1130.14 169.952L-1111.6 198.097L-550.35 -272.896L-552.924 -276.802C-553.197 -277.217 -553.482 -277.618 -553.781 -278.006ZM-552.827 -282.069C-552.527 -282.18 -552.226 -282.285 -551.923 -282.383C-552.434 -282.51 -552.951 -282.618 -553.47 -282.706C-553.252 -282.498 -553.038 -282.286 -552.827 -282.069ZM-754.087 700.177L-756.094 701.493C-756.768 701.934 -757.459 702.329 -758.163 702.679L-766.554 694.959L-784.824 669.601L-756.147 697.543L-754.087 700.177ZM-1142.8 192.048C-1143.11 188.257 -1142.42 184.532 -1140.85 181.208L-1122.25 207.031L-1126.18 210.332C-1127.56 211.492 -1128.81 212.785 -1129.9 214.183L-1138.35 203.372C-1140.92 200.09 -1142.45 196.182 -1142.8 192.048ZM-1124.01 212.887L-1120.28 209.756L-1100.94 236.6L-1107.65 242.633L-1127.75 216.925C-1126.69 215.444 -1125.44 214.084 -1124.01 212.887ZM-1105.57 245.288L-1098.96 239.344L-1080.19 265.397L-1085.7 270.689L-1105.57 245.288ZM-1083.62 273.354L-1078.21 268.155L-1059.95 293.494L-1064.35 297.988L-1083.62 273.354ZM-1062.26 300.659L-1057.96 296.262L-1040.18 320.936L-1043.55 324.583L-1062.26 300.659ZM-1041.45 327.267L-1038.17 323.72L-1020.84 347.78L-1023.26 350.538L-1041.45 327.267ZM-1021.15 353.228L-1018.83 350.574L-1001.91 374.059L-1003.43 375.889L-1021.15 353.228ZM-1001.32 378.591L-999.881 376.869L-983.353 399.809L-984.042 400.678L-1001.32 378.591ZM-857.884 568.201L-855.513 571.491L-849.711 577.905L-852.707 574.074L-857.791 568.046L-857.884 568.201ZM-845.556 591.068L-858.073 573.695L-859.937 571.634L-862.059 575.181L-845.992 591.821L-845.556 591.068ZM-875.891 548.964L-876.356 548.319L-876.404 548.397L-875.891 548.964ZM-842.138 595.812L-843.395 594.067L-843.555 594.344L-842.138 595.812ZM-837.694 596.222L-827.59 610.246L-826.603 608.482L-837.694 596.222ZM-829.795 621.082L-827.232 616.5L-813.444 635.639L-813.932 636.539L-829.795 621.082ZM-812.006 631.874L-811.662 632.352L-811.62 632.274L-812.006 631.874ZM-811.428 638.978L-811.26 638.669L-810.117 640.255L-811.428 638.978ZM-809.479 635.382L-796.191 653.825L-795.882 654.126L-793.993 650.531L-809.17 634.812L-809.479 635.382ZM-778.867 683.63L-795.466 660.591L-798.218 665.826L-778.867 683.63ZM-756.798 708.498L-736.972 736.015L-727.65 744.141C-724.718 745.441 -721.518 746.046 -718.32 745.91L-723.921 738.749L-756.798 708.498ZM-715.86 749.056C-717.877 749.338 -719.914 749.361 -721.921 749.135L-702.685 765.902L-715.86 749.056ZM-695.988 759.883L-709.652 747.312C-708.921 746.995 -708.2 746.638 -707.493 746.243L-695.988 759.883ZM-660.359 784.072L-701.118 741.859L-128.938 331.655C-122.133 326.764 -118.325 318.54 -119.011 310.183C-119.364 305.87 -120.891 301.737 -123.437 298.197L-401.855 -88.2388L-394.528 -102.177L-77.2616 303.507C-74.6892 306.789 -73.1583 310.713 -72.8153 314.831L-72.8172 314.817C-72.216 322.032 -75.2576 328.976 -80.9679 333.413L-658.228 782.607C-658.917 783.144 -659.629 783.632 -660.359 784.072ZM-396.813 -105.099L-404.064 -91.3048L-410.668 -100.472L-403.516 -113.669L-396.813 -105.099ZM-405.775 -116.559L-412.852 -103.502L-419.374 -112.554L-412.397 -125.025L-405.775 -116.559ZM-414.645 -127.9L-421.544 -115.567L-427.974 -124.492L-421.176 -136.251L-414.645 -127.9ZM-423.422 -139.124L-430.142 -127.5L-436.481 -136.298L-429.864 -147.36L-423.422 -139.124ZM-432.087 -150.203L-438.625 -139.274L-444.865 -147.935L-438.432 -158.316L-432.087 -150.203ZM-440.644 -161.145L-446.996 -150.894L-453.115 -159.387L-446.867 -169.103L-440.644 -161.145ZM-449.075 -171.926L-455.241 -162.337L-461.251 -170.679L-455.192 -179.747L-449.075 -171.926ZM-457.378 -182.542L-463.354 -173.598L-469.247 -181.777L-463.379 -190.216L-457.378 -182.542ZM-465.542 -192.982L-471.327 -184.664L-477.082 -192.651L-471.405 -200.479L-465.542 -192.982ZM-473.561 -203.235L-479.152 -195.525L-484.761 -203.31L-479.279 -210.546L-473.561 -203.235ZM-481.421 -213.285L-486.817 -206.164L-492.263 -213.723L-486.975 -220.388L-481.421 -213.285ZM-489.118 -223.127L-494.317 -216.574L-499.585 -223.886L-494.493 -230.001L-489.118 -223.127ZM-496.618 -232.718L-501.621 -226.711L-506.726 -233.797L-501.831 -239.384L-496.618 -232.718ZM-503.929 -242.066L-508.734 -236.583L-513.623 -243.369L-508.922 -248.451L-503.929 -242.066ZM-511.026 -251.142L-515.634 -246.16L-520.304 -252.643L-515.798 -257.243L-511.026 -251.142ZM-517.887 -259.914L-522.298 -255.41L-526.732 -261.565L-522.571 -265.562C-522.52 -265.611 -522.469 -265.659 -522.418 -265.708L-517.887 -259.914ZM-524.9 -267.991L-528.719 -264.323L-532.846 -270.051C-531.349 -271.21 -529.745 -272.157 -528.073 -272.893C-527.835 -272.619 -527.603 -272.338 -527.377 -272.049L-524.499 -268.369C-524.634 -268.245 -524.768 -268.119 -524.9 -267.991ZM-530.65 -275.399C-532.098 -274.672 -533.494 -273.802 -534.817 -272.787L-537.403 -276.376C-537.476 -276.477 -537.549 -276.577 -537.623 -276.677C-536.303 -277.053 -534.957 -277.304 -533.604 -277.43C-532.573 -276.843 -531.584 -276.165 -530.65 -275.399ZM-539.328 -279.673C-539.56 -279.599 -539.792 -279.521 -540.022 -279.44C-540.186 -279.602 -540.351 -279.761 -540.519 -279.917C-540.12 -279.847 -539.723 -279.766 -539.328 -279.673ZM-712.403 744.781C-711.487 744.461 -710.586 744.074 -709.707 743.618L-713.626 738.972L-738.175 715.053L-721.397 736.506L-712.403 744.781ZM-1129.6 220.015C-1131.36 223.563 -1132.15 227.566 -1131.82 231.605C-1131.43 236.167 -1129.66 240.434 -1126.7 243.951L-1118.85 253.261C-1117.9 252.043 -1116.83 250.898 -1115.65 249.841L-1110.15 244.888L-1129.6 220.015ZM-1108.07 247.543L-1113.41 252.341C-1114.62 253.429 -1115.69 254.623 -1116.62 255.901L-1095.9 280.479L-1088.14 273.031L-1108.07 247.543ZM-1086.06 275.696L-1093.72 283.057L-1073.37 307.19L-1066.73 300.412L-1086.06 275.696ZM-1064.64 303.083L-1071.19 309.771L-1051.47 333.147L-1045.87 327.085L-1064.64 303.083ZM-1043.77 329.769L-1049.29 335.737L-1030.16 358.417L-1025.51 353.113L-1043.77 329.769ZM-1023.41 355.803L-1027.97 361.012L-1009.39 383.045L-1005.63 378.534L-1023.41 355.803ZM-1003.52 381.237L-1007.19 385.649L-989.119 407.078L-986.193 403.389L-1003.52 381.237ZM-984.056 406.122L-986.901 409.708L-969.293 430.585L-967.143 427.748L-984.056 406.122ZM-785.798 654.161L-789.092 649.948L-783.469 656.164L-780.747 659.391L-785.798 654.161ZM-820.656 615.056L-809.807 628.929L-809.934 629.163L-825.372 613.175L-824.22 611.116L-820.656 615.056ZM-788.309 656.418L-771.592 677.793L-793.36 656.583L-791.523 653.089L-788.309 656.418ZM-689.244 777.618L-708.666 752.785L-678.795 780.268L-673.077 787.048C-675.784 786.831 -678.447 786.104 -680.906 784.886L-689.244 777.618ZM-674.741 790.26C-673.237 790.466 -671.715 790.535 -670.195 790.465L-658.228 804.653L-674.741 790.26ZM-663.946 789.364L-658.143 794.704L-663.197 789.117C-663.334 789.165 -663.472 789.211 -663.61 789.257C-663.722 789.293 -663.834 789.329 -663.946 789.364ZM-657.957 786.559L-626.053 819.601L-617.849 827.594C-614.794 826.789 -611.865 825.316 -609.288 823.155L-31.0323 337.917C-25.5527 333.314 -22.6364 326.326 -23.2263 319.199L-23.2245 319.214C-23.594 314.649 -25.3633 310.382 -28.3416 306.852L-386.387 -117.665L-392.812 -105.441L-74.6033 301.448C-71.6357 305.249 -69.8476 309.783 -69.45 314.569C-68.7674 322.897 -72.2971 330.951 -78.8922 336.085L-656.152 785.278C-656.74 785.736 -657.343 786.163 -657.957 786.559ZM-395.097 -108.363L-388.741 -120.456L-395.496 -128.466L-401.768 -116.893L-395.097 -108.363ZM-404.028 -119.783L-397.826 -131.227L-404.5 -139.141L-410.617 -128.207L-404.028 -119.783ZM-412.865 -131.082L-406.819 -141.89L-413.403 -149.697L-419.362 -139.39L-412.865 -131.082ZM-421.608 -142.262L-415.721 -152.445L-422.216 -160.146L-428.014 -150.453L-421.608 -142.262ZM-430.237 -153.296L-424.512 -162.868L-430.91 -170.454L-436.544 -161.361L-430.237 -153.296ZM-438.757 -164.19L-433.195 -173.164L-439.471 -180.605L-444.941 -172.098L-438.757 -164.19ZM-447.149 -174.921L-441.754 -183.312L-447.924 -190.626L-453.226 -182.691L-447.149 -174.921ZM-455.411 -185.485L-450.185 -193.307L-456.238 -200.484L-461.37 -193.105L-455.411 -185.485ZM-463.533 -195.871L-458.478 -203.14L-464.391 -210.151L-469.351 -203.311L-463.533 -195.871ZM-471.507 -206.067L-466.625 -212.799L-472.391 -219.636L-477.178 -213.319L-471.507 -206.067ZM-479.32 -216.058L-474.613 -222.27L-480.213 -228.91L-484.825 -223.097L-479.32 -216.058ZM-486.968 -225.837L-482.437 -231.547L-487.855 -237.971L-492.292 -232.644L-486.968 -225.837ZM-494.417 -235.362L-490.063 -240.589L-495.316 -246.818L-499.575 -241.958L-494.417 -235.362ZM-501.673 -244.64L-497.498 -249.404L-502.526 -255.366L-506.609 -250.952L-501.673 -244.64ZM-508.713 -253.642L-504.717 -257.963L-509.462 -263.59C-509.977 -263.145 -510.476 -262.676 -510.958 -262.184L-513.424 -259.666L-508.713 -253.642ZM-515.513 -262.337L-513.367 -264.529C-512.807 -265.1 -512.228 -265.643 -511.63 -266.159L-514.605 -269.687C-514.801 -269.92 -515.002 -270.148 -515.206 -270.371C-516.81 -269.71 -518.357 -268.865 -519.814 -267.837L-515.513 -262.337ZM-521.89 -270.492C-520.614 -271.405 -519.276 -272.193 -517.893 -272.857C-518.805 -273.569 -519.763 -274.201 -520.757 -274.752C-522.081 -274.641 -523.398 -274.415 -524.692 -274.074L-521.89 -270.492ZM-527.194 -276.835C-527.027 -276.891 -526.86 -276.945 -526.692 -276.997C-526.979 -277.061 -527.267 -277.119 -527.556 -277.171C-527.434 -277.06 -527.314 -276.948 -527.194 -276.835ZM-665.694 786.357C-666.093 786.466 -666.494 786.564 -666.897 786.65L-676.204 778.086L-688.759 763.201L-670.903 780.598L-665.694 786.357ZM-1120.88 271.182C-1121.24 266.871 -1120.39 262.663 -1118.5 258.946L-1098.35 282.835L-1105.13 289.35C-1106.15 290.327 -1107.08 291.369 -1107.92 292.468L-1115.07 284.563C-1118.46 280.816 -1120.47 276.19 -1120.88 271.182ZM-1102.8 291.78L-1096.17 285.413L-1075.75 309.626L-1084.4 318.459L-1105.61 295.013C-1104.78 293.865 -1103.84 292.782 -1102.8 291.78ZM-1082.15 320.956L-1073.58 312.207L-1053.8 335.657L-1061.41 343.883L-1082.15 320.956ZM-1059.14 346.387L-1051.61 338.247L-1032.42 360.998L-1039.07 368.579L-1059.14 346.387ZM-1036.8 371.085L-1030.23 363.593L-1011.59 385.693L-1017.34 392.595L-1036.8 371.085ZM-1015.07 395.107L-1009.4 388.297L-991.271 409.789L-996.185 415.983L-1015.07 395.107ZM-993.891 418.518L-989.052 412.419L-971.393 433.356L-975.53 438.816L-993.891 418.518ZM-973.229 441.36L-969.166 435.998L-951.942 456.418L-955.353 461.121L-973.229 441.36ZM-953.041 463.677L-949.702 459.074L-932.886 479.012L-935.617 482.939L-953.041 463.677ZM-713.298 734.106L-710.994 736.837L-706.743 740.979L-707.959 739.636L-713.298 734.106ZM-659.01 798.472L-641.497 819.237L-634.194 825.603C-632.292 826.644 -630.261 827.39 -628.171 827.835L-633.506 821.939L-659.01 798.472ZM-624.7 831.672C-625.66 831.629 -626.616 831.532 -627.564 831.381L-615.266 842.101L-624.7 831.672ZM-574.764 869.575L-615.1 830.273C-612.267 829.285 -609.564 827.778 -607.134 825.741L-28.8794 340.488C-22.5591 335.195 -19.1951 327.132 -19.8774 318.924C-20.3054 313.663 -22.3524 308.742 -25.7719 304.684L-384.702 -120.872L-379.063 -131.598L20.5931 310.195C23.9714 313.929 25.9828 318.569 26.3937 323.578L26.3919 323.563C26.9873 330.734 24.2662 337.608 18.9177 342.419L-560.332 863.717C-564.467 867.436 -569.597 869.373 -574.764 869.575ZM-381.48 -134.27L-387.055 -123.663L-393.779 -131.635L-388.278 -141.784L-381.48 -134.27ZM-390.671 -144.429L-396.108 -134.396L-402.75 -142.27L-397.388 -151.855L-390.671 -144.429ZM-399.771 -154.489L-405.068 -145.019L-411.618 -152.785L-406.397 -161.814L-399.771 -154.489ZM-408.781 -164.449L-413.936 -155.533L-420.395 -163.191L-415.319 -171.676L-408.781 -164.449ZM-417.681 -174.287L-422.69 -165.912L-429.051 -173.453L-424.121 -181.407L-417.681 -174.287ZM-426.475 -184.008L-431.336 -176.163L-437.573 -183.557L-432.792 -190.992L-426.475 -184.008ZM-435.144 -193.592L-439.856 -186.264L-445.984 -193.53L-441.355 -200.457L-435.144 -193.592ZM-443.686 -203.034L-448.245 -196.211L-454.254 -203.336L-449.78 -209.77L-443.686 -203.034ZM-452.09 -212.325L-456.495 -205.992L-462.362 -212.949L-458.043 -218.905L-452.09 -212.325ZM-460.349 -221.453L-464.596 -215.597L-470.314 -222.377L-466.153 -227.87L-460.349 -221.453ZM-468.448 -230.407L-472.536 -225.011L-478.086 -231.591L-474.083 -236.636L-468.448 -230.407ZM-476.383 -239.178L-480.31 -234.228L-485.675 -240.589L-481.833 -245.203L-476.383 -239.178ZM-484.118 -247.729L-487.883 -243.207L-493.081 -249.369L-489.401 -253.568L-484.118 -247.729ZM-491.66 -256.066L-495.262 -251.956L-500.231 -257.847L-499.358 -258.79C-498.47 -259.751 -497.52 -260.634 -496.516 -261.434L-491.66 -256.066ZM-501.847 -261.065L-502.422 -260.444L-506.778 -265.609C-505.382 -266.516 -503.902 -267.273 -502.358 -267.873C-502.18 -267.689 -502.004 -267.501 -501.831 -267.31L-498.776 -263.933C-499.858 -263.059 -500.885 -262.102 -501.847 -261.065ZM-505.16 -270.336C-506.477 -269.726 -507.748 -269.012 -508.96 -268.197L-511.743 -271.496C-510.487 -271.8 -509.21 -272 -507.928 -272.097C-506.972 -271.582 -506.047 -270.995 -505.16 -270.336ZM-514.081 -274.342C-514.123 -274.33 -514.165 -274.317 -514.207 -274.304C-514.257 -274.288 -514.307 -274.273 -514.357 -274.257L-514.411 -274.306L-514.466 -274.355C-514.496 -274.382 -514.527 -274.41 -514.557 -274.437C-514.454 -274.418 -514.35 -274.397 -514.247 -274.377C-514.192 -274.365 -514.136 -274.354 -514.081 -274.342ZM-1107.46 298.016C-1109.46 301.894 -1110.36 306.291 -1109.99 310.764C-1109.55 316.157 -1107.22 321.267 -1103.44 325.19L-1097.09 331.773C-1096.33 330.758 -1095.5 329.789 -1094.61 328.875L-1086.78 320.88L-1107.46 298.016ZM-1084.52 323.377L-1092.2 331.219C-1093.12 332.163 -1093.96 333.172 -1094.71 334.234L-1073.14 356.572L-1063.71 346.376L-1084.52 323.377ZM-1061.45 348.879L-1070.8 358.995L-1049.76 380.785L-1041.31 371.139L-1061.45 348.879ZM-1039.04 373.644L-1047.42 383.207L-1027.07 404.282L-1019.53 395.219L-1039.04 373.644ZM-1017.25 397.731L-1024.73 406.709L-1005.02 427.121L-998.314 418.667L-1017.25 397.731ZM-996.021 421.202L-1002.66 429.568L-983.532 449.377L-977.607 441.557L-996.021 421.202ZM-975.306 444.101L-981.162 451.831L-962.575 471.081L-957.38 463.917L-975.306 444.101ZM-955.068 466.473L-960.196 473.544L-942.11 492.276L-937.597 485.786L-955.068 466.473ZM-935.28 488.347L-939.728 494.742L-922.099 512.999L-918.225 507.2L-935.28 488.347ZM-915.9 509.771L-919.71 515.473L-902.517 533.28L-899.242 528.185L-915.9 509.771ZM-631.031 819.648L-632.568 817.95L-628.784 821.636L-628.097 822.348L-631.031 819.648ZM-593.774 860.835L-606.395 846.883L-588.589 863.266L-583.972 868.048C-585.164 867.587 -586.323 867.024 -587.436 866.36L-593.774 860.835ZM-580.335 872.549C-580.055 872.599 -579.775 872.645 -579.494 872.686L-575.857 876.452L-580.335 872.549ZM-571.605 872.652L-540.826 902.643L-532.318 910.47C-525.01 911.869 -517.148 909.828 -511.389 904.295L68.855 346.937C74.0061 341.986 76.6166 335.067 76.0287 327.955L76.0434 327.953C75.5985 322.559 73.2713 317.435 69.5111 313.525L-372.453 -144.174L-377.397 -134.768L23.0926 307.947C26.9768 312.245 29.2824 317.552 29.7573 323.301C30.4415 331.524 27.3095 339.407 21.1829 344.931L-558.082 866.231C-562.012 869.768 -566.729 871.897 -571.605 872.652ZM-379.814 -137.44L-374.928 -146.736L-381.76 -153.811L-386.58 -144.919L-379.814 -137.44ZM-388.972 -147.563L-384.21 -156.349L-390.962 -163.341L-395.655 -154.951L-388.972 -147.563ZM-398.038 -157.585L-393.404 -165.87L-400.065 -172.768L-404.63 -164.872L-398.038 -157.585ZM-407.014 -167.507L-402.509 -175.299L-409.081 -182.105L-413.514 -174.693L-407.014 -167.507ZM-415.876 -177.304L-411.503 -184.614L-417.978 -191.319L-422.278 -184.381L-415.876 -177.304ZM-424.631 -186.982L-420.394 -193.82L-426.744 -200.397L-430.909 -193.921L-424.631 -186.982ZM-433.261 -196.521L-429.16 -202.899L-435.403 -209.364L-439.429 -203.34L-433.261 -196.521ZM-441.76 -205.917L-437.799 -211.845L-443.925 -218.189L-447.809 -212.604L-441.76 -205.917ZM-450.12 -215.158L-446.301 -220.65L-452.284 -226.846L-456.026 -221.686L-450.12 -215.158ZM-458.331 -224.235L-454.656 -229.303L-460.49 -235.344L-464.086 -230.597L-458.331 -224.235ZM-466.381 -233.134L-462.853 -237.791L-468.515 -243.654L-471.965 -239.306L-466.381 -233.134ZM-474.265 -241.848L-470.884 -246.109L-476.358 -251.777L-479.66 -247.812L-474.265 -241.848ZM-481.945 -250.339L-478.779 -254.14L-478.714 -254.217L-483.585 -259.262C-484.851 -258.334 -486.048 -257.28 -487.158 -256.101L-481.945 -250.339ZM-489.409 -258.589C-488.317 -259.728 -487.152 -260.761 -485.928 -261.688L-489.074 -264.946C-489.216 -265.093 -489.359 -265.237 -489.503 -265.379C-490.972 -264.841 -492.385 -264.167 -493.729 -263.365L-489.409 -258.589ZM-496.023 -265.901C-494.868 -266.628 -493.664 -267.27 -492.421 -267.824C-493.294 -268.442 -494.199 -268.994 -495.131 -269.48C-496.371 -269.395 -497.591 -269.219 -498.786 -268.955L-496.023 -265.901ZM-501.526 -271.716L-501.52 -271.718L-501.53 -271.72L-501.526 -271.716ZM-1099.1 350.331C-1099.48 345.746 -1098.56 341.216 -1096.51 337.214L-1075.43 359.047L-1084.08 368.398C-1084.89 369.268 -1085.63 370.183 -1086.32 371.136L-1091.81 365.786C-1096.03 361.665 -1098.61 356.183 -1099.1 350.331ZM-1081.61 370.675L-1073.09 361.47L-1051.99 383.326L-1062.04 394.793L-1083.87 373.518C-1083.19 372.522 -1082.43 371.571 -1081.61 370.675ZM-1059.63 397.138L-1049.65 385.749L-1029.24 406.886L-1038.37 417.852L-1059.63 397.138ZM-1035.96 420.198L-1026.9 409.312L-1007.13 429.783L-1015.42 440.221L-1035.96 420.198ZM-1012.99 442.587L-1004.77 432.23L-985.591 452.094L-993.083 461.981L-1012.99 442.587ZM-990.65 464.352L-983.221 454.548L-964.584 473.851L-971.34 483.166L-990.65 464.352ZM-968.899 485.545L-962.205 476.315L-944.071 495.096L-950.14 503.822L-968.899 485.545ZM-947.698 506.202L-941.69 497.563L-924.016 515.867L-929.442 523.99L-947.698 506.202ZM-926.994 526.375L-921.627 518.341L-904.39 536.193L-909.216 543.698L-926.994 526.375ZM-906.754 546.096L-901.987 538.682L-885.152 556.118L-889.413 562.993L-906.754 546.096ZM-546.489 902.002L-546.187 902.315L-545.467 902.942L-546.489 902.002ZM-488.702 950.6L-528.234 914.228C-521.346 914.325 -514.418 911.825 -509.078 906.697L71.168 349.353C77.0529 343.696 80.0485 335.799 79.3756 327.665C78.8796 321.514 76.2194 315.653 71.911 311.199L-370.807 -147.306L-366.465 -155.565L118.4 316.859C122.619 320.965 125.203 326.461 125.691 332.313L125.706 332.311C126.288 339.379 123.774 346.346 118.803 351.424L-462.436 944.827C-469.461 952.007 -479.857 953.947 -488.702 950.6ZM-368.992 -158.028L-373.281 -149.869L-380.08 -156.911L-375.852 -164.711L-368.992 -158.028ZM-378.356 -167.151L-382.531 -159.448L-389.248 -166.405L-385.135 -173.756L-378.356 -167.151ZM-387.631 -176.188L-391.689 -168.934L-398.314 -175.795L-394.32 -182.705L-387.631 -176.188ZM-396.819 -185.14L-400.759 -178.326L-407.293 -185.094L-403.419 -191.571L-396.819 -185.14ZM-405.897 -193.986L-409.715 -187.603L-416.151 -194.268L-412.4 -200.321L-405.897 -193.986ZM-414.872 -202.73L-418.566 -196.769L-424.876 -203.304L-421.249 -208.943L-414.872 -202.73ZM-423.723 -211.354L-427.291 -205.805L-433.491 -212.226L-429.993 -217.462L-423.723 -211.354ZM-432.448 -219.854L-435.887 -214.707L-441.967 -221.004L-438.599 -225.848L-432.448 -219.854ZM-441.035 -228.221L-444.343 -223.465L-450.278 -229.612L-447.042 -234.074L-441.035 -228.221ZM-449.476 -236.446L-452.65 -232.069L-458.433 -238.058L-455.332 -242.151L-449.476 -236.446ZM-457.758 -244.515L-460.796 -240.505L-466.405 -246.314L-464.587 -248.605C-464.203 -249.089 -463.806 -249.558 -463.397 -250.01L-457.758 -244.515ZM-467.248 -250.692L-468.775 -248.768L-474.072 -254.255C-472.996 -255.287 -471.845 -256.223 -470.628 -257.056L-465.819 -252.37C-466.311 -251.831 -466.788 -251.272 -467.248 -250.692ZM-473.081 -259.445C-474.249 -258.607 -475.362 -257.683 -476.412 -256.677L-480.687 -261.106C-479.38 -261.821 -478.022 -262.419 -476.63 -262.897C-476.52 -262.794 -476.411 -262.69 -476.303 -262.584L-473.081 -259.445ZM-479.65 -265.32C-480.826 -264.822 -481.974 -264.245 -483.087 -263.59L-485.818 -266.419C-484.663 -266.653 -483.484 -266.809 -482.287 -266.883C-481.379 -266.419 -480.499 -265.898 -479.65 -265.32ZM-1085.64 376.51C-1087.69 380.621 -1088.62 385.264 -1088.24 389.917C-1087.72 396.245 -1084.85 402.094 -1080.17 406.411L-1075.63 410.589C-1074.99 409.663 -1074.28 408.766 -1073.53 407.904L-1064.26 397.333L-1085.64 376.51ZM-1061.86 399.678L-1071 410.114C-1071.78 411 -1072.49 411.927 -1073.13 412.889L-1051.11 433.148L-1040.54 420.451L-1061.86 399.678ZM-1038.13 422.797L-1048.64 435.42L-1027.23 455.117L-1017.52 442.876L-1038.13 422.797ZM-1015.09 445.241L-1024.75 457.406L-1004.05 476.45L-995.134 464.689L-1015.09 445.241ZM-992.701 467.059L-1001.55 478.743L-981.508 497.187L-973.339 485.924L-992.701 467.059ZM-970.899 488.302L-979.009 499.486L-959.566 517.376L-952.091 506.627L-970.899 488.302ZM-949.648 509.007L-957.067 519.674L-938.174 537.058L-931.346 526.839L-949.648 509.007ZM-928.898 529.224L-935.671 539.36L-917.297 556.265L-911.076 546.59L-928.898 529.224ZM-908.614 548.988L-914.782 558.58L-896.883 575.047L-891.23 565.926L-908.614 548.988ZM-888.759 568.333L-894.359 577.37L-876.911 593.423L-871.792 584.865L-888.759 568.333ZM-869.303 587.291L-874.369 595.762L-857.332 611.437L-852.716 603.452L-869.303 587.291ZM-483.58 955.312C-475.18 956.396 -466.384 953.676 -460.026 947.186L121.226 353.766C126.874 348.004 129.731 340.08 129.069 332.034C128.525 325.381 125.576 319.137 120.776 314.461L-364.828 -158.68L-361.023 -165.919L167.32 320.203C171.998 324.505 174.868 330.37 175.387 336.697L175.389 336.712C175.982 343.748 173.563 350.763 168.757 355.954L-413.478 985.403C-422.357 994.999 -437.02 996.176 -447.283 988.524L-451.079 985.215L-483.58 955.312ZM-367.355 -161.142L-363.599 -168.289L-370.481 -174.622L-374.182 -167.794L-367.355 -161.142ZM-376.686 -170.233L-373.034 -176.97L-379.836 -183.229L-383.43 -176.804L-376.686 -170.233ZM-385.926 -179.236L-382.382 -185.571L-389.093 -191.746L-392.578 -185.718L-385.926 -179.236ZM-395.078 -188.153L-391.644 -194.093L-398.266 -200.186L-401.639 -194.546L-395.078 -188.153ZM-404.118 -196.961L-400.796 -202.514L-407.321 -208.517L-410.58 -203.257L-404.118 -196.961ZM-413.052 -205.666L-409.846 -210.84L-416.244 -216.727L-419.387 -211.839L-413.052 -205.666ZM-421.861 -214.249L-418.772 -219.054L-425.063 -224.841L-428.087 -220.315L-421.861 -214.249ZM-430.542 -222.707L-427.573 -227.151L-433.744 -232.829L-436.647 -228.655L-430.542 -222.707ZM-439.083 -231.029L-436.236 -235.122L-442.262 -240.666L-445.041 -236.834L-439.083 -231.029ZM-447.475 -239.205L-444.753 -242.958L-450.428 -248.18C-451.345 -247.261 -452.211 -246.269 -453.016 -245.207L-453.279 -244.86L-447.475 -239.205ZM-455.705 -247.224L-455.699 -247.232C-454.827 -248.382 -453.893 -249.458 -452.903 -250.457L-457.668 -254.841C-458.824 -254.108 -459.934 -253.284 -460.987 -252.371L-455.705 -247.224ZM-463.413 -254.734C-462.396 -255.63 -461.332 -256.451 -460.227 -257.195L-463.533 -260.237C-463.561 -260.263 -463.589 -260.289 -463.617 -260.315C-463.662 -260.355 -463.706 -260.396 -463.751 -260.436C-465.086 -260.003 -466.38 -259.469 -467.624 -258.837L-463.413 -254.734ZM-470.152 -261.301C-469.102 -261.885 -468.017 -262.405 -466.903 -262.86C-467.715 -263.389 -468.553 -263.869 -469.414 -264.298C-470.555 -264.237 -471.692 -264.104 -472.817 -263.897L-470.152 -261.301ZM-1077.39 429.49C-1077.79 424.711 -1076.9 420.044 -1074.85 415.867L-1053.26 435.728L-1063 447.428C-1063.72 448.287 -1064.38 449.177 -1064.99 450.095L-1068.52 447.02C-1073.67 442.524 -1076.83 436.291 -1077.39 429.49ZM-1060.41 449.555L-1050.79 438L-1029.32 457.751L-1040.32 471.605L-1062.44 452.321C-1061.83 451.365 -1061.15 450.442 -1060.41 449.555ZM-1037.77 473.823L-1026.84 460.04L-1006.08 479.136L-1016.26 492.571L-1037.77 473.823ZM-1013.71 494.792L-1003.59 481.429L-983.491 499.922L-992.917 512.92L-1013.71 494.792ZM-990.364 515.145L-980.992 502.221L-961.499 520.156L-970.224 532.7L-990.364 515.145ZM-967.672 534.924L-959 522.455L-940.06 539.881L-948.13 551.959L-967.672 534.924ZM-945.576 554.185L-937.557 542.184L-919.139 559.131L-926.596 570.728L-945.576 554.185ZM-924.031 572.964L-916.624 561.445L-898.683 577.952L-905.567 589.059L-924.031 572.964ZM-902.994 591.302L-896.159 580.274L-878.671 596.365L-885.016 606.972L-902.994 591.302ZM-882.426 609.23L-876.129 598.703L-859.053 614.415L-864.892 624.514L-882.426 609.23ZM-862.302 626.771L-856.511 616.754L-839.821 632.11L-845.183 641.693L-862.302 626.771ZM-842.59 643.953L-837.275 634.453L-820.944 649.478L-825.855 658.54L-842.59 643.953ZM-401.506 1028.43L-438.513 996.169C-428.811 998.359 -418.224 995.471 -411.005 987.664L171.23 358.216C176.667 352.33 179.415 344.376 178.748 336.405C178.155 329.249 174.902 322.61 169.596 317.728L-359.404 -168.999L-356.072 -175.338L216.236 323.518C221.403 328.013 224.543 334.233 225.108 341.048L225.123 341.046C225.726 348.157 223.441 355.049 218.733 360.423L-364.496 1025.93C-374.032 1036.8 -390.615 1037.91 -401.506 1028.43ZM-358.693 -177.622L-361.98 -171.369L-368.829 -177.67L-365.595 -183.638L-358.693 -177.622ZM-368.193 -185.903L-371.382 -180.019L-378.148 -186.245L-375.014 -191.848L-368.193 -185.903ZM-377.606 -194.108L-380.695 -188.588L-387.369 -194.728L-384.336 -199.974L-377.606 -194.108ZM-386.935 -202.239L-389.92 -197.075L-396.503 -203.133L-393.575 -208.027L-386.935 -202.239ZM-396.154 -210.275L-399.033 -205.461L-405.517 -211.427L-402.697 -215.978L-396.154 -210.275ZM-405.271 -218.222L-408.042 -213.75L-414.398 -219.598L-411.687 -223.814L-405.271 -218.222ZM-414.266 -226.062L-416.926 -221.924L-423.172 -227.671L-420.573 -231.56L-414.266 -226.062ZM-423.135 -233.793L-425.682 -229.98L-431.806 -235.615L-429.86 -238.413C-429.681 -238.671 -429.498 -238.926 -429.312 -239.177L-423.135 -233.793ZM-432.618 -240.324L-434.298 -237.908L-440.226 -243.362C-439.364 -244.402 -438.439 -245.375 -437.458 -246.277L-431.848 -241.388C-432.111 -241.039 -432.368 -240.684 -432.618 -240.324ZM-440.009 -248.501C-440.958 -247.607 -441.858 -246.653 -442.705 -245.643L-447.904 -250.427C-446.887 -251.23 -445.823 -251.958 -444.722 -252.61L-440.009 -248.501ZM-447.377 -254.924C-448.422 -254.256 -449.434 -253.524 -450.406 -252.729L-454.556 -256.547C-453.358 -257.108 -452.125 -257.582 -450.868 -257.966C-450.838 -257.94 -450.808 -257.914 -450.778 -257.888L-447.377 -254.924ZM-454.148 -260.382C-455.19 -259.975 -456.212 -259.51 -457.211 -258.99L-459.823 -261.393C-459.16 -261.503 -458.489 -261.59 -457.813 -261.652C-457.41 -261.689 -457.007 -261.717 -456.606 -261.736C-455.769 -261.332 -454.948 -260.881 -454.148 -260.382ZM-1064.11 455.333C-1066.11 459.571 -1066.97 464.273 -1066.58 469.067C-1065.96 476.356 -1062.54 482.958 -1056.88 487.631L-1054.42 489.673C-1053.82 488.727 -1053.17 487.809 -1052.47 486.921L-1042.41 474.246L-1064.11 455.333ZM-1039.87 476.464L-1049.82 489.011C-1050.54 489.919 -1051.2 490.865 -1051.8 491.842L-1029.62 510.208L-1018.3 495.262L-1039.87 476.464ZM-1015.75 497.482L-1027.03 512.36L-1005.46 530.22L-994.902 515.657L-1015.75 497.482ZM-992.349 517.882L-1002.86 532.375L-982.008 549.646L-972.158 535.482L-992.349 517.882ZM-969.607 537.705L-979.408 551.799L-959.204 568.533L-950.016 554.782L-969.607 537.705ZM-947.462 557.008L-956.602 570.688L-937.006 586.918L-928.437 573.591L-947.462 557.008ZM-925.872 575.827L-934.395 589.081L-915.354 604.852L-907.364 591.959L-925.872 575.827ZM-904.791 594.202L-912.735 607.021L-894.218 622.357L-886.772 609.909L-904.791 594.202ZM-884.182 612.166L-891.583 624.539L-873.544 639.48L-866.609 627.484L-884.182 612.166ZM-864.02 629.741L-870.911 641.661L-853.317 656.233L-846.862 644.696L-864.02 629.741ZM-844.27 646.956L-850.681 658.416L-833.501 672.646L-827.5 661.574L-844.27 646.956ZM-824.901 663.839L-830.86 674.833L-814.074 688.736L-808.502 678.134L-824.901 663.839ZM-394.13 1036.55L-353.721 1070.02C-342.227 1079.54 -325.106 1077.95 -315.542 1066.48L268.682 364.91C273.242 359.435 275.433 352.509 274.847 345.412L274.834 345.429C274.221 338.125 270.795 331.538 265.14 326.85L-351.558 -183.926L-354.462 -178.401L218.461 320.99C224.27 326.062 227.84 333.081 228.472 340.771C229.132 348.802 226.569 356.569 221.259 362.633L-361.968 1028.16C-370.169 1037.51 -383.034 1040.45 -394.13 1036.55ZM-357.083 -180.685L-354.22 -186.131L-361.138 -191.861L-363.951 -186.672L-357.083 -180.685ZM-366.549 -188.937L-363.779 -194.048L-370.615 -199.71L-373.334 -194.851L-366.549 -188.937ZM-375.926 -197.111L-373.251 -201.893L-379.996 -207.48L-382.619 -202.944L-375.926 -197.111ZM-385.217 -205.209L-382.639 -209.669L-389.295 -215.182L-391.819 -210.963L-385.217 -205.209ZM-394.397 -213.211L-391.918 -217.355L-398.477 -222.787L-400.899 -218.878L-394.397 -213.211ZM-403.474 -221.122L-401.097 -224.957L-407.528 -230.283L-409.846 -226.677L-403.474 -221.122ZM-412.425 -228.925L-410.154 -232.458L-416.352 -237.591C-417.031 -236.766 -417.672 -235.903 -418.273 -235.002L-418.687 -234.383L-412.425 -228.925ZM-421.249 -236.616L-421.085 -236.861C-420.415 -237.862 -419.701 -238.822 -418.944 -239.738L-424.492 -244.333C-425.429 -243.537 -426.321 -242.682 -427.163 -241.771L-421.249 -236.616ZM-429.695 -243.978C-428.877 -244.869 -428.016 -245.713 -427.115 -246.506L-431.785 -250.374C-432.834 -249.792 -433.845 -249.147 -434.815 -248.442L-429.695 -243.978ZM-437.413 -250.706C-436.493 -251.409 -435.537 -252.062 -434.549 -252.663L-437.989 -255.512C-439.178 -255.17 -440.347 -254.751 -441.488 -254.257L-437.413 -250.706ZM-444.264 -256.677C-443.323 -257.141 -442.363 -257.557 -441.386 -257.925C-442.151 -258.384 -442.935 -258.803 -443.735 -259.182C-444.762 -259.14 -445.786 -259.043 -446.802 -258.89L-444.264 -256.677ZM-1055.77 508.646C-1056.17 503.881 -1055.34 499.164 -1053.41 494.889L-1031.66 512.899L-1041.93 526.443C-1042.63 527.372 -1043.28 528.334 -1043.88 529.324L-1045.23 528.255C-1051.29 523.469 -1055.13 516.32 -1055.77 508.646ZM-1039.23 528.467L-1029.07 515.052L-1007.45 532.957L-1019.03 548.929L-1041.2 531.433C-1040.61 530.41 -1039.95 529.419 -1039.23 528.467ZM-1016.38 551.02L-1004.84 535.113L-983.942 552.426L-994.805 568.045L-1016.38 551.02ZM-992.158 570.133L-981.342 554.579L-961.089 571.354L-971.281 586.608L-992.158 570.133ZM-968.635 588.696L-958.487 573.509L-938.845 589.778L-948.411 604.654L-968.635 588.696ZM-945.756 606.749L-936.234 591.941L-917.149 607.748L-926.128 622.237L-945.756 606.749ZM-923.467 624.338L-914.53 609.917L-895.972 625.288L-904.402 639.381L-923.467 624.338ZM-901.725 641.494L-893.337 627.471L-875.258 642.445L-883.172 656.134L-901.725 641.494ZM-880.498 658.244L-872.625 644.626L-854.993 659.229L-862.421 672.508L-880.498 658.244ZM-859.746 674.619L-852.357 661.412L-835.141 675.672L-842.112 688.534L-859.746 674.619ZM-839.432 690.649L-832.5 677.859L-815.68 691.791L-822.219 704.231L-839.432 690.649ZM-819.524 706.359L-813.023 693.991L-366.31 1063.99L-819.524 706.359ZM-305.935 1111.63L-351.592 1075.6C-338.988 1082.83 -322.559 1080.18 -312.96 1068.65L271.263 367.083C276.396 360.921 278.852 353.139 278.198 345.152C277.515 336.943 273.655 329.528 267.298 324.271L-349.954 -186.977L-347.424 -191.792L314.056 330.165C320.113 334.951 323.953 342.085 324.584 349.776L324.599 349.774C325.183 356.857 323.074 363.832 318.646 369.409L-266.573 1107.02C-276.162 1119.12 -293.822 1121.19 -305.935 1111.63ZM-350.125 -193.923L-352.617 -189.182L-359.5 -194.883L-357.056 -199.393L-350.125 -193.923ZM-359.736 -201.507L-362.141 -197.07L-368.941 -202.703L-366.586 -206.913L-359.736 -201.507ZM-369.262 -209.024L-371.577 -204.886L-378.284 -210.441L-376.021 -214.357L-369.262 -209.024ZM-378.704 -216.475L-380.927 -212.63L-387.544 -218.11L-385.374 -221.738L-378.704 -216.475ZM-388.039 -223.84L-390.167 -220.283L-396.684 -225.681L-395.117 -228.209C-394.948 -228.482 -394.775 -228.751 -394.6 -229.017L-388.039 -223.84ZM-397.991 -229.97L-399.304 -227.851L-405.651 -233.108C-404.936 -234.097 -404.173 -235.039 -403.363 -235.933L-397.254 -231.112C-397.506 -230.737 -397.751 -230.357 -397.991 -229.97ZM-406.023 -238.031C-406.81 -237.153 -407.557 -236.232 -408.262 -235.271L-414.07 -240.081C-413.251 -240.885 -412.39 -241.641 -411.493 -242.347L-406.023 -238.031ZM-414.199 -244.483C-415.057 -243.776 -415.882 -243.027 -416.673 -242.237L-421.728 -246.424C-420.796 -247.048 -419.83 -247.621 -418.833 -248.14L-414.199 -244.483ZM-421.698 -250.4C-422.632 -249.861 -423.538 -249.277 -424.416 -248.65L-428.426 -251.972C-427.346 -252.405 -426.235 -252.777 -425.1 -253.084L-421.698 -250.4ZM-428.636 -255.494C-429.554 -255.162 -430.455 -254.791 -431.335 -254.381L-433.77 -256.398C-432.803 -256.527 -431.83 -256.609 -430.855 -256.641C-430.103 -256.295 -429.363 -255.912 -428.636 -255.494ZM-1042.75 534.518C-1044.59 538.807 -1045.38 543.508 -1044.99 548.227C-1044.31 556.42 -1040.16 563.935 -1033.59 568.88L-1033.37 569.049C-1032.76 567.984 -1032.1 566.949 -1031.37 565.949L-1021.02 551.668L-1042.75 534.518ZM-1018.37 553.76L-1028.64 567.922C-1029.38 568.942 -1030.05 570.003 -1030.65 571.097L-1008.52 587.771L-996.738 570.826L-1018.37 553.76ZM-994.092 572.914L-1005.83 589.798L-984.269 606.048L-973.164 589.427L-994.092 572.914ZM-970.518 591.515L-981.582 608.073L-960.718 623.795L-950.247 607.51L-970.518 591.515ZM-947.592 609.605L-958.023 625.826L-937.798 641.067L-927.92 625.128L-947.592 609.605ZM-925.258 627.228L-935.096 643.103L-915.474 657.89L-906.151 642.305L-925.258 627.228ZM-903.473 644.417L-912.757 659.937L-893.681 674.312L-884.88 659.089L-903.473 644.417ZM-882.206 661.198L-890.969 676.356L-872.401 690.347L-864.091 675.492L-882.206 661.198ZM-861.415 677.604L-869.688 692.392L-851.592 706.028L-843.744 691.547L-861.415 677.604ZM-841.065 693.662L-848.876 708.075L-831.229 721.373L-823.817 707.271L-841.065 693.662ZM-821.121 709.398L-828.498 723.431L-258.15 1153.22C-245.42 1162.81 -227.236 1160.27 -217.617 1147.58L368.597 373.911C372.893 368.245 374.936 361.219 374.352 354.136L374.339 354.153C373.661 345.974 369.516 338.445 362.959 333.497L-343.649 -198.973L-345.838 -194.809L316.149 327.549C322.937 332.901 327.232 340.906 327.95 349.513C328.613 357.454 326.236 365.272 321.279 371.516L-263.94 1109.13C-274.679 1122.66 -294.465 1124.97 -308.026 1114.26L-821.121 709.398ZM-348.539 -196.94L-346.386 -201.036L-353.33 -206.269L-355.436 -202.382L-348.539 -196.94ZM-358.116 -204.497L-356.046 -208.316L-362.908 -213.487L-364.93 -209.874L-358.116 -204.497ZM-367.605 -211.985L-365.621 -215.531L-372.392 -220.633L-374.326 -217.288L-367.605 -211.985ZM-377.01 -219.406L-375.114 -222.685L-381.664 -227.62C-382.332 -226.715 -382.959 -225.773 -383.545 -224.796L-383.64 -224.637L-377.01 -219.406ZM-386.304 -226.739C-385.694 -227.743 -385.043 -228.713 -384.353 -229.647L-390.392 -234.198C-391.169 -233.416 -391.912 -232.59 -392.617 -231.721L-386.304 -226.739ZM-395.263 -233.809C-394.575 -234.657 -393.855 -235.468 -393.106 -236.242L-398.509 -240.314C-399.361 -239.688 -400.183 -239.021 -400.971 -238.313L-395.263 -233.809ZM-403.659 -240.434C-402.905 -241.133 -402.121 -241.797 -401.312 -242.426L-405.883 -245.871C-406.824 -245.41 -407.739 -244.904 -408.627 -244.354L-403.659 -240.434ZM-411.414 -246.554C-410.584 -247.108 -409.73 -247.628 -408.854 -248.11L-412.237 -250.659C-413.305 -250.386 -414.351 -250.058 -415.373 -249.677L-411.414 -246.554ZM-418.407 -252.071C-417.587 -252.433 -416.751 -252.763 -415.899 -253.06C-416.603 -253.45 -417.319 -253.807 -418.044 -254.132C-418.947 -254.105 -419.853 -254.037 -420.76 -253.928L-418.407 -252.071ZM-1034.21 587.824C-1034.6 583.153 -1033.87 578.49 -1032.13 574.205L-1010.45 590.541L-1020.82 605.454C-1021.58 606.54 -1022.26 607.664 -1022.88 608.821C-1029.41 603.708 -1033.52 596.119 -1034.21 587.824ZM-1018.06 607.38L-1007.76 592.568L-986.145 608.855L-998.088 626.731L-1020.14 610.83C-1019.52 609.64 -1018.83 608.487 -1018.06 607.38ZM-995.362 628.697L-983.458 610.881L-962.546 626.638L-973.847 644.213L-995.362 628.697ZM-971.113 646.184L-959.851 628.669L-939.58 643.944L-950.28 661.209L-971.113 646.184ZM-947.541 663.184L-936.879 645.979L-917.213 660.798L-927.35 677.745L-947.541 663.184ZM-924.597 679.731L-914.496 662.846L-895.38 677.251L-904.989 693.872L-924.597 679.731ZM-902.241 695.853L-892.668 679.294L-874.062 693.315L-883.174 709.604L-902.241 695.853ZM-880.426 711.585L-871.349 695.359L-853.216 709.023L-861.861 724.974L-880.426 711.585ZM-859.11 726.958L-850.5 711.07L-832.817 724.394L-841.022 740.003L-859.11 726.958ZM-838.256 741.997L-830.086 726.453L-260.159 1155.92C-245.953 1166.63 -225.65 1163.8 -214.917 1149.62L371.296 375.949C376.092 369.621 378.375 361.77 377.717 353.874C376.962 344.732 372.318 336.337 364.999 330.813L-342.064 -201.989L-340.188 -205.557L411.876 336.813C418.947 341.919 423.409 349.827 424.136 358.509C424.721 365.592 422.742 372.655 418.562 378.411L-168.645 1188.14C-178.291 1201.45 -197.014 1204.46 -210.349 1194.83L-838.256 741.997ZM-342.959 -207.555L-344.801 -204.052L-351.71 -209.258L-349.914 -212.571L-342.959 -207.555ZM-352.665 -214.555L-354.426 -211.305L-361.252 -216.448L-360.4 -217.971C-360.111 -218.486 -359.813 -218.991 -359.503 -219.486L-352.665 -214.555ZM-363.334 -219.62L-363.965 -218.492L-370.628 -223.513C-370.021 -224.414 -369.376 -225.282 -368.697 -226.117L-362.24 -221.46C-362.618 -220.86 -362.983 -220.246 -363.334 -219.62ZM-371.442 -228.096C-372.103 -227.277 -372.733 -226.428 -373.331 -225.55L-379.539 -230.228C-378.859 -230.984 -378.148 -231.708 -377.408 -232.398L-371.442 -228.096ZM-380.187 -234.403C-380.897 -233.718 -381.581 -233.004 -382.237 -232.261L-387.861 -236.499C-387.104 -237.119 -386.324 -237.703 -385.522 -238.251L-380.187 -234.403ZM-388.407 -240.331C-389.165 -239.778 -389.903 -239.193 -390.621 -238.579L-395.513 -242.265C-394.677 -242.747 -393.817 -243.191 -392.937 -243.598L-388.407 -240.331ZM-396.031 -245.829C-396.845 -245.401 -397.64 -244.942 -398.417 -244.453L-402.283 -247.367C-401.326 -247.697 -400.349 -247.984 -399.354 -248.226L-396.031 -245.829ZM-403.13 -250.623C-403.915 -250.359 -404.688 -250.068 -405.447 -249.751L-407.728 -251.47C-406.885 -251.559 -406.043 -251.614 -405.204 -251.634C-404.502 -251.325 -403.81 -250.988 -403.13 -250.623ZM-1021.54 613.965C-1023.16 618.227 -1023.83 622.828 -1023.46 627.409C-1022.76 635.739 -1018.77 643.319 -1012.39 648.576C-1011.76 647.341 -1011.05 646.134 -1010.27 644.96L-999.957 629.528L-1021.54 613.965ZM-997.231 631.494L-1007.47 646.821C-1008.29 648.046 -1009.01 649.31 -1009.65 650.608L-987.712 665.777L-975.668 647.045L-997.231 631.494ZM-972.934 649.017L-984.943 667.692L-963.492 682.527L-952.056 664.074L-972.934 649.017ZM-949.317 666.049L-960.718 684.446L-939.95 698.808L-929.083 680.641L-949.317 666.049ZM-926.329 682.627L-937.162 700.737L-917.013 714.671L-906.68 696.798L-926.329 682.627ZM-903.933 698.779L-914.232 716.594L-894.658 730.132L-884.827 712.558L-903.933 698.779ZM-882.079 714.539L-891.877 732.055L-872.835 745.224L-863.476 727.955L-882.079 714.539ZM-860.726 729.939L-870.053 747.148L-851.516 759.968L-842.602 743.009L-860.726 729.939ZM-839.837 745.003L-848.719 761.902L-162.562 1236.44C-155.801 1241.1 -147.625 1242.88 -139.516 1241.42C-131.422 1239.96 -124.374 1235.44 -119.676 1228.69L468.527 382.91C472.591 377.065 474.518 369.948 473.92 362.882L473.933 362.865C473.17 353.664 468.376 345.379 460.792 340.128L-337.006 -211.604C-337.086 -211.458 -337.164 -211.311 -337.242 -211.163L-338.608 -208.563L413.851 334.091C421.729 339.77 426.692 348.557 427.5 358.232C428.154 366.099 425.949 373.97 421.298 380.384L-165.911 1190.1C-176.654 1204.91 -197.475 1208.26 -212.324 1197.55L-839.837 745.003ZM-341.379 -210.561L-340.24 -212.729C-340.097 -213.001 -339.952 -213.271 -339.804 -213.539L-346.579 -218.224C-347.182 -217.359 -347.751 -216.464 -348.286 -215.542L-341.379 -210.561ZM-351.026 -217.519C-350.496 -218.416 -349.936 -219.29 -349.345 -220.138L-355.709 -224.538C-356.364 -223.808 -356.993 -223.046 -357.594 -222.255L-351.026 -217.519ZM-360.327 -224.226C-359.742 -225 -359.133 -225.748 -358.5 -226.469L-364.397 -230.547C-365.102 -229.937 -365.783 -229.3 -366.44 -228.634L-360.327 -224.226ZM-369.208 -230.631C-368.579 -231.286 -367.928 -231.917 -367.256 -232.524L-372.542 -236.179C-373.3 -235.693 -374.039 -235.176 -374.756 -234.632L-369.208 -230.631ZM-377.599 -236.682C-376.924 -237.225 -376.229 -237.743 -375.518 -238.238L-379.973 -241.319C-380.796 -240.96 -381.605 -240.568 -382.399 -240.144L-377.599 -236.682ZM-385.403 -242.311C-384.672 -242.743 -383.927 -243.15 -383.17 -243.53L-386.459 -245.804C-387.39 -245.591 -388.305 -245.34 -389.204 -245.051L-385.403 -242.311ZM-392.519 -247.442C-391.817 -247.72 -391.104 -247.977 -390.381 -248.213C-391.021 -248.545 -391.671 -248.853 -392.329 -249.137C-393.114 -249.123 -393.9 -249.079 -394.688 -249.006L-392.519 -247.442ZM-1012.7 666.993C-1013.08 662.43 -1012.49 657.955 -1010.98 653.755L-989.522 668.592L-999.73 684.467C-1000.53 685.719 -1001.25 687.004 -1001.89 688.32C-1008.12 682.931 -1012.01 675.354 -1012.7 666.993ZM-996.895 686.279L-986.753 670.507L-965.256 685.375L-977.368 704.918L-998.661 690.77C-998.83 690.658 -998.997 690.544 -999.164 690.429C-998.513 689.007 -997.756 687.62 -996.895 686.279ZM-974.561 706.783L-962.482 687.293L-941.672 701.686L-953.207 720.97L-974.561 706.783ZM-950.386 722.845L-938.883 703.615L-918.693 717.578L-929.689 736.597L-950.386 722.845ZM-926.876 738.465L-915.913 719.501L-896.3 733.066L-906.787 751.813L-926.876 738.465ZM-903.976 753.681L-893.519 734.989L-874.44 748.184L-884.45 766.654L-903.976 753.681ZM-881.637 768.523L-871.657 750.109L-853.085 762.953L-862.646 781.142L-881.637 768.523ZM-859.819 783.02L-850.289 764.888L-164.488 1239.2C-156.987 1244.38 -147.905 1246.34 -138.917 1244.73C-129.917 1243.09 -122.109 1238.07 -116.904 1230.6L471.299 384.82C475.806 378.334 477.934 370.443 477.282 362.59C476.436 352.381 471.122 343.189 462.703 337.37L-335.271 -214.506C-334.744 -215.307 -334.189 -216.086 -333.608 -216.84L509.695 343.46C517.806 348.854 522.933 357.516 523.732 367.236L523.719 367.253C524.329 374.422 522.506 381.406 518.491 387.41L-70.7054 1269.25C-75.4271 1276.29 -82.5883 1281.09 -90.9125 1282.74C-99.2368 1284.4 -107.713 1282.73 -114.776 1278.05L-859.819 783.02ZM-336.431 -218.716C-336.995 -217.975 -337.536 -217.213 -338.053 -216.431L-344.525 -220.907C-343.949 -221.594 -343.349 -222.258 -342.728 -222.9L-336.431 -218.716ZM-345.572 -224.79C-346.169 -224.155 -346.746 -223.501 -347.303 -222.827L-353.305 -226.979C-352.678 -227.558 -352.033 -228.113 -351.372 -228.643L-345.572 -224.79ZM-354.306 -230.592C-354.932 -230.062 -355.544 -229.511 -356.139 -228.939L-361.61 -232.722C-360.937 -233.195 -360.247 -233.645 -359.541 -234.071L-354.306 -230.592ZM-362.618 -236.115C-363.276 -235.681 -363.92 -235.228 -364.55 -234.755L-369.282 -238.028C-368.547 -238.394 -367.797 -238.735 -367.034 -239.049L-362.618 -236.115ZM-370.347 -241.25C-371.043 -240.915 -371.728 -240.56 -372.4 -240.185L-376.091 -242.737C-375.256 -242.986 -374.413 -243.202 -373.562 -243.386L-370.347 -241.25ZM-377.599 -245.787C-378.25 -245.582 -378.896 -245.36 -379.535 -245.119L-381.6 -246.547C-380.884 -246.603 -380.168 -246.636 -379.453 -246.645C-378.828 -246.379 -378.209 -246.093 -377.599 -245.787ZM-1000.43 693.629C-1001.81 697.758 -1002.34 702.128 -1001.97 706.566C-1001.27 714.954 -997.483 722.548 -991.378 728.054C-990.735 726.66 -990.001 725.297 -989.177 723.973L-979.138 707.775L-1000.43 693.629ZM-976.331 709.64L-986.316 725.751C-987.217 727.205 -988 728.709 -988.663 730.253C-988.126 730.643 -987.574 731.018 -987.009 731.379L-967.062 744.132L-954.934 723.857L-976.331 709.64ZM-952.112 725.732L-964.21 745.956L-942.956 759.546L-931.373 739.511L-952.112 725.732ZM-928.561 741.38L-940.114 761.362L-919.502 774.541L-908.433 754.754L-928.561 741.38ZM-905.621 756.622L-916.662 776.357L-896.645 789.155L-886.058 769.621L-905.621 756.622ZM-883.245 771.49L-893.804 790.972L-874.35 803.41L-864.217 784.132L-883.245 771.49ZM-861.391 786.01L-871.496 805.235L-66.9614 1319.63C-51.7587 1329.35 -31.4794 1324.92 -21.7249 1309.76L568.468 391.878C572.382 385.797 574.142 378.776 573.542 371.576L573.544 371.591C572.694 361.353 567.25 352.311 558.597 346.776L-329.706 -221.182C-330.304 -220.611 -330.884 -220.021 -331.444 -219.411L511.527 340.667C520.519 346.638 526.167 356.222 527.066 366.963C527.715 374.906 525.728 382.614 521.288 389.272L-67.9256 1271.1C-73.1192 1278.9 -81.07 1284.2 -90.2691 1286.04C-99.4699 1287.87 -108.851 1286.04 -116.652 1280.84L-861.391 786.01ZM-334.293 -221.303C-333.755 -221.903 -333.201 -222.486 -332.631 -223.052L-338.386 -226.732C-339.016 -226.257 -339.632 -225.762 -340.231 -225.249L-334.293 -221.303ZM-343.131 -227.175C-342.564 -227.684 -341.984 -228.177 -341.39 -228.653L-346.52 -231.933C-347.187 -231.554 -347.843 -231.155 -348.487 -230.734L-343.131 -227.175ZM-351.519 -232.749C-350.921 -233.171 -350.313 -233.575 -349.695 -233.963L-354.07 -236.76C-354.79 -236.48 -355.497 -236.178 -356.193 -235.854L-351.519 -232.749ZM-359.429 -238.004C-358.798 -238.339 -358.157 -238.656 -357.505 -238.956L-360.682 -240.987C-361.198 -240.881 -361.713 -240.762 -362.227 -240.632C-362.504 -240.562 -362.78 -240.489 -363.055 -240.413L-359.429 -238.004ZM-366.642 -242.796C-366.053 -243.006 -365.457 -243.203 -364.855 -243.385C-365.42 -243.659 -365.991 -243.916 -366.567 -244.156C-367.239 -244.152 -367.911 -244.128 -368.58 -244.084L-366.642 -242.796ZM-991.241 746.17C-991.6 741.854 -991.13 737.589 -989.875 733.539C-989.533 733.775 -989.185 734.005 -988.834 734.23L-968.801 747.038L-978.626 763.464C-979.466 764.873 -980.21 766.322 -980.856 767.804C-986.788 762.162 -990.553 754.452 -991.241 746.17ZM-975.725 765.207L-965.948 748.862L-944.651 762.479L-956.792 783.48L-975.367 772.034C-976.335 771.437 -977.266 770.795 -978.16 770.109C-977.484 768.427 -976.671 766.789 -975.725 765.207ZM-953.923 785.248L-941.81 764.295L-921.157 777.5L-932.781 798.277L-953.923 785.248ZM-929.913 800.044L-918.317 779.316L-898.262 792.138L-909.398 812.686L-929.913 800.044ZM-906.53 814.453L-895.42 793.955L-875.93 806.416L-886.608 826.729L-906.53 814.453ZM-883.728 828.504L-873.076 808.241L-68.7873 1322.47C-52.0225 1333.18 -29.6436 1328.3 -18.8898 1311.57L571.303 393.69C575.631 386.972 577.569 379.24 576.906 371.299C575.967 360.009 569.955 350.036 560.406 343.927L-327.062 -223.485C-326.506 -223.926 -325.937 -224.352 -325.357 -224.761L607.482 350.081C616.546 355.668 622.474 365.337 623.356 375.945C623.955 383.146 622.248 390.22 618.433 396.378L27.2315 1350.32C22.5109 1357.96 15.0595 1363.31 6.29391 1365.38C-2.45707 1367.45 -11.5056 1365.99 -19.173 1361.26L-883.728 828.504ZM-328.462 -226.675C-329.005 -226.263 -329.537 -225.839 -330.058 -225.401L-335.355 -228.788C-334.767 -229.146 -334.168 -229.489 -333.558 -229.815L-328.462 -226.675ZM-336.821 -231.826C-337.381 -231.491 -337.933 -231.143 -338.475 -230.783L-343.012 -233.683C-342.378 -233.959 -341.737 -234.217 -341.089 -234.456L-336.821 -231.826ZM-344.644 -236.647C-345.226 -236.389 -345.802 -236.117 -346.371 -235.831L-349.916 -238.097C-349.206 -238.28 -348.493 -238.44 -347.779 -238.579L-344.644 -236.647ZM-352.098 -240.982C-352.623 -240.828 -353.143 -240.664 -353.657 -240.489L-355.488 -241.66C-354.914 -241.691 -354.339 -241.707 -353.765 -241.709C-353.205 -241.483 -352.65 -241.241 -352.098 -240.982ZM-979.306 773.443C-980.447 777.417 -980.861 781.577 -980.511 785.772C-979.826 794.079 -976.146 801.79 -970.328 807.548C-969.677 805.984 -968.919 804.455 -968.059 802.968L-958.474 786.389L-977.131 774.893C-977.875 774.434 -978.601 773.95 -979.306 773.443ZM-955.605 788.157L-965.148 804.665C-966.13 806.366 -966.966 808.129 -967.65 809.937C-966.406 810.937 -965.086 811.856 -963.696 812.685L-946.547 822.884L-934.422 801.21L-955.605 788.157ZM-931.554 802.977L-943.653 824.605L-922.633 837.107L-911 815.642L-931.554 802.977ZM-908.132 817.41L-919.74 838.828L-899.343 850.959L-888.173 829.708L-908.132 817.41ZM-885.293 831.483L-896.439 852.686L28.6448 1402.88C36.6106 1407.6 45.9464 1408.96 54.9271 1406.7C63.9227 1404.43 71.4878 1398.8 76.2446 1390.86L668.427 400.874C672.157 394.637 673.815 387.524 673.213 380.309L673.197 380.296C672.277 369.153 665.985 359.097 656.382 353.383L-320.55 -227.655C-321.11 -227.371 -321.662 -227.074 -322.205 -226.765L609.26 347.22C619.231 353.351 625.747 363.993 626.717 375.653C627.379 383.58 625.505 391.349 621.304 398.125L30.1012 1352.06C24.8959 1360.47 16.703 1366.35 7.06448 1368.62C-2.58884 1370.89 -12.5386 1369.29 -20.9548 1364.09L-885.293 831.483ZM-325.443 -228.76C-324.946 -229.072 -324.442 -229.374 -323.931 -229.665L-328.165 -232.184C-328.758 -231.976 -329.344 -231.755 -329.922 -231.52L-325.443 -228.76ZM-333.393 -233.659C-332.878 -233.904 -332.357 -234.139 -331.829 -234.363L-334.853 -236.161C-335.504 -236.043 -336.151 -235.907 -336.794 -235.755L-333.393 -233.659ZM-340.693 -238.157C-340.236 -238.305 -339.776 -238.445 -339.313 -238.577C-339.821 -238.809 -340.332 -239.028 -340.847 -239.235C-341.362 -239.236 -341.879 -239.227 -342.395 -239.206L-340.693 -238.157ZM-969.813 825.365C-970.153 821.289 -969.786 817.239 -968.748 813.348C-967.691 814.138 -966.589 814.875 -965.443 815.557L-948.189 825.819L-957.506 842.473C-958.385 844.04 -959.153 845.653 -959.808 847.301C-965.523 841.442 -969.118 833.714 -969.813 825.365ZM-954.572 844.122L-945.295 827.54L-924.236 840.065L-936.319 862.358L-952.058 853.311C-953.868 852.27 -955.566 851.084 -957.14 849.77C-956.45 847.832 -955.592 845.944 -954.572 844.122ZM-933.402 864.034L-921.343 841.785L-900.91 853.939L-912.524 876.035L-933.402 864.034ZM-909.596 877.718L-898.005 855.666L26.8999 1405.76C35.6292 1410.96 45.8644 1412.44 55.7291 1409.95C65.5956 1407.47 73.9004 1401.3 79.1127 1392.58L671.295 402.591C675.381 395.74 677.205 387.932 676.546 380.021C675.536 367.811 668.641 356.783 658.099 350.515L-316.8 -229.313C-316.278 -229.512 -315.75 -229.701 -315.217 -229.878L705.298 356.699C715.441 362.538 722.082 372.985 723.053 384.645L723.04 384.662C723.628 391.893 722.02 399.045 718.375 405.361L125.199 1431.41C115.365 1448.42 93.4856 1454.28 76.4313 1444.49L-909.596 877.718ZM-319.013 -232.06C-319.483 -231.868 -319.948 -231.668 -320.409 -231.46L-323.741 -233.442C-323.165 -233.569 -322.588 -233.683 -322.009 -233.783L-319.013 -232.06ZM-327.378 -235.966C-327.512 -235.926 -327.646 -235.885 -327.78 -235.844L-329.291 -236.743C-328.848 -236.755 -328.404 -236.76 -327.959 -236.756C-327.504 -236.577 -327.051 -236.388 -326.602 -236.189C-326.861 -236.117 -327.12 -236.043 -327.378 -235.966ZM-958.182 853.23C-959.125 857.042 -959.445 860.993 -959.115 864.956C-958.421 873.346 -954.895 881.094 -949.274 887.048C-948.62 885.318 -947.845 883.625 -946.953 881.979L-937.915 865.303L-953.742 856.204C-955.3 855.309 -956.782 854.314 -958.182 853.23ZM-934.998 866.979L-943.995 883.58C-945.047 885.521 -945.92 887.535 -946.61 889.599C-944.718 891.236 -942.643 892.692 -940.405 893.934L-926.111 901.885L-914.083 879.002L-934.998 866.979ZM-911.156 880.685L-923.162 903.525L124.218 1486.09C132.788 1490.86 142.694 1492 152.133 1489.33C161.572 1486.67 169.396 1480.48 174.181 1471.94L768.353 409.844C771.915 403.463 773.488 396.271 772.896 389.01C771.887 376.816 764.896 365.965 754.199 360.015L-309.108 -231.388C-309.616 -231.305 -310.124 -231.211 -310.631 -231.108L706.967 353.807C718.079 360.197 725.339 371.628 726.389 384.386C727.034 392.3 725.287 400.127 721.283 407.044L128.107 1433.09C117.339 1451.71 93.3913 1458.14 74.7362 1447.41L-911.156 880.685ZM-314.835 -233.524L-316.236 -234.329C-315.873 -234.335 -315.511 -234.336 -315.149 -234.332C-314.713 -234.164 -314.278 -233.988 -313.845 -233.802C-314.176 -233.714 -314.506 -233.621 -314.835 -233.524ZM-948.418 904.534C-948.731 900.694 -948.453 896.86 -947.605 893.145C-945.878 894.526 -944.023 895.773 -942.054 896.868L-927.677 904.864L-936.414 921.486C-937.316 923.205 -938.095 924.973 -938.747 926.78C-944.269 920.735 -947.724 912.967 -948.418 904.534ZM-933.418 923.037L-924.728 906.505L122.611 1489.01C131.954 1494.2 142.774 1495.46 153.079 1492.54C163.385 1489.63 171.932 1482.88 177.156 1473.55L771.328 411.458C775.22 404.496 776.932 396.628 776.272 388.716C775.166 375.397 767.54 363.563 755.846 357.066L-303.069 -231.894C-302.809 -231.896 -302.55 -231.894 -302.29 -231.89C-300.727 -231.297 -299.193 -230.597 -297.698 -229.79L803.085 363.32C814.35 369.391 821.704 380.616 822.752 393.359L822.754 393.374C823.361 400.633 821.825 407.88 818.331 414.327L223.165 1512.48C213.278 1530.73 190.337 1537.55 172.034 1527.7L-928.752 934.558C-931.425 933.121 -933.879 931.392 -936.08 929.421C-935.39 927.232 -934.501 925.096 -933.418 923.037ZM-937.031 933.045C-934.98 934.736 -932.747 936.241 -930.351 937.531L170.45 1530.67C190.378 1541.41 215.381 1533.97 226.153 1514.08L821.319 415.925C825.128 408.898 826.775 400.994 826.13 393.08C824.97 379.213 816.964 366.979 804.702 360.375L-290.983 -230.003C-288.922 -229.331 -286.902 -228.482 -284.944 -227.456L851.973 366.653C863.791 372.82 871.509 384.447 872.61 397.723L872.625 397.721C873.233 404.995 871.749 412.295 868.324 418.809L272.162 1553.01C267.348 1562.15 259.264 1568.88 249.384 1571.96C239.489 1575.04 229.008 1574.1 219.835 1569.3L-917.095 975.211C-928.899 969.028 -936.616 957.416 -937.719 944.125C-938.031 940.397 -937.795 936.669 -937.031 933.045Z" fill="#EF7F1A" fill-opacity="0.3"/>
</g>
<defs>
<radialGradient id="paint0_radial_4600_44571" cx="0" cy="0" r="1" gradientUnits="userSpaceOnUse" gradientTransform="translate(-110.5 504) rotate(90) scale(504 598.5)">
<stop stop-color="#737373"/>
<stop offset="1" stop-color="#D9D9D9" stop-opacity="0"/>
</radialGradient>
</defs>
</svg>
