<svg width="23" height="23" viewBox="0 0 23 23" fill="none" xmlns="http://www.w3.org/2000/svg">
<path d="M22.5 11.25C22.5 12.21 21.3206 13.0012 21.0844 13.8862C20.8406 14.8012 21.4575 16.0763 20.9944 16.8769C20.5238 17.6906 19.1081 17.7881 18.4481 18.4481C17.7881 19.1081 17.6906 20.5238 16.8769 20.9944C16.0763 21.4575 14.8012 20.8406 13.8862 21.0844C13.0012 21.3206 12.21 22.5 11.25 22.5C10.29 22.5 9.49875 21.3206 8.61375 21.0844C7.69875 20.8406 6.42375 21.4575 5.62313 20.9944C4.80938 20.5238 4.71187 19.1081 4.05188 18.4481C3.39188 17.7881 1.97625 17.6906 1.50563 16.8769C1.0425 16.0763 1.65938 14.8012 1.41563 13.8862C1.17938 13.0012 0 12.21 0 11.25C0 10.29 1.17938 9.49875 1.41563 8.61375C1.65938 7.69875 1.0425 6.42375 1.50563 5.62313C1.97625 4.80938 3.39188 4.71187 4.05188 4.05188C4.71187 3.39188 4.80938 1.97625 5.62313 1.50563C6.42375 1.0425 7.69875 1.65938 8.61375 1.41563C9.49875 1.17938 10.29 0 11.25 0C12.21 0 13.0012 1.17938 13.8862 1.41563C14.8012 1.65938 16.0763 1.0425 16.8769 1.50563C17.6906 1.97625 17.7881 3.39188 18.4481 4.05188C19.1081 4.71187 20.5238 4.80938 20.9944 5.62313C21.4575 6.42375 20.8406 7.69875 21.0844 8.61375C21.3206 9.49875 22.5 10.29 22.5 11.25Z" fill="#7A231C"/>
<path d="M14.5013 7.89656L10.2188 12.1791L7.99875 9.96094C7.51688 9.47906 6.735 9.47906 6.25313 9.96094C5.77125 10.4428 5.77125 11.2247 6.25313 11.7066L9.36751 14.8209C9.83626 15.2897 10.5975 15.2897 11.0663 14.8209L16.245 9.64219C16.7269 9.16031 16.7269 8.37844 16.245 7.89656C15.7631 7.41469 14.9831 7.41469 14.5013 7.89656Z" fill="white"/>
</svg>
