<svg width="136" height="131" viewBox="0 0 136 131" fill="none" xmlns="http://www.w3.org/2000/svg">
<path d="M74.7476 61.608C75.1313 31.594 75.4418 31.24 101.834 30.804C75.4428 30.368 75.1313 30.014 74.7476 0C74.364 30.014 74.0534 30.368 47.662 30.804C74.0534 31.24 74.365 31.593 74.7476 61.608Z" fill="#EF7F1A"/>
<path d="M108.903 39.9316C108.519 69.9456 108.209 70.2996 81.8175 70.7356C108.209 71.1716 108.521 71.5256 108.903 101.54C109.287 71.5256 109.597 71.1716 135.99 70.7356C109.597 70.2996 109.287 69.9466 108.903 39.9316Z" fill="#EF7F1A"/>
<path d="M40.9089 37.5215C40.3291 82.8525 39.8596 83.3865 0.00012207 84.0455C39.8596 84.7045 40.3291 85.2385 40.9089 130.569C41.4886 85.2385 41.9581 84.7045 81.8176 84.0455C41.9581 83.3865 41.4886 82.8525 40.9089 37.5215Z" fill="#EF7F1A"/>
</svg>
