<svg width="17" height="16" viewBox="0 0 17 16" fill="none" xmlns="http://www.w3.org/2000/svg">
<path d="M6.53507 1.2433C7.0739 -0.415059 9.42004 -0.415058 9.95887 1.2433L10.6717 3.43723C10.9127 4.17887 11.6038 4.681 12.3836 4.681H14.6905C16.4342 4.681 17.1592 6.9123 15.7485 7.93723L13.8822 9.29315C13.2513 9.75151 12.9873 10.564 13.2283 11.3056L13.9412 13.4995C14.48 15.1579 12.5819 16.5369 11.1713 15.512L9.30499 14.1561C8.67411 13.6977 7.81984 13.6977 7.18896 14.1561L5.32269 15.512C3.91201 16.5369 2.01395 15.1579 2.55278 13.4995L3.26563 11.3056C3.5066 10.564 3.24262 9.75151 2.61174 9.29315L0.745477 7.93723C-0.665208 6.9123 0.0597897 4.681 1.80349 4.681H4.11032C4.89013 4.681 5.58125 4.17887 5.82222 3.43723L6.53507 1.2433Z" fill="#F28833"/>
</svg>
