<svg width="1300" height="891" viewBox="0 0 1300 891" fill="none" xmlns="http://www.w3.org/2000/svg">
<g opacity="0.5">
<g opacity="0.4">
<mask id="mask0_5003_60339" style="mask-type:alpha" maskUnits="userSpaceOnUse" x="436" y="9" width="549" height="664">
<rect x="493.528" y="9.10547" width="493.429" height="620.415" transform="rotate(5.30217 493.528 9.10547)" fill="url(#paint0_linear_5003_60339)"/>
</mask>
<g mask="url(#mask0_5003_60339)">
<path d="M881.79 445.344C872.501 545.436 783.83 619.047 683.737 609.758C583.645 600.469 510.034 511.798 519.323 411.705C528.612 311.612 604.767 372.873 704.859 382.162C804.952 391.451 891.08 345.251 881.79 445.344Z" fill="#F3A561"/>
<g filter="url(#filter0_f_5003_60339)">
<path d="M881.454 448.959C874.264 526.439 787.294 581.719 687.201 572.43C587.108 563.141 511.796 492.8 518.987 415.32C526.177 337.84 613.148 282.56 713.24 291.849C813.333 301.138 888.645 371.478 881.454 448.959Z" fill="#F3A561"/>
</g>
<g filter="url(#filter1_f_5003_60339)">
<ellipse cx="700.89" cy="424.915" rx="182.013" ry="140.893" transform="rotate(5.30217 700.89 424.915)" fill="#F3A561"/>
</g>
<g filter="url(#filter2_f_5003_60339)">
<ellipse cx="702.735" cy="405.042" rx="182.013" ry="141.498" transform="rotate(5.30217 702.735 405.042)" fill="#F3A561"/>
</g>
<g filter="url(#filter3_f_5003_60339)">
<ellipse cx="708.267" cy="345.436" rx="182.013" ry="140.893" transform="rotate(5.30217 708.267 345.436)" fill="#F3A561"/>
</g>
<g filter="url(#filter4_f_5003_60339)">
<ellipse cx="715.754" cy="264.754" rx="152.987" ry="140.893" transform="rotate(5.30217 715.754 264.754)" fill="#F3A561"/>
</g>
</g>
<mask id="mask1_5003_60339" style="mask-type:alpha" maskUnits="userSpaceOnUse" x="486" y="60" width="775" height="715">
<rect x="1045.44" y="60.3262" width="493.429" height="620.415" transform="rotate(64.2136 1045.44 60.3262)" fill="url(#paint1_linear_5003_60339)"/>
</mask>
<g mask="url(#mask1_5003_60339)">
<path d="M872.341 618.082C781.828 661.811 673.004 623.885 629.275 533.372C585.546 442.859 623.471 334.034 713.984 290.305C804.497 246.576 791.359 343.426 835.088 433.939C878.817 524.451 962.854 574.353 872.341 618.082Z" fill="#EC4040"/>
<g filter="url(#filter5_f_5003_60339)">
<path d="M869.074 619.661C799.009 653.511 706.761 607.577 663.032 517.064C619.303 426.551 640.652 325.735 710.717 291.885C780.782 258.035 873.03 303.969 916.759 394.482C960.488 484.995 939.139 585.811 869.074 619.661Z" fill="#EC4040"/>
</g>
<g filter="url(#filter6_f_5003_60339)">
<ellipse cx="796.43" cy="452.615" rx="182.013" ry="140.893" transform="rotate(64.2136 796.43 452.615)" fill="#EC4040"/>
</g>
<g filter="url(#filter7_f_5003_60339)">
<ellipse cx="814.397" cy="443.934" rx="182.013" ry="141.498" transform="rotate(64.2136 814.397 443.934)" fill="#EC4040"/>
</g>
<g filter="url(#filter8_f_5003_60339)">
<ellipse cx="868.301" cy="417.892" rx="182.013" ry="140.893" transform="rotate(64.2136 868.301 417.892)" fill="#EC4040"/>
</g>
<g filter="url(#filter9_f_5003_60339)">
<ellipse cx="941.261" cy="382.644" rx="152.987" ry="140.893" transform="rotate(64.2136 941.261 382.644)" fill="#EC4040"/>
</g>
</g>
</g>
<g opacity="0.4">
<mask id="mask2_5003_60339" style="mask-type:alpha" maskUnits="userSpaceOnUse" x="498" y="370" width="768" height="272">
<rect x="1265.23" y="440.939" width="201.837" height="751.356" transform="rotate(95.4175 1265.23 440.939)" fill="url(#paint2_linear_5003_60339)"/>
</mask>
<g mask="url(#mask2_5003_60339)">
<path d="M768.298 569.226C647.103 557.733 552.002 515.231 555.884 474.296C559.767 433.361 661.161 409.494 782.356 420.987C903.551 432.481 835.345 459.495 831.463 500.431C827.581 541.366 889.492 580.72 768.298 569.226Z" fill="#DB9250"/>
<g filter="url(#filter10_f_5003_60339)">
<path d="M763.921 568.809C670.106 559.912 597.201 519.515 601.083 478.58C604.965 437.645 684.165 411.673 777.98 420.57C871.795 429.467 944.7 469.864 940.818 510.799C936.936 551.734 857.736 577.706 763.921 568.809Z" fill="#DB9250"/>
</g>
<g filter="url(#filter11_f_5003_60339)">
<ellipse cx="779.698" cy="495.52" rx="74.4522" ry="170.63" transform="rotate(95.4175 779.698 495.52)" fill="#DB9250"/>
</g>
<g filter="url(#filter12_f_5003_60339)">
<ellipse cx="803.76" cy="497.802" rx="74.4522" ry="171.362" transform="rotate(95.4175 803.76 497.802)" fill="#DB9250"/>
</g>
<g filter="url(#filter13_f_5003_60339)">
<ellipse cx="875.933" cy="504.647" rx="74.4522" ry="170.63" transform="rotate(95.4175 875.933 504.647)" fill="#DB9250"/>
</g>
<g filter="url(#filter14_f_5003_60339)">
<ellipse cx="973.625" cy="513.911" rx="62.5794" ry="170.63" transform="rotate(95.4175 973.625 513.911)" fill="#DB9250"/>
</g>
</g>
<mask id="mask3_5003_60339" style="mask-type:alpha" maskUnits="userSpaceOnUse" x="359" y="413" width="885" height="310">
<rect width="522.167" height="444.55" transform="matrix(-0.994335 0.106288 -0.822244 -0.569136 1243.82 666.656)" fill="url(#paint3_linear_5003_60339)"/>
</mask>
<g mask="url(#mask3_5003_60339)">
<path d="M559.623 552.128C500.368 511.137 538.093 468.752 643.885 457.457C749.677 446.163 883.475 470.236 942.731 511.226C1001.99 552.217 884.416 539.369 778.624 550.663C672.832 561.958 618.879 593.118 559.623 552.128Z" fill="#D26A16"/>
<g filter="url(#filter15_f_5003_60339)">
<path d="M557.484 550.65C511.615 518.92 560.192 484.041 665.984 472.747C771.776 461.452 894.722 478.018 940.591 509.749C986.46 541.479 937.883 576.357 832.091 587.652C726.299 598.946 603.353 582.38 557.484 550.65Z" fill="#D26A16"/>
</g>
<g filter="url(#filter16_f_5003_60339)">
<ellipse cx="192.613" cy="100.955" rx="192.613" ry="100.955" transform="matrix(-0.994499 0.106175 -0.822675 -0.569089 1027.92 570.16)" fill="#D26A16"/>
</g>
<g filter="url(#filter17_f_5003_60339)">
<ellipse cx="192.613" cy="101.389" rx="192.613" ry="101.389" transform="matrix(-0.994499 0.106175 -0.822675 -0.569089 1040.04 578.543)" fill="#D26A16"/>
</g>
<g filter="url(#filter18_f_5003_60339)">
<ellipse cx="192.613" cy="100.955" rx="192.613" ry="100.955" transform="matrix(-0.994499 0.106175 -0.822675 -0.569089 1074.97 602.707)" fill="#D26A16"/>
</g>
<g filter="url(#filter19_f_5003_60339)">
<ellipse cx="161.897" cy="100.955" rx="161.897" ry="100.955" transform="matrix(-0.994499 0.106175 -0.822675 -0.569089 1092.19 639.01)" fill="#D26A16"/>
</g>
</g>
</g>
<g opacity="0.4">
<mask id="mask4_5003_60339" style="mask-type:alpha" maskUnits="userSpaceOnUse" x="199" y="-98" width="744" height="815">
<rect x="199.388" y="109.9" width="525.112" height="660.251" transform="rotate(-23.2549 199.388 109.9)" fill="url(#paint4_linear_5003_60339)"/>
</mask>
<g mask="url(#mask4_5003_60339)">
<path d="M784.24 320.15C826.477 418.436 781.04 532.353 682.754 574.59C584.468 616.827 470.551 571.39 428.314 473.104C386.077 374.818 488.427 393.339 586.713 351.102C684.999 308.865 742.003 221.864 784.24 320.15Z" fill="#F28833"/>
<g filter="url(#filter20_f_5003_60339)">
<path d="M785.766 323.693C818.462 399.775 765.29 495.692 667.004 537.929C568.717 580.166 462.536 552.729 429.841 476.647C397.146 400.565 450.318 304.649 548.604 262.412C646.89 220.175 753.071 247.611 785.766 323.693Z" fill="#F28833"/>
</g>
<g filter="url(#filter21_f_5003_60339)">
<ellipse cx="604.754" cy="393.078" rx="193.699" ry="149.94" transform="rotate(-23.2549 604.754 393.078)" fill="#F28833"/>
</g>
<g filter="url(#filter22_f_5003_60339)">
<ellipse cx="596.371" cy="373.568" rx="193.699" ry="150.584" transform="rotate(-23.2549 596.371 373.568)" fill="#F28833"/>
</g>
<g filter="url(#filter23_f_5003_60339)">
<ellipse cx="571.216" cy="315.035" rx="193.699" ry="149.94" transform="rotate(-23.2549 571.216 315.035)" fill="#F28833"/>
</g>
<g filter="url(#filter24_f_5003_60339)">
<ellipse cx="537.17" cy="235.809" rx="162.81" ry="149.94" transform="rotate(-23.2549 537.17 235.809)" fill="#F28833"/>
</g>
</g>
<mask id="mask5_5003_60339" style="mask-type:alpha" maskUnits="userSpaceOnUse" x="250" y="232" width="451" height="379">
<rect x="250.954" y="554.971" width="325.225" height="408.923" transform="rotate(-82.1664 250.954 554.971)" fill="url(#paint5_linear_5003_60339)"/>
</mask>
<g mask="url(#mask5_5003_60339)">
<path d="M549.506 312.013C615.144 321.043 661.033 381.573 652.002 447.211C642.972 512.848 582.442 558.737 516.804 549.707C451.167 540.676 493.722 492.314 502.753 426.677C511.783 361.04 483.869 302.982 549.506 312.013Z" fill="#EF7F1A"/>
<g filter="url(#filter25_f_5003_60339)">
<path d="M551.876 312.34C602.685 319.33 636.553 378.207 627.523 443.844C618.492 509.482 569.983 557.024 519.174 550.034C468.365 543.044 434.496 484.167 443.527 418.53C452.557 352.893 501.067 305.35 551.876 312.34Z" fill="#EF7F1A"/>
</g>
<g filter="url(#filter26_f_5003_60339)">
<ellipse cx="530.787" cy="430.535" rx="119.967" ry="92.8645" transform="rotate(-82.1664 530.787 430.535)" fill="#EF7F1A"/>
</g>
<g filter="url(#filter27_f_5003_60339)">
<ellipse cx="517.756" cy="428.743" rx="119.967" ry="93.263" transform="rotate(-82.1664 517.756 428.743)" fill="#EF7F1A"/>
</g>
<g filter="url(#filter28_f_5003_60339)">
<ellipse cx="478.667" cy="423.363" rx="119.967" ry="92.8645" transform="rotate(-82.1664 478.667 423.363)" fill="#EF7F1A"/>
</g>
<g filter="url(#filter29_f_5003_60339)">
<ellipse cx="425.759" cy="416.085" rx="100.836" ry="92.8645" transform="rotate(-82.1664 425.759 416.085)" fill="#EF7F1A"/>
</g>
</g>
</g>
<g opacity="0.4">
<mask id="mask6_5003_60339" style="mask-type:alpha" maskUnits="userSpaceOnUse" x="426" y="245" width="595" height="593">
<rect x="682.479" y="837.277" width="371.681" height="467.335" transform="rotate(-133.6 682.479 837.277)" fill="url(#paint6_linear_5003_60339)"/>
</mask>
<g mask="url(#mask6_5003_60339)">
<path d="M678.089 397.396C732.924 345.178 819.707 347.299 871.925 402.134C924.142 456.968 922.021 543.751 867.187 595.969C812.352 648.187 799.457 575.704 747.239 520.869C695.021 466.035 623.255 449.614 678.089 397.396Z" fill="#EA7307"/>
<g filter="url(#filter30_f_5003_60339)">
<path d="M680.066 395.51C722.513 355.089 799.254 366.773 851.471 421.607C903.689 476.442 911.61 553.662 869.164 594.083C826.717 634.504 749.977 622.819 697.759 567.985C645.541 513.151 637.62 435.931 680.066 395.51Z" fill="#EA7307"/>
</g>
<g filter="url(#filter31_f_5003_60339)">
<ellipse cx="770.658" cy="498.568" rx="137.103" ry="106.13" transform="rotate(-133.6 770.658 498.568)" fill="#EA7307"/>
</g>
<g filter="url(#filter32_f_5003_60339)">
<ellipse cx="759.773" cy="508.931" rx="137.103" ry="106.585" transform="rotate(-133.6 759.773 508.931)" fill="#EA7307"/>
</g>
<g filter="url(#filter33_f_5003_60339)">
<ellipse cx="682.916" cy="582.121" rx="115.239" ry="106.13" transform="rotate(-133.6 682.916 582.121)" fill="#EA7307"/>
</g>
</g>
<path d="M680.474 555.191C670.315 509.408 699.193 464.058 744.976 453.898C790.759 443.739 836.11 472.618 846.269 518.401C856.428 564.184 813.86 547.843 768.077 558.002C722.294 568.161 690.633 600.974 680.474 555.191Z" fill="#EF7F1A"/>
<g filter="url(#filter34_f_5003_60339)">
<path d="M680.107 553.538C672.243 518.098 702.982 481.133 748.765 470.973C794.548 460.814 838.038 481.308 845.902 516.748C853.766 552.188 823.027 589.154 777.244 599.313C731.461 609.472 687.971 588.978 680.107 553.538Z" fill="#EF7F1A"/>
</g>
<g filter="url(#filter35_f_5003_60339)">
<ellipse cx="763.737" cy="538.448" rx="84.914" ry="65.7308" transform="rotate(167.489 763.737 538.448)" fill="#EF7F1A"/>
</g>
<g filter="url(#filter36_f_5003_60339)">
<ellipse cx="765.756" cy="547.538" rx="84.914" ry="66.0129" transform="rotate(167.489 765.756 547.538)" fill="#EF7F1A"/>
</g>
<g filter="url(#filter37_f_5003_60339)">
<ellipse cx="771.805" cy="574.801" rx="84.914" ry="65.7308" transform="rotate(167.489 771.805 574.801)" fill="#EF7F1A"/>
</g>
<g filter="url(#filter38_f_5003_60339)">
<ellipse cx="779.994" cy="611.706" rx="71.3729" ry="65.7308" transform="rotate(167.489 779.994 611.706)" fill="#EF7F1A"/>
</g>
</g>
</g>
<defs>
<filter id="filter0_f_5003_60339" x="515.687" y="288.005" width="369.067" height="288.269" filterUnits="userSpaceOnUse" color-interpolation-filters="sRGB">
<feFlood flood-opacity="0" result="BackgroundImageFix"/>
<feBlend mode="normal" in="SourceGraphic" in2="BackgroundImageFix" result="shape"/>
<feGaussianBlur stdDeviation="1.41249" result="effect1_foregroundBlur_5003_60339"/>
</filter>
<filter id="filter1_f_5003_60339" x="509.294" y="273.718" width="383.192" height="302.394" filterUnits="userSpaceOnUse" color-interpolation-filters="sRGB">
<feFlood flood-opacity="0" result="BackgroundImageFix"/>
<feBlend mode="normal" in="SourceGraphic" in2="BackgroundImageFix" result="shape"/>
<feGaussianBlur stdDeviation="4.94371" result="effect1_foregroundBlur_5003_60339"/>
</filter>
<filter id="filter2_f_5003_60339" x="497.01" y="239.122" width="411.45" height="331.839" filterUnits="userSpaceOnUse" color-interpolation-filters="sRGB">
<feFlood flood-opacity="0" result="BackgroundImageFix"/>
<feBlend mode="normal" in="SourceGraphic" in2="BackgroundImageFix" result="shape"/>
<feGaussianBlur stdDeviation="12.0062" result="effect1_foregroundBlur_5003_60339"/>
</filter>
<filter id="filter3_f_5003_60339" x="474.296" y="151.865" width="467.941" height="387.143" filterUnits="userSpaceOnUse" color-interpolation-filters="sRGB">
<feFlood flood-opacity="0" result="BackgroundImageFix"/>
<feBlend mode="normal" in="SourceGraphic" in2="BackgroundImageFix" result="shape"/>
<feGaussianBlur stdDeviation="26.131" result="effect1_foregroundBlur_5003_60339"/>
</filter>
<filter id="filter4_f_5003_60339" x="471.046" y="31.9304" width="489.417" height="465.647" filterUnits="userSpaceOnUse" color-interpolation-filters="sRGB">
<feFlood flood-opacity="0" result="BackgroundImageFix"/>
<feBlend mode="normal" in="SourceGraphic" in2="BackgroundImageFix" result="shape"/>
<feGaussianBlur stdDeviation="45.9059" result="effect1_foregroundBlur_5003_60339"/>
</filter>
<filter id="filter5_f_5003_60339" x="637.506" y="277.927" width="304.779" height="355.693" filterUnits="userSpaceOnUse" color-interpolation-filters="sRGB">
<feFlood flood-opacity="0" result="BackgroundImageFix"/>
<feBlend mode="normal" in="SourceGraphic" in2="BackgroundImageFix" result="shape"/>
<feGaussianBlur stdDeviation="1.41249" result="effect1_foregroundBlur_5003_60339"/>
</filter>
<filter id="filter6_f_5003_60339" x="636.978" y="267.706" width="318.904" height="369.818" filterUnits="userSpaceOnUse" color-interpolation-filters="sRGB">
<feFlood flood-opacity="0" result="BackgroundImageFix"/>
<feBlend mode="normal" in="SourceGraphic" in2="BackgroundImageFix" result="shape"/>
<feGaussianBlur stdDeviation="4.94371" result="effect1_foregroundBlur_5003_60339"/>
</filter>
<filter id="filter7_f_5003_60339" x="640.357" y="244.808" width="348.079" height="398.253" filterUnits="userSpaceOnUse" color-interpolation-filters="sRGB">
<feFlood flood-opacity="0" result="BackgroundImageFix"/>
<feBlend mode="normal" in="SourceGraphic" in2="BackgroundImageFix" result="shape"/>
<feGaussianBlur stdDeviation="12.0062" result="effect1_foregroundBlur_5003_60339"/>
</filter>
<filter id="filter8_f_5003_60339" x="666.474" y="190.609" width="403.654" height="454.567" filterUnits="userSpaceOnUse" color-interpolation-filters="sRGB">
<feFlood flood-opacity="0" result="BackgroundImageFix"/>
<feBlend mode="normal" in="SourceGraphic" in2="BackgroundImageFix" result="shape"/>
<feGaussianBlur stdDeviation="26.131" result="effect1_foregroundBlur_5003_60339"/>
</filter>
<filter id="filter9_f_5003_60339" x="706.16" y="140.022" width="470.203" height="485.245" filterUnits="userSpaceOnUse" color-interpolation-filters="sRGB">
<feFlood flood-opacity="0" result="BackgroundImageFix"/>
<feBlend mode="normal" in="SourceGraphic" in2="BackgroundImageFix" result="shape"/>
<feGaussianBlur stdDeviation="45.9059" result="effect1_foregroundBlur_5003_60339"/>
</filter>
<filter id="filter10_f_5003_60339" x="598.957" y="416.846" width="343.987" height="155.689" filterUnits="userSpaceOnUse" color-interpolation-filters="sRGB">
<feFlood flood-opacity="0" result="BackgroundImageFix"/>
<feBlend mode="normal" in="SourceGraphic" in2="BackgroundImageFix" result="shape"/>
<feGaussianBlur stdDeviation="0.989115" result="effect1_foregroundBlur_5003_60339"/>
</filter>
<filter id="filter11_f_5003_60339" x="602.759" y="412.73" width="353.879" height="165.58" filterUnits="userSpaceOnUse" color-interpolation-filters="sRGB">
<feFlood flood-opacity="0" result="BackgroundImageFix"/>
<feBlend mode="normal" in="SourceGraphic" in2="BackgroundImageFix" result="shape"/>
<feGaussianBlur stdDeviation="3.4619" result="effect1_foregroundBlur_5003_60339"/>
</filter>
<filter id="filter12_f_5003_60339" x="616.201" y="405.107" width="375.118" height="185.392" filterUnits="userSpaceOnUse" color-interpolation-filters="sRGB">
<feFlood flood-opacity="0" result="BackgroundImageFix"/>
<feBlend mode="normal" in="SourceGraphic" in2="BackgroundImageFix" result="shape"/>
<feGaussianBlur stdDeviation="8.40748" result="effect1_foregroundBlur_5003_60339"/>
</filter>
<filter id="filter13_f_5003_60339" x="669.32" y="392.184" width="413.226" height="224.927" filterUnits="userSpaceOnUse" color-interpolation-filters="sRGB">
<feFlood flood-opacity="0" result="BackgroundImageFix"/>
<feBlend mode="normal" in="SourceGraphic" in2="BackgroundImageFix" result="shape"/>
<feGaussianBlur stdDeviation="18.2986" result="effect1_foregroundBlur_5003_60339"/>
</filter>
<filter id="filter14_f_5003_60339" x="739.36" y="385.254" width="468.529" height="257.313" filterUnits="userSpaceOnUse" color-interpolation-filters="sRGB">
<feFlood flood-opacity="0" result="BackgroundImageFix"/>
<feBlend mode="normal" in="SourceGraphic" in2="BackgroundImageFix" result="shape"/>
<feGaussianBlur stdDeviation="32.1462" result="effect1_foregroundBlur_5003_60339"/>
</filter>
<filter id="filter15_f_5003_60339" x="538.222" y="467.221" width="421.63" height="125.956" filterUnits="userSpaceOnUse" color-interpolation-filters="sRGB">
<feFlood flood-opacity="0" result="BackgroundImageFix"/>
<feBlend mode="normal" in="SourceGraphic" in2="BackgroundImageFix" result="shape"/>
<feGaussianBlur stdDeviation="0.989115" result="effect1_foregroundBlur_5003_60339"/>
</filter>
<filter id="filter16_f_5003_60339" x="537.556" y="465.234" width="431.521" height="135.848" filterUnits="userSpaceOnUse" color-interpolation-filters="sRGB">
<feFlood flood-opacity="0" result="BackgroundImageFix"/>
<feBlend mode="normal" in="SourceGraphic" in2="BackgroundImageFix" result="shape"/>
<feGaussianBlur stdDeviation="3.4619" result="effect1_foregroundBlur_5003_60339"/>
</filter>
<filter id="filter17_f_5003_60339" x="539.284" y="463.248" width="451.587" height="156.095" filterUnits="userSpaceOnUse" color-interpolation-filters="sRGB">
<feFlood flood-opacity="0" result="BackgroundImageFix"/>
<feBlend mode="normal" in="SourceGraphic" in2="BackgroundImageFix" result="shape"/>
<feGaussianBlur stdDeviation="8.40748" result="effect1_foregroundBlur_5003_60339"/>
</filter>
<filter id="filter18_f_5003_60339" x="554.934" y="468.108" width="490.868" height="195.195" filterUnits="userSpaceOnUse" color-interpolation-filters="sRGB">
<feFlood flood-opacity="0" result="BackgroundImageFix"/>
<feBlend mode="normal" in="SourceGraphic" in2="BackgroundImageFix" result="shape"/>
<feGaussianBlur stdDeviation="18.2986" result="effect1_foregroundBlur_5003_60339"/>
</filter>
<filter id="filter19_f_5003_60339" x="602.636" y="474.469" width="490.992" height="248.554" filterUnits="userSpaceOnUse" color-interpolation-filters="sRGB">
<feFlood flood-opacity="0" result="BackgroundImageFix"/>
<feBlend mode="normal" in="SourceGraphic" in2="BackgroundImageFix" result="shape"/>
<feGaussianBlur stdDeviation="32.1462" result="effect1_foregroundBlur_5003_60339"/>
</filter>
<filter id="filter20_f_5003_60339" x="416.929" y="239.306" width="381.749" height="321.729" filterUnits="userSpaceOnUse" color-interpolation-filters="sRGB">
<feFlood flood-opacity="0" result="BackgroundImageFix"/>
<feBlend mode="normal" in="SourceGraphic" in2="BackgroundImageFix" result="shape"/>
<feGaussianBlur stdDeviation="1.63628" result="effect1_foregroundBlur_5003_60339"/>
</filter>
<filter id="filter21_f_5003_60339" x="405.698" y="224.032" width="398.111" height="338.091" filterUnits="userSpaceOnUse" color-interpolation-filters="sRGB">
<feFlood flood-opacity="0" result="BackgroundImageFix"/>
<feBlend mode="normal" in="SourceGraphic" in2="BackgroundImageFix" result="shape"/>
<feGaussianBlur stdDeviation="5.72697" result="effect1_foregroundBlur_5003_60339"/>
</filter>
<filter id="filter22_f_5003_60339" x="380.872" y="187.642" width="430.998" height="371.852" filterUnits="userSpaceOnUse" color-interpolation-filters="sRGB">
<feFlood flood-opacity="0" result="BackgroundImageFix"/>
<feBlend mode="normal" in="SourceGraphic" in2="BackgroundImageFix" result="shape"/>
<feGaussianBlur stdDeviation="13.9083" result="effect1_foregroundBlur_5003_60339"/>
</filter>
<filter id="filter23_f_5003_60339" x="323.073" y="96.9011" width="496.288" height="436.268" filterUnits="userSpaceOnUse" color-interpolation-filters="sRGB">
<feFlood flood-opacity="0" result="BackgroundImageFix"/>
<feBlend mode="normal" in="SourceGraphic" in2="BackgroundImageFix" result="shape"/>
<feGaussianBlur stdDeviation="30.2711" result="effect1_foregroundBlur_5003_60339"/>
</filter>
<filter id="filter24_f_5003_60339" x="269.897" y="-22.6041" width="534.546" height="516.825" filterUnits="userSpaceOnUse" color-interpolation-filters="sRGB">
<feFlood flood-opacity="0" result="BackgroundImageFix"/>
<feBlend mode="normal" in="SourceGraphic" in2="BackgroundImageFix" result="shape"/>
<feGaussianBlur stdDeviation="53.179" result="effect1_foregroundBlur_5003_60339"/>
</filter>
<filter id="filter25_f_5003_60339" x="438.797" y="308.386" width="193.456" height="245.604" filterUnits="userSpaceOnUse" color-interpolation-filters="sRGB">
<feFlood flood-opacity="0" result="BackgroundImageFix"/>
<feBlend mode="normal" in="SourceGraphic" in2="BackgroundImageFix" result="shape"/>
<feGaussianBlur stdDeviation="1.63628" result="effect1_foregroundBlur_5003_60339"/>
</filter>
<filter id="filter26_f_5003_60339" x="425.878" y="299.552" width="209.819" height="261.966" filterUnits="userSpaceOnUse" color-interpolation-filters="sRGB">
<feFlood flood-opacity="0" result="BackgroundImageFix"/>
<feBlend mode="normal" in="SourceGraphic" in2="BackgroundImageFix" result="shape"/>
<feGaussianBlur stdDeviation="5.72697" result="effect1_foregroundBlur_5003_60339"/>
</filter>
<filter id="filter27_f_5003_60339" x="396.095" y="281.392" width="243.322" height="294.702" filterUnits="userSpaceOnUse" color-interpolation-filters="sRGB">
<feFlood flood-opacity="0" result="BackgroundImageFix"/>
<feBlend mode="normal" in="SourceGraphic" in2="BackgroundImageFix" result="shape"/>
<feGaussianBlur stdDeviation="13.9083" result="effect1_foregroundBlur_5003_60339"/>
</filter>
<filter id="filter28_f_5003_60339" x="324.67" y="243.292" width="307.995" height="360.143" filterUnits="userSpaceOnUse" color-interpolation-filters="sRGB">
<feFlood flood-opacity="0" result="BackgroundImageFix"/>
<feBlend mode="normal" in="SourceGraphic" in2="BackgroundImageFix" result="shape"/>
<feGaussianBlur stdDeviation="30.2711" result="effect1_foregroundBlur_5003_60339"/>
</filter>
<filter id="filter29_f_5003_60339" x="226.37" y="209.023" width="398.779" height="414.124" filterUnits="userSpaceOnUse" color-interpolation-filters="sRGB">
<feFlood flood-opacity="0" result="BackgroundImageFix"/>
<feBlend mode="normal" in="SourceGraphic" in2="BackgroundImageFix" result="shape"/>
<feGaussianBlur stdDeviation="53.179" result="effect1_foregroundBlur_5003_60339"/>
</filter>
<filter id="filter30_f_5003_60339" x="649.493" y="368.169" width="250.244" height="253.254" filterUnits="userSpaceOnUse" color-interpolation-filters="sRGB">
<feFlood flood-opacity="0" result="BackgroundImageFix"/>
<feBlend mode="normal" in="SourceGraphic" in2="BackgroundImageFix" result="shape"/>
<feGaussianBlur stdDeviation="1.63628" result="effect1_foregroundBlur_5003_60339"/>
</filter>
<filter id="filter31_f_5003_60339" x="637.354" y="363.759" width="266.607" height="269.617" filterUnits="userSpaceOnUse" color-interpolation-filters="sRGB">
<feFlood flood-opacity="0" result="BackgroundImageFix"/>
<feBlend mode="normal" in="SourceGraphic" in2="BackgroundImageFix" result="shape"/>
<feGaussianBlur stdDeviation="5.72697" result="effect1_foregroundBlur_5003_60339"/>
</filter>
<filter id="filter32_f_5003_60339" x="609.899" y="357.574" width="299.749" height="302.715" filterUnits="userSpaceOnUse" color-interpolation-filters="sRGB">
<feFlood flood-opacity="0" result="BackgroundImageFix"/>
<feBlend mode="normal" in="SourceGraphic" in2="BackgroundImageFix" result="shape"/>
<feGaussianBlur stdDeviation="13.9083" result="effect1_foregroundBlur_5003_60339"/>
</filter>
<filter id="filter33_f_5003_60339" x="466.003" y="364.761" width="433.827" height="434.72" filterUnits="userSpaceOnUse" color-interpolation-filters="sRGB">
<feFlood flood-opacity="0" result="BackgroundImageFix"/>
<feBlend mode="normal" in="SourceGraphic" in2="BackgroundImageFix" result="shape"/>
<feGaussianBlur stdDeviation="53.179" result="effect1_foregroundBlur_5003_60339"/>
</filter>
<filter id="filter34_f_5003_60339" x="675.607" y="465.099" width="174.796" height="140.088" filterUnits="userSpaceOnUse" color-interpolation-filters="sRGB">
<feFlood flood-opacity="0" result="BackgroundImageFix"/>
<feBlend mode="normal" in="SourceGraphic" in2="BackgroundImageFix" result="shape"/>
<feGaussianBlur stdDeviation="1.63628" result="effect1_foregroundBlur_5003_60339"/>
</filter>
<filter id="filter35_f_5003_60339" x="668.158" y="460.222" width="191.158" height="156.451" filterUnits="userSpaceOnUse" color-interpolation-filters="sRGB">
<feFlood flood-opacity="0" result="BackgroundImageFix"/>
<feBlend mode="normal" in="SourceGraphic" in2="BackgroundImageFix" result="shape"/>
<feGaussianBlur stdDeviation="5.72697" result="effect1_foregroundBlur_5003_60339"/>
</filter>
<filter id="filter36_f_5003_60339" x="653.803" y="452.685" width="223.905" height="189.706" filterUnits="userSpaceOnUse" color-interpolation-filters="sRGB">
<feFlood flood-opacity="0" result="BackgroundImageFix"/>
<feBlend mode="normal" in="SourceGraphic" in2="BackgroundImageFix" result="shape"/>
<feGaussianBlur stdDeviation="13.9083" result="effect1_foregroundBlur_5003_60339"/>
</filter>
<filter id="filter37_f_5003_60339" x="627.138" y="447.487" width="289.335" height="254.627" filterUnits="userSpaceOnUse" color-interpolation-filters="sRGB">
<feFlood flood-opacity="0" result="BackgroundImageFix"/>
<feBlend mode="normal" in="SourceGraphic" in2="BackgroundImageFix" result="shape"/>
<feGaussianBlur stdDeviation="30.2711" result="effect1_foregroundBlur_5003_60339"/>
</filter>
<filter id="filter38_f_5003_60339" x="602.504" y="439.326" width="354.98" height="344.759" filterUnits="userSpaceOnUse" color-interpolation-filters="sRGB">
<feFlood flood-opacity="0" result="BackgroundImageFix"/>
<feBlend mode="normal" in="SourceGraphic" in2="BackgroundImageFix" result="shape"/>
<feGaussianBlur stdDeviation="53.179" result="effect1_foregroundBlur_5003_60339"/>
</filter>
<linearGradient id="paint0_linear_5003_60339" x1="855.739" y1="503.14" x2="855.739" y2="9.10547" gradientUnits="userSpaceOnUse">
<stop stopColor="white"/>
<stop offset="1" stopColor="white" stop-opacity="0"/>
</linearGradient>
<linearGradient id="paint1_linear_5003_60339" x1="1407.65" y1="554.36" x2="1407.65" y2="60.3262" gradientUnits="userSpaceOnUse">
<stop stopColor="white"/>
<stop offset="1" stopColor="white" stop-opacity="0"/>
</linearGradient>
<linearGradient id="paint2_linear_5003_60339" x1="1413.39" y1="1039.24" x2="1413.39" y2="440.939" gradientUnits="userSpaceOnUse">
<stop stopColor="white"/>
<stop offset="1" stopColor="white" stop-opacity="0"/>
</linearGradient>
<linearGradient id="paint3_linear_5003_60339" x1="383.307" y1="353.993" x2="383.307" y2="2.75401e-06" gradientUnits="userSpaceOnUse">
<stop stopColor="white"/>
<stop offset="1" stopColor="white" stop-opacity="0"/>
</linearGradient>
<linearGradient id="paint4_linear_5003_60339" x1="584.857" y1="635.656" x2="584.857" y2="109.9" gradientUnits="userSpaceOnUse">
<stop stopColor="white"/>
<stop offset="1" stopColor="white" stop-opacity="0"/>
</linearGradient>
<linearGradient id="paint5_linear_5003_60339" x1="489.692" y1="880.594" x2="489.692" y2="554.971" gradientUnits="userSpaceOnUse">
<stop stopColor="white"/>
<stop offset="1" stopColor="white" stop-opacity="0"/>
</linearGradient>
<linearGradient id="paint6_linear_5003_60339" x1="955.319" y1="1209.41" x2="955.319" y2="837.277" gradientUnits="userSpaceOnUse">
<stop stopColor="white"/>
<stop offset="1" stopColor="white" stop-opacity="0"/>
</linearGradient>
</defs>
</svg>
