<svg width="961" height="791" viewBox="0 0 961 791" fill="none" xmlns="http://www.w3.org/2000/svg">
<path d="M960.095 0L960.095 791M960.095 60.4052H6.10352e-05M960.095 121.251H6.10352e-05M960.095 182.098H6.10352e-05M960.095 242.944H6.10352e-05M960.095 303.79H6.10352e-05M960.095 364.636H6.10352e-05M960.095 425.482H6.10352e-05M960.095 486.328H6.10352e-05M960.095 547.174H6.10352e-05M960.095 608.021H6.10352e-05M960.095 668.867H6.10352e-05M960.095 729.713H6.10352e-05M839.642 0L839.642 791M779.636 0L779.636 791M719.63 0L719.63 791M659.624 0L659.624 791M599.618 0V791M539.612 0L539.612 791M479.606 0L479.606 791M419.6 0L419.6 791M359.594 0L359.594 791M299.588 0L299.588 791M239.583 0V791M179.577 0V791M119.571 0V791M59.5648 0L59.5648 791M899.647 0L899.647 791" stroke="url(#paint0_linear_4703_17732)"/>
<defs>
<linearGradient id="paint0_linear_4703_17732" x1="489.095" y1="-57.5" x2="496.095" y2="497" gradientUnits="userSpaceOnUse">
<stop stopColor="#FAE8D4"/>
<stop offset="1" stopColor="white"/>
</linearGradient>
</defs>
</svg>
