<svg width="280" height="14" viewBox="0 0 280 14" fill="none" xmlns="http://www.w3.org/2000/svg">
<path d="M0 13.9845C23.0808 9.20997 46.3282 5.8198 69.631 3.53143L87.1186 2.02469L104.627 0.932297L122.149 0.282514L139.671 0L157.201 0.178926L174.723 0.72512L192.231 1.72334C198.067 2.15653 203.897 2.6368 209.726 3.12649C233.036 5.2736 256.29 8.53193 279.385 13.184C256.123 10.4813 232.855 8.25884 209.573 6.79918C203.751 6.50725 197.929 6.19648 192.106 5.84805L174.633 5.18885L157.159 4.78391L139.678 4.70857L122.205 4.87808L104.731 5.37719L87.2574 6.13998L69.7906 7.1947C46.5086 8.77678 23.2543 11.1405 0 13.9845Z" fill="#FBCCD2"/>
</svg>
